<?xml version="1.0" encoding="UTF-8" standalone="no"?>
<!-- Created with Inkscape (http://www.inkscape.org/) -->

<svg
   xmlns:dc="http://purl.org/dc/elements/1.1/"
   xmlns:cc="http://creativecommons.org/ns#"
   xmlns:rdf="http://www.w3.org/1999/02/22-rdf-syntax-ns#"
   xmlns:svg="http://www.w3.org/2000/svg"
   xmlns="http://www.w3.org/2000/svg"
   xmlns:sodipodi="http://sodipodi.sourceforge.net/DTD/sodipodi-0.dtd"
   xmlns:inkscape="http://www.inkscape.org/namespaces/inkscape"
   width="1000"
   height="1000"
   viewBox="0 0 264.58333 264.58334"
   version="1.1"
   id="svg8"
   inkscape:version="0.92.4 (5da689c313, 2019-01-14)"
   sodipodi:docname="f.svg">
  <defs
     id="defs2" />
  <sodipodi:namedview
     id="base"
     pagecolor="#ffffff"
     bordercolor="#666666"
     borderopacity="1.0"
     inkscape:pageopacity="0.0"
     inkscape:pageshadow="2"
     inkscape:zoom="1.4"
     inkscape:cx="136.96714"
     inkscape:cy="446.95498"
     inkscape:document-units="mm"
     inkscape:current-layer="layer1"
     showgrid="false"
     units="px"
     inkscape:window-width="1600"
     inkscape:window-height="1149"
     inkscape:window-x="0"
     inkscape:window-y="26"
     inkscape:window-maximized="1"
     showguides="true"
     inkscape:guide-bbox="true">
    <sodipodi:guide
       position="0,52.916667"
       orientation="0,1"
       id="guide29"
       inkscape:locked="false"
       inkscape:label=""
       inkscape:color="rgb(0,0,255)" />
    <sodipodi:guide
       position="57.150382,139.09526"
       orientation="0,1"
       id="guide913"
       inkscape:locked="false" />
    <sodipodi:guide
       position="35.605739,52.916672"
       orientation="1,0"
       id="guide1095"
       inkscape:locked="false" />
    <sodipodi:guide
       position="35.605739,203.7292"
       orientation="0,1"
       id="guide1097"
       inkscape:locked="false" />
    <sodipodi:guide
       position="143.32896,52.916672"
       orientation="1,0"
       id="guide1099"
       inkscape:locked="false" />
    <sodipodi:guide
       position="97.161864,52.916687"
       orientation="1,0"
       id="guide1238"
       inkscape:locked="false" />
    <sodipodi:guide
       position="35.605739,102.16158"
       orientation="0,1"
       id="guide1240"
       inkscape:locked="false" />
  </sodipodi:namedview>
  <metadata
     id="metadata5">
    <rdf:RDF>
      <cc:Work
         rdf:about="">
        <dc:format>image/svg+xml</dc:format>
        <dc:type
           rdf:resource="http://purl.org/dc/dcmitype/StillImage" />
        <dc:title />
      </cc:Work>
    </rdf:RDF>
  </metadata>
  <g
     inkscape:label="Layer 1"
     inkscape:groupmode="layer"
     id="layer1"
     transform="translate(0,-32.41665)">
    <path
       style="fill:#010101;fill-opacity:1;fill-rule:nonzero;stroke:#ffffff;stroke-width:0;stroke-miterlimit:4;stroke-dasharray:none;stroke-opacity:1;paint-order:normal"
       d="M 233.98438 474.28516 C 230.46674 474.28516 227.63477 477.11713 227.63477 480.63477 L 227.63477 514.4668 C 227.63477 517.76458 230.12246 520.4592 233.33203 520.7832 C 233.546 520.8048 233.76452 520.81641 233.98438 520.81641 L 267.81445 520.81641 L 280.51367 520.81641 L 314.3457 520.81641 C 317.86334 520.81641 320.69531 517.98444 320.69531 514.4668 L 320.69531 480.63477 C 320.69531 477.11713 317.86334 474.28516 314.3457 474.28516 L 280.51367 474.28516 L 267.81445 474.28516 L 233.98438 474.28516 z M 187.45312 520.81641 C 183.93549 520.81641 181.10352 523.64838 181.10352 527.16602 L 181.10352 560.99805 L 181.10352 573.69727 L 181.10352 607.52734 L 181.10352 613.87695 L 140.92188 613.87695 C 140.26232 613.87695 139.62649 613.97714 139.0293 614.16211 C 138.83082 614.22358 138.63482 614.29518 138.44531 614.375 C 136.16571 615.33674 134.57227 617.58896 134.57227 620.22656 L 134.57227 654.05859 C 134.57227 656.47697 135.91099 658.57179 137.89062 659.64453 C 138.07059 659.74205 138.25527 659.83004 138.44531 659.91016 C 138.44531 659.91016 138.44727 659.91016 138.44727 659.91016 C 139.20742 660.23061 140.04247 660.4082 140.92188 660.4082 L 181.10352 660.4082 L 181.10352 666.75781 L 181.10352 700.58984 L 181.10352 713.28906 L 181.10352 747.11914 L 181.10352 762.18164 L 181.10352 793.65039 C 181.10352 797.16803 183.93549 800 187.45312 800 L 221.28516 800 C 224.8028 800 227.63477 797.16803 227.63477 793.65039 L 227.63477 759.81836 L 227.63477 747.11914 L 227.63477 713.28906 L 227.63477 700.58984 L 227.63477 666.75781 L 227.63477 660.4082 L 309.44727 660.4082 L 314.3457 660.4082 C 317.86334 660.4082 320.69531 657.57623 320.69531 654.05859 L 320.69531 620.22656 C 320.69531 616.70892 317.86334 613.87695 314.3457 613.87695 L 309.44727 613.87695 L 227.63477 613.87695 L 227.63477 607.52734 L 227.63477 573.69727 L 227.63477 560.67578 L 227.63477 527.16602 C 227.63477 523.64838 224.8028 520.81641 221.28516 520.81641 L 187.45312 520.81641 z "
       transform="matrix(0.26458333,0,0,0.26458333,0,32.41665)"
       id="rect860" />
  </g>
</svg>
