<?xml version="1.0" encoding="UTF-8" standalone="no"?>
<!-- Created with Inkscape (http://www.inkscape.org/) -->

<svg
   xmlns:dc="http://purl.org/dc/elements/1.1/"
   xmlns:cc="http://creativecommons.org/ns#"
   xmlns:rdf="http://www.w3.org/1999/02/22-rdf-syntax-ns#"
   xmlns:svg="http://www.w3.org/2000/svg"
   xmlns="http://www.w3.org/2000/svg"
   xmlns:sodipodi="http://sodipodi.sourceforge.net/DTD/sodipodi-0.dtd"
   xmlns:inkscape="http://www.inkscape.org/namespaces/inkscape"
   width="1000"
   height="1000"
   viewBox="0 0 264.58333 264.58334"
   version="1.1"
   id="svg8"
   inkscape:version="0.92.4 (5da689c313, 2019-01-14)"
   sodipodi:docname="p.svg">
  <defs
     id="defs2" />
  <sodipodi:namedview
     id="base"
     pagecolor="#ffffff"
     bordercolor="#666666"
     borderopacity="1.0"
     inkscape:pageopacity="0.0"
     inkscape:pageshadow="2"
     inkscape:zoom="1.4"
     inkscape:cx="177.10665"
     inkscape:cy="266.95091"
     inkscape:document-units="mm"
     inkscape:current-layer="layer1"
     showgrid="false"
     units="px"
     inkscape:window-width="1600"
     inkscape:window-height="1149"
     inkscape:window-x="0"
     inkscape:window-y="26"
     inkscape:window-maximized="1"
     showguides="true"
     inkscape:guide-bbox="true">
    <sodipodi:guide
       position="0,52.916667"
       orientation="0,1"
       id="guide29"
       inkscape:locked="false"
       inkscape:label=""
       inkscape:color="rgb(0,0,255)" />
    <sodipodi:guide
       position="57.150382,139.09526"
       orientation="0,1"
       id="guide913"
       inkscape:locked="false" />
    <sodipodi:guide
       position="35.605739,52.916672"
       orientation="1,0"
       id="guide1095"
       inkscape:locked="false" />
    <sodipodi:guide
       position="35.605739,203.7292"
       orientation="0,1"
       id="guide1097"
       inkscape:locked="false" />
    <sodipodi:guide
       position="143.32896,52.916672"
       orientation="1,0"
       id="guide1099"
       inkscape:locked="false" />
    <sodipodi:guide
       position="97.161864,52.916687"
       orientation="1,0"
       id="guide1238"
       inkscape:locked="false" />
    <sodipodi:guide
       position="35.605739,102.16158"
       orientation="0,1"
       id="guide1240"
       inkscape:locked="false" />
  </sodipodi:namedview>
  <metadata
     id="metadata5">
    <rdf:RDF>
      <cc:Work
         rdf:about="">
        <dc:format>image/svg+xml</dc:format>
        <dc:type
           rdf:resource="http://purl.org/dc/dcmitype/StillImage" />
        <dc:title />
      </cc:Work>
    </rdf:RDF>
  </metadata>
  <g
     inkscape:label="Layer 1"
     inkscape:groupmode="layer"
     id="layer1"
     transform="translate(0,-32.41665)">
    <path
       style="fill:#010101;fill-opacity:1;fill-rule:nonzero;stroke:#ffffff;stroke-width:0;stroke-miterlimit:4;stroke-dasharray:none;stroke-opacity:1;paint-order:normal"
       d="M 140.92188 613.87695 C 137.40424 613.87695 134.57227 616.70892 134.57227 620.22656 L 134.57227 654.05859 C 134.57227 654.37001 134.60163 654.67348 134.64453 654.97266 C 134.60166 656.07999 134.57227 657.19526 134.57227 658.32422 L 134.57227 666.75781 L 134.57227 700.58984 L 134.57227 713.28906 L 134.57227 747.11914 L 134.57227 759.81836 L 134.57227 793.65039 L 134.57227 806.34961 L 134.57227 840.18164 L 134.57227 852.88086 L 134.57227 886.71094 L 134.57227 895.14453 C 134.57227 896.27318 134.60169 897.38906 134.64453 898.49609 C 134.60156 898.79553 134.57227 899.09846 134.57227 899.41016 L 134.57227 933.24219 C 134.57227 936.75983 137.40424 939.5918 140.92188 939.5918 L 174.75391 939.5918 C 178.27155 939.5918 181.10352 936.75983 181.10352 933.24219 L 181.10352 899.41016 C 181.10352 899.10179 181.07333 898.80224 181.03125 898.50586 C 181.07435 897.39561 181.10352 896.27653 181.10352 895.14453 L 181.10352 886.71094 L 181.10352 852.88086 L 181.10352 840.18164 L 181.10352 806.34961 L 181.10352 800 L 280.51367 800 L 314.3457 800 L 360.87695 800 C 361.75636 800 362.59336 799.82241 363.35352 799.50195 C 363.54298 799.42202 363.72875 799.33357 363.9082 799.23633 C 365.88783 798.16359 367.22656 796.06877 367.22656 793.65039 L 367.22656 759.81836 L 367.22656 679.45703 L 367.22656 666.75781 C 367.22656 663.24017 364.39459 660.4082 360.87695 660.4082 L 327.04492 660.4082 C 323.52728 660.4082 320.69531 663.24017 320.69531 666.75781 L 320.69531 700.58984 L 320.69531 753.46875 L 314.3457 753.46875 L 280.51367 753.46875 L 181.10352 753.46875 L 181.10352 747.11914 L 181.10352 713.28906 L 181.10352 700.58984 L 181.10352 666.75781 L 181.10352 660.4082 L 300.67188 660.4082 L 314.3457 660.4082 C 317.86334 660.4082 320.69531 657.57623 320.69531 654.05859 L 320.69531 620.22656 C 320.69531 616.70892 317.86334 613.87695 314.3457 613.87695 L 300.67188 613.87695 L 157.83789 613.87695 L 140.92188 613.87695 z "
       transform="matrix(0.26458333,0,0,0.26458333,0,32.41665)"
       id="rect1193" />
  </g>
</svg>
