<?xml version="1.0" encoding="UTF-8" standalone="no"?>
<!-- Created with Inkscape (http://www.inkscape.org/) -->

<svg
   xmlns:dc="http://purl.org/dc/elements/1.1/"
   xmlns:cc="http://creativecommons.org/ns#"
   xmlns:rdf="http://www.w3.org/1999/02/22-rdf-syntax-ns#"
   xmlns:svg="http://www.w3.org/2000/svg"
   xmlns="http://www.w3.org/2000/svg"
   xmlns:sodipodi="http://sodipodi.sourceforge.net/DTD/sodipodi-0.dtd"
   xmlns:inkscape="http://www.inkscape.org/namespaces/inkscape"
   width="1000"
   height="1000"
   viewBox="0 0 264.58333 264.58334"
   version="1.1"
   id="svg8"
   inkscape:version="0.92.4 (5da689c313, 2019-01-14)"
   sodipodi:docname="!.svg">
  <defs
     id="defs2" />
  <sodipodi:namedview
     id="base"
     pagecolor="#ffffff"
     bordercolor="#666666"
     borderopacity="1.0"
     inkscape:pageopacity="0.0"
     inkscape:pageshadow="2"
     inkscape:zoom="0.98994949"
     inkscape:cx="293.38922"
     inkscape:cy="427.88548"
     inkscape:document-units="mm"
     inkscape:current-layer="layer1"
     showgrid="false"
     units="px"
     inkscape:window-width="1600"
     inkscape:window-height="1149"
     inkscape:window-x="0"
     inkscape:window-y="26"
     inkscape:window-maximized="1"
     showguides="true"
     inkscape:guide-bbox="true">
    <sodipodi:guide
       position="0,52.916667"
       orientation="0,1"
       id="guide29"
       inkscape:locked="false"
       inkscape:label=""
       inkscape:color="rgb(0,0,255)" />
    <sodipodi:guide
       position="100.23967,139.09526"
       orientation="0,1"
       id="guide913"
       inkscape:locked="false" />
    <sodipodi:guide
       position="35.605739,203.7292"
       orientation="0,1"
       id="guide30"
       inkscape:locked="false" />
    <sodipodi:guide
       position="35.605739,52.916672"
       orientation="1,0"
       id="guide32"
       inkscape:locked="false" />
    <sodipodi:guide
       position="143.32896,52.916672"
       orientation="1,0"
       id="guide34"
       inkscape:locked="false" />
  </sodipodi:namedview>
  <metadata
     id="metadata5">
    <rdf:RDF>
      <cc:Work
         rdf:about="">
        <dc:format>image/svg+xml</dc:format>
        <dc:type
           rdf:resource="http://purl.org/dc/dcmitype/StillImage" />
        <dc:title />
      </cc:Work>
    </rdf:RDF>
  </metadata>
  <g
     inkscape:label="Layer 1"
     inkscape:groupmode="layer"
     id="layer1"
     transform="translate(0,-32.41665)">
    <g
       transform="matrix(0.26458333,0,0,0.26458333,0,32.41665)"
       style="font-style:normal;font-variant:normal;font-weight:normal;font-stretch:normal;font-size:32px;line-height:1.25;font-family:sans-serif;-inkscape-font-specification:sans-serif;text-align:start;letter-spacing:0px;word-spacing:0px;text-anchor:start;fill:#000000;fill-opacity:1;stroke:none"
       id="flowRoot985" />
    <path
       style="fill:#010101;fill-opacity:1;fill-rule:nonzero;stroke:#ffffff;stroke-width:0;stroke-miterlimit:4;stroke-dasharray:none;stroke-opacity:1;paint-order:normal"
       d="M 338.14453 230 C 315.58882 230 297.42969 248.15914 297.42969 270.71484 C 297.42969 271.5951 297.46699 272.46599 297.52148 273.33203 C 297.46681 274.05968 297.42969 274.79305 297.42969 275.53516 L 297.42969 403.96875 L 297.42969 428.75195 L 297.42969 436.05859 L 297.42969 463.17383 L 297.42969 593.93945 C 297.42969 594.35351 297.44428 594.764 297.46094 595.17383 C 297.44838 595.59163 297.42969 596.00678 297.42969 596.42773 C 297.42969 618.98343 315.58882 637.14258 338.14453 637.14258 C 360.70024 637.14258 378.85938 618.98343 378.85938 596.42773 C 378.85938 596.00678 378.84068 595.59163 378.82812 595.17383 C 378.84478 594.764 378.85937 594.35351 378.85938 593.93945 L 378.85938 463.17383 L 378.85938 436.05859 L 378.85938 428.75195 L 378.85938 403.96875 L 378.85938 275.53516 C 378.85938 274.79439 378.82206 274.06229 378.76758 273.33594 C 378.82223 272.46863 378.85937 271.59641 378.85938 270.71484 C 378.85938 248.15914 360.70024 230 338.14453 230 z M 338.14453 718.57227 C 315.58882 718.57227 297.42969 736.72946 297.42969 759.28516 C 297.42969 781.84089 315.58882 800 338.14453 800 C 360.70024 800 378.85938 781.84089 378.85938 759.28516 C 378.85938 736.72946 360.70024 718.57227 338.14453 718.57227 z "
       transform="matrix(0.26458333,0,0,0.26458333,0,32.41665)"
       id="rect1698" />
  </g>
</svg>
