<?xml version="1.0" encoding="UTF-8" standalone="no"?>
<!-- Created with Inkscape (http://www.inkscape.org/) -->

<svg
   xmlns:dc="http://purl.org/dc/elements/1.1/"
   xmlns:cc="http://creativecommons.org/ns#"
   xmlns:rdf="http://www.w3.org/1999/02/22-rdf-syntax-ns#"
   xmlns:svg="http://www.w3.org/2000/svg"
   xmlns="http://www.w3.org/2000/svg"
   xmlns:sodipodi="http://sodipodi.sourceforge.net/DTD/sodipodi-0.dtd"
   xmlns:inkscape="http://www.inkscape.org/namespaces/inkscape"
   width="1000"
   height="1000"
   viewBox="0 0 264.58333 264.58334"
   version="1.1"
   id="svg8"
   inkscape:version="0.92.4 (5da689c313, 2019-01-14)"
   sodipodi:docname="$.svg">
  <defs
     id="defs2" />
  <sodipodi:namedview
     id="base"
     pagecolor="#ffffff"
     bordercolor="#666666"
     borderopacity="1.0"
     inkscape:pageopacity="0.0"
     inkscape:pageshadow="2"
     inkscape:zoom="1.1203062"
     inkscape:cx="307.34788"
     inkscape:cy="453.46905"
     inkscape:document-units="mm"
     inkscape:current-layer="layer1"
     showgrid="false"
     units="px"
     inkscape:window-width="1600"
     inkscape:window-height="1149"
     inkscape:window-x="0"
     inkscape:window-y="26"
     inkscape:window-maximized="1"
     showguides="true"
     inkscape:guide-bbox="true">
    <sodipodi:guide
       position="0,52.916667"
       orientation="0,1"
       id="guide29"
       inkscape:locked="false"
       inkscape:label=""
       inkscape:color="rgb(0,0,255)" />
    <sodipodi:guide
       position="100.23967,139.09526"
       orientation="0,1"
       id="guide913"
       inkscape:locked="false" />
    <sodipodi:guide
       position="35.605739,203.7292"
       orientation="0,1"
       id="guide30"
       inkscape:locked="false" />
    <sodipodi:guide
       position="35.605739,52.916672"
       orientation="1,0"
       id="guide32"
       inkscape:locked="false" />
    <sodipodi:guide
       position="143.32896,52.916672"
       orientation="1,0"
       id="guide34"
       inkscape:locked="false" />
  </sodipodi:namedview>
  <metadata
     id="metadata5">
    <rdf:RDF>
      <cc:Work
         rdf:about="">
        <dc:format>image/svg+xml</dc:format>
        <dc:type
           rdf:resource="http://purl.org/dc/dcmitype/StillImage" />
        <dc:title />
      </cc:Work>
    </rdf:RDF>
  </metadata>
  <g
     inkscape:label="Layer 1"
     inkscape:groupmode="layer"
     id="layer1"
     transform="translate(0,-32.41665)">
    <path
       style="fill:#010101;fill-opacity:1;fill-rule:nonzero;stroke:#ffffff;stroke-width:0;stroke-miterlimit:4;stroke-dasharray:none;stroke-opacity:1;paint-order:normal"
       d="M 338.14453 148.57227 C 315.58882 148.57227 297.42969 166.72945 297.42969 189.28516 C 297.42969 190.13218 297.46319 190.97079 297.51367 191.80469 C 297.46439 192.35957 297.42969 192.91821 297.42969 193.48633 L 297.42969 230 L 263.73242 230 C 262.90665 230 262.10359 230.09438 261.33008 230.26367 C 259.81533 230.09419 258.27631 230 256.71484 230 C 234.15913 230 216.00195 248.15913 216.00195 270.71484 C 216.00195 293.27055 234.15913 311.42773 256.71484 311.42773 C 258.27631 311.42773 259.81533 311.33354 261.33008 311.16406 C 262.10359 311.33335 262.90665 311.42773 263.73242 311.42773 L 297.42969 311.42773 L 297.42969 412.83008 L 297.42969 474.28516 L 216.00195 474.28516 L 216.00195 357.60352 C 216.00195 356.75152 215.95724 355.91069 215.88477 355.07812 C 215.95337 354.10762 216.00195 353.13114 216.00195 352.14258 C 216.00195 329.58687 197.84282 311.42773 175.28711 311.42773 C 152.7314 311.42773 134.57227 329.58687 134.57227 352.14258 C 134.57227 353.13114 134.62085 354.10762 134.68945 355.07812 C 134.61698 355.91069 134.57227 356.75152 134.57227 357.60352 L 134.57227 509.53906 C 134.57227 510.39106 134.61698 511.23189 134.68945 512.06445 C 134.62085 513.03496 134.57227 514.01144 134.57227 515 C 134.57227 537.55571 152.7314 555.71484 175.28711 555.71484 C 175.89764 555.71484 176.50361 555.69626 177.10742 555.66992 C 177.4009 555.69297 177.69454 555.71484 177.99414 555.71484 L 297.42969 555.71484 L 297.42969 676.19922 L 297.42969 718.57227 L 177.99414 718.57227 C 177.68728 718.57227 177.38637 718.59302 177.08594 718.61719 C 176.48917 718.59147 175.89044 718.57227 175.28711 718.57227 C 152.7314 718.57227 134.57227 736.72945 134.57227 759.28516 C 134.57227 781.84087 152.7314 800 175.28711 800 C 175.89044 800 176.48917 799.9808 177.08594 799.95508 C 177.38637 799.97924 177.68728 800 177.99414 800 L 297.42969 800 L 297.42969 834.22852 C 297.42969 835.26702 297.48173 836.29285 297.58008 837.30469 C 297.48757 838.42956 297.42969 839.56531 297.42969 840.71484 C 297.42969 863.27055 315.58882 881.42773 338.14453 881.42773 C 360.70024 881.42773 378.85938 863.27055 378.85938 840.71484 C 378.85938 839.56793 378.79912 838.43486 378.70703 837.3125 C 378.80588 836.29812 378.85938 835.26971 378.85938 834.22852 L 378.85938 800 L 498.7207 800 C 498.97938 800 499.23217 799.98011 499.48633 799.96289 C 499.99004 799.98118 500.49362 800 501.00195 800 C 523.55766 800 541.71484 781.84087 541.71484 759.28516 C 541.71484 757.8202 541.63575 756.37526 541.48633 754.95117 C 541.63235 753.7997 541.71484 752.62793 541.71484 751.43555 L 541.71484 605.14062 L 541.71484 514.73633 C 541.71484 514.34577 541.70229 513.95892 541.67969 513.57422 C 540.93211 491.68526 523.07946 474.28516 501.00195 474.28516 C 500.48771 474.28516 499.97826 474.3055 499.46875 474.32422 C 499.22029 474.30777 498.97347 474.28516 498.7207 474.28516 L 378.85938 474.28516 L 378.85938 361.49609 L 378.85938 311.42773 L 493.12305 311.42773 C 494.05113 311.42773 494.94793 311.30226 495.80859 311.08984 C 497.50991 311.30478 499.24045 311.42773 501.00195 311.42773 C 523.55766 311.42773 541.71484 293.27055 541.71484 270.71484 C 541.71484 248.15913 523.55766 230 501.00195 230 C 499.24045 230 497.50991 230.12295 495.80859 230.33789 C 494.94793 230.12547 494.05113 230 493.12305 230 L 378.85938 230 L 378.85938 193.48633 C 378.85938 192.91689 378.8249 192.35691 378.77539 191.80078 C 378.82572 190.96817 378.85938 190.13085 378.85938 189.28516 C 378.85937 166.72945 360.70024 148.57227 338.14453 148.57227 z M 378.85938 555.71484 L 460.28711 555.71484 L 460.28711 617.79883 L 460.28711 718.57227 L 378.85938 718.57227 L 378.85938 668.28711 L 378.85938 555.71484 z "
       transform="matrix(0.26458333,0,0,0.26458333,0,32.41665)"
       id="rect24052" />
    <flowRoot
       xml:space="preserve"
       id="flowRoot985"
       style="font-style:normal;font-variant:normal;font-weight:normal;font-stretch:normal;font-size:32px;line-height:1.25;font-family:sans-serif;-inkscape-font-specification:sans-serif;text-align:start;letter-spacing:0px;word-spacing:0px;text-anchor:start;fill:#000000;fill-opacity:1;stroke:none"
       transform="matrix(0.26458333,0,0,0.26458333,0,32.41665)"><flowRegion
         id="flowRegion987"><rect
           id="rect989"
           width="127.27922"
           height="147.04723"
           x="581.84784"
           y="327.2384" /></flowRegion><flowPara
         id="flowPara991"
         style="font-style:normal;font-variant:normal;font-weight:normal;font-stretch:normal;font-family:Hack;-inkscape-font-specification:Hack" /></flowRoot>  </g>
</svg>
