<?xml version="1.0" encoding="UTF-8" standalone="no"?>
<!-- Created with Inkscape (http://www.inkscape.org/) -->

<svg
   xmlns:dc="http://purl.org/dc/elements/1.1/"
   xmlns:cc="http://creativecommons.org/ns#"
   xmlns:rdf="http://www.w3.org/1999/02/22-rdf-syntax-ns#"
   xmlns:svg="http://www.w3.org/2000/svg"
   xmlns="http://www.w3.org/2000/svg"
   xmlns:sodipodi="http://sodipodi.sourceforge.net/DTD/sodipodi-0.dtd"
   xmlns:inkscape="http://www.inkscape.org/namespaces/inkscape"
   width="1000"
   height="1000"
   viewBox="0 0 264.58333 264.58334"
   version="1.1"
   id="svg8"
   inkscape:version="0.92.4 (5da689c313, 2019-01-14)"
   sodipodi:docname="%.svg">
  <defs
     id="defs2" />
  <sodipodi:namedview
     id="base"
     pagecolor="#ffffff"
     bordercolor="#666666"
     borderopacity="1.0"
     inkscape:pageopacity="0.0"
     inkscape:pageshadow="2"
     inkscape:zoom="1.4"
     inkscape:cx="309.99961"
     inkscape:cy="479.15717"
     inkscape:document-units="mm"
     inkscape:current-layer="layer1"
     showgrid="false"
     units="px"
     inkscape:window-width="1600"
     inkscape:window-height="1149"
     inkscape:window-x="0"
     inkscape:window-y="26"
     inkscape:window-maximized="1"
     showguides="true"
     inkscape:guide-bbox="true">
    <sodipodi:guide
       position="0,52.916667"
       orientation="0,1"
       id="guide29"
       inkscape:locked="false"
       inkscape:label=""
       inkscape:color="rgb(0,0,255)" />
    <sodipodi:guide
       position="100.23967,139.09526"
       orientation="0,1"
       id="guide913"
       inkscape:locked="false" />
    <sodipodi:guide
       position="35.605739,203.7292"
       orientation="0,1"
       id="guide30"
       inkscape:locked="false" />
    <sodipodi:guide
       position="35.605739,52.916672"
       orientation="1,0"
       id="guide32"
       inkscape:locked="false" />
    <sodipodi:guide
       position="143.32896,52.916672"
       orientation="1,0"
       id="guide34"
       inkscape:locked="false" />
  </sodipodi:namedview>
  <metadata
     id="metadata5">
    <rdf:RDF>
      <cc:Work
         rdf:about="">
        <dc:format>image/svg+xml</dc:format>
        <dc:type
           rdf:resource="http://purl.org/dc/dcmitype/StillImage" />
        <dc:title />
      </cc:Work>
    </rdf:RDF>
  </metadata>
  <g
     inkscape:label="Layer 1"
     inkscape:groupmode="layer"
     id="layer1"
     transform="translate(0,-32.41665)">
    <path
       style="fill:#010101;fill-opacity:1;fill-rule:nonzero;stroke:#ffffff;stroke-width:0;stroke-miterlimit:4;stroke-dasharray:none;stroke-opacity:1;paint-order:normal"
       d="M 178.04883 229.88281 C 177.46249 229.88281 176.8893 229.93068 176.32227 230 C 175.96684 229.99093 175.61353 229.97266 175.25586 229.97266 C 153.01917 229.97266 135.07009 247.62498 134.56641 269.73633 C 134.56149 269.89809 134.54297 270.0557 134.54297 270.21875 L 134.54297 270.6875 L 134.54297 350.30078 C 134.54297 350.50714 134.56395 350.70775 134.57227 350.91211 C 134.56055 351.31274 134.54297 351.71173 134.54297 352.11523 C 134.54297 363.40758 139.09525 373.59754 146.4707 380.95898 C 146.93011 381.41752 147.39995 381.86461 147.88086 382.30078 C 147.88222 382.30202 147.8834 382.30345 147.88477 382.30469 C 155.10803 388.86714 164.71412 392.85742 175.28711 392.85742 C 176.01321 392.85742 176.73464 392.83796 177.45117 392.80078 C 177.64952 392.81406 177.84694 392.83008 178.04883 392.83008 L 252.67773 392.83008 C 253.12381 392.83008 253.56278 392.79835 253.99805 392.75781 C 254.89728 392.81661 255.80023 392.85742 256.71484 392.85742 C 279.27055 392.85742 297.42969 374.69829 297.42969 352.14258 C 297.42969 351.59362 297.40999 351.04941 297.38867 350.50586 C 297.39209 350.43758 297.39844 350.37003 297.39844 350.30078 L 297.39844 271.96094 C 297.41082 271.5461 297.42969 271.13278 297.42969 270.71484 C 297.42969 259.95765 293.29099 250.20363 286.52344 242.93945 C 286.52156 242.93743 286.51946 242.93562 286.51758 242.93359 C 286.08186 242.46616 285.63685 242.00888 285.17969 241.5625 C 285.16356 241.54671 285.14702 241.53139 285.13086 241.51562 C 284.71276 241.10875 284.28689 240.71093 283.85156 240.32227 C 283.71296 240.19818 283.57 240.07923 283.42969 239.95703 C 283.10645 239.6763 282.78329 239.39555 282.45117 239.125 C 282.20854 238.9268 281.95822 238.73756 281.71094 238.54492 C 281.45766 238.34816 281.20726 238.14788 280.94922 237.95703 C 280.62752 237.71843 280.2977 237.49093 279.96875 237.26172 C 279.78239 237.13222 279.59879 236.99948 279.41016 236.87305 C 278.9908 236.59116 278.56315 236.32115 278.13281 236.05469 C 278.02189 235.98621 277.91436 235.91314 277.80273 235.8457 C 271.65358 232.11964 264.43127 229.97266 256.68555 229.97266 C 255.97871 229.97266 255.27592 229.99005 254.57812 230.02539 C 253.9557 229.94149 253.32389 229.88281 252.67773 229.88281 L 178.04883 229.88281 z M 501.00195 230 C 478.44624 230 460.28711 248.15913 460.28711 270.71484 C 460.28711 270.9546 460.3006 271.19094 460.30469 271.42969 C 460.30171 271.54903 460.28711 271.66507 460.28711 271.78516 L 460.28711 346.41406 C 460.28711 347.12253 460.35649 347.81255 460.45703 348.49219 C 460.35098 349.69542 460.28711 350.91088 460.28711 352.14258 C 460.28711 374.69829 478.44624 392.85742 501.00195 392.85742 C 523.55766 392.85742 541.71484 374.69829 541.71484 352.14258 C 541.71484 350.9122 541.65075 349.69807 541.54492 348.49609 C 541.64585 347.81519 541.71484 347.12391 541.71484 346.41406 L 541.71484 271.78516 C 541.71484 271.66243 541.70037 271.54379 541.69727 271.42188 C 541.70126 271.18573 541.71484 270.95198 541.71484 270.71484 C 541.71484 248.15913 523.55766 230 501.00195 230 z M 389.9707 392.85742 C 383.81483 392.85742 378.85938 397.81288 378.85938 403.96875 L 378.85938 463.17383 C 378.85938 469.3297 383.81483 474.28516 389.9707 474.28516 L 449.17578 474.28516 C 455.33165 474.28516 460.28711 469.3297 460.28711 463.17383 L 460.28711 403.96875 C 460.28711 397.81288 455.33165 392.85742 449.17578 392.85742 L 389.9707 392.85742 z M 308.54102 474.28516 C 302.38515 474.28516 297.42969 479.24061 297.42969 485.39648 L 297.42969 544.60352 C 297.42969 550.75939 302.38515 555.71484 308.54102 555.71484 L 367.74609 555.71484 C 373.90196 555.71484 378.85938 550.75939 378.85938 544.60352 L 378.85938 485.39648 C 378.85937 479.24061 373.90196 474.28516 367.74609 474.28516 L 308.54102 474.28516 z M 227.11328 555.71484 C 220.95741 555.71484 216.00195 560.6703 216.00195 566.82617 L 216.00195 626.03125 C 216.00195 632.18712 220.95741 637.14258 227.11328 637.14258 L 286.31836 637.14258 C 292.47423 637.14258 297.42969 632.18712 297.42969 626.03125 L 297.42969 566.82617 C 297.42969 560.6703 292.47423 555.71484 286.31836 555.71484 L 227.11328 555.71484 z M 422.36523 637.05273 C 421.77889 637.05273 421.2057 637.10063 420.63867 637.16992 C 420.28326 637.16084 419.92994 637.14258 419.57227 637.14258 C 397.33558 637.14258 379.38649 654.7949 378.88281 676.90625 C 378.87772 677.06788 378.85937 677.22576 378.85938 677.38867 L 378.85938 677.85742 L 378.85938 757.4707 C 378.85938 757.67714 378.88051 757.87767 378.88867 758.08203 C 378.87713 758.48266 378.85938 758.88163 378.85938 759.28516 C 378.85938 781.84087 397.01656 800 419.57227 800 C 420.19721 800 420.81764 799.98071 421.43555 799.95312 C 421.74435 799.97328 422.05116 800 422.36523 800 L 496.99414 800 C 497.50355 800 498.00692 799.97048 498.50195 799.91797 C 499.32941 799.96767 500.16158 800 501.00195 800 C 523.55766 800 541.71484 781.84087 541.71484 759.28516 C 541.71484 758.88163 541.69709 758.48266 541.68555 758.08203 C 541.69371 757.87767 541.71484 757.67714 541.71484 757.4707 L 541.71484 677.85742 L 541.71484 677.38867 C 541.71484 677.22576 541.6965 677.06788 541.69141 676.90625 C 541.18773 654.7949 523.23864 637.14258 501.00195 637.14258 C 500.29511 637.14258 499.59232 637.16007 498.89453 637.19531 C 498.27209 637.11141 497.64029 637.05273 496.99414 637.05273 L 422.36523 637.05273 z M 175.28711 637.14258 C 152.7314 637.14258 134.57227 655.30171 134.57227 677.85742 C 134.57227 678.08539 134.58615 678.31005 134.58984 678.53711 C 134.58712 678.65125 134.57227 678.76214 134.57227 678.87695 L 134.57227 753.50586 C 134.57227 754.22112 134.64365 754.91767 134.74609 755.60352 C 134.63822 756.81687 134.57227 758.04283 134.57227 759.28516 C 134.57227 781.84087 152.7314 800 175.28711 800 C 197.84282 800 216.00195 781.84087 216.00195 759.28516 C 216.00195 758.04415 215.93577 756.81952 215.82812 755.60742 C 215.93096 754.92032 216.00195 754.22249 216.00195 753.50586 L 216.00195 678.87695 C 216.00195 678.76214 215.98704 678.65125 215.98438 678.53711 C 215.98801 678.31005 216.00195 678.08539 216.00195 677.85742 C 216.00195 655.30171 197.84282 637.14258 175.28711 637.14258 z "
       transform="matrix(0.26458333,0,0,0.26458333,0,32.41665)"
       id="rect23610" />
    <flowRoot
       xml:space="preserve"
       id="flowRoot985"
       style="font-style:normal;font-variant:normal;font-weight:normal;font-stretch:normal;font-size:32px;line-height:1.25;font-family:sans-serif;-inkscape-font-specification:sans-serif;text-align:start;letter-spacing:0px;word-spacing:0px;text-anchor:start;fill:#000000;fill-opacity:1;stroke:none"
       transform="matrix(0.26458333,0,0,0.26458333,0,32.41665)"><flowRegion
         id="flowRegion987"><rect
           id="rect989"
           width="127.27922"
           height="147.04723"
           x="581.84784"
           y="327.2384" /></flowRegion><flowPara
         id="flowPara991"
         style="font-style:normal;font-variant:normal;font-weight:normal;font-stretch:normal;font-family:Hack;-inkscape-font-specification:Hack" /></flowRoot>  </g>
</svg>
