<?xml version="1.0" encoding="UTF-8" standalone="no"?>
<!-- Created with Inkscape (http://www.inkscape.org/) -->

<svg
   xmlns:dc="http://purl.org/dc/elements/1.1/"
   xmlns:cc="http://creativecommons.org/ns#"
   xmlns:rdf="http://www.w3.org/1999/02/22-rdf-syntax-ns#"
   xmlns:svg="http://www.w3.org/2000/svg"
   xmlns="http://www.w3.org/2000/svg"
   xmlns:sodipodi="http://sodipodi.sourceforge.net/DTD/sodipodi-0.dtd"
   xmlns:inkscape="http://www.inkscape.org/namespaces/inkscape"
   width="1000"
   height="1000"
   viewBox="0 0 264.58333 264.58334"
   version="1.1"
   id="svg8"
   inkscape:version="0.92.4 (5da689c313, 2019-01-14)"
   sodipodi:docname="&amp;.svg">
  <defs
     id="defs2" />
  <sodipodi:namedview
     id="base"
     pagecolor="#ffffff"
     bordercolor="#666666"
     borderopacity="1.0"
     inkscape:pageopacity="0.0"
     inkscape:pageshadow="2"
     inkscape:zoom="0.7"
     inkscape:cx="261.4692"
     inkscape:cy="437.114"
     inkscape:document-units="mm"
     inkscape:current-layer="layer1"
     showgrid="false"
     units="px"
     inkscape:window-width="1600"
     inkscape:window-height="1149"
     inkscape:window-x="0"
     inkscape:window-y="26"
     inkscape:window-maximized="1"
     showguides="true"
     inkscape:guide-bbox="true">
    <sodipodi:guide
       position="0,52.916667"
       orientation="0,1"
       id="guide29"
       inkscape:locked="false"
       inkscape:label=""
       inkscape:color="rgb(0,0,255)" />
    <sodipodi:guide
       position="100.23967,139.09526"
       orientation="0,1"
       id="guide913"
       inkscape:locked="false" />
    <sodipodi:guide
       position="35.605739,203.7292"
       orientation="0,1"
       id="guide30"
       inkscape:locked="false" />
    <sodipodi:guide
       position="35.605739,52.916672"
       orientation="1,0"
       id="guide32"
       inkscape:locked="false" />
    <sodipodi:guide
       position="143.32896,52.916672"
       orientation="1,0"
       id="guide34"
       inkscape:locked="false" />
  </sodipodi:namedview>
  <metadata
     id="metadata5">
    <rdf:RDF>
      <cc:Work
         rdf:about="">
        <dc:format>image/svg+xml</dc:format>
        <dc:type
           rdf:resource="http://purl.org/dc/dcmitype/StillImage" />
        <dc:title />
      </cc:Work>
    </rdf:RDF>
  </metadata>
  <g
     inkscape:label="Layer 1"
     inkscape:groupmode="layer"
     id="layer1"
     transform="translate(0,-32.41665)">
    <flowRoot
       xml:space="preserve"
       id="flowRoot985"
       style="font-style:normal;font-variant:normal;font-weight:normal;font-stretch:normal;font-size:32px;line-height:1.25;font-family:sans-serif;-inkscape-font-specification:sans-serif;text-align:start;letter-spacing:0px;word-spacing:0px;text-anchor:start;fill:#000000;fill-opacity:1;stroke:none"
       transform="matrix(0.26458333,0,0,0.26458333,0,32.41665)"><flowRegion
         id="flowRegion987"><rect
           id="rect989"
           width="127.27922"
           height="147.04723"
           x="581.84784"
           y="327.2384" /></flowRegion><flowPara
         id="flowPara991"
         style="font-style:normal;font-variant:normal;font-weight:normal;font-stretch:normal;font-family:Hack;-inkscape-font-specification:Hack" /></flowRoot>    <path
       style="fill:#010101;fill-opacity:1;fill-rule:nonzero;stroke:#ffffff;stroke-width:0;stroke-miterlimit:4;stroke-dasharray:none;stroke-opacity:1;paint-order:normal"
       d="M 254.61328 230 C 253.82694 230 253.06161 230.08243 252.32227 230.23633 C 231.84852 232.41455 216.00195 249.6444 216.00195 270.71484 C 216.00195 291.78529 231.84852 309.01318 252.32227 311.19141 C 253.06161 311.34531 253.82694 311.42773 254.61328 311.42773 L 256.71484 311.42773 L 419.57227 311.42773 L 421.67578 311.42773 C 422.46215 311.42773 423.22742 311.34532 423.9668 311.19141 C 444.44054 309.01318 460.28711 291.78529 460.28711 270.71484 C 460.28711 249.6444 444.44054 232.41455 423.9668 230.23633 C 423.22742 230.08242 422.46215 230 421.67578 230 L 419.57227 230 L 256.71484 230 L 254.61328 230 z M 175.28711 311.42773 C 152.93841 311.42773 134.91699 329.25781 134.58789 351.52539 C 134.58521 351.62635 134.57227 351.72454 134.57227 351.82617 L 134.57227 425.31641 C 134.57227 426.29167 134.70952 427.23272 134.94336 428.13281 C 134.70761 429.91252 134.57227 431.7261 134.57227 433.57227 C 134.57227 456.12797 152.7314 474.28516 175.28711 474.28516 C 197.84282 474.28516 216.00195 456.12797 216.00195 433.57227 C 216.00195 431.7261 215.86661 429.91252 215.63086 428.13281 C 215.8647 427.23272 216.00195 426.29167 216.00195 425.31641 L 216.00195 351.82617 C 216.00195 351.72454 215.98901 351.62635 215.98633 351.52539 C 215.65723 329.25781 197.63581 311.42773 175.28711 311.42773 z M 501.00195 311.42773 C 478.44624 311.42773 460.28711 329.58687 460.28711 352.14258 C 460.28711 374.69829 478.44624 392.85742 501.00195 392.85742 C 523.55766 392.85742 541.71484 374.69829 541.71484 352.14258 C 541.71484 329.58687 523.55766 311.42773 501.00195 311.42773 z M 227.11328 474.28516 C 220.95741 474.28516 216.00195 479.24061 216.00195 485.39648 L 216.00195 544.60156 C 216.00195 550.75743 220.95741 555.71484 227.11328 555.71484 L 286.31836 555.71484 C 292.47423 555.71484 297.42969 550.75743 297.42969 544.60156 L 297.42969 485.39648 C 297.42969 479.24061 292.47423 474.28516 286.31836 474.28516 L 227.11328 474.28516 z M 175.28711 555.71484 C 152.7314 555.71484 134.57227 573.87203 134.57227 596.42773 C 134.57227 597.30583 134.60983 598.1751 134.66406 599.03906 C 134.61008 599.48492 134.57227 599.93559 134.57227 600.39648 L 134.57227 673.88867 C 134.57227 674.3523 134.60945 674.8055 134.66406 675.25391 C 134.61014 676.11547 134.57227 676.9818 134.57227 677.85742 C 134.57227 700.41313 152.7314 718.57227 175.28711 718.57227 C 197.84282 718.57227 216.00195 700.41313 216.00195 677.85742 C 216.00195 676.9818 215.96408 676.11547 215.91016 675.25391 C 215.96477 674.8055 216.00195 674.3523 216.00195 673.88867 L 216.00195 600.39648 C 216.00195 599.93559 215.96414 599.48492 215.91016 599.03906 C 215.96439 598.1751 216.00195 597.30583 216.00195 596.42773 C 216.00195 573.87203 197.84282 555.71484 175.28711 555.71484 z M 308.54102 555.71484 C 302.38515 555.71484 297.42969 560.6703 297.42969 566.82617 L 297.42969 626.03125 C 297.42969 632.18712 302.38515 637.14258 308.54102 637.14258 L 367.74609 637.14258 C 373.90196 637.14258 378.85938 632.18712 378.85938 626.03125 L 378.85938 566.82617 C 378.85937 560.6703 373.90196 555.71484 367.74609 555.71484 L 308.54102 555.71484 z M 501.00195 555.71484 C 478.44624 555.71484 460.28711 573.87203 460.28711 596.42773 C 460.28711 618.98344 478.44624 637.14258 501.00195 637.14258 C 523.55766 637.14258 541.71484 618.98344 541.71484 596.42773 C 541.71484 573.87203 523.55766 555.71484 501.00195 555.71484 z M 389.9707 637.14258 C 383.81483 637.14258 378.85938 642.09804 378.85938 648.25391 L 378.85938 707.45898 C 378.85938 713.61485 383.81483 718.57227 389.9707 718.57227 L 449.17578 718.57227 C 455.33165 718.57227 460.28711 713.61485 460.28711 707.45898 L 460.28711 648.25391 C 460.28711 642.09804 455.33165 637.14258 449.17578 637.14258 L 389.9707 637.14258 z M 256.71484 718.57227 C 234.15913 718.57227 216.00195 736.72945 216.00195 759.28516 C 216.00195 781.84087 234.15913 800 256.71484 800 C 257.91615 800 259.10306 799.93883 260.27734 799.83789 C 260.87583 799.93687 261.48589 800 262.11328 800 L 335.60352 800 C 335.89142 800 336.17476 799.97833 336.45703 799.95703 C 337.01727 799.97968 337.57854 800 338.14453 800 C 360.70024 800 378.85938 781.84087 378.85938 759.28516 C 378.85937 736.72945 360.70024 718.57227 338.14453 718.57227 C 337.57854 718.57227 337.01727 718.59258 336.45703 718.61523 C 336.17476 718.59394 335.89142 718.57227 335.60352 718.57227 L 262.11328 718.57227 C 261.48589 718.57227 260.87583 718.6354 260.27734 718.73438 C 259.10306 718.63344 257.91615 718.57227 256.71484 718.57227 z M 501.00195 718.57227 C 478.44624 718.57227 460.28711 736.72945 460.28711 759.28516 C 460.28711 781.84087 478.44624 800 501.00195 800 C 523.55766 800 541.71484 781.84087 541.71484 759.28516 C 541.71484 736.72945 523.55766 718.57227 501.00195 718.57227 z "
       transform="matrix(0.26458333,0,0,0.26458333,0,32.41665)"
       id="rect1336" />
  </g>
</svg>
