<?xml version="1.0" encoding="UTF-8" standalone="no"?>
<!-- Created with Inkscape (http://www.inkscape.org/) -->

<svg
   xmlns:dc="http://purl.org/dc/elements/1.1/"
   xmlns:cc="http://creativecommons.org/ns#"
   xmlns:rdf="http://www.w3.org/1999/02/22-rdf-syntax-ns#"
   xmlns:svg="http://www.w3.org/2000/svg"
   xmlns="http://www.w3.org/2000/svg"
   xmlns:sodipodi="http://sodipodi.sourceforge.net/DTD/sodipodi-0.dtd"
   xmlns:inkscape="http://www.inkscape.org/namespaces/inkscape"
   width="1000"
   height="1000"
   viewBox="0 0 264.58333 264.58334"
   version="1.1"
   id="svg8"
   inkscape:version="0.92.4 (5da689c313, 2019-01-14)"
   sodipodi:docname="+.svg">
  <defs
     id="defs2" />
  <sodipodi:namedview
     id="base"
     pagecolor="#ffffff"
     bordercolor="#666666"
     borderopacity="1.0"
     inkscape:pageopacity="0.0"
     inkscape:pageshadow="2"
     inkscape:zoom="0.7"
     inkscape:cx="212.50136"
     inkscape:cy="361.19413"
     inkscape:document-units="mm"
     inkscape:current-layer="layer1"
     showgrid="false"
     units="px"
     inkscape:window-width="1600"
     inkscape:window-height="1149"
     inkscape:window-x="0"
     inkscape:window-y="26"
     inkscape:window-maximized="1"
     showguides="true"
     inkscape:guide-bbox="true">
    <sodipodi:guide
       position="0,52.916667"
       orientation="0,1"
       id="guide29"
       inkscape:locked="false"
       inkscape:label=""
       inkscape:color="rgb(0,0,255)" />
    <sodipodi:guide
       position="100.23967,139.09526"
       orientation="0,1"
       id="guide913"
       inkscape:locked="false" />
    <sodipodi:guide
       position="35.605739,203.7292"
       orientation="0,1"
       id="guide30"
       inkscape:locked="false" />
    <sodipodi:guide
       position="35.605739,52.916672"
       orientation="1,0"
       id="guide32"
       inkscape:locked="false" />
    <sodipodi:guide
       position="143.32896,52.916672"
       orientation="1,0"
       id="guide34"
       inkscape:locked="false" />
  </sodipodi:namedview>
  <metadata
     id="metadata5">
    <rdf:RDF>
      <cc:Work
         rdf:about="">
        <dc:format>image/svg+xml</dc:format>
        <dc:type
           rdf:resource="http://purl.org/dc/dcmitype/StillImage" />
        <dc:title />
      </cc:Work>
    </rdf:RDF>
  </metadata>
  <g
     inkscape:label="Layer 1"
     inkscape:groupmode="layer"
     id="layer1"
     transform="translate(0,-32.41665)">
    <flowRoot
       xml:space="preserve"
       id="flowRoot985"
       style="font-style:normal;font-variant:normal;font-weight:normal;font-stretch:normal;font-size:32px;line-height:1.25;font-family:sans-serif;-inkscape-font-specification:sans-serif;text-align:start;letter-spacing:0px;word-spacing:0px;text-anchor:start;fill:#000000;fill-opacity:1;stroke:none"
       transform="matrix(0.26458333,0,0,0.26458333,0,32.41665)"><flowRegion
         id="flowRegion987"><rect
           id="rect989"
           width="127.27922"
           height="147.04723"
           x="581.84784"
           y="327.2384" /></flowRegion><flowPara
         id="flowPara991"
         style="font-style:normal;font-variant:normal;font-weight:normal;font-stretch:normal;font-family:Hack;-inkscape-font-specification:Hack" /></flowRoot>    <path
       style="fill:#010101;fill-opacity:1;fill-rule:nonzero;stroke:#ffffff;stroke-width:0;stroke-miterlimit:4;stroke-dasharray:none;stroke-opacity:1;paint-order:normal"
       d="M 338.14453 311.42773 C 315.58882 311.42773 297.42969 329.58687 297.42969 352.14258 C 297.42969 353.8603 297.54741 355.54835 297.75195 357.20898 C 297.5435 358.48227 297.42969 359.78899 297.42969 361.12305 L 297.42969 474.28516 L 176.60547 474.28516 C 176.45964 474.28516 176.31826 474.30113 176.17383 474.30664 C 175.87799 474.30036 175.58451 474.28516 175.28711 474.28516 C 152.7314 474.28516 134.57227 492.44429 134.57227 515 C 134.57227 537.55571 152.7314 555.71484 175.28711 555.71484 C 175.58451 555.71484 175.87799 555.69964 176.17383 555.69336 C 176.31826 555.69887 176.45964 555.71484 176.60547 555.71484 L 297.42969 555.71484 L 297.42969 673.33203 C 297.42969 673.99158 297.46405 674.64184 297.51758 675.28711 C 297.46503 676.13773 297.42969 676.99312 297.42969 677.85742 C 297.42969 700.41313 315.58882 718.57227 338.14453 718.57227 C 360.70024 718.57227 378.85938 700.41313 378.85938 677.85742 C 378.85938 676.99445 378.82387 676.14034 378.77148 675.29102 C 378.82523 674.64449 378.85938 673.9929 378.85938 673.33203 L 378.85938 555.71484 L 499.68359 555.71484 C 499.82943 555.71484 499.9708 555.69887 500.11523 555.69336 C 500.41107 555.69964 500.70455 555.71484 501.00195 555.71484 C 523.55766 555.71484 541.71484 537.55571 541.71484 515 C 541.71484 492.44429 523.55766 474.28516 501.00195 474.28516 C 500.70455 474.28516 500.41107 474.30036 500.11523 474.30664 C 499.9708 474.30113 499.82943 474.28516 499.68359 474.28516 L 378.85938 474.28516 L 378.85938 361.12305 C 378.85938 359.7883 378.74382 358.48094 378.53516 357.20703 C 378.73954 355.54701 378.85938 353.85963 378.85938 352.14258 C 378.85937 329.58687 360.70024 311.42773 338.14453 311.42773 z "
       transform="matrix(0.26458333,0,0,0.26458333,0,32.41665)"
       id="rect1255" />
  </g>
</svg>
