<?xml version="1.0" encoding="UTF-8" standalone="no"?>
<!-- Created with Inkscape (http://www.inkscape.org/) -->

<svg
   xmlns:dc="http://purl.org/dc/elements/1.1/"
   xmlns:cc="http://creativecommons.org/ns#"
   xmlns:rdf="http://www.w3.org/1999/02/22-rdf-syntax-ns#"
   xmlns:svg="http://www.w3.org/2000/svg"
   xmlns="http://www.w3.org/2000/svg"
   xmlns:sodipodi="http://sodipodi.sourceforge.net/DTD/sodipodi-0.dtd"
   xmlns:inkscape="http://www.inkscape.org/namespaces/inkscape"
   width="1000"
   height="1000"
   viewBox="0 0 264.58333 264.58334"
   version="1.1"
   id="svg8"
   inkscape:version="0.92.4 (5da689c313, 2019-01-14)"
   sodipodi:docname="4.svg">
  <defs
     id="defs2" />
  <sodipodi:namedview
     id="base"
     pagecolor="#ffffff"
     bordercolor="#666666"
     borderopacity="1.0"
     inkscape:pageopacity="0.0"
     inkscape:pageshadow="2"
     inkscape:zoom="1.517368"
     inkscape:cx="319.64018"
     inkscape:cy="392.09138"
     inkscape:document-units="mm"
     inkscape:current-layer="layer1"
     showgrid="false"
     units="px"
     inkscape:window-width="1600"
     inkscape:window-height="1149"
     inkscape:window-x="0"
     inkscape:window-y="26"
     inkscape:window-maximized="1"
     showguides="true"
     inkscape:guide-bbox="true">
    <sodipodi:guide
       position="0,52.916667"
       orientation="0,1"
       id="guide29"
       inkscape:locked="false"
       inkscape:label=""
       inkscape:color="rgb(0,0,255)" />
    <sodipodi:guide
       position="100.23967,139.09526"
       orientation="0,1"
       id="guide913"
       inkscape:locked="false" />
    <sodipodi:guide
       position="35.605739,203.7292"
       orientation="0,1"
       id="guide30"
       inkscape:locked="false" />
    <sodipodi:guide
       position="35.605739,52.916672"
       orientation="1,0"
       id="guide32"
       inkscape:locked="false" />
    <sodipodi:guide
       position="143.32896,52.916672"
       orientation="1,0"
       id="guide34"
       inkscape:locked="false" />
  </sodipodi:namedview>
  <metadata
     id="metadata5">
    <rdf:RDF>
      <cc:Work
         rdf:about="">
        <dc:format>image/svg+xml</dc:format>
        <dc:type
           rdf:resource="http://purl.org/dc/dcmitype/StillImage" />
        <dc:title></dc:title>
      </cc:Work>
    </rdf:RDF>
  </metadata>
  <g
     inkscape:label="Layer 1"
     inkscape:groupmode="layer"
     id="layer1"
     transform="translate(0,-32.41665)">
    <path
       style="fill:#010101;fill-opacity:1;fill-rule:nonzero;stroke:#ffffff;stroke-width:0;stroke-miterlimit:4;stroke-dasharray:none;stroke-opacity:1;paint-order:normal"
       d="M 175.28711 230 C 152.7314 230 134.57227 248.15913 134.57227 270.71484 C 134.57227 272.22443 134.66177 273.71167 134.82031 275.17773 C 134.67184 276.11572 134.57227 277.07171 134.57227 278.05273 L 134.57227 366.30273 L 134.57227 374.71484 L 134.57227 513.36133 C 134.57227 513.63138 134.58612 513.89787 134.59375 514.16602 C 134.58819 514.44436 134.57227 514.72028 134.57227 515 C 134.57227 537.55571 152.7314 555.71484 175.28711 555.71484 C 176.55601 555.71484 177.80826 555.64764 179.04688 555.53516 C 179.67591 555.64492 180.31905 555.71484 180.98047 555.71484 L 286.31836 555.71484 L 378.85938 555.71484 L 378.85938 722.61133 L 378.85938 751.84961 C 378.85938 752.8431 378.96098 753.81052 379.11328 754.75977 C 378.95025 756.24599 378.85938 757.7541 378.85938 759.28516 C 378.85937 781.84087 397.01656 800 419.57227 800 C 442.12797 800 460.28711 781.84087 460.28711 759.28516 C 460.28711 757.7541 460.19623 756.24599 460.0332 754.75977 C 460.18554 753.81052 460.28711 752.8431 460.28711 751.84961 L 460.28711 655.26953 L 460.28711 555.71484 L 496.62695 555.71484 C 497.13478 555.71484 497.62976 555.66691 498.11914 555.60156 C 499.07238 555.66772 500.03133 555.71484 501.00195 555.71484 C 523.55766 555.71484 541.71484 537.55571 541.71484 515 C 541.71484 492.44429 523.55766 474.28516 501.00195 474.28516 C 500.0327 474.28516 499.07497 474.33051 498.12305 474.39648 C 497.6325 474.33082 497.13604 474.28516 496.62695 474.28516 L 460.28711 474.28516 L 460.28711 470.24609 C 460.28711 467.24011 460.03795 464.30468 459.58203 461.45703 C 460.03213 459.88911 460.28711 458.23608 460.28711 456.51953 L 460.28711 361.85547 C 460.28711 360.61321 460.16029 359.40148 459.91992 358.23242 C 460.15499 356.45525 460.28711 354.64616 460.28711 352.80273 C 460.28711 330.24703 442.12797 312.08789 419.57227 312.08789 C 397.01656 312.08789 378.85938 330.24703 378.85938 352.80273 C 378.85938 354.64616 378.9915 356.45525 379.22656 358.23242 C 378.98619 359.40148 378.85938 360.61321 378.85938 361.85547 L 378.85938 456.51953 C 378.85938 458.23608 379.11435 459.88911 379.56445 461.45703 C 379.10853 464.30468 378.85937 467.24011 378.85938 470.24609 L 378.85938 474.28516 L 286.31836 474.28516 L 216.00195 474.28516 L 216.00195 374.71484 L 216.00195 366.30273 L 216.00195 278.05273 C 216.00195 277.07171 215.90238 276.11572 215.75391 275.17773 C 215.91245 273.71167 216.00195 272.22443 216.00195 270.71484 C 216.00195 248.15913 197.84282 230 175.28711 230 z "
       transform="matrix(0.26458333,0,0,0.26458333,0,32.41665)"
       id="rect862" />
    <flowRoot
       xml:space="preserve"
       id="flowRoot985"
       style="font-style:normal;font-variant:normal;font-weight:normal;font-stretch:normal;font-size:32px;line-height:1.25;font-family:sans-serif;-inkscape-font-specification:sans-serif;text-align:start;letter-spacing:0px;word-spacing:0px;text-anchor:start;fill:#000000;fill-opacity:1;stroke:none"
       transform="matrix(0.26458333,0,0,0.26458333,0,32.41665)"><flowRegion
         id="flowRegion987"><rect
           id="rect989"
           width="127.27922"
           height="147.04723"
           x="581.84784"
           y="327.2384" /></flowRegion><flowPara
         id="flowPara991"
         style="font-style:normal;font-variant:normal;font-weight:normal;font-stretch:normal;font-family:Hack;-inkscape-font-specification:Hack" /></flowRoot>  </g>
</svg>
