<?xml version="1.0" encoding="UTF-8" standalone="no"?>
<!-- Created with Inkscape (http://www.inkscape.org/) -->

<svg
   xmlns:dc="http://purl.org/dc/elements/1.1/"
   xmlns:cc="http://creativecommons.org/ns#"
   xmlns:rdf="http://www.w3.org/1999/02/22-rdf-syntax-ns#"
   xmlns:svg="http://www.w3.org/2000/svg"
   xmlns="http://www.w3.org/2000/svg"
   xmlns:sodipodi="http://sodipodi.sourceforge.net/DTD/sodipodi-0.dtd"
   xmlns:inkscape="http://www.inkscape.org/namespaces/inkscape"
   width="1000"
   height="1000"
   viewBox="0 0 264.58333 264.58334"
   version="1.1"
   id="svg8"
   inkscape:version="0.92.4 (5da689c313, 2019-01-14)"
   sodipodi:docname="6.svg">
  <defs
     id="defs2" />
  <sodipodi:namedview
     id="base"
     pagecolor="#ffffff"
     bordercolor="#666666"
     borderopacity="1.0"
     inkscape:pageopacity="0.0"
     inkscape:pageshadow="2"
     inkscape:zoom="1.5250573"
     inkscape:cx="285.74026"
     inkscape:cy="469.44455"
     inkscape:document-units="mm"
     inkscape:current-layer="layer1"
     showgrid="false"
     units="px"
     inkscape:window-width="1600"
     inkscape:window-height="1149"
     inkscape:window-x="0"
     inkscape:window-y="26"
     inkscape:window-maximized="1"
     showguides="true"
     inkscape:guide-bbox="true">
    <sodipodi:guide
       position="0,52.916667"
       orientation="0,1"
       id="guide29"
       inkscape:locked="false"
       inkscape:label=""
       inkscape:color="rgb(0,0,255)" />
    <sodipodi:guide
       position="100.23967,139.09526"
       orientation="0,1"
       id="guide913"
       inkscape:locked="false" />
    <sodipodi:guide
       position="35.605739,203.7292"
       orientation="0,1"
       id="guide30"
       inkscape:locked="false" />
    <sodipodi:guide
       position="35.605739,52.916672"
       orientation="1,0"
       id="guide32"
       inkscape:locked="false" />
    <sodipodi:guide
       position="143.32896,52.916672"
       orientation="1,0"
       id="guide34"
       inkscape:locked="false" />
  </sodipodi:namedview>
  <metadata
     id="metadata5">
    <rdf:RDF>
      <cc:Work
         rdf:about="">
        <dc:format>image/svg+xml</dc:format>
        <dc:type
           rdf:resource="http://purl.org/dc/dcmitype/StillImage" />
        <dc:title />
      </cc:Work>
    </rdf:RDF>
  </metadata>
  <g
     inkscape:label="Layer 1"
     inkscape:groupmode="layer"
     id="layer1"
     transform="translate(0,-32.41665)">
    <path
       style="fill:#010101;fill-opacity:1;fill-rule:nonzero;stroke:#ffffff;stroke-width:0;stroke-miterlimit:4;stroke-dasharray:none;stroke-opacity:1;paint-order:normal"
       d="M 175.28711 230 C 153.3236 230 135.53642 247.21977 134.61719 268.94922 C 134.59097 269.36367 134.57227 269.77988 134.57227 270.20117 L 134.57227 270.71484 L 134.57227 344.76367 L 134.57227 373.47461 L 134.57227 522.37891 L 134.57227 584.94727 L 134.57227 651.29883 C 134.57227 651.9263 134.6038 652.54533 134.6582 653.1582 C 134.60424 653.72392 134.57227 654.29468 134.57227 654.875 L 134.57227 749.36133 C 134.57227 750.70764 134.73398 752.01253 135.01562 753.27148 C 134.72748 755.23351 134.57227 757.24063 134.57227 759.28516 C 134.57227 781.84087 152.7314 800 175.28711 800 C 176.06438 800 176.8353 799.9742 177.60156 799.93164 C 178.00224 799.97503 178.40772 800 178.82031 800 L 286.31836 800 L 414.95898 800 C 415.49599 800 416.01891 799.94989 416.53516 799.87695 C 417.53886 799.95039 418.54919 800 419.57227 800 C 442.12797 800 460.28711 781.84087 460.28711 759.28516 C 460.28711 736.72945 442.12797 718.57227 419.57227 718.57227 C 418.54919 718.57227 417.53886 718.62188 416.53516 718.69531 C 416.01891 718.62238 415.49599 718.57227 414.95898 718.57227 L 286.31836 718.57227 L 216.00195 718.57227 L 216.00195 654.875 C 216.00195 654.29468 215.96998 653.72392 215.91602 653.1582 C 215.97042 652.54533 216.00195 651.9263 216.00195 651.29883 L 216.00195 555.71484 L 332.21875 555.71484 L 389.9707 555.71484 L 417.58203 555.71484 L 460.28711 555.71484 L 460.28711 669.41602 C 460.28711 670.7096 460.38291 671.97975 460.55469 673.22461 C 460.38378 674.7456 460.28711 676.2893 460.28711 677.85742 C 460.28711 700.41313 478.44624 718.57227 501.00195 718.57227 C 523.55766 718.57227 541.71484 700.41313 541.71484 677.85742 C 541.71484 676.2893 541.61817 674.7456 541.44727 673.22461 C 541.61905 671.97975 541.71484 670.7096 541.71484 669.41602 L 541.71484 523.44141 C 541.71484 522.14782 541.61905 520.87768 541.44727 519.63281 C 541.61817 518.11182 541.71484 516.56812 541.71484 515 C 541.71484 492.44429 523.55766 474.28516 501.00195 474.28516 C 500.03823 474.28516 499.08527 474.33126 498.13867 474.39648 C 497.65138 474.33171 497.1579 474.28516 496.65234 474.28516 L 417.58203 474.28516 L 389.9707 474.28516 L 332.21875 474.28516 L 216.00195 474.28516 L 216.00195 443.74023 L 216.00195 373.47461 L 216.00195 344.76367 L 216.00195 311.42773 L 286.31836 311.42773 L 424.13867 311.42773 L 496.65234 311.42773 C 497.1592 311.42773 497.65409 311.38346 498.14258 311.31836 C 499.08811 311.38344 500.03934 311.42773 501.00195 311.42773 C 523.55766 311.42773 541.71484 293.27055 541.71484 270.71484 C 541.71484 248.15913 523.55766 230 501.00195 230 C 500.03934 230 499.08811 230.0443 498.14258 230.10938 C 497.65409 230.04428 497.1592 230 496.65234 230 L 424.13867 230 L 286.31836 230 L 178.82031 230 C 178.40772 230 178.00224 230.02497 177.60156 230.06836 C 176.8353 230.0258 176.06438 230 175.28711 230 z "
       transform="matrix(0.26458333,0,0,0.26458333,0,32.41665)"
       id="rect862" />
    <flowRoot
       xml:space="preserve"
       id="flowRoot985"
       style="font-style:normal;font-variant:normal;font-weight:normal;font-stretch:normal;font-size:32px;line-height:1.25;font-family:sans-serif;-inkscape-font-specification:sans-serif;text-align:start;letter-spacing:0px;word-spacing:0px;text-anchor:start;fill:#000000;fill-opacity:1;stroke:none"
       transform="matrix(0.26458333,0,0,0.26458333,0,32.41665)"><flowRegion
         id="flowRegion987"><rect
           id="rect989"
           width="127.27922"
           height="147.04723"
           x="581.84784"
           y="327.2384" /></flowRegion><flowPara
         id="flowPara991"
         style="font-style:normal;font-variant:normal;font-weight:normal;font-stretch:normal;font-family:Hack;-inkscape-font-specification:Hack" /></flowRoot>  </g>
</svg>
