<?xml version="1.0" encoding="UTF-8" standalone="no"?>
<!-- Created with Inkscape (http://www.inkscape.org/) -->

<svg
   xmlns:dc="http://purl.org/dc/elements/1.1/"
   xmlns:cc="http://creativecommons.org/ns#"
   xmlns:rdf="http://www.w3.org/1999/02/22-rdf-syntax-ns#"
   xmlns:svg="http://www.w3.org/2000/svg"
   xmlns="http://www.w3.org/2000/svg"
   xmlns:sodipodi="http://sodipodi.sourceforge.net/DTD/sodipodi-0.dtd"
   xmlns:inkscape="http://www.inkscape.org/namespaces/inkscape"
   width="1000"
   height="1000"
   viewBox="0 0 264.58333 264.58334"
   version="1.1"
   id="svg8"
   inkscape:version="0.92.4 (5da689c313, 2019-01-14)"
   sodipodi:docname="7.svg">
  <defs
     id="defs2" />
  <sodipodi:namedview
     id="base"
     pagecolor="#ffffff"
     bordercolor="#666666"
     borderopacity="1.0"
     inkscape:pageopacity="0.0"
     inkscape:pageshadow="2"
     inkscape:zoom="1.5022195"
     inkscape:cx="290.65589"
     inkscape:cy="371.15574"
     inkscape:document-units="mm"
     inkscape:current-layer="layer1"
     showgrid="false"
     units="px"
     inkscape:window-width="1600"
     inkscape:window-height="1149"
     inkscape:window-x="0"
     inkscape:window-y="26"
     inkscape:window-maximized="1"
     showguides="true"
     inkscape:guide-bbox="true">
    <sodipodi:guide
       position="0,52.916667"
       orientation="0,1"
       id="guide29"
       inkscape:locked="false"
       inkscape:label=""
       inkscape:color="rgb(0,0,255)" />
    <sodipodi:guide
       position="100.23967,139.09526"
       orientation="0,1"
       id="guide913"
       inkscape:locked="false" />
    <sodipodi:guide
       position="35.605739,203.7292"
       orientation="0,1"
       id="guide30"
       inkscape:locked="false" />
    <sodipodi:guide
       position="35.605739,52.916672"
       orientation="1,0"
       id="guide32"
       inkscape:locked="false" />
    <sodipodi:guide
       position="143.32896,52.916672"
       orientation="1,0"
       id="guide34"
       inkscape:locked="false" />
  </sodipodi:namedview>
  <metadata
     id="metadata5">
    <rdf:RDF>
      <cc:Work
         rdf:about="">
        <dc:format>image/svg+xml</dc:format>
        <dc:type
           rdf:resource="http://purl.org/dc/dcmitype/StillImage" />
        <dc:title />
      </cc:Work>
    </rdf:RDF>
  </metadata>
  <g
     inkscape:label="Layer 1"
     inkscape:groupmode="layer"
     id="layer1"
     transform="translate(0,-32.41665)">
    <path
       style="fill:#010101;fill-opacity:1;fill-rule:nonzero;stroke:#ffffff;stroke-width:0;stroke-miterlimit:4;stroke-dasharray:none;stroke-opacity:1;paint-order:normal"
       d="M 175.28711 230 C 152.7314 230 134.57227 248.15914 134.57227 270.71484 C 134.57227 293.27057 152.7314 311.42773 175.28711 311.42773 C 176.47958 311.42773 177.65639 311.36736 178.82227 311.26758 C 179.41668 311.36509 180.0236 311.42773 180.64648 311.42773 L 286.31836 311.42773 L 417.67383 311.42773 L 460.28711 311.42773 L 460.28711 429.33398 C 460.28711 429.97979 460.31352 430.61891 460.35547 431.25391 C 460.31276 432.02138 460.28711 432.79181 460.28711 433.57031 C 460.28711 456.12604 478.44626 474.28516 501.00195 474.28516 C 523.55768 474.28516 541.71484 456.12604 541.71484 433.57031 C 541.71484 432.79181 541.68844 432.02138 541.64648 431.25391 C 541.68768 430.61891 541.71484 429.97979 541.71484 429.33398 L 541.71484 274.95117 C 541.71484 274.3054 541.68844 273.66629 541.64648 273.03125 C 541.68919 272.26378 541.71484 271.49335 541.71484 270.71484 C 541.71484 248.15914 523.55768 230 501.00195 230 C 500.28781 230 499.57797 230.0189 498.87305 230.05469 C 498.51059 230.01916 498.14174 230 497.76953 230 L 417.67383 230 L 286.31836 230 L 180.64648 230 C 180.0236 230 179.41668 230.06253 178.82227 230.16016 C 177.65639 230.06068 176.47958 230 175.28711 230 z M 419.57227 474.28516 C 399.08738 474.28516 382.23329 489.26387 379.31055 508.91016 C 379.02595 510.06484 378.85938 511.26678 378.85938 512.51172 L 378.85938 592.04492 C 378.85938 592.61276 378.89731 593.17168 378.95703 593.72266 C 378.89883 594.61799 378.85938 595.51713 378.85938 596.42773 C 378.85934 618.98346 397.01654 637.14258 419.57227 637.14258 C 442.12796 637.14258 460.28711 618.98346 460.28711 596.42773 C 460.28711 595.51713 460.24766 594.61799 460.18945 593.72266 C 460.25068 593.17168 460.28711 592.61272 460.28711 592.04492 L 460.28711 512.51172 C 460.28711 511.27033 460.12083 510.07158 459.83789 508.91992 C 456.91926 489.26884 440.06056 474.28516 419.57227 474.28516 z M 338.14453 637.14258 C 315.58882 637.14258 297.42969 655.30171 297.42969 677.85742 C 297.42969 679.30895 297.50756 680.7409 297.6543 682.15234 C 297.51285 682.91537 297.42969 683.70065 297.42969 684.50586 L 297.42969 752.42188 C 297.42969 753.2611 297.51462 754.07994 297.66797 754.87305 C 297.51307 756.3225 297.42969 757.79325 297.42969 759.28516 C 297.42969 781.84087 315.58882 800 338.14453 800 C 360.70024 800 378.85938 781.84087 378.85938 759.28516 C 378.85938 757.79391 378.77391 756.32383 378.61914 754.875 C 378.77273 754.0813 378.85938 753.26177 378.85938 752.42188 L 378.85938 684.50586 C 378.85938 683.69997 378.77449 682.91402 378.63281 682.15039 C 378.77941 680.73958 378.85938 679.30828 378.85938 677.85742 C 378.85937 655.30171 360.70024 637.14258 338.14453 637.14258 z "
       transform="matrix(0.26458333,0,0,0.26458333,0,32.41665)"
       id="rect840" />
    <flowRoot
       xml:space="preserve"
       id="flowRoot985"
       style="font-style:normal;font-variant:normal;font-weight:normal;font-stretch:normal;font-size:32px;line-height:1.25;font-family:sans-serif;-inkscape-font-specification:sans-serif;text-align:start;letter-spacing:0px;word-spacing:0px;text-anchor:start;fill:#000000;fill-opacity:1;stroke:none"
       transform="matrix(0.26458333,0,0,0.26458333,0,32.41665)"><flowRegion
         id="flowRegion987"><rect
           id="rect989"
           width="127.27922"
           height="147.04723"
           x="581.84784"
           y="327.2384" /></flowRegion><flowPara
         id="flowPara991"
         style="font-style:normal;font-variant:normal;font-weight:normal;font-stretch:normal;font-family:Hack;-inkscape-font-specification:Hack" /></flowRoot>  </g>
</svg>
