<?xml version="1.0" encoding="UTF-8" standalone="no"?>
<!-- Created with Inkscape (http://www.inkscape.org/) -->

<svg
   xmlns:dc="http://purl.org/dc/elements/1.1/"
   xmlns:cc="http://creativecommons.org/ns#"
   xmlns:rdf="http://www.w3.org/1999/02/22-rdf-syntax-ns#"
   xmlns:svg="http://www.w3.org/2000/svg"
   xmlns="http://www.w3.org/2000/svg"
   xmlns:sodipodi="http://sodipodi.sourceforge.net/DTD/sodipodi-0.dtd"
   xmlns:inkscape="http://www.inkscape.org/namespaces/inkscape"
   width="1000"
   height="1000"
   viewBox="0 0 264.58333 264.58334"
   version="1.1"
   id="svg8"
   inkscape:version="0.92.4 (5da689c313, 2019-01-14)"
   sodipodi:docname="8.svg">
  <defs
     id="defs2" />
  <sodipodi:namedview
     id="base"
     pagecolor="#ffffff"
     bordercolor="#666666"
     borderopacity="1.0"
     inkscape:pageopacity="0.0"
     inkscape:pageshadow="2"
     inkscape:zoom="1.4776333"
     inkscape:cx="288.14934"
     inkscape:cy="475.90369"
     inkscape:document-units="mm"
     inkscape:current-layer="layer1"
     showgrid="false"
     units="px"
     inkscape:window-width="1600"
     inkscape:window-height="1149"
     inkscape:window-x="0"
     inkscape:window-y="26"
     inkscape:window-maximized="1"
     showguides="true"
     inkscape:guide-bbox="true">
    <sodipodi:guide
       position="0,52.916667"
       orientation="0,1"
       id="guide29"
       inkscape:locked="false"
       inkscape:label=""
       inkscape:color="rgb(0,0,255)" />
    <sodipodi:guide
       position="100.23967,139.09526"
       orientation="0,1"
       id="guide913"
       inkscape:locked="false" />
    <sodipodi:guide
       position="35.605739,203.7292"
       orientation="0,1"
       id="guide30"
       inkscape:locked="false" />
    <sodipodi:guide
       position="35.605739,52.916672"
       orientation="1,0"
       id="guide32"
       inkscape:locked="false" />
    <sodipodi:guide
       position="143.32896,52.916672"
       orientation="1,0"
       id="guide34"
       inkscape:locked="false" />
  </sodipodi:namedview>
  <metadata
     id="metadata5">
    <rdf:RDF>
      <cc:Work
         rdf:about="">
        <dc:format>image/svg+xml</dc:format>
        <dc:type
           rdf:resource="http://purl.org/dc/dcmitype/StillImage" />
        <dc:title />
      </cc:Work>
    </rdf:RDF>
  </metadata>
  <g
     inkscape:label="Layer 1"
     inkscape:groupmode="layer"
     id="layer1"
     transform="translate(0,-32.41665)">
    <path
       style="fill:#010101;fill-opacity:1;fill-rule:nonzero;stroke:#ffffff;stroke-width:0;stroke-miterlimit:4;stroke-dasharray:none;stroke-opacity:1;paint-order:normal"
       d="M 256.71484 230 C 234.15913 230 216.00195 248.15913 216.00195 270.71484 C 216.00195 293.27055 234.15913 311.42773 256.71484 311.42773 C 258.36064 311.42773 259.98059 311.32082 261.57422 311.13281 C 262.38467 311.31969 263.22689 311.42773 264.0957 311.42773 L 412.19336 311.42773 C 413.06217 311.42773 413.9044 311.31969 414.71484 311.13281 C 416.30826 311.32077 417.92669 311.42773 419.57227 311.42773 C 442.12797 311.42773 460.28711 293.27055 460.28711 270.71484 C 460.28711 248.15913 442.12797 230 419.57227 230 C 417.92669 230 416.30826 230.10697 414.71484 230.29492 C 413.9044 230.10805 413.06217 230 412.19336 230 L 264.0957 230 C 263.22689 230 262.38467 230.10805 261.57422 230.29492 C 259.98059 230.10692 258.36064 230 256.71484 230 z M 175.28711 311.42773 C 152.7314 311.42773 134.57227 329.58687 134.57227 352.14258 C 134.57227 353.12646 134.61954 354.09844 134.6875 355.06445 C 134.61919 355.6173 134.57227 356.17613 134.57227 356.74805 L 134.57227 428.74805 C 134.57227 429.34517 134.62485 429.92768 134.69922 430.50391 C 134.62431 431.51754 134.57227 432.5369 134.57227 433.57031 C 134.57227 456.12602 152.7314 474.28516 175.28711 474.28516 C 197.84282 474.28516 216.00195 456.12602 216.00195 433.57031 C 216.00195 432.5369 215.94991 431.51754 215.875 430.50391 C 215.94937 429.92768 216.00195 429.34517 216.00195 428.74805 L 216.00195 356.74805 C 216.00195 356.17613 215.95503 355.6173 215.88672 355.06445 C 215.95468 354.09844 216.00195 353.12646 216.00195 352.14258 C 216.00195 329.58687 197.84282 311.42773 175.28711 311.42773 z M 501.00195 311.42773 C 478.44624 311.42773 460.28711 329.58687 460.28711 352.14258 C 460.28711 353.1278 460.3342 354.10106 460.40234 355.06836 C 460.33434 355.61997 460.28711 356.17746 460.28711 356.74805 L 460.28711 428.74805 C 460.28711 429.34374 460.33809 429.92509 460.41211 430.5 C 460.33701 431.51488 460.28711 432.5356 460.28711 433.57031 C 460.28711 456.12602 478.44624 474.28516 501.00195 474.28516 C 523.55766 474.28516 541.71484 456.12602 541.71484 433.57031 C 541.71484 432.53758 541.66466 431.51883 541.58984 430.50586 C 541.66437 429.92904 541.71484 429.3458 541.71484 428.74805 L 541.71484 356.74805 C 541.71484 356.17539 541.6681 355.61603 541.59961 355.0625 C 541.66748 354.09711 541.71484 353.12582 541.71484 352.14258 C 541.71484 329.58687 523.55766 311.42773 501.00195 311.42773 z M 256.71484 474.28516 C 234.15913 474.28516 216.00195 492.44429 216.00195 515 C 216.00195 537.55571 234.15913 555.71484 256.71484 555.71484 C 258.35865 555.71484 259.97659 555.60553 261.56836 555.41797 C 262.38064 555.60574 263.22474 555.71484 264.0957 555.71484 L 412.19336 555.71484 C 413.06433 555.71484 413.90842 555.60574 414.7207 555.41797 C 416.31227 555.60548 417.92868 555.71484 419.57227 555.71484 C 442.12797 555.71484 460.28711 537.55571 460.28711 515 C 460.28711 492.44429 442.12797 474.28516 419.57227 474.28516 C 417.92868 474.28516 416.31227 474.39452 414.7207 474.58203 C 413.90842 474.39426 413.06433 474.28516 412.19336 474.28516 L 264.0957 474.28516 C 263.22474 474.28516 262.38064 474.39426 261.56836 474.58203 C 259.97659 474.39447 258.35865 474.28516 256.71484 474.28516 z M 175.28711 555.71484 C 152.7314 555.71484 134.57227 573.87203 134.57227 596.42773 C 134.57227 596.95965 134.59131 597.48682 134.61133 598.01367 C 134.61116 598.01693 134.61149 598.02018 134.61133 598.02344 C 134.58602 598.52587 134.57227 599.03208 134.57227 599.54102 L 134.57227 756.17383 C 134.57227 756.68276 134.58602 757.18898 134.61133 757.69141 C 134.61149 757.69467 134.61116 757.69791 134.61133 757.70117 C 134.59136 758.22738 134.57227 758.75389 134.57227 759.28516 C 134.57227 781.84087 152.7314 800 175.28711 800 C 175.67623 800 176.06083 799.98144 176.44727 799.9707 C 176.64264 799.98083 176.83522 800 177.0332 800 L 286.31836 800 L 449.17578 800 L 499.93164 800 C 500.05306 800 500.17055 799.98625 500.29102 799.98242 C 500.52846 799.98646 500.76351 800 501.00195 800 C 523.55766 800 541.71484 781.84087 541.71484 759.28516 C 541.71484 758.76044 541.69526 758.24049 541.67578 757.7207 C 541.70208 757.20858 541.71484 756.69272 541.71484 756.17383 L 541.71484 599.54102 C 541.71484 599.02212 541.70208 598.50627 541.67578 597.99414 C 541.69531 597.47371 541.71484 596.95311 541.71484 596.42773 C 541.71484 573.87203 523.55766 555.71484 501.00195 555.71484 C 478.44624 555.71484 460.28711 573.87203 460.28711 596.42773 C 460.28711 596.95965 460.30616 597.48682 460.32617 598.01367 C 460.30054 598.51932 460.28711 599.02878 460.28711 599.54102 L 460.28711 718.57227 L 449.17578 718.57227 L 286.31836 718.57227 L 216.00195 718.57227 L 216.00195 599.54102 C 216.00195 599.03208 215.98819 598.52587 215.96289 598.02344 C 215.96301 598.0202 215.96277 598.01691 215.96289 598.01367 C 215.98291 597.48682 216.00195 596.95965 216.00195 596.42773 C 216.00195 573.87203 197.84282 555.71484 175.28711 555.71484 z "
       transform="matrix(0.26458333,0,0,0.26458333,0,32.41665)"
       id="rect840" />
    <flowRoot
       xml:space="preserve"
       id="flowRoot985"
       style="font-style:normal;font-variant:normal;font-weight:normal;font-stretch:normal;font-size:32px;line-height:1.25;font-family:sans-serif;-inkscape-font-specification:sans-serif;text-align:start;letter-spacing:0px;word-spacing:0px;text-anchor:start;fill:#000000;fill-opacity:1;stroke:none"
       transform="matrix(0.26458333,0,0,0.26458333,0,32.41665)"><flowRegion
         id="flowRegion987"><rect
           id="rect989"
           width="127.27922"
           height="147.04723"
           x="581.84784"
           y="327.2384" /></flowRegion><flowPara
         id="flowPara991"
         style="font-style:normal;font-variant:normal;font-weight:normal;font-stretch:normal;font-family:Hack;-inkscape-font-specification:Hack" /></flowRoot>  </g>
</svg>
