<?xml version="1.0" encoding="UTF-8" standalone="no"?>
<!-- Created with Inkscape (http://www.inkscape.org/) -->

<svg
   xmlns:dc="http://purl.org/dc/elements/1.1/"
   xmlns:cc="http://creativecommons.org/ns#"
   xmlns:rdf="http://www.w3.org/1999/02/22-rdf-syntax-ns#"
   xmlns:svg="http://www.w3.org/2000/svg"
   xmlns="http://www.w3.org/2000/svg"
   xmlns:sodipodi="http://sodipodi.sourceforge.net/DTD/sodipodi-0.dtd"
   xmlns:inkscape="http://www.inkscape.org/namespaces/inkscape"
   width="1000"
   height="1000"
   viewBox="0 0 264.58333 264.58334"
   version="1.1"
   id="svg8"
   inkscape:version="0.92.4 (5da689c313, 2019-01-14)"
   sodipodi:docname="&lt;.svg">
  <defs
     id="defs2" />
  <sodipodi:namedview
     id="base"
     pagecolor="#ffffff"
     bordercolor="#666666"
     borderopacity="1.0"
     inkscape:pageopacity="0.0"
     inkscape:pageshadow="2"
     inkscape:zoom="0.98994949"
     inkscape:cx="211.32376"
     inkscape:cy="450.62285"
     inkscape:document-units="mm"
     inkscape:current-layer="layer1"
     showgrid="false"
     units="px"
     inkscape:window-width="1600"
     inkscape:window-height="1149"
     inkscape:window-x="0"
     inkscape:window-y="26"
     inkscape:window-maximized="1"
     showguides="true"
     inkscape:guide-bbox="true">
    <sodipodi:guide
       position="0,52.916667"
       orientation="0,1"
       id="guide29"
       inkscape:locked="false"
       inkscape:label=""
       inkscape:color="rgb(0,0,255)" />
    <sodipodi:guide
       position="100.23967,139.09526"
       orientation="0,1"
       id="guide913"
       inkscape:locked="false" />
    <sodipodi:guide
       position="35.605739,203.7292"
       orientation="0,1"
       id="guide30"
       inkscape:locked="false" />
    <sodipodi:guide
       position="35.605739,52.916672"
       orientation="1,0"
       id="guide32"
       inkscape:locked="false" />
    <sodipodi:guide
       position="143.32896,52.916672"
       orientation="1,0"
       id="guide34"
       inkscape:locked="false" />
  </sodipodi:namedview>
  <metadata
     id="metadata5">
    <rdf:RDF>
      <cc:Work
         rdf:about="">
        <dc:format>image/svg+xml</dc:format>
        <dc:type
           rdf:resource="http://purl.org/dc/dcmitype/StillImage" />
        <dc:title />
      </cc:Work>
    </rdf:RDF>
  </metadata>
  <g
     inkscape:label="Layer 1"
     inkscape:groupmode="layer"
     id="layer1"
     transform="translate(0,-32.41665)">
    <flowRoot
       xml:space="preserve"
       id="flowRoot985"
       style="font-style:normal;font-variant:normal;font-weight:normal;font-stretch:normal;font-size:32px;line-height:1.25;font-family:sans-serif;-inkscape-font-specification:sans-serif;text-align:start;letter-spacing:0px;word-spacing:0px;text-anchor:start;fill:#000000;fill-opacity:1;stroke:none"
       transform="matrix(0.26458333,0,0,0.26458333,0,32.41665)"><flowRegion
         id="flowRegion987"><rect
           id="rect989"
           width="127.27922"
           height="147.04723"
           x="581.84784"
           y="327.2384" /></flowRegion><flowPara
         id="flowPara991"
         style="font-style:normal;font-variant:normal;font-weight:normal;font-stretch:normal;font-family:Hack;-inkscape-font-specification:Hack" /></flowRoot>    <path
       style="fill:#010101;fill-opacity:1;fill-rule:nonzero;stroke:#ffffff;stroke-width:0;stroke-miterlimit:4;stroke-dasharray:none;stroke-opacity:1;paint-order:normal"
       d="M 419.57227 230 C 397.01656 230 378.85938 248.15913 378.85938 270.71484 C 378.85937 293.27055 397.01656 311.42773 419.57227 311.42773 C 442.12797 311.42773 460.28711 293.27055 460.28711 270.71484 C 460.28711 248.15913 442.12797 230 419.57227 230 z M 308.54102 311.42773 C 302.38515 311.42773 297.42969 316.38515 297.42969 322.54102 L 297.42969 381.74609 C 297.42969 387.90196 302.38515 392.85742 308.54102 392.85742 L 367.74609 392.85742 C 373.90196 392.85742 378.85938 387.90196 378.85938 381.74609 L 378.85938 322.54102 C 378.85937 316.38515 373.90196 311.42773 367.74609 311.42773 L 308.54102 311.42773 z M 227.11328 392.85742 C 220.95741 392.85742 216.00195 397.81288 216.00195 403.96875 L 216.00195 463.17383 C 216.00195 469.3297 220.95741 474.28516 227.11328 474.28516 L 286.31836 474.28516 C 292.47423 474.28516 297.42969 469.3297 297.42969 463.17383 L 297.42969 403.96875 C 297.42969 397.81288 292.47423 392.85742 286.31836 392.85742 L 227.11328 392.85742 z M 175.28711 474.28516 C 152.7314 474.28516 134.57227 492.44429 134.57227 515 C 134.57227 537.55571 152.7314 555.71484 175.28711 555.71484 C 197.84282 555.71484 216.00195 537.55571 216.00195 515 C 216.00195 492.44429 197.84282 474.28516 175.28711 474.28516 z M 227.11328 555.71484 C 220.95741 555.71484 216.00195 560.6703 216.00195 566.82617 L 216.00195 626.03125 C 216.00195 632.18712 220.95741 637.14258 227.11328 637.14258 L 286.31836 637.14258 C 292.47423 637.14258 297.42969 632.18712 297.42969 626.03125 L 297.42969 566.82617 C 297.42969 560.6703 292.47423 555.71484 286.31836 555.71484 L 227.11328 555.71484 z M 308.54102 637.14258 C 302.38515 637.14258 297.42969 642.09804 297.42969 648.25391 L 297.42969 707.45898 C 297.42969 713.61485 302.38515 718.57031 308.54102 718.57031 L 367.74609 718.57031 C 373.90196 718.57031 378.85938 713.61485 378.85938 707.45898 L 378.85938 648.25391 C 378.85937 642.09804 373.90196 637.14258 367.74609 637.14258 L 308.54102 637.14258 z M 419.57227 718.57227 C 397.01656 718.57227 378.85938 736.72945 378.85938 759.28516 C 378.85937 781.84087 397.01656 800 419.57227 800 C 442.12797 800 460.28711 781.84087 460.28711 759.28516 C 460.28711 736.72945 442.12797 718.57227 419.57227 718.57227 z "
       transform="matrix(0.26458333,0,0,0.26458333,0,32.41665)"
       id="rect1077" />
  </g>
</svg>
