<?xml version="1.0" encoding="UTF-8" standalone="no"?>
<!-- Created with Inkscape (http://www.inkscape.org/) -->

<svg
   xmlns:dc="http://purl.org/dc/elements/1.1/"
   xmlns:cc="http://creativecommons.org/ns#"
   xmlns:rdf="http://www.w3.org/1999/02/22-rdf-syntax-ns#"
   xmlns:svg="http://www.w3.org/2000/svg"
   xmlns="http://www.w3.org/2000/svg"
   xmlns:sodipodi="http://sodipodi.sourceforge.net/DTD/sodipodi-0.dtd"
   xmlns:inkscape="http://www.inkscape.org/namespaces/inkscape"
   width="1000"
   height="1000"
   viewBox="0 0 264.58333 264.58334"
   version="1.1"
   id="svg8"
   inkscape:version="0.92.4 (5da689c313, 2019-01-14)"
   sodipodi:docname="=.svg">
  <defs
     id="defs2" />
  <sodipodi:namedview
     id="base"
     pagecolor="#ffffff"
     bordercolor="#666666"
     borderopacity="1.0"
     inkscape:pageopacity="0.0"
     inkscape:pageshadow="2"
     inkscape:zoom="1.4"
     inkscape:cx="332.80747"
     inkscape:cy="430.98292"
     inkscape:document-units="mm"
     inkscape:current-layer="layer1"
     showgrid="false"
     units="px"
     inkscape:window-width="1600"
     inkscape:window-height="1149"
     inkscape:window-x="0"
     inkscape:window-y="26"
     inkscape:window-maximized="1"
     showguides="true"
     inkscape:guide-bbox="true">
    <sodipodi:guide
       position="0,52.916667"
       orientation="0,1"
       id="guide29"
       inkscape:locked="false"
       inkscape:label=""
       inkscape:color="rgb(0,0,255)" />
    <sodipodi:guide
       position="100.23967,139.09526"
       orientation="0,1"
       id="guide913"
       inkscape:locked="false" />
    <sodipodi:guide
       position="35.605739,203.7292"
       orientation="0,1"
       id="guide30"
       inkscape:locked="false" />
    <sodipodi:guide
       position="35.605739,52.916672"
       orientation="1,0"
       id="guide32"
       inkscape:locked="false" />
    <sodipodi:guide
       position="143.32896,52.916672"
       orientation="1,0"
       id="guide34"
       inkscape:locked="false" />
  </sodipodi:namedview>
  <metadata
     id="metadata5">
    <rdf:RDF>
      <cc:Work
         rdf:about="">
        <dc:format>image/svg+xml</dc:format>
        <dc:type
           rdf:resource="http://purl.org/dc/dcmitype/StillImage" />
        <dc:title />
      </cc:Work>
    </rdf:RDF>
  </metadata>
  <g
     inkscape:label="Layer 1"
     inkscape:groupmode="layer"
     id="layer1"
     transform="translate(0,-32.41665)">
    <flowRoot
       xml:space="preserve"
       id="flowRoot985"
       style="font-style:normal;font-variant:normal;font-weight:normal;font-stretch:normal;font-size:32px;line-height:1.25;font-family:sans-serif;-inkscape-font-specification:sans-serif;text-align:start;letter-spacing:0px;word-spacing:0px;text-anchor:start;fill:#000000;fill-opacity:1;stroke:none"
       transform="matrix(0.26458333,0,0,0.26458333,0,32.41665)"><flowRegion
         id="flowRegion987"><rect
           id="rect989"
           width="127.27922"
           height="147.04723"
           x="581.84784"
           y="327.2384" /></flowRegion><flowPara
         id="flowPara991"
         style="font-style:normal;font-variant:normal;font-weight:normal;font-stretch:normal;font-family:Hack;-inkscape-font-specification:Hack" /></flowRoot>    <path
       style="fill:#010101;fill-opacity:1;fill-rule:nonzero;stroke:#ffffff;stroke-width:0;stroke-miterlimit:4;stroke-dasharray:none;stroke-opacity:1;paint-order:normal"
       d="M 255.68359 392.85742 C 255.32788 392.85742 254.97783 392.87779 254.63086 392.91016 C 254.62572 392.91064 254.62037 392.90967 254.61523 392.91016 C 254.60997 392.91042 254.60487 392.91184 254.59961 392.91211 C 254.57569 392.91441 254.55122 392.91357 254.52734 392.91602 C 232.9976 394.04633 216.00195 411.75127 216.00195 433.57227 C 216.00195 455.39326 232.9976 473.09625 254.52734 474.22656 C 254.55122 474.22901 254.57569 474.22817 254.59961 474.23047 C 254.60487 474.23074 254.60997 474.23216 254.61523 474.23242 C 254.62037 474.23291 254.62572 474.23194 254.63086 474.23242 C 254.97783 474.26479 255.32788 474.28516 255.68359 474.28516 L 256.71484 474.28516 L 419.57227 474.28516 L 420.60352 474.28516 C 420.95862 474.28516 421.30985 474.26468 421.65625 474.23242 C 421.66718 474.2314 421.67853 474.23152 421.68945 474.23047 C 421.71335 474.22817 421.73787 474.22901 421.76172 474.22656 C 443.29146 473.09625 460.28711 455.39326 460.28711 433.57227 C 460.28711 411.75127 443.29146 394.04633 421.76172 392.91602 C 421.73787 392.91357 421.71335 392.91441 421.68945 392.91211 C 421.6843 392.91161 421.67899 392.91064 421.67383 392.91016 C 421.66801 392.90986 421.66207 392.91045 421.65625 392.91016 C 421.30985 392.8779 420.95862 392.85742 420.60352 392.85742 L 419.57227 392.85742 L 256.71484 392.85742 L 255.68359 392.85742 z M 255.68359 555.71484 C 255.3292 555.71484 254.98049 555.73544 254.63477 555.76758 C 254.6277 555.76823 254.62034 555.76691 254.61328 555.76758 C 254.60671 555.76791 254.60032 555.7692 254.59375 555.76953 C 254.5724 555.77159 254.55061 555.77126 254.5293 555.77344 C 232.99783 556.90177 216.00195 574.60545 216.00195 596.42773 C 216.00195 618.25002 232.99783 635.95554 254.5293 637.08398 C 254.55061 637.08617 254.5724 637.08583 254.59375 637.08789 C 254.60032 637.08822 254.60671 637.08951 254.61328 637.08984 C 254.62034 637.09051 254.6277 637.08919 254.63477 637.08984 C 254.98049 637.12198 255.3292 637.14258 255.68359 637.14258 L 256.71484 637.14258 L 419.57227 637.14258 L 420.60352 637.14258 C 420.95862 637.14258 421.30985 637.1221 421.65625 637.08984 C 421.66207 637.08955 421.66801 637.09014 421.67383 637.08984 C 421.67899 637.08936 421.6843 637.08839 421.68945 637.08789 C 421.71335 637.08559 421.73787 637.08643 421.76172 637.08398 C 443.29145 635.9536 460.28711 618.2487 460.28711 596.42773 C 460.28711 574.60678 443.29145 556.9037 421.76172 555.77344 C 421.73787 555.77099 421.71335 555.77183 421.68945 555.76953 C 421.6843 555.76904 421.67899 555.76807 421.67383 555.76758 C 421.66801 555.76729 421.66207 555.76787 421.65625 555.76758 C 421.30985 555.73532 420.95862 555.71484 420.60352 555.71484 L 419.57227 555.71484 L 256.71484 555.71484 L 255.68359 555.71484 z "
       transform="matrix(0.26458333,0,0,0.26458333,0,32.41665)"
       id="rect1255" />
  </g>
</svg>
