<?xml version="1.0" encoding="UTF-8" standalone="no"?>
<!-- Created with Inkscape (http://www.inkscape.org/) -->

<svg
   xmlns:dc="http://purl.org/dc/elements/1.1/"
   xmlns:cc="http://creativecommons.org/ns#"
   xmlns:rdf="http://www.w3.org/1999/02/22-rdf-syntax-ns#"
   xmlns:svg="http://www.w3.org/2000/svg"
   xmlns="http://www.w3.org/2000/svg"
   xmlns:sodipodi="http://sodipodi.sourceforge.net/DTD/sodipodi-0.dtd"
   xmlns:inkscape="http://www.inkscape.org/namespaces/inkscape"
   width="1000"
   height="1000"
   viewBox="0 0 264.58333 264.58334"
   version="1.1"
   id="svg8"
   inkscape:version="0.92.4 (5da689c313, 2019-01-14)"
   sodipodi:docname="&gt;.svg">
  <defs
     id="defs2" />
  <sodipodi:namedview
     id="base"
     pagecolor="#ffffff"
     bordercolor="#666666"
     borderopacity="1.0"
     inkscape:pageopacity="0.0"
     inkscape:pageshadow="2"
     inkscape:zoom="0.98994949"
     inkscape:cx="305.26795"
     inkscape:cy="518.30307"
     inkscape:document-units="mm"
     inkscape:current-layer="layer1"
     showgrid="false"
     units="px"
     inkscape:window-width="1600"
     inkscape:window-height="1149"
     inkscape:window-x="0"
     inkscape:window-y="26"
     inkscape:window-maximized="1"
     showguides="true"
     inkscape:guide-bbox="true">
    <sodipodi:guide
       position="0,52.916667"
       orientation="0,1"
       id="guide29"
       inkscape:locked="false"
       inkscape:label=""
       inkscape:color="rgb(0,0,255)" />
    <sodipodi:guide
       position="100.23967,139.09526"
       orientation="0,1"
       id="guide913"
       inkscape:locked="false" />
    <sodipodi:guide
       position="35.605739,203.7292"
       orientation="0,1"
       id="guide30"
       inkscape:locked="false" />
    <sodipodi:guide
       position="35.605739,52.916672"
       orientation="1,0"
       id="guide32"
       inkscape:locked="false" />
    <sodipodi:guide
       position="143.32896,52.916672"
       orientation="1,0"
       id="guide34"
       inkscape:locked="false" />
  </sodipodi:namedview>
  <metadata
     id="metadata5">
    <rdf:RDF>
      <cc:Work
         rdf:about="">
        <dc:format>image/svg+xml</dc:format>
        <dc:type
           rdf:resource="http://purl.org/dc/dcmitype/StillImage" />
        <dc:title />
      </cc:Work>
    </rdf:RDF>
  </metadata>
  <g
     inkscape:label="Layer 1"
     inkscape:groupmode="layer"
     id="layer1"
     transform="translate(0,-32.41665)">
    <flowRoot
       xml:space="preserve"
       id="flowRoot985"
       style="font-style:normal;font-variant:normal;font-weight:normal;font-stretch:normal;font-size:32px;line-height:1.25;font-family:sans-serif;-inkscape-font-specification:sans-serif;text-align:start;letter-spacing:0px;word-spacing:0px;text-anchor:start;fill:#000000;fill-opacity:1;stroke:none"
       transform="matrix(0.26458333,0,0,0.26458333,0,32.41665)"><flowRegion
         id="flowRegion987"><rect
           id="rect989"
           width="127.27922"
           height="147.04723"
           x="581.84784"
           y="327.2384" /></flowRegion><flowPara
         id="flowPara991"
         style="font-style:normal;font-variant:normal;font-weight:normal;font-stretch:normal;font-family:Hack;-inkscape-font-specification:Hack" /></flowRoot>    <path
       style="fill:#010101;fill-opacity:1;fill-rule:nonzero;stroke:#ffffff;stroke-width:0;stroke-miterlimit:4;stroke-dasharray:none;stroke-opacity:1;paint-order:normal"
       d="M 256.71484 230 C 234.15913 230 216.00195 248.15913 216.00195 270.71484 C 216.00195 293.27055 234.15913 311.42773 256.71484 311.42773 C 279.27055 311.42773 297.42969 293.27055 297.42969 270.71484 C 297.42969 248.15913 279.27055 230 256.71484 230 z M 308.54102 311.42773 C 302.38515 311.42773 297.42969 316.38515 297.42969 322.54102 L 297.42969 381.74609 C 297.42969 387.90196 302.38515 392.85742 308.54102 392.85742 L 367.74609 392.85742 C 373.90196 392.85742 378.85938 387.90196 378.85938 381.74609 L 378.85938 322.54102 C 378.85937 316.38515 373.90196 311.42773 367.74609 311.42773 L 308.54102 311.42773 z M 389.9707 392.85742 C 383.81483 392.85742 378.85938 397.81288 378.85938 403.96875 L 378.85938 463.17383 C 378.85938 469.3297 383.81483 474.28516 389.9707 474.28516 L 449.17578 474.28516 C 455.33165 474.28516 460.28711 469.3297 460.28711 463.17383 L 460.28711 403.96875 C 460.28711 397.81288 455.33165 392.85742 449.17578 392.85742 L 389.9707 392.85742 z M 501.00195 474.28516 C 478.44624 474.28516 460.28711 492.44429 460.28711 515 C 460.28711 537.55571 478.44624 555.71484 501.00195 555.71484 C 523.55766 555.71484 541.71484 537.55571 541.71484 515 C 541.71484 492.44429 523.55766 474.28516 501.00195 474.28516 z M 389.9707 555.71484 C 383.81483 555.71484 378.85938 560.6703 378.85938 566.82617 L 378.85938 626.03125 C 378.85938 632.18712 383.81483 637.14258 389.9707 637.14258 L 449.17578 637.14258 C 455.33165 637.14258 460.28711 632.18712 460.28711 626.03125 L 460.28711 566.82617 C 460.28711 560.6703 455.33165 555.71484 449.17578 555.71484 L 389.9707 555.71484 z M 308.54102 637.14258 C 302.38515 637.14258 297.42969 642.09804 297.42969 648.25391 L 297.42969 707.45898 C 297.42969 713.61485 302.38515 718.57031 308.54102 718.57031 L 367.74609 718.57031 C 373.90196 718.57031 378.85938 713.61485 378.85938 707.45898 L 378.85938 648.25391 C 378.85937 642.09804 373.90196 637.14258 367.74609 637.14258 L 308.54102 637.14258 z M 256.71484 718.57227 C 234.15913 718.57227 216.00195 736.72945 216.00195 759.28516 C 216.00195 781.84087 234.15913 800 256.71484 800 C 279.27055 800 297.42969 781.84087 297.42969 759.28516 C 297.42969 736.72945 279.27055 718.57227 256.71484 718.57227 z "
       transform="matrix(0.26458333,0,0,0.26458333,0,32.41665)"
       id="rect1077" />
  </g>
</svg>
