<?xml version="1.0" encoding="UTF-8" standalone="no"?>
<!-- Created with Inkscape (http://www.inkscape.org/) -->

<svg
   xmlns:dc="http://purl.org/dc/elements/1.1/"
   xmlns:cc="http://creativecommons.org/ns#"
   xmlns:rdf="http://www.w3.org/1999/02/22-rdf-syntax-ns#"
   xmlns:svg="http://www.w3.org/2000/svg"
   xmlns="http://www.w3.org/2000/svg"
   xmlns:sodipodi="http://sodipodi.sourceforge.net/DTD/sodipodi-0.dtd"
   xmlns:inkscape="http://www.inkscape.org/namespaces/inkscape"
   width="1000"
   height="1000"
   viewBox="0 0 264.58333 264.58334"
   version="1.1"
   id="svg8"
   inkscape:version="0.92.4 (5da689c313, 2019-01-14)"
   sodipodi:docname="@.svg">
  <defs
     id="defs2" />
  <sodipodi:namedview
     id="base"
     pagecolor="#ffffff"
     bordercolor="#666666"
     borderopacity="1.0"
     inkscape:pageopacity="0.0"
     inkscape:pageshadow="2"
     inkscape:zoom="0.90843796"
     inkscape:cx="328.0551"
     inkscape:cy="546.7231"
     inkscape:document-units="mm"
     inkscape:current-layer="layer1"
     showgrid="false"
     units="px"
     inkscape:window-width="1600"
     inkscape:window-height="1149"
     inkscape:window-x="0"
     inkscape:window-y="26"
     inkscape:window-maximized="1"
     showguides="true"
     inkscape:guide-bbox="true">
    <sodipodi:guide
       position="0,52.916667"
       orientation="0,1"
       id="guide29"
       inkscape:locked="false"
       inkscape:label=""
       inkscape:color="rgb(0,0,255)" />
    <sodipodi:guide
       position="100.23967,139.09526"
       orientation="0,1"
       id="guide913"
       inkscape:locked="false" />
    <sodipodi:guide
       position="35.605739,203.7292"
       orientation="0,1"
       id="guide30"
       inkscape:locked="false" />
    <sodipodi:guide
       position="35.605739,52.916672"
       orientation="1,0"
       id="guide32"
       inkscape:locked="false" />
    <sodipodi:guide
       position="143.32896,52.916672"
       orientation="1,0"
       id="guide34"
       inkscape:locked="false" />
  </sodipodi:namedview>
  <metadata
     id="metadata5">
    <rdf:RDF>
      <cc:Work
         rdf:about="">
        <dc:format>image/svg+xml</dc:format>
        <dc:type
           rdf:resource="http://purl.org/dc/dcmitype/StillImage" />
        <dc:title />
      </cc:Work>
    </rdf:RDF>
  </metadata>
  <g
     inkscape:label="Layer 1"
     inkscape:groupmode="layer"
     id="layer1"
     transform="translate(0,-32.41665)">
    <flowRoot
       xml:space="preserve"
       id="flowRoot985"
       style="font-style:normal;font-variant:normal;font-weight:normal;font-stretch:normal;font-size:32px;line-height:1.25;font-family:sans-serif;-inkscape-font-specification:sans-serif;text-align:start;letter-spacing:0px;word-spacing:0px;text-anchor:start;fill:#000000;fill-opacity:1;stroke:none"
       transform="matrix(0.26458333,0,0,0.26458333,0,32.41665)"><flowRegion
         id="flowRegion987"><rect
           id="rect989"
           width="127.27922"
           height="147.04723"
           x="581.84784"
           y="327.2384" /></flowRegion><flowPara
         id="flowPara991"
         style="font-style:normal;font-variant:normal;font-weight:normal;font-stretch:normal;font-family:Hack;-inkscape-font-specification:Hack" /></flowRoot>    <path
       style="fill:#010101;fill-opacity:1;fill-rule:nonzero;stroke:#ffffff;stroke-width:0;stroke-miterlimit:4;stroke-dasharray:none;stroke-opacity:1;paint-order:normal"
       d="M 175.28711 229.44922 C 152.7314 229.44922 134.57227 247.60835 134.57227 270.16406 C 134.57227 270.94 134.59823 271.70964 134.64062 272.47461 C 134.60869 272.92477 134.57227 273.37346 134.57227 273.83203 L 134.57227 374.04883 L 134.57227 524.10547 L 134.57227 581.01953 L 134.57227 666.44922 L 134.57227 754.98828 C 134.57227 755.57639 134.60734 756.1566 134.66016 756.73047 C 134.60824 757.57596 134.57227 758.42615 134.57227 759.28516 C 134.57227 781.84087 152.7314 800 175.28711 800 C 197.84282 800 216.00195 781.84087 216.00195 759.28516 C 216.00195 758.42615 215.96598 757.57596 215.91406 756.73047 C 215.96688 756.1566 216.00195 755.57639 216.00195 754.98828 L 216.00195 655.76562 L 216.00195 526.4082 L 216.00195 448.98047 L 216.00195 367.25586 L 216.00195 311.42773 L 345.83398 311.42773 L 415.51562 311.42773 C 415.98876 311.42773 416.45095 311.38888 416.9082 311.33203 C 417.78967 311.3885 418.67606 311.42773 419.57227 311.42773 C 442.12797 311.42773 460.28711 293.27055 460.28711 270.71484 C 460.28711 248.15913 442.12797 230 419.57227 230 C 418.67606 230 417.78967 230.03923 416.9082 230.0957 C 416.45095 230.03886 415.98876 230 415.51562 230 L 345.83398 230 L 181.97656 230 C 179.80016 229.64297 177.56763 229.44922 175.28711 229.44922 z M 501.00195 311.42773 C 478.44624 311.42773 460.28711 329.58687 460.28711 352.14258 C 460.28711 353.02949 460.32554 353.90682 460.38086 354.7793 C 460.32102 355.389 460.28711 356.00687 460.28711 356.63281 L 460.28711 443.26367 L 460.28711 455.69336 L 460.28711 474.28516 L 336.7207 474.28516 C 336.19725 474.28516 335.68543 474.33494 335.18164 474.4043 C 314.02137 475.91414 297.42969 493.44215 297.42969 515 C 297.42969 515.8829 297.46667 516.7564 297.52148 517.625 C 297.46633 518.36093 297.42969 519.10105 297.42969 519.85156 L 297.42969 675.20703 C 297.42969 675.65543 297.44306 676.09963 297.46289 676.54297 C 297.44912 676.98038 297.42969 677.41655 297.42969 677.85742 C 297.42969 700.41313 315.58882 718.57227 338.14453 718.57227 C 338.70594 718.57227 339.26261 718.55158 339.81836 718.5293 C 340.08907 718.54886 340.3589 718.57227 340.63477 718.57227 L 498.50977 718.57227 C 498.78563 718.57227 499.05546 718.54886 499.32617 718.5293 C 499.88256 718.55164 500.43989 718.57227 501.00195 718.57227 C 523.55766 718.57227 541.71484 700.41313 541.71484 677.85742 C 541.71484 676.66891 541.65351 675.49607 541.55469 674.33398 C 541.64996 673.57282 541.71484 672.80343 541.71484 672.01562 L 541.71484 586.73633 L 541.71484 574.0918 L 541.71484 455.69336 L 541.71484 443.26367 L 541.71484 356.63281 C 541.71484 356.00687 541.68093 355.389 541.62109 354.7793 C 541.67641 353.90682 541.71484 353.02949 541.71484 352.14258 C 541.71484 329.58687 523.55766 311.42773 501.00195 311.42773 z M 378.85938 555.71484 L 460.28711 555.71484 L 460.28711 574.0918 L 460.28711 586.73633 L 460.28711 637.14258 L 378.85938 637.14258 L 378.85938 555.71484 z "
       transform="matrix(0.26458333,0,0,0.26458333,0,32.41665)"
       id="rect1672" />
  </g>
</svg>
