<?xml version="1.0" encoding="UTF-8" standalone="no"?>
<!-- Created with Inkscape (http://www.inkscape.org/) -->

<svg
   xmlns:dc="http://purl.org/dc/elements/1.1/"
   xmlns:cc="http://creativecommons.org/ns#"
   xmlns:rdf="http://www.w3.org/1999/02/22-rdf-syntax-ns#"
   xmlns:svg="http://www.w3.org/2000/svg"
   xmlns="http://www.w3.org/2000/svg"
   xmlns:sodipodi="http://sodipodi.sourceforge.net/DTD/sodipodi-0.dtd"
   xmlns:inkscape="http://www.inkscape.org/namespaces/inkscape"
   width="1000"
   height="1000"
   viewBox="0 0 264.58333 264.58334"
   version="1.1"
   id="svg8"
   inkscape:version="0.92.4 (5da689c313, 2019-01-14)"
   sodipodi:docname="[.svg">
  <defs
     id="defs2" />
  <sodipodi:namedview
     id="base"
     pagecolor="#ffffff"
     bordercolor="#666666"
     borderopacity="1.0"
     inkscape:pageopacity="0.0"
     inkscape:pageshadow="2"
     inkscape:zoom="0.98994949"
     inkscape:cx="245.72177"
     inkscape:cy="511.50095"
     inkscape:document-units="mm"
     inkscape:current-layer="layer1"
     showgrid="false"
     units="px"
     inkscape:window-width="1600"
     inkscape:window-height="1149"
     inkscape:window-x="0"
     inkscape:window-y="26"
     inkscape:window-maximized="1"
     showguides="true"
     inkscape:guide-bbox="true">
    <sodipodi:guide
       position="0,52.916667"
       orientation="0,1"
       id="guide29"
       inkscape:locked="false"
       inkscape:label=""
       inkscape:color="rgb(0,0,255)" />
    <sodipodi:guide
       position="100.23967,139.09526"
       orientation="0,1"
       id="guide913"
       inkscape:locked="false" />
    <sodipodi:guide
       position="35.605739,203.7292"
       orientation="0,1"
       id="guide30"
       inkscape:locked="false" />
    <sodipodi:guide
       position="35.605739,52.916672"
       orientation="1,0"
       id="guide32"
       inkscape:locked="false" />
    <sodipodi:guide
       position="143.32896,52.916672"
       orientation="1,0"
       id="guide34"
       inkscape:locked="false" />
  </sodipodi:namedview>
  <metadata
     id="metadata5">
    <rdf:RDF>
      <cc:Work
         rdf:about="">
        <dc:format>image/svg+xml</dc:format>
        <dc:type
           rdf:resource="http://purl.org/dc/dcmitype/StillImage" />
        <dc:title />
      </cc:Work>
    </rdf:RDF>
  </metadata>
  <g
     inkscape:label="Layer 1"
     inkscape:groupmode="layer"
     id="layer1"
     transform="translate(0,-32.41665)">
    <flowRoot
       xml:space="preserve"
       id="flowRoot985"
       style="font-style:normal;font-variant:normal;font-weight:normal;font-stretch:normal;font-size:32px;line-height:1.25;font-family:sans-serif;-inkscape-font-specification:sans-serif;text-align:start;letter-spacing:0px;word-spacing:0px;text-anchor:start;fill:#000000;fill-opacity:1;stroke:none"
       transform="matrix(0.26458333,0,0,0.26458333,0,32.41665)"><flowRegion
         id="flowRegion987"><rect
           id="rect989"
           width="127.27922"
           height="147.04723"
           x="581.84784"
           y="327.2384" /></flowRegion><flowPara
         id="flowPara991"
         style="font-style:normal;font-variant:normal;font-weight:normal;font-stretch:normal;font-family:Hack;-inkscape-font-specification:Hack" /></flowRoot>    <path
       style="fill:#010101;fill-opacity:1;fill-rule:nonzero;stroke:#ffffff;stroke-width:0;stroke-miterlimit:4;stroke-dasharray:none;stroke-opacity:1;paint-order:normal"
       d="M 252.98438 230 C 251.5969 230 250.27528 230.26409 249.05273 230.72461 C 230.18712 234.29145 216.00195 250.78134 216.00195 270.71484 C 216.00195 272.42472 216.11761 274.10447 216.32031 275.75781 C 216.11086 277.12076 216.00195 278.51805 216.00195 279.94141 L 216.00195 424.34375 L 216.00195 463.17383 L 216.00195 603.80859 L 216.00195 610.0625 L 216.00195 626.03125 L 216.00195 745.65234 C 216.00195 747.72672 216.25471 749.73804 216.71875 751.66602 C 216.25487 754.13422 216.00195 756.67823 216.00195 759.28516 C 216.00195 781.84087 234.15913 800 256.71484 800 C 257.23432 800 257.74902 799.98003 258.26367 799.96094 C 258.52251 799.97881 258.7814 800 259.04492 800 L 417.24414 800 C 417.50812 800 417.76612 799.97887 418.02539 799.96094 C 418.5394 799.97999 419.05344 800 419.57227 800 C 442.12797 800 460.28711 781.84087 460.28711 759.28516 C 460.28711 736.72945 442.12797 718.57227 419.57227 718.57227 C 419.05344 718.57227 418.5394 718.59228 418.02539 718.61133 C 417.76612 718.5934 417.50812 718.57227 417.24414 718.57227 L 297.42969 718.57227 L 297.42969 626.03125 L 297.42969 610.0625 L 297.42969 566.82617 L 297.42969 426.19141 L 297.42969 403.96875 L 297.42969 311.42773 L 419.57227 311.42773 L 423.30469 311.42773 C 424.69426 311.42773 426.01811 311.16497 427.24219 310.70312 C 446.10498 307.13406 460.28711 290.64635 460.28711 270.71484 C 460.28711 250.78134 446.10194 234.29145 427.23633 230.72461 C 426.01378 230.26409 424.69217 230 423.30469 230 L 419.57227 230 L 252.98438 230 z "
       transform="matrix(0.26458333,0,0,0.26458333,0,32.41665)"
       id="rect853" />
  </g>
</svg>
