<?xml version="1.0" encoding="UTF-8" standalone="no"?>
<!-- Created with Inkscape (http://www.inkscape.org/) -->

<svg
   xmlns:dc="http://purl.org/dc/elements/1.1/"
   xmlns:cc="http://creativecommons.org/ns#"
   xmlns:rdf="http://www.w3.org/1999/02/22-rdf-syntax-ns#"
   xmlns:svg="http://www.w3.org/2000/svg"
   xmlns="http://www.w3.org/2000/svg"
   xmlns:sodipodi="http://sodipodi.sourceforge.net/DTD/sodipodi-0.dtd"
   xmlns:inkscape="http://www.inkscape.org/namespaces/inkscape"
   width="1000"
   height="1000"
   viewBox="0 0 264.58333 264.58334"
   version="1.1"
   id="svg8"
   inkscape:version="0.92.4 (5da689c313, 2019-01-14)"
   sodipodi:docname="].svg">
  <defs
     id="defs2" />
  <sodipodi:namedview
     id="base"
     pagecolor="#ffffff"
     bordercolor="#666666"
     borderopacity="1.0"
     inkscape:pageopacity="0.0"
     inkscape:pageshadow="2"
     inkscape:zoom="1.5163895"
     inkscape:cx="281.19831"
     inkscape:cy="483.90038"
     inkscape:document-units="mm"
     inkscape:current-layer="layer1"
     showgrid="false"
     units="px"
     inkscape:window-width="1600"
     inkscape:window-height="1149"
     inkscape:window-x="0"
     inkscape:window-y="26"
     inkscape:window-maximized="1"
     showguides="true"
     inkscape:guide-bbox="true">
    <sodipodi:guide
       position="0,52.916667"
       orientation="0,1"
       id="guide29"
       inkscape:locked="false"
       inkscape:label=""
       inkscape:color="rgb(0,0,255)" />
    <sodipodi:guide
       position="100.23967,139.09526"
       orientation="0,1"
       id="guide913"
       inkscape:locked="false" />
    <sodipodi:guide
       position="35.605739,203.7292"
       orientation="0,1"
       id="guide30"
       inkscape:locked="false" />
    <sodipodi:guide
       position="35.605739,52.916672"
       orientation="1,0"
       id="guide32"
       inkscape:locked="false" />
    <sodipodi:guide
       position="143.32896,52.916672"
       orientation="1,0"
       id="guide34"
       inkscape:locked="false" />
  </sodipodi:namedview>
  <metadata
     id="metadata5">
    <rdf:RDF>
      <cc:Work
         rdf:about="">
        <dc:format>image/svg+xml</dc:format>
        <dc:type
           rdf:resource="http://purl.org/dc/dcmitype/StillImage" />
        <dc:title />
      </cc:Work>
    </rdf:RDF>
  </metadata>
  <g
     inkscape:label="Layer 1"
     inkscape:groupmode="layer"
     id="layer1"
     transform="translate(0,-32.41665)">
    <flowRoot
       xml:space="preserve"
       id="flowRoot985"
       style="font-style:normal;font-variant:normal;font-weight:normal;font-stretch:normal;font-size:32px;line-height:1.25;font-family:sans-serif;-inkscape-font-specification:sans-serif;text-align:start;letter-spacing:0px;word-spacing:0px;text-anchor:start;fill:#000000;fill-opacity:1;stroke:none"
       transform="matrix(0.26458333,0,0,0.26458333,0,32.41665)"><flowRegion
         id="flowRegion987"><rect
           id="rect989"
           width="127.27922"
           height="147.04723"
           x="581.84784"
           y="327.2384" /></flowRegion><flowPara
         id="flowPara991"
         style="font-style:normal;font-variant:normal;font-weight:normal;font-stretch:normal;font-family:Hack;-inkscape-font-specification:Hack" /></flowRoot>    <path
       style="fill:#010101;fill-opacity:1;fill-rule:nonzero;stroke:#ffffff;stroke-width:0;stroke-miterlimit:4;stroke-dasharray:none;stroke-opacity:1;paint-order:normal"
       d="M 256.71484 230 C 234.15913 230 216.00195 248.15913 216.00195 270.71484 C 216.00195 293.27055 234.15913 311.42773 256.71484 311.42773 C 256.80131 311.42773 256.88632 311.42241 256.97266 311.42188 C 257.01674 311.42238 257.05931 311.42773 257.10352 311.42773 L 378.85938 311.42773 L 378.85938 374.45703 L 378.85938 502.9707 L 378.85938 544.60156 L 378.85938 655.75977 C 378.85938 655.9696 378.86929 656.17636 378.875 656.38477 C 378.86913 656.58416 378.85938 656.78351 378.85938 656.98438 L 378.85938 718.57227 L 257.10352 718.57227 C 257.05931 718.57227 257.01674 718.57762 256.97266 718.57812 C 256.88632 718.57759 256.80131 718.57227 256.71484 718.57227 C 234.15913 718.57227 216.00195 736.72945 216.00195 759.28516 C 216.00195 781.84087 234.15913 800 256.71484 800 C 256.80131 800 256.88632 799.99467 256.97266 799.99414 C 257.01674 799.99465 257.05931 800 257.10352 800 L 419.18555 800 C 419.22909 800 419.27103 799.99464 419.31445 799.99414 C 419.40079 799.99467 419.4858 800 419.57227 800 C 438.29394 800 453.97567 787.48487 458.76953 770.33398 C 459.7446 767.98522 460.28711 765.4089 460.28711 762.69922 L 460.28711 656.98438 C 460.28711 656.77632 460.27778 656.56976 460.27148 656.36328 C 460.27681 656.162 460.28711 655.96238 460.28711 655.75977 L 460.28711 537.09766 L 460.28711 485.39648 L 460.28711 364.17188 L 460.28711 276.41211 C 460.28711 275.64103 460.22598 274.88627 460.13477 274.14062 C 460.22819 273.01026 460.28711 271.87013 460.28711 270.71484 C 460.28711 248.15913 442.12797 230 419.57227 230 C 419.4858 230 419.40079 230.00533 419.31445 230.00586 C 419.27103 230.00536 419.22909 230 419.18555 230 L 257.10352 230 C 257.05931 230 257.01674 230.00535 256.97266 230.00586 C 256.88632 230.00533 256.80131 230 256.71484 230 z "
       transform="matrix(0.26458333,0,0,0.26458333,0,32.41665)"
       id="rect853" />
  </g>
</svg>
