<?xml version="1.0" encoding="UTF-8" standalone="no"?>
<!-- Created with Inkscape (http://www.inkscape.org/) -->

<svg
   xmlns:dc="http://purl.org/dc/elements/1.1/"
   xmlns:cc="http://creativecommons.org/ns#"
   xmlns:rdf="http://www.w3.org/1999/02/22-rdf-syntax-ns#"
   xmlns:svg="http://www.w3.org/2000/svg"
   xmlns="http://www.w3.org/2000/svg"
   xmlns:sodipodi="http://sodipodi.sourceforge.net/DTD/sodipodi-0.dtd"
   xmlns:inkscape="http://www.inkscape.org/namespaces/inkscape"
   width="1000"
   height="1000"
   viewBox="0 0 264.58333 264.58334"
   version="1.1"
   id="svg8"
   inkscape:version="0.92.4 (5da689c313, 2019-01-14)"
   sodipodi:docname="^.svg">
  <defs
     id="defs2" />
  <sodipodi:namedview
     id="base"
     pagecolor="#ffffff"
     bordercolor="#666666"
     borderopacity="1.0"
     inkscape:pageopacity="0.0"
     inkscape:pageshadow="2"
     inkscape:zoom="0.47304688"
     inkscape:cx="236.06598"
     inkscape:cy="473.32186"
     inkscape:document-units="mm"
     inkscape:current-layer="layer1"
     showgrid="false"
     units="px"
     inkscape:window-width="1600"
     inkscape:window-height="1149"
     inkscape:window-x="0"
     inkscape:window-y="26"
     inkscape:window-maximized="1"
     showguides="true"
     inkscape:guide-bbox="true">
    <sodipodi:guide
       position="0,52.916667"
       orientation="0,1"
       id="guide29"
       inkscape:locked="false"
       inkscape:label=""
       inkscape:color="rgb(0,0,255)" />
    <sodipodi:guide
       position="100.23967,139.09526"
       orientation="0,1"
       id="guide913"
       inkscape:locked="false" />
    <sodipodi:guide
       position="35.605739,203.7292"
       orientation="0,1"
       id="guide30"
       inkscape:locked="false" />
    <sodipodi:guide
       position="35.605739,52.916672"
       orientation="1,0"
       id="guide32"
       inkscape:locked="false" />
    <sodipodi:guide
       position="143.32896,52.916672"
       orientation="1,0"
       id="guide34"
       inkscape:locked="false" />
  </sodipodi:namedview>
  <metadata
     id="metadata5">
    <rdf:RDF>
      <cc:Work
         rdf:about="">
        <dc:format>image/svg+xml</dc:format>
        <dc:type
           rdf:resource="http://purl.org/dc/dcmitype/StillImage" />
        <dc:title></dc:title>
      </cc:Work>
    </rdf:RDF>
  </metadata>
  <g
     inkscape:label="Layer 1"
     inkscape:groupmode="layer"
     id="layer1"
     transform="translate(0,-32.41665)">
    <flowRoot
       xml:space="preserve"
       id="flowRoot985"
       style="font-style:normal;font-variant:normal;font-weight:normal;font-stretch:normal;font-size:32px;line-height:1.25;font-family:sans-serif;-inkscape-font-specification:sans-serif;text-align:start;letter-spacing:0px;word-spacing:0px;text-anchor:start;fill:#000000;fill-opacity:1;stroke:none"
       transform="matrix(0.26458333,0,0,0.26458333,0,10.871997)"><flowRegion
         id="flowRegion987"><rect
           id="rect989"
           width="127.27922"
           height="147.04723"
           x="581.84784"
           y="327.2384" /></flowRegion><flowPara
         id="flowPara991"
         style="font-style:normal;font-variant:normal;font-weight:normal;font-stretch:normal;font-family:Hack;-inkscape-font-specification:Hack" /></flowRoot>    <path
       style="fill:#010101;fill-opacity:1;fill-rule:nonzero;stroke:#ffffff;stroke-width:0;stroke-miterlimit:4;stroke-dasharray:none;stroke-opacity:1;paint-order:normal"
       d="M 338.14453 148.57227 C 315.58882 148.57227 297.42969 166.72945 297.42969 189.28516 C 297.42969 211.84087 315.58882 230 338.14453 230 C 360.70024 230 378.85938 211.84087 378.85938 189.28516 C 378.85937 166.72945 360.70024 148.57227 338.14453 148.57227 z M 227.11328 230 C 220.95741 230 216.00195 234.95546 216.00195 241.11133 L 216.00195 300.31641 C 216.00195 306.47228 220.95741 311.42773 227.11328 311.42773 L 286.31836 311.42773 C 292.47423 311.42773 297.42969 306.47228 297.42969 300.31641 L 297.42969 241.11133 C 297.42969 234.95546 292.47423 230 286.31836 230 L 227.11328 230 z M 389.9707 230 C 383.81483 230 378.85938 234.95546 378.85938 241.11133 L 378.85938 300.31641 C 378.85938 306.47228 383.81483 311.42773 389.9707 311.42773 L 449.17578 311.42773 C 455.33165 311.42773 460.28711 306.47228 460.28711 300.31641 L 460.28711 241.11133 C 460.28711 234.95546 455.33165 230 449.17578 230 L 389.9707 230 z M 175.28711 311.42773 C 152.7314 311.42773 134.57227 329.58687 134.57227 352.14258 C 134.57227 374.69829 152.7314 392.85742 175.28711 392.85742 C 197.84282 392.85742 216.00195 374.69829 216.00195 352.14258 C 216.00195 329.58687 197.84282 311.42773 175.28711 311.42773 z M 501.00195 311.42773 C 478.44624 311.42773 460.28711 329.58687 460.28711 352.14258 C 460.28711 374.69829 478.44624 392.85742 501.00195 392.85742 C 523.55766 392.85742 541.71484 374.69829 541.71484 352.14258 C 541.71484 329.58687 523.55766 311.42773 501.00195 311.42773 z "
       transform="matrix(0.26458333,0,0,0.26458333,0,32.41665)"
       id="rect1569" />
  </g>
</svg>
