<?xml version="1.0" encoding="UTF-8" standalone="no"?>
<!-- Created with Inkscape (http://www.inkscape.org/) -->

<svg
   xmlns:dc="http://purl.org/dc/elements/1.1/"
   xmlns:cc="http://creativecommons.org/ns#"
   xmlns:rdf="http://www.w3.org/1999/02/22-rdf-syntax-ns#"
   xmlns:svg="http://www.w3.org/2000/svg"
   xmlns="http://www.w3.org/2000/svg"
   xmlns:sodipodi="http://sodipodi.sourceforge.net/DTD/sodipodi-0.dtd"
   xmlns:inkscape="http://www.inkscape.org/namespaces/inkscape"
   width="1000"
   height="1000"
   viewBox="0 0 264.58333 264.58334"
   version="1.1"
   id="svg8"
   inkscape:version="0.92.4 (5da689c313, 2019-01-14)"
   sodipodi:docname="A.svg">
  <defs
     id="defs2" />
  <sodipodi:namedview
     id="base"
     pagecolor="#ffffff"
     bordercolor="#666666"
     borderopacity="1.0"
     inkscape:pageopacity="0.0"
     inkscape:pageshadow="2"
     inkscape:zoom="0.70710678"
     inkscape:cx="181.3955"
     inkscape:cy="606.17159"
     inkscape:document-units="mm"
     inkscape:current-layer="layer1"
     showgrid="false"
     units="px"
     inkscape:window-width="1600"
     inkscape:window-height="1149"
     inkscape:window-x="0"
     inkscape:window-y="26"
     inkscape:window-maximized="1"
     showguides="true"
     inkscape:guide-bbox="true">
    <sodipodi:guide
       position="0,52.916667"
       orientation="0,1"
       id="guide29"
       inkscape:locked="false"
       inkscape:label=""
       inkscape:color="rgb(0,0,255)" />
    <sodipodi:guide
       position="57.150382,139.09526"
       orientation="0,1"
       id="guide913"
       inkscape:locked="false" />
    <sodipodi:guide
       position="35.605739,203.7292"
       orientation="0,1"
       id="guide30"
       inkscape:locked="false" />
    <sodipodi:guide
       position="35.605739,52.916672"
       orientation="1,0"
       id="guide32"
       inkscape:locked="false" />
    <sodipodi:guide
       position="143.32896,52.916672"
       orientation="1,0"
       id="guide34"
       inkscape:locked="false" />
  </sodipodi:namedview>
  <metadata
     id="metadata5">
    <rdf:RDF>
      <cc:Work
         rdf:about="">
        <dc:format>image/svg+xml</dc:format>
        <dc:type
           rdf:resource="http://purl.org/dc/dcmitype/StillImage" />
        <dc:title />
      </cc:Work>
    </rdf:RDF>
  </metadata>
  <g
     inkscape:label="Layer 1"
     inkscape:groupmode="layer"
     id="layer1"
     transform="translate(0,-32.41665)">
    <path
       style="fill:#010101;fill-opacity:1;fill-rule:nonzero;stroke:#ffffff;stroke-width:0;stroke-miterlimit:4;stroke-dasharray:none;stroke-opacity:1;paint-order:normal"
       d="M 239.26758 247.44727 C 226.37812 247.44727 216.00195 257.82538 216.00195 270.71484 C 216.00195 283.6043 226.37812 293.98047 239.26758 293.98047 L 274.16406 293.98047 L 415.00977 293.98047 L 477.73438 293.98047 L 477.73438 339.9707 L 477.73438 452.32617 L 477.73438 491.73438 L 372.50977 491.73438 L 335.74023 491.73438 L 198.55273 491.73438 L 198.55273 485.39648 L 198.55273 372.60742 C 198.55273 372.10292 198.53184 371.60361 198.5 371.10742 C 198.53204 370.6055 198.55273 370.10208 198.55273 369.5918 L 198.55273 334.69531 C 198.55273 321.80585 188.17657 311.42773 175.28711 311.42773 C 162.39765 311.42773 152.02148 321.80585 152.02148 334.69531 L 152.02148 369.5918 C 152.02148 370.10208 152.04218 370.6055 152.07422 371.10742 C 152.04238 371.60361 152.02148 372.10292 152.02148 372.60742 L 152.02148 494.53516 L 152.02148 544.60156 L 152.02148 653.875 L 152.02148 750.64648 L 152.02148 776.73438 C 152.02148 789.62383 162.39765 800 175.28711 800 C 188.17657 800 198.55273 789.62383 198.55273 776.73438 L 198.55273 741.83789 L 198.55273 605.06836 L 198.55273 538.98242 L 198.55273 538.26562 L 335.74023 538.26562 L 372.50977 538.26562 L 477.73438 538.26562 L 477.73438 591.68164 L 477.73438 626.03125 L 477.73438 738.30664 C 477.73438 738.8982 477.76457 739.48259 477.80859 740.0625 C 477.76473 740.64878 477.73438 741.24002 477.73438 741.83789 L 477.73438 776.73438 C 477.73438 789.62383 488.11249 800 501.00195 800 C 513.89141 800 524.26758 789.62383 524.26758 776.73438 L 524.26758 741.83789 C 524.26758 741.23799 524.23752 740.64487 524.19336 740.05664 C 524.23709 739.47861 524.26758 738.89624 524.26758 738.30664 L 524.26758 617.40625 L 524.26758 566.82617 L 524.26758 438.31836 L 524.26758 335.31641 L 524.26758 271.31445 C 524.26758 271.24855 524.25879 271.1848 524.25781 271.11914 C 524.26011 270.98391 524.26758 270.85064 524.26758 270.71484 C 524.26758 257.82538 513.89141 247.44727 501.00195 247.44727 C 500.70984 247.44727 500.4203 247.46014 500.13086 247.4707 C 499.98363 247.46059 499.83739 247.44727 499.6875 247.44727 L 415.00977 247.44727 L 274.16406 247.44727 L 239.26758 247.44727 z "
       transform="matrix(0.26458333,0,0,0.26458333,0,32.41665)"
       id="rect843" />
  </g>
</svg>
