<?xml version="1.0" encoding="UTF-8" standalone="no"?>
<!-- Created with Inkscape (http://www.inkscape.org/) -->

<svg
   xmlns:dc="http://purl.org/dc/elements/1.1/"
   xmlns:cc="http://creativecommons.org/ns#"
   xmlns:rdf="http://www.w3.org/1999/02/22-rdf-syntax-ns#"
   xmlns:svg="http://www.w3.org/2000/svg"
   xmlns="http://www.w3.org/2000/svg"
   xmlns:sodipodi="http://sodipodi.sourceforge.net/DTD/sodipodi-0.dtd"
   xmlns:inkscape="http://www.inkscape.org/namespaces/inkscape"
   width="1000"
   height="1000"
   viewBox="0 0 264.58333 264.58334"
   version="1.1"
   id="svg8"
   inkscape:version="0.92.4 (5da689c313, 2019-01-14)"
   sodipodi:docname="a.svg">
  <defs
     id="defs2" />
  <sodipodi:namedview
     id="base"
     pagecolor="#ffffff"
     bordercolor="#666666"
     borderopacity="1.0"
     inkscape:pageopacity="0.0"
     inkscape:pageshadow="2"
     inkscape:zoom="0.98994949"
     inkscape:cx="132.19423"
     inkscape:cy="273.50828"
     inkscape:document-units="mm"
     inkscape:current-layer="layer1"
     showgrid="false"
     units="px"
     inkscape:window-width="1600"
     inkscape:window-height="1149"
     inkscape:window-x="0"
     inkscape:window-y="26"
     inkscape:window-maximized="1"
     showguides="true"
     inkscape:guide-bbox="true">
    <sodipodi:guide
       position="0,52.916667"
       orientation="0,1"
       id="guide29"
       inkscape:locked="false"
       inkscape:label=""
       inkscape:color="rgb(0,0,255)" />
    <sodipodi:guide
       position="57.150382,139.09526"
       orientation="0,1"
       id="guide913"
       inkscape:locked="false" />
    <sodipodi:guide
       position="35.605739,52.916672"
       orientation="1,0"
       id="guide1095"
       inkscape:locked="false" />
    <sodipodi:guide
       position="35.605739,203.7292"
       orientation="0,1"
       id="guide1097"
       inkscape:locked="false" />
    <sodipodi:guide
       position="143.32896,52.916672"
       orientation="1,0"
       id="guide1099"
       inkscape:locked="false" />
    <sodipodi:guide
       position="97.161864,52.916687"
       orientation="1,0"
       id="guide1238"
       inkscape:locked="false" />
    <sodipodi:guide
       position="35.605739,102.16158"
       orientation="0,1"
       id="guide1240"
       inkscape:locked="false" />
  </sodipodi:namedview>
  <metadata
     id="metadata5">
    <rdf:RDF>
      <cc:Work
         rdf:about="">
        <dc:format>image/svg+xml</dc:format>
        <dc:type
           rdf:resource="http://purl.org/dc/dcmitype/StillImage" />
        <dc:title />
      </cc:Work>
    </rdf:RDF>
  </metadata>
  <g
     inkscape:label="Layer 1"
     inkscape:groupmode="layer"
     id="layer1"
     transform="translate(0,-32.41665)">
    <path
       style="fill:#010101;fill-opacity:1;fill-rule:nonzero;stroke:#ffffff;stroke-width:0;stroke-miterlimit:4;stroke-dasharray:none;stroke-opacity:1;paint-order:normal"
       d="M 156.38086 474.28516 C 155.84033 474.28516 155.32067 474.36038 154.82031 474.48633 C 143.3683 475.95817 134.57227 485.68562 134.57227 497.55078 C 134.57227 509.41864 143.3723 519.14877 154.82812 520.61719 C 155.32612 520.74187 155.84315 520.81641 156.38086 520.81641 L 294.49805 520.81641 C 294.83839 520.81641 295.17053 520.78154 295.49609 520.73047 C 296.13425 520.78256 296.77765 520.81641 297.42969 520.81641 C 310.31867 520.81641 320.69531 510.43976 320.69531 497.55078 C 320.69531 484.6618 310.31867 474.28516 297.42969 474.28516 C 296.77967 474.28516 296.13818 474.31932 295.50195 474.37109 C 295.17458 474.31943 294.84039 474.28516 294.49805 474.28516 L 156.38086 474.28516 z M 343.96094 520.81641 C 331.07196 520.81641 320.69531 531.19305 320.69531 544.08203 C 320.69531 544.99061 320.75119 545.88477 320.85156 546.76562 C 320.75127 547.87576 320.69531 549.00337 320.69531 550.14844 L 320.69531 573.69727 L 320.69531 607.52734 L 320.69531 613.87695 L 287.76562 613.87695 L 221.28516 613.87695 L 161.64453 613.87695 C 161.19572 613.87695 160.75992 613.92398 160.33789 614.01172 C 159.51645 613.92468 158.68316 613.87695 157.83789 613.87695 C 144.94891 613.87695 134.57227 624.2536 134.57227 637.14258 C 134.57227 637.63375 134.59334 638.12007 134.62305 638.60352 C 134.59169 638.93765 134.57227 639.27458 134.57227 639.61719 L 134.57227 696.30078 L 134.57227 768.67188 C 134.57227 769.88524 134.73828 771.05706 135.01758 772.18164 C 134.72762 773.65381 134.57227 775.17468 134.57227 776.73438 C 134.57227 789.62336 144.94891 800 157.83789 800 C 157.91256 800 157.98605 799.99484 158.06055 799.99414 C 158.09661 799.99474 158.13176 800 158.16797 800 L 250.57031 800 L 295.31445 800 L 343.81055 800 C 343.82704 800 343.84291 799.99817 343.85938 799.99805 C 343.89339 799.99819 343.92689 800 343.96094 800 C 356.84992 800 367.22656 789.62336 367.22656 776.73438 C 367.22656 776.2432 367.20548 775.75688 367.17578 775.27344 C 367.20714 774.93931 367.22656 774.60237 367.22656 774.25977 L 367.22656 717.57617 C 367.22656 716.21812 366.96377 714.92642 366.50391 713.73438 C 366.97451 711.40177 367.22656 708.95593 367.22656 706.43359 L 367.22656 700.58984 L 367.22656 666.75781 L 367.22656 607.52734 L 367.22656 573.69727 L 367.22656 550.14844 C 367.22656 549.00335 367.16866 547.87578 367.06836 546.76562 C 367.16873 545.88475 367.22656 544.99063 367.22656 544.08203 C 367.22656 531.19305 356.84992 520.81641 343.96094 520.81641 z M 181.10352 660.4082 L 221.28516 660.4082 L 287.76562 660.4082 L 320.69531 660.4082 L 320.69531 666.75781 L 320.69531 700.58984 L 320.69531 706.43359 C 320.69531 708.95593 320.94736 711.40177 321.41797 713.73438 C 320.95811 714.92642 320.69531 716.21812 320.69531 717.57617 L 320.69531 753.46875 L 295.31445 753.46875 L 250.57031 753.46875 L 181.10352 753.46875 L 181.10352 691.73633 L 181.10352 660.4082 z "
       transform="matrix(0.26458333,0,0,0.26458333,0,32.41665)"
       id="rect884" />
  </g>
</svg>
