<?xml version="1.0" encoding="UTF-8" standalone="no"?>
<!-- Created with Inkscape (http://www.inkscape.org/) -->

<svg
   xmlns:dc="http://purl.org/dc/elements/1.1/"
   xmlns:cc="http://creativecommons.org/ns#"
   xmlns:rdf="http://www.w3.org/1999/02/22-rdf-syntax-ns#"
   xmlns:svg="http://www.w3.org/2000/svg"
   xmlns="http://www.w3.org/2000/svg"
   xmlns:sodipodi="http://sodipodi.sourceforge.net/DTD/sodipodi-0.dtd"
   xmlns:inkscape="http://www.inkscape.org/namespaces/inkscape"
   width="1000"
   height="1000"
   viewBox="0 0 264.58333 264.58334"
   version="1.1"
   id="svg8"
   inkscape:version="0.92.4 (5da689c313, 2019-01-14)"
   sodipodi:docname="b.svg">
  <defs
     id="defs2" />
  <sodipodi:namedview
     id="base"
     pagecolor="#ffffff"
     bordercolor="#666666"
     borderopacity="1.0"
     inkscape:pageopacity="0.0"
     inkscape:pageshadow="2"
     inkscape:zoom="1.4"
     inkscape:cx="144.74127"
     inkscape:cy="480.01124"
     inkscape:document-units="mm"
     inkscape:current-layer="layer1"
     showgrid="false"
     units="px"
     inkscape:window-width="1600"
     inkscape:window-height="1149"
     inkscape:window-x="0"
     inkscape:window-y="26"
     inkscape:window-maximized="1"
     showguides="true"
     inkscape:guide-bbox="true">
    <sodipodi:guide
       position="0,52.916667"
       orientation="0,1"
       id="guide29"
       inkscape:locked="false"
       inkscape:label=""
       inkscape:color="rgb(0,0,255)" />
    <sodipodi:guide
       position="57.150382,139.09526"
       orientation="0,1"
       id="guide913"
       inkscape:locked="false" />
    <sodipodi:guide
       position="35.605739,52.916672"
       orientation="1,0"
       id="guide1095"
       inkscape:locked="false" />
    <sodipodi:guide
       position="35.605739,203.7292"
       orientation="0,1"
       id="guide1097"
       inkscape:locked="false" />
    <sodipodi:guide
       position="143.32896,52.916672"
       orientation="1,0"
       id="guide1099"
       inkscape:locked="false" />
    <sodipodi:guide
       position="97.161864,52.916687"
       orientation="1,0"
       id="guide1238"
       inkscape:locked="false" />
    <sodipodi:guide
       position="35.605739,102.16158"
       orientation="0,1"
       id="guide1240"
       inkscape:locked="false" />
  </sodipodi:namedview>
  <metadata
     id="metadata5">
    <rdf:RDF>
      <cc:Work
         rdf:about="">
        <dc:format>image/svg+xml</dc:format>
        <dc:type
           rdf:resource="http://purl.org/dc/dcmitype/StillImage" />
        <dc:title />
      </cc:Work>
    </rdf:RDF>
  </metadata>
  <g
     inkscape:label="Layer 1"
     inkscape:groupmode="layer"
     id="layer1"
     transform="translate(0,-32.41665)">
    <path
       style="fill:#010101;fill-opacity:1;fill-rule:nonzero;stroke:#ffffff;stroke-width:0;stroke-miterlimit:4;stroke-dasharray:none;stroke-opacity:1;paint-order:normal"
       d="M 157.83789 241.63281 C 144.94891 241.63281 134.57227 252.00946 134.57227 264.89844 C 134.57227 265.35571 134.58946 265.80917 134.61523 266.25977 C 134.59217 266.54752 134.57227 266.83697 134.57227 267.13086 L 134.57227 324.01758 L 134.57227 408.70703 L 134.57227 438.30469 L 134.57227 467.93555 L 134.57227 474.37891 L 134.57227 527.16602 L 134.57227 560.99805 L 134.57227 573.69727 L 134.57227 607.52734 L 134.57227 644.29883 L 134.57227 650.00977 L 134.57227 654.05859 L 134.57227 689.18555 L 134.57227 771.03906 C 134.57227 771.99895 134.63942 772.94316 134.75391 773.87109 C 134.63958 774.80984 134.57227 775.76377 134.57227 776.73438 C 134.57227 788.60223 143.3723 798.33236 154.82812 799.80078 C 155.32612 799.92546 155.84315 800 156.38086 800 L 157.83789 800 L 221.28516 800 L 326.38672 800 L 345.06055 800 C 345.4548 800 345.83889 799.95875 346.21289 799.89062 C 358.03677 798.76432 367.22656 788.86298 367.22656 776.73438 C 367.22656 776.46389 367.21415 776.19594 367.20508 775.92773 C 367.21023 775.78989 367.22656 775.65477 367.22656 775.51562 L 367.22656 717.77539 C 367.22656 716.88176 367.10639 716.01914 366.9043 715.18945 C 367.11258 713.70052 367.22656 712.17239 367.22656 710.61133 L 367.22656 700.58984 L 367.22656 666.75781 L 367.22656 563.67383 L 367.22656 546.71094 C 367.22656 546.34001 367.2067 545.97418 367.16992 545.61328 C 367.20257 545.10669 367.22656 544.59715 367.22656 544.08203 C 367.22656 531.19305 356.84992 520.81641 343.96094 520.81641 C 331.07196 520.81641 320.69531 531.19305 320.69531 544.08203 C 320.69531 544.59979 320.71702 545.11195 320.75 545.62109 C 320.75 545.62109 320.75 545.62305 320.75 545.62305 C 320.71389 545.98072 320.69531 546.34343 320.69531 546.71094 L 320.69531 603.26367 L 320.69531 666.75781 L 320.69531 700.58984 L 320.69531 710.61133 C 320.69531 712.17105 320.80965 713.69782 321.01758 715.18555 C 320.81486 716.01644 320.69531 716.88033 320.69531 717.77539 L 320.69531 753.46875 L 221.28516 753.46875 L 181.10352 753.46875 L 181.10352 654.05859 L 181.10352 620.22656 L 181.10352 594.58984 L 181.10352 573.69727 L 181.10352 560.99805 L 181.10352 527.16602 L 181.10352 520.81641 L 297.61523 520.81641 C 297.68059 520.81641 297.74372 520.80858 297.80859 520.80664 C 310.52071 520.60484 320.69531 510.31271 320.69531 497.55078 C 320.69531 484.78886 310.52071 474.49672 297.80859 474.29492 C 297.74372 474.29298 297.68059 474.28516 297.61523 474.28516 L 181.10352 474.28516 L 181.10352 467.93555 L 181.10352 434.10547 L 181.10352 334.60156 L 181.10352 307.21094 L 181.10352 267.13086 C 181.10352 266.84223 181.0828 266.55811 181.06055 266.27539 C 181.08692 265.81962 181.10352 265.36105 181.10352 264.89844 C 181.10352 252.00946 170.72687 241.63281 157.83789 241.63281 z "
       transform="matrix(0.26458333,0,0,0.26458333,0,32.41665)"
       id="rect846" />
  </g>
</svg>
