<?xml version="1.0" encoding="UTF-8" standalone="no"?>
<!-- Created with Inkscape (http://www.inkscape.org/) -->

<svg
   xmlns:dc="http://purl.org/dc/elements/1.1/"
   xmlns:cc="http://creativecommons.org/ns#"
   xmlns:rdf="http://www.w3.org/1999/02/22-rdf-syntax-ns#"
   xmlns:svg="http://www.w3.org/2000/svg"
   xmlns="http://www.w3.org/2000/svg"
   xmlns:sodipodi="http://sodipodi.sourceforge.net/DTD/sodipodi-0.dtd"
   xmlns:inkscape="http://www.inkscape.org/namespaces/inkscape"
   width="1000"
   height="1000"
   viewBox="0 0 264.58333 264.58334"
   version="1.1"
   id="svg8"
   inkscape:version="0.92.4 (5da689c313, 2019-01-14)"
   sodipodi:docname="B.svg">
  <defs
     id="defs2" />
  <sodipodi:namedview
     id="base"
     pagecolor="#ffffff"
     bordercolor="#666666"
     borderopacity="1.0"
     inkscape:pageopacity="0.0"
     inkscape:pageshadow="2"
     inkscape:zoom="0.7"
     inkscape:cx="437.98652"
     inkscape:cy="529.75671"
     inkscape:document-units="mm"
     inkscape:current-layer="layer1"
     showgrid="false"
     units="px"
     inkscape:window-width="1600"
     inkscape:window-height="1149"
     inkscape:window-x="0"
     inkscape:window-y="26"
     inkscape:window-maximized="1"
     showguides="true"
     inkscape:guide-bbox="true">
    <sodipodi:guide
       position="0,52.916667"
       orientation="0,1"
       id="guide29"
       inkscape:locked="false"
       inkscape:label=""
       inkscape:color="rgb(0,0,255)" />
    <sodipodi:guide
       position="57.150382,139.09526"
       orientation="0,1"
       id="guide913"
       inkscape:locked="false" />
    <sodipodi:guide
       position="35.605739,52.916672"
       orientation="1,0"
       id="guide1095"
       inkscape:locked="false" />
    <sodipodi:guide
       position="35.605739,203.7292"
       orientation="0,1"
       id="guide1097"
       inkscape:locked="false" />
    <sodipodi:guide
       position="143.32896,52.916672"
       orientation="1,0"
       id="guide1099"
       inkscape:locked="false" />
  </sodipodi:namedview>
  <metadata
     id="metadata5">
    <rdf:RDF>
      <cc:Work
         rdf:about="">
        <dc:format>image/svg+xml</dc:format>
        <dc:type
           rdf:resource="http://purl.org/dc/dcmitype/StillImage" />
        <dc:title />
      </cc:Work>
    </rdf:RDF>
  </metadata>
  <g
     inkscape:label="Layer 1"
     inkscape:groupmode="layer"
     id="layer1"
     transform="translate(0,-32.41665)">
    <path
       style="fill:#010101;fill-opacity:1;fill-rule:nonzero;stroke:#ffffff;stroke-width:0;stroke-miterlimit:4;stroke-dasharray:none;stroke-opacity:1;paint-order:normal"
       d="M 175.28711 247.44727 C 162.39765 247.44727 152.02148 257.82538 152.02148 270.71484 C 152.02148 270.98272 152.03212 271.24804 152.04102 271.51367 C 152.03645 271.64517 152.02148 271.7736 152.02148 271.90625 L 152.02148 331.11133 L 152.02148 445.15234 L 152.02148 596.89844 L 152.02148 714.23047 L 152.02148 758.13867 C 152.02148 758.26533 152.0381 758.38774 152.04102 758.51367 C 152.03272 758.7703 152.02148 759.02644 152.02148 759.28516 C 152.02148 771.89168 161.94843 782.0894 174.44336 782.53125 C 174.58633 782.54078 174.72953 782.55273 174.875 782.55273 L 243.60352 782.55273 L 434.11523 782.55273 L 498.52148 782.55273 C 498.81149 782.55273 499.09356 782.52557 499.37305 782.48828 C 499.91149 782.52521 500.45381 782.55273 501.00195 782.55273 C 513.89141 782.55273 524.26758 772.17462 524.26758 759.28516 C 524.26758 759.08802 524.25873 758.8932 524.25391 758.69727 C 524.25635 758.60088 524.26758 758.50716 524.26758 758.41016 L 524.26758 699.20312 L 524.26758 578.88672 C 524.26758 578.80412 524.26257 578.72301 524.26172 578.64062 C 524.26257 578.55623 524.26758 578.47329 524.26758 578.38867 L 524.26758 451.61133 L 524.26758 369.5918 L 524.26758 368.34766 L 524.26758 334.69531 C 524.26758 321.80585 513.89141 311.42773 501.00195 311.42773 C 488.11249 311.42773 477.73438 321.80585 477.73438 334.69531 L 477.73438 368.34766 L 477.73438 369.5918 L 477.73438 491.73438 L 437.50977 491.73438 L 291.08008 491.73438 L 198.55273 491.73438 L 198.55273 382.4668 L 198.55273 293.98047 L 278.06641 293.98047 L 279.67383 293.98047 L 408.9375 293.98047 L 437.02148 293.98047 C 449.91094 293.98047 460.28711 283.6043 460.28711 270.71484 C 460.28711 257.82538 449.91094 247.44727 437.02148 247.44727 L 408.9375 247.44727 L 279.67383 247.44727 L 278.06641 247.44727 L 175.58789 247.44727 C 175.55365 247.44727 175.52044 247.4526 175.48633 247.45312 C 175.41965 247.45258 175.35392 247.44727 175.28711 247.44727 z M 198.55273 538.26562 L 291.08008 538.26562 L 437.50977 538.26562 L 477.73438 538.26562 L 477.73438 578.38867 C 477.73438 578.47328 477.73938 578.55623 477.74023 578.64062 C 477.73938 578.72301 477.73438 578.80413 477.73438 578.88672 L 477.73438 702.35742 L 477.73438 736.01953 L 434.11523 736.01953 L 243.60352 736.01953 L 198.55273 736.01953 L 198.55273 673.48438 L 198.55273 580.76367 L 198.55273 538.26562 z "
       transform="matrix(0.26458333,0,0,0.26458333,0,32.41665)"
       id="rect848" />
  </g>
</svg>
