<?xml version="1.0" encoding="UTF-8" standalone="no"?>
<!-- Created with Inkscape (http://www.inkscape.org/) -->

<svg
   xmlns:dc="http://purl.org/dc/elements/1.1/"
   xmlns:cc="http://creativecommons.org/ns#"
   xmlns:rdf="http://www.w3.org/1999/02/22-rdf-syntax-ns#"
   xmlns:svg="http://www.w3.org/2000/svg"
   xmlns="http://www.w3.org/2000/svg"
   xmlns:sodipodi="http://sodipodi.sourceforge.net/DTD/sodipodi-0.dtd"
   xmlns:inkscape="http://www.inkscape.org/namespaces/inkscape"
   width="1000"
   height="1000"
   viewBox="0 0 264.58333 264.58334"
   version="1.1"
   id="svg8"
   inkscape:version="0.92.4 (5da689c313, 2019-01-14)"
   sodipodi:docname="c.svg">
  <defs
     id="defs2" />
  <sodipodi:namedview
     id="base"
     pagecolor="#ffffff"
     bordercolor="#666666"
     borderopacity="1.0"
     inkscape:pageopacity="0.0"
     inkscape:pageshadow="2"
     inkscape:zoom="0.7"
     inkscape:cx="91.428823"
     inkscape:cy="279.51365"
     inkscape:document-units="mm"
     inkscape:current-layer="layer1"
     showgrid="false"
     units="px"
     inkscape:window-width="1600"
     inkscape:window-height="1149"
     inkscape:window-x="0"
     inkscape:window-y="26"
     inkscape:window-maximized="1"
     showguides="true"
     inkscape:guide-bbox="true">
    <sodipodi:guide
       position="0,52.916667"
       orientation="0,1"
       id="guide29"
       inkscape:locked="false"
       inkscape:label=""
       inkscape:color="rgb(0,0,255)" />
    <sodipodi:guide
       position="57.150382,139.09526"
       orientation="0,1"
       id="guide913"
       inkscape:locked="false" />
    <sodipodi:guide
       position="35.605739,52.916672"
       orientation="1,0"
       id="guide1095"
       inkscape:locked="false" />
    <sodipodi:guide
       position="35.605739,203.7292"
       orientation="0,1"
       id="guide1097"
       inkscape:locked="false" />
    <sodipodi:guide
       position="143.32896,52.916672"
       orientation="1,0"
       id="guide1099"
       inkscape:locked="false" />
    <sodipodi:guide
       position="97.161864,52.916687"
       orientation="1,0"
       id="guide1238"
       inkscape:locked="false" />
    <sodipodi:guide
       position="35.605739,102.16158"
       orientation="0,1"
       id="guide1240"
       inkscape:locked="false" />
  </sodipodi:namedview>
  <metadata
     id="metadata5">
    <rdf:RDF>
      <cc:Work
         rdf:about="">
        <dc:format>image/svg+xml</dc:format>
        <dc:type
           rdf:resource="http://purl.org/dc/dcmitype/StillImage" />
        <dc:title />
      </cc:Work>
    </rdf:RDF>
  </metadata>
  <g
     inkscape:label="Layer 1"
     inkscape:groupmode="layer"
     id="layer1"
     transform="translate(0,-32.41665)">
    <path
       style="fill:#010101;fill-opacity:1;fill-rule:nonzero;stroke:#ffffff;stroke-width:0;stroke-miterlimit:4;stroke-dasharray:none;stroke-opacity:1;paint-order:normal"
       d="M 203.62695 474.28516 C 203.34857 474.28516 203.07537 474.30934 202.80664 474.34375 C 190.65257 475.14317 181.10352 485.18754 181.10352 497.55078 C 181.10352 509.9167 190.65662 519.96418 202.81445 520.75977 C 203.08062 520.79351 203.35133 520.81641 203.62695 520.81641 L 302.99414 520.81641 L 343.38672 520.81641 L 343.96094 520.81641 C 356.84992 520.81641 367.22656 510.43976 367.22656 497.55078 C 367.22656 484.6618 356.84992 474.28516 343.96094 474.28516 L 343.38672 474.28516 L 302.99414 474.28516 L 203.62695 474.28516 z M 157.83789 520.81641 C 144.94891 520.81641 134.57227 531.19305 134.57227 544.08203 C 134.57227 545.09234 134.64386 546.0849 134.76758 547.06055 C 134.64131 547.70534 134.57227 548.36987 134.57227 549.05273 L 134.57227 603.63477 L 134.57227 678.84766 L 134.57227 726.75781 L 134.57227 773.28906 C 134.57227 773.75183 134.61235 774.20379 134.66992 774.65039 C 134.60943 775.33734 134.57227 776.03119 134.57227 776.73438 C 134.57227 786.66319 140.7329 795.09524 149.45312 798.44727 C 150.56633 799.41267 152.01734 800 153.61328 800 L 221.28516 800 L 304.68555 800 L 342.50391 800 C 342.66301 800 342.81851 799.98795 342.97461 799.97656 C 343.3019 799.99009 343.6302 800 343.96094 800 C 356.84992 800 367.22656 789.62336 367.22656 776.73438 C 367.22656 763.84539 356.84992 753.46875 343.96094 753.46875 C 343.6374 753.46875 343.31634 753.48119 342.99609 753.49414 C 342.83301 753.4817 342.67029 753.46875 342.50391 753.46875 L 304.68555 753.46875 L 221.28516 753.46875 L 181.10352 753.46875 L 181.10352 717.42383 L 181.10352 670.89258 L 181.10352 595.43945 L 181.10352 549.05273 C 181.10352 548.3712 181.03399 547.70808 180.9082 547.06445 C 181.03226 546.08754 181.10352 545.09371 181.10352 544.08203 C 181.10352 531.19305 170.72687 520.81641 157.83789 520.81641 z "
       transform="matrix(0.26458333,0,0,0.26458333,0,32.41665)"
       id="rect884" />
  </g>
</svg>
