<?xml version="1.0" encoding="UTF-8" standalone="no"?>
<!-- Created with Inkscape (http://www.inkscape.org/) -->

<svg
   xmlns:dc="http://purl.org/dc/elements/1.1/"
   xmlns:cc="http://creativecommons.org/ns#"
   xmlns:rdf="http://www.w3.org/1999/02/22-rdf-syntax-ns#"
   xmlns:svg="http://www.w3.org/2000/svg"
   xmlns="http://www.w3.org/2000/svg"
   xmlns:sodipodi="http://sodipodi.sourceforge.net/DTD/sodipodi-0.dtd"
   xmlns:inkscape="http://www.inkscape.org/namespaces/inkscape"
   width="1000"
   height="1000"
   viewBox="0 0 264.58333 264.58334"
   version="1.1"
   id="svg8"
   inkscape:version="0.92.4 (5da689c313, 2019-01-14)"
   sodipodi:docname="C.svg">
  <defs
     id="defs2" />
  <sodipodi:namedview
     id="base"
     pagecolor="#ffffff"
     bordercolor="#666666"
     borderopacity="1.0"
     inkscape:pageopacity="0.0"
     inkscape:pageshadow="2"
     inkscape:zoom="1.979899"
     inkscape:cx="352.85968"
     inkscape:cy="296.8158"
     inkscape:document-units="mm"
     inkscape:current-layer="layer1"
     showgrid="false"
     units="px"
     inkscape:window-width="1600"
     inkscape:window-height="1149"
     inkscape:window-x="0"
     inkscape:window-y="26"
     inkscape:window-maximized="1"
     showguides="true"
     inkscape:guide-bbox="true">
    <sodipodi:guide
       position="0,52.916667"
       orientation="0,1"
       id="guide29"
       inkscape:locked="false"
       inkscape:label=""
       inkscape:color="rgb(0,0,255)" />
    <sodipodi:guide
       position="57.150382,139.09526"
       orientation="0,1"
       id="guide913"
       inkscape:locked="false" />
    <sodipodi:guide
       position="35.605739,52.916672"
       orientation="1,0"
       id="guide1095"
       inkscape:locked="false" />
    <sodipodi:guide
       position="35.605739,203.7292"
       orientation="0,1"
       id="guide1097"
       inkscape:locked="false" />
    <sodipodi:guide
       position="143.32896,52.916672"
       orientation="1,0"
       id="guide1099"
       inkscape:locked="false" />
  </sodipodi:namedview>
  <metadata
     id="metadata5">
    <rdf:RDF>
      <cc:Work
         rdf:about="">
        <dc:format>image/svg+xml</dc:format>
        <dc:type
           rdf:resource="http://purl.org/dc/dcmitype/StillImage" />
        <dc:title />
      </cc:Work>
    </rdf:RDF>
  </metadata>
  <g
     inkscape:label="Layer 1"
     inkscape:groupmode="layer"
     id="layer1"
     transform="translate(0,-32.41665)">
    <path
       style="fill:#010101;fill-opacity:1;fill-rule:nonzero;stroke:#ffffff;stroke-width:0;stroke-miterlimit:4;stroke-dasharray:none;stroke-opacity:1;paint-order:normal"
       d="M 239.26758 247.44727 C 226.37812 247.44727 216.00195 257.82538 216.00195 270.71484 C 216.00195 283.6043 226.37812 293.98047 239.26758 293.98047 L 274.16406 293.98047 L 340.90234 293.98047 L 372.50977 293.98047 L 422.33008 293.98047 L 453.9375 293.98047 L 503.75977 293.98047 L 518.44922 293.98047 C 531.33868 293.98047 541.71484 283.6043 541.71484 270.71484 C 541.71484 257.82538 531.33868 247.44727 518.44922 247.44727 L 503.75977 247.44727 L 453.9375 247.44727 L 422.33008 247.44727 L 372.50977 247.44727 L 340.90234 247.44727 L 274.16406 247.44727 L 239.26758 247.44727 z M 175.28711 311.42773 C 162.39765 311.42773 152.02148 321.80585 152.02148 334.69531 L 152.02148 369.5918 C 152.02148 370.20297 152.05183 370.80526 152.09766 371.4043 C 152.0508 371.82031 152.02148 372.24098 152.02148 372.66992 L 152.02148 431.875 L 152.02148 463.17383 L 152.02148 513.30469 L 152.02148 544.60156 L 152.02148 594.73242 L 152.02148 626.03125 L 152.02148 676.16211 L 152.02148 707.45898 L 152.02148 757.58984 C 152.02148 757.77858 152.03962 757.96207 152.04883 758.14844 C 152.03088 758.52502 152.02148 758.90398 152.02148 759.28516 C 152.02148 772.17462 162.39765 782.55273 175.28711 782.55273 C 175.33034 782.55273 175.37284 782.54906 175.41602 782.54883 C 175.43842 782.54906 175.45996 782.55273 175.48242 782.55273 L 244.21289 782.55273 L 291.08008 782.55273 L 325.64062 782.55273 L 372.50977 782.55273 L 407.07031 782.55273 L 419.76953 782.55273 L 453.9375 782.55273 L 483.55273 782.55273 L 488.49805 782.55273 L 518.44922 782.55273 C 531.33868 782.55273 541.71484 772.17462 541.71484 759.28516 C 541.71484 746.3957 531.33868 736.01953 518.44922 736.01953 L 488.49805 736.01953 L 483.55273 736.01953 L 453.9375 736.01953 L 419.76953 736.01953 L 407.07031 736.01953 L 372.50977 736.01953 L 325.64062 736.01953 L 291.08008 736.01953 L 244.21289 736.01953 L 198.55273 736.01953 L 198.55273 698.38477 L 198.55273 648.25391 L 198.55273 616.95703 L 198.55273 566.82617 L 198.55273 535.52734 L 198.55273 485.39648 L 198.55273 454.09961 L 198.55273 403.96875 L 198.55273 372.66992 C 198.55273 372.24098 198.52342 371.82031 198.47656 371.4043 C 198.52238 370.80526 198.55273 370.20297 198.55273 369.5918 L 198.55273 334.69531 C 198.55273 321.80585 188.17657 311.42773 175.28711 311.42773 z "
       transform="matrix(0.26458333,0,0,0.26458333,0,32.41665)"
       id="rect850" />
  </g>
</svg>
