<?xml version="1.0" encoding="UTF-8" standalone="no"?>
<!-- Created with Inkscape (http://www.inkscape.org/) -->

<svg
   xmlns:dc="http://purl.org/dc/elements/1.1/"
   xmlns:cc="http://creativecommons.org/ns#"
   xmlns:rdf="http://www.w3.org/1999/02/22-rdf-syntax-ns#"
   xmlns:svg="http://www.w3.org/2000/svg"
   xmlns="http://www.w3.org/2000/svg"
   xmlns:sodipodi="http://sodipodi.sourceforge.net/DTD/sodipodi-0.dtd"
   xmlns:inkscape="http://www.inkscape.org/namespaces/inkscape"
   width="1000"
   height="1000"
   viewBox="0 0 264.58333 264.58334"
   version="1.1"
   id="svg8"
   inkscape:version="0.92.4 (5da689c313, 2019-01-14)"
   sodipodi:docname="D.svg">
  <defs
     id="defs2" />
  <sodipodi:namedview
     id="base"
     pagecolor="#ffffff"
     bordercolor="#666666"
     borderopacity="1.0"
     inkscape:pageopacity="0.0"
     inkscape:pageshadow="2"
     inkscape:zoom="0.7"
     inkscape:cx="350.26458"
     inkscape:cy="316.82933"
     inkscape:document-units="mm"
     inkscape:current-layer="layer1"
     showgrid="false"
     units="px"
     inkscape:window-width="1600"
     inkscape:window-height="1149"
     inkscape:window-x="0"
     inkscape:window-y="26"
     inkscape:window-maximized="1"
     showguides="true"
     inkscape:guide-bbox="true">
    <sodipodi:guide
       position="0,52.916667"
       orientation="0,1"
       id="guide29"
       inkscape:locked="false"
       inkscape:label=""
       inkscape:color="rgb(0,0,255)" />
    <sodipodi:guide
       position="57.150382,139.09526"
       orientation="0,1"
       id="guide913"
       inkscape:locked="false" />
    <sodipodi:guide
       position="35.605739,52.916672"
       orientation="1,0"
       id="guide1095"
       inkscape:locked="false" />
    <sodipodi:guide
       position="35.605739,203.7292"
       orientation="0,1"
       id="guide1097"
       inkscape:locked="false" />
    <sodipodi:guide
       position="143.32896,52.916672"
       orientation="1,0"
       id="guide1099"
       inkscape:locked="false" />
    <sodipodi:guide
       position="126.40079,160.63989"
       orientation="0,1"
       id="guide14557"
       inkscape:locked="false" />
  </sodipodi:namedview>
  <metadata
     id="metadata5">
    <rdf:RDF>
      <cc:Work
         rdf:about="">
        <dc:format>image/svg+xml</dc:format>
        <dc:type
           rdf:resource="http://purl.org/dc/dcmitype/StillImage" />
        <dc:title />
      </cc:Work>
    </rdf:RDF>
  </metadata>
  <g
     inkscape:label="Layer 1"
     inkscape:groupmode="layer"
     id="layer1"
     transform="translate(0,-32.41665)">
    <path
       style="fill:#010101;fill-opacity:1;fill-rule:nonzero;stroke:#ffffff;stroke-width:0;stroke-miterlimit:4;stroke-dasharray:none;stroke-opacity:1;paint-order:normal"
       d="M 175.28711 247.44727 C 162.39765 247.44727 152.02148 257.82538 152.02148 270.71484 C 152.02148 271.0855 152.03185 271.45205 152.04883 271.81836 C 152.04012 271.9996 152.02148 272.17786 152.02148 272.36133 L 152.02148 331.56641 L 152.02148 517.61719 L 152.02148 544.60156 L 152.02148 702.68359 L 152.02148 757.45898 C 152.02148 757.66521 152.04175 757.86693 152.05273 758.07031 C 152.03224 758.47251 152.02148 758.87768 152.02148 759.28516 C 152.02148 772.17462 162.39765 782.55273 175.28711 782.55273 C 175.34932 782.55273 175.41056 782.54931 175.47266 782.54883 C 175.50413 782.54928 175.53482 782.55273 175.56641 782.55273 L 244.29492 782.55273 L 436.48828 782.55273 L 437.02148 782.55273 C 449.91094 782.55273 460.28711 772.17462 460.28711 759.28516 C 460.28711 746.3957 449.91094 736.01953 437.02148 736.01953 L 436.48828 736.01953 L 244.29492 736.01953 L 198.55273 736.01953 L 198.55273 698.25391 L 198.55273 525.06836 L 198.55273 485.39648 L 198.55273 314.62891 L 198.55273 293.98047 L 337.57422 293.98047 L 355.5918 293.98047 C 368.48126 293.98047 378.85938 283.6043 378.85938 270.71484 C 378.85937 257.82538 368.48126 247.44727 355.5918 247.44727 L 337.57422 247.44727 L 175.98828 247.44727 C 175.90864 247.44727 175.83087 247.45611 175.75195 247.45898 C 175.59683 247.45596 175.44298 247.44727 175.28711 247.44727 z M 419.57227 328.87695 C 406.68281 328.87695 396.30664 339.25312 396.30664 352.14258 C 396.30664 365.03204 406.68281 375.4082 419.57227 375.4082 C 432.46173 375.4082 442.83984 365.03204 442.83984 352.14258 C 442.83984 339.25312 432.46173 328.87695 419.57227 328.87695 z M 501.00195 392.85742 C 488.11249 392.85742 477.73438 403.23359 477.73438 416.12305 L 477.73438 451.01953 L 477.73438 587.20117 L 477.73438 674.44336 L 477.73438 695.30469 C 477.73438 708.19415 488.11249 718.57227 501.00195 718.57227 C 513.89141 718.57227 524.26758 708.19415 524.26758 695.30469 L 524.26758 660.4082 L 524.26758 574.47656 L 524.26758 442.79883 L 524.26758 416.12305 C 524.26758 403.23359 513.89141 392.85742 501.00195 392.85742 z "
       transform="matrix(0.26458333,0,0,0.26458333,0,32.41665)"
       id="rect848" />
  </g>
</svg>
