<?xml version="1.0" encoding="UTF-8" standalone="no"?>
<!-- Created with Inkscape (http://www.inkscape.org/) -->

<svg
   xmlns:dc="http://purl.org/dc/elements/1.1/"
   xmlns:cc="http://creativecommons.org/ns#"
   xmlns:rdf="http://www.w3.org/1999/02/22-rdf-syntax-ns#"
   xmlns:svg="http://www.w3.org/2000/svg"
   xmlns="http://www.w3.org/2000/svg"
   xmlns:sodipodi="http://sodipodi.sourceforge.net/DTD/sodipodi-0.dtd"
   xmlns:inkscape="http://www.inkscape.org/namespaces/inkscape"
   width="1000"
   height="1000"
   viewBox="0 0 264.58333 264.58334"
   version="1.1"
   id="svg8"
   inkscape:version="0.92.4 (5da689c313, 2019-01-14)"
   sodipodi:docname="d.svg">
  <defs
     id="defs2" />
  <sodipodi:namedview
     id="base"
     pagecolor="#ffffff"
     bordercolor="#666666"
     borderopacity="1.0"
     inkscape:pageopacity="0.0"
     inkscape:pageshadow="2"
     inkscape:zoom="0.98994949"
     inkscape:cx="128.42962"
     inkscape:cy="469.49338"
     inkscape:document-units="mm"
     inkscape:current-layer="layer1"
     showgrid="false"
     units="px"
     inkscape:window-width="1600"
     inkscape:window-height="1149"
     inkscape:window-x="0"
     inkscape:window-y="26"
     inkscape:window-maximized="1"
     showguides="true"
     inkscape:guide-bbox="true">
    <sodipodi:guide
       position="0,52.916667"
       orientation="0,1"
       id="guide29"
       inkscape:locked="false"
       inkscape:label=""
       inkscape:color="rgb(0,0,255)" />
    <sodipodi:guide
       position="57.150382,139.09526"
       orientation="0,1"
       id="guide913"
       inkscape:locked="false" />
    <sodipodi:guide
       position="35.605739,52.916672"
       orientation="1,0"
       id="guide1095"
       inkscape:locked="false" />
    <sodipodi:guide
       position="35.605739,203.7292"
       orientation="0,1"
       id="guide1097"
       inkscape:locked="false" />
    <sodipodi:guide
       position="143.32896,52.916672"
       orientation="1,0"
       id="guide1099"
       inkscape:locked="false" />
    <sodipodi:guide
       position="97.161864,52.916687"
       orientation="1,0"
       id="guide1238"
       inkscape:locked="false" />
    <sodipodi:guide
       position="35.605739,102.16158"
       orientation="0,1"
       id="guide1240"
       inkscape:locked="false" />
  </sodipodi:namedview>
  <metadata
     id="metadata5">
    <rdf:RDF>
      <cc:Work
         rdf:about="">
        <dc:format>image/svg+xml</dc:format>
        <dc:type
           rdf:resource="http://purl.org/dc/dcmitype/StillImage" />
        <dc:title />
      </cc:Work>
    </rdf:RDF>
  </metadata>
  <g
     inkscape:label="Layer 1"
     inkscape:groupmode="layer"
     id="layer1"
     transform="translate(0,-32.41665)">
    <path
       style="fill:#010101;fill-opacity:1;fill-rule:nonzero;stroke:#ffffff;stroke-width:0;stroke-miterlimit:4;stroke-dasharray:none;stroke-opacity:1;paint-order:normal"
       d="M 343.96094 241.63281 C 331.07196 241.63281 320.69531 252.00946 320.69531 264.89844 C 320.69531 265.21201 320.70658 265.52155 320.71875 265.83203 C 320.71229 265.98617 320.69531 266.13718 320.69531 266.29297 L 320.69531 323.88477 L 320.69531 390.03711 C 320.69531 390.31735 320.71991 390.59121 320.73633 390.86719 C 320.71026 391.13423 320.69531 391.40362 320.69531 391.67773 L 320.69531 435.28516 C 320.69531 435.75811 320.74402 436.21934 320.82031 436.66992 C 320.74612 437.17446 320.69531 437.68711 320.69531 438.21289 L 320.69531 474.28516 L 267.81445 474.28516 L 203.17969 474.28516 C 202.73088 474.28516 202.29312 474.33218 201.87109 474.41992 C 190.166 475.65916 181.10352 485.50641 181.10352 497.55078 C 181.10352 509.59989 190.17299 519.45259 201.88477 520.68555 C 202.30246 520.77141 202.73585 520.81641 203.17969 520.81641 L 267.81445 520.81641 L 320.69531 520.81641 L 320.69531 572.94141 L 320.69531 573.69727 L 320.69531 607.52734 L 320.69531 639.11719 L 320.69531 734.41992 L 320.69531 753.46875 L 298.5293 753.46875 L 221.28516 753.46875 L 181.10352 753.46875 L 181.10352 717.42383 C 181.10352 716.35724 180.94184 715.32962 180.64844 714.36133 C 180.94308 713.3968 181.10352 712.37402 181.10352 711.31055 L 181.10352 656.03711 C 181.10352 655.65481 181.08093 655.2776 181.04102 654.90625 C 181.07789 654.62829 181.10352 654.34695 181.10352 654.05859 L 181.10352 620.22656 L 181.10352 546.96094 C 181.10352 546.54104 181.07326 546.13008 181.04102 545.71875 C 181.07833 545.17755 181.10352 544.63303 181.10352 544.08203 C 181.10352 531.19305 170.72687 520.81641 157.83789 520.81641 C 144.94891 520.81641 134.57227 531.19305 134.57227 544.08203 C 134.57227 544.6277 134.59817 545.16706 134.63477 545.70312 C 134.60171 546.1195 134.57227 546.53577 134.57227 546.96094 L 134.57227 630.06641 L 134.57227 654.05859 C 134.57227 654.34904 134.59931 654.63222 134.63672 654.91211 C 134.59721 655.28159 134.57227 655.6568 134.57227 656.03711 L 134.57227 711.31055 C 134.57227 712.37402 134.7327 713.3968 135.02734 714.36133 C 134.73394 715.32962 134.57227 716.35724 134.57227 717.42383 L 134.57227 773.28906 C 134.57227 773.75183 134.61235 774.20379 134.66992 774.65039 C 134.60943 775.33734 134.57227 776.03119 134.57227 776.73438 C 134.57227 788.88494 143.79556 798.8 155.65039 799.89648 C 156.01407 799.96075 156.38685 800 156.76953 800 L 221.28516 800 L 298.5293 800 L 343.7207 800 C 343.74711 800 343.7725 799.99641 343.79883 799.99609 C 343.8531 799.99646 343.90658 800 343.96094 800 C 356.84992 800 367.22656 789.62336 367.22656 776.73438 C 367.22656 776.51039 367.21521 776.28883 367.20898 776.06641 C 367.21252 775.95194 367.22656 775.83996 367.22656 775.72461 L 367.22656 717.80859 L 367.22656 632.92578 L 367.22656 607.52734 L 367.22656 573.69727 L 367.22656 525.67773 L 367.22656 515.2207 C 367.22656 515.09347 367.21134 514.9699 367.20703 514.84375 C 367.21436 514.71822 367.22656 514.59422 367.22656 514.4668 L 367.22656 480.63477 L 367.22656 438.21289 C 367.22656 437.68848 367.17537 437.17711 367.10156 436.67383 C 367.17828 436.22205 367.22656 435.75944 367.22656 435.28516 L 367.22656 391.67773 C 367.22656 391.40362 367.21162 391.13423 367.18555 390.86719 C 367.20196 390.59121 367.22656 390.31735 367.22656 390.03711 L 367.22656 316.97656 L 367.22656 266.29297 C 367.22656 266.1339 367.20986 265.97961 367.20312 265.82227 C 367.21504 265.51501 367.22656 265.20872 367.22656 264.89844 C 367.22656 252.00946 356.84992 241.63281 343.96094 241.63281 z "
       transform="matrix(0.26458333,0,0,0.26458333,0,32.41665)"
       id="rect846" />
  </g>
</svg>
