<?xml version="1.0" encoding="UTF-8" standalone="no"?>
<!-- Created with Inkscape (http://www.inkscape.org/) -->

<svg
   xmlns:dc="http://purl.org/dc/elements/1.1/"
   xmlns:cc="http://creativecommons.org/ns#"
   xmlns:rdf="http://www.w3.org/1999/02/22-rdf-syntax-ns#"
   xmlns:svg="http://www.w3.org/2000/svg"
   xmlns="http://www.w3.org/2000/svg"
   xmlns:sodipodi="http://sodipodi.sourceforge.net/DTD/sodipodi-0.dtd"
   xmlns:inkscape="http://www.inkscape.org/namespaces/inkscape"
   width="1000"
   height="1000"
   viewBox="0 0 264.58333 264.58334"
   version="1.1"
   id="svg8"
   inkscape:version="0.92.4 (5da689c313, 2019-01-14)"
   sodipodi:docname="e.svg">
  <defs
     id="defs2" />
  <sodipodi:namedview
     id="base"
     pagecolor="#ffffff"
     bordercolor="#666666"
     borderopacity="1.0"
     inkscape:pageopacity="0.0"
     inkscape:pageshadow="2"
     inkscape:zoom="0.70710678"
     inkscape:cx="197.43221"
     inkscape:cy="213.40087"
     inkscape:document-units="mm"
     inkscape:current-layer="layer1"
     showgrid="false"
     units="px"
     inkscape:window-width="1600"
     inkscape:window-height="1149"
     inkscape:window-x="0"
     inkscape:window-y="26"
     inkscape:window-maximized="1"
     showguides="true"
     inkscape:guide-bbox="true">
    <sodipodi:guide
       position="0,52.916667"
       orientation="0,1"
       id="guide29"
       inkscape:locked="false"
       inkscape:label=""
       inkscape:color="rgb(0,0,255)" />
    <sodipodi:guide
       position="57.150382,139.09526"
       orientation="0,1"
       id="guide913"
       inkscape:locked="false" />
    <sodipodi:guide
       position="35.605739,52.916672"
       orientation="1,0"
       id="guide1095"
       inkscape:locked="false" />
    <sodipodi:guide
       position="35.605739,203.7292"
       orientation="0,1"
       id="guide1097"
       inkscape:locked="false" />
    <sodipodi:guide
       position="143.32896,52.916672"
       orientation="1,0"
       id="guide1099"
       inkscape:locked="false" />
    <sodipodi:guide
       position="97.161864,52.916687"
       orientation="1,0"
       id="guide1238"
       inkscape:locked="false" />
    <sodipodi:guide
       position="35.605739,102.16158"
       orientation="0,1"
       id="guide1240"
       inkscape:locked="false" />
  </sodipodi:namedview>
  <metadata
     id="metadata5">
    <rdf:RDF>
      <cc:Work
         rdf:about="">
        <dc:format>image/svg+xml</dc:format>
        <dc:type
           rdf:resource="http://purl.org/dc/dcmitype/StillImage" />
        <dc:title />
      </cc:Work>
    </rdf:RDF>
  </metadata>
  <g
     inkscape:label="Layer 1"
     inkscape:groupmode="layer"
     id="layer1"
     transform="translate(0,-32.41665)">
    <path
       style="fill:#010101;fill-opacity:1;fill-rule:nonzero;stroke:#ffffff;stroke-width:0;stroke-miterlimit:4;stroke-dasharray:none;stroke-opacity:1;paint-order:normal"
       d="M 157.83789 474.28516 C 144.94891 474.28516 134.57227 484.6618 134.57227 497.55078 C 134.57227 498.11505 134.59956 498.67258 134.63867 499.22656 C 134.5968 499.61055 134.57227 500.00099 134.57227 500.39648 L 134.57227 556.76758 L 134.57227 603.87695 L 134.57227 650.54492 L 134.57227 697.2793 L 134.57227 774.36328 C 134.57227 774.68323 134.60199 774.99556 134.62109 775.31055 C 134.59289 775.78178 134.57227 776.25581 134.57227 776.73438 C 134.57227 789.62336 144.94891 800 157.83789 800 C 157.86409 800 157.88984 799.99813 157.91602 799.99805 C 157.92854 799.99812 157.94058 800 157.95312 800 L 221.28516 800 L 283.81445 800 L 342.3457 800 C 342.52199 800 342.69461 799.98661 342.86719 799.97266 C 343.2297 799.98928 343.59417 800 343.96094 800 C 356.84992 800 367.22656 789.62336 367.22656 776.73438 C 367.22656 763.84539 356.84992 753.46875 343.96094 753.46875 C 343.60204 753.46875 343.24545 753.48017 342.89062 753.49609 C 342.7105 753.48087 342.5299 753.46875 342.3457 753.46875 L 283.81445 753.46875 L 221.28516 753.46875 L 181.10352 753.46875 L 181.10352 692.54492 L 181.10352 660.4082 L 246.03516 660.4082 L 298.31445 660.4082 C 298.63367 660.4082 298.94564 660.37707 299.25195 660.33203 C 311.28176 659.40733 320.69531 649.41742 320.69531 637.14258 C 320.69531 624.87637 311.29499 614.89384 299.27734 613.95703 C 298.96295 613.90951 298.64252 613.87695 298.31445 613.87695 L 246.03516 613.87695 L 181.10352 613.87695 L 181.10352 597.99023 L 181.10352 550.59766 L 181.10352 520.81641 L 246.53516 520.81641 L 294.81445 520.81641 C 295.11663 520.81641 295.41243 520.78848 295.70312 520.74805 C 296.27372 520.78957 296.84814 520.81641 297.42969 520.81641 C 310.31867 520.81641 320.69531 510.43976 320.69531 497.55078 C 320.69531 484.6618 310.31867 474.28516 297.42969 474.28516 C 296.85144 474.28516 296.28031 474.31441 295.71289 474.35547 C 295.41905 474.31413 295.12006 474.28516 294.81445 474.28516 L 246.53516 474.28516 L 158.70312 474.28516 C 158.60408 474.28516 158.50807 474.29634 158.41016 474.30078 C 158.2194 474.29621 158.02979 474.28516 157.83789 474.28516 z M 343.96094 520.81641 C 331.07196 520.81641 320.69531 531.19305 320.69531 544.08203 C 320.69531 544.50941 320.70794 544.9339 320.73047 545.35547 C 320.71089 545.58356 320.69531 545.81355 320.69531 546.04688 L 320.69531 588.23828 C 320.69531 588.5362 320.71436 588.82995 320.74609 589.11914 C 320.71504 589.61334 320.69531 590.10903 320.69531 590.61133 C 320.69531 603.50031 331.07196 613.87695 343.96094 613.87695 C 356.84992 613.87695 367.22656 603.50031 367.22656 590.61133 C 367.22656 590.11233 367.20448 589.61992 367.17383 589.12891 C 367.20629 588.83651 367.22656 588.53961 367.22656 588.23828 L 367.22656 546.04688 C 367.22656 545.80894 367.21176 545.57427 367.19141 545.3418 C 367.21345 544.92477 367.22656 544.50474 367.22656 544.08203 C 367.22656 531.19305 356.84992 520.81641 343.96094 520.81641 z "
       transform="matrix(0.26458333,0,0,0.26458333,0,32.41665)"
       id="rect860" />
  </g>
</svg>
