<?xml version="1.0" encoding="UTF-8" standalone="no"?>
<!-- Created with Inkscape (http://www.inkscape.org/) -->

<svg
   xmlns:dc="http://purl.org/dc/elements/1.1/"
   xmlns:cc="http://creativecommons.org/ns#"
   xmlns:rdf="http://www.w3.org/1999/02/22-rdf-syntax-ns#"
   xmlns:svg="http://www.w3.org/2000/svg"
   xmlns="http://www.w3.org/2000/svg"
   xmlns:sodipodi="http://sodipodi.sourceforge.net/DTD/sodipodi-0.dtd"
   xmlns:inkscape="http://www.inkscape.org/namespaces/inkscape"
   width="1000"
   height="1000"
   viewBox="0 0 264.58333 264.58334"
   version="1.1"
   id="svg8"
   inkscape:version="0.92.4 (5da689c313, 2019-01-14)"
   sodipodi:docname="E.svg">
  <defs
     id="defs2" />
  <sodipodi:namedview
     id="base"
     pagecolor="#ffffff"
     bordercolor="#666666"
     borderopacity="1.0"
     inkscape:pageopacity="0.0"
     inkscape:pageshadow="2"
     inkscape:zoom="0.7"
     inkscape:cx="341.77687"
     inkscape:cy="594.55758"
     inkscape:document-units="mm"
     inkscape:current-layer="layer1"
     showgrid="false"
     units="px"
     inkscape:window-width="1600"
     inkscape:window-height="1149"
     inkscape:window-x="0"
     inkscape:window-y="26"
     inkscape:window-maximized="1"
     showguides="true"
     inkscape:guide-bbox="true">
    <sodipodi:guide
       position="0,52.916667"
       orientation="0,1"
       id="guide29"
       inkscape:locked="false"
       inkscape:label=""
       inkscape:color="rgb(0,0,255)" />
    <sodipodi:guide
       position="57.150382,139.09526"
       orientation="0,1"
       id="guide913"
       inkscape:locked="false" />
    <sodipodi:guide
       position="35.605739,52.916672"
       orientation="1,0"
       id="guide1095"
       inkscape:locked="false" />
    <sodipodi:guide
       position="35.605739,203.7292"
       orientation="0,1"
       id="guide1097"
       inkscape:locked="false" />
    <sodipodi:guide
       position="143.32896,52.916672"
       orientation="1,0"
       id="guide1099"
       inkscape:locked="false" />
  </sodipodi:namedview>
  <metadata
     id="metadata5">
    <rdf:RDF>
      <cc:Work
         rdf:about="">
        <dc:format>image/svg+xml</dc:format>
        <dc:type
           rdf:resource="http://purl.org/dc/dcmitype/StillImage" />
        <dc:title />
      </cc:Work>
    </rdf:RDF>
  </metadata>
  <g
     inkscape:label="Layer 1"
     inkscape:groupmode="layer"
     id="layer1"
     transform="translate(0,-32.41665)">
    <path
       style="fill:#010101;fill-opacity:1;fill-rule:nonzero;stroke:#ffffff;stroke-width:0;stroke-miterlimit:4;stroke-dasharray:none;stroke-opacity:1;paint-order:normal"
       d="M 239.26758 247.44727 C 226.37812 247.44727 216.00195 257.82538 216.00195 270.71484 C 216.00195 283.6043 226.37812 293.98047 239.26758 293.98047 L 259.58594 293.98047 L 274.16406 293.98047 L 372.50977 293.98047 L 491.56641 293.98047 L 518.44922 293.98047 C 531.33868 293.98047 541.71484 283.6043 541.71484 270.71484 C 541.71484 257.82538 531.33868 247.44727 518.44922 247.44727 L 491.56641 247.44727 L 372.50977 247.44727 L 274.16406 247.44727 L 259.58594 247.44727 L 239.26758 247.44727 z M 175.28711 311.42773 C 162.39765 311.42773 152.02148 321.80585 152.02148 334.69531 L 152.02148 369.5918 L 152.02148 456.64258 L 152.02148 603.80859 L 152.02148 711.41602 L 152.02148 757.77734 C 152.02148 757.94498 152.0396 758.10766 152.04688 758.27344 C 152.03264 758.60908 152.02148 758.94589 152.02148 759.28516 C 152.02148 772.17462 162.39765 782.55273 175.28711 782.55273 C 175.62375 782.55273 175.95794 782.54136 176.29102 782.52734 C 176.46042 782.54078 176.62976 782.55273 176.80273 782.55273 L 329.57812 782.55273 L 372.50977 782.55273 L 496.86914 782.55273 L 518.44922 782.55273 C 531.33868 782.55273 541.71484 772.17462 541.71484 759.28516 C 541.71484 746.3957 531.33868 736.01953 518.44922 736.01953 L 496.86914 736.01953 L 372.50977 736.01953 L 329.57812 736.01953 L 198.55273 736.01953 L 198.55273 698.57227 L 198.55273 580.31836 L 198.55273 538.26562 L 271.45508 538.26562 L 324.91992 538.26562 L 427.5625 538.26562 L 498.88867 538.26562 L 518.44922 538.26562 C 531.33868 538.26562 541.71484 527.88946 541.71484 515 C 541.71484 502.11054 531.33868 491.73437 518.44922 491.73438 L 498.88867 491.73438 L 427.5625 491.73438 L 324.91992 491.73438 L 271.45508 491.73438 L 198.55273 491.73438 L 198.55273 426.19141 L 198.55273 362.64258 L 198.55273 334.69531 C 198.55273 321.80585 188.17657 311.42773 175.28711 311.42773 z "
       transform="matrix(0.26458333,0,0,0.26458333,0,32.41665)"
       id="rect852" />
  </g>
</svg>
