<?xml version="1.0" encoding="UTF-8" standalone="no"?>
<!-- Created with Inkscape (http://www.inkscape.org/) -->

<svg
   xmlns:dc="http://purl.org/dc/elements/1.1/"
   xmlns:cc="http://creativecommons.org/ns#"
   xmlns:rdf="http://www.w3.org/1999/02/22-rdf-syntax-ns#"
   xmlns:svg="http://www.w3.org/2000/svg"
   xmlns="http://www.w3.org/2000/svg"
   xmlns:sodipodi="http://sodipodi.sourceforge.net/DTD/sodipodi-0.dtd"
   xmlns:inkscape="http://www.inkscape.org/namespaces/inkscape"
   width="1000"
   height="1000"
   viewBox="0 0 264.58333 264.58334"
   version="1.1"
   id="svg8"
   inkscape:version="0.92.4 (5da689c313, 2019-01-14)"
   sodipodi:docname="F.svg">
  <defs
     id="defs2" />
  <sodipodi:namedview
     id="base"
     pagecolor="#ffffff"
     bordercolor="#666666"
     borderopacity="1.0"
     inkscape:pageopacity="0.0"
     inkscape:pageshadow="2"
     inkscape:zoom="0.49497475"
     inkscape:cx="-29.227077"
     inkscape:cy="571.94183"
     inkscape:document-units="mm"
     inkscape:current-layer="layer1"
     showgrid="false"
     units="px"
     inkscape:window-width="1600"
     inkscape:window-height="1149"
     inkscape:window-x="0"
     inkscape:window-y="26"
     inkscape:window-maximized="1"
     showguides="true"
     inkscape:guide-bbox="true">
    <sodipodi:guide
       position="0,52.916667"
       orientation="0,1"
       id="guide29"
       inkscape:locked="false"
       inkscape:label=""
       inkscape:color="rgb(0,0,255)" />
    <sodipodi:guide
       position="57.150382,139.09526"
       orientation="0,1"
       id="guide913"
       inkscape:locked="false" />
    <sodipodi:guide
       position="35.605739,52.916672"
       orientation="1,0"
       id="guide1095"
       inkscape:locked="false" />
    <sodipodi:guide
       position="35.605739,203.7292"
       orientation="0,1"
       id="guide1097"
       inkscape:locked="false" />
    <sodipodi:guide
       position="143.32896,52.916672"
       orientation="1,0"
       id="guide1099"
       inkscape:locked="false" />
  </sodipodi:namedview>
  <metadata
     id="metadata5">
    <rdf:RDF>
      <cc:Work
         rdf:about="">
        <dc:format>image/svg+xml</dc:format>
        <dc:type
           rdf:resource="http://purl.org/dc/dcmitype/StillImage" />
        <dc:title />
      </cc:Work>
    </rdf:RDF>
  </metadata>
  <g
     inkscape:label="Layer 1"
     inkscape:groupmode="layer"
     id="layer1"
     transform="translate(0,-32.41665)">
    <path
       style="fill:#010101;fill-opacity:1;fill-rule:nonzero;stroke:#ffffff;stroke-width:0;stroke-miterlimit:4;stroke-dasharray:none;stroke-opacity:1;paint-order:normal"
       d="M 239.26758 247.44727 C 226.37812 247.44727 216.00195 257.82538 216.00195 270.71484 C 216.00195 283.6043 226.37812 293.98047 239.26758 293.98047 L 274.16406 293.98047 L 372.50977 293.98047 L 504.65234 293.98047 L 518.44922 293.98047 C 531.33868 293.98047 541.71484 283.6043 541.71484 270.71484 C 541.71484 257.82538 531.33868 247.44727 518.44922 247.44727 L 504.65234 247.44727 L 372.50977 247.44727 L 274.16406 247.44727 L 239.26758 247.44727 z M 175.28711 311.42773 C 162.39765 311.42773 152.02148 321.80585 152.02148 334.69531 L 152.02148 369.5918 L 152.02148 504.46094 L 152.02148 586.66992 L 152.02148 626.03125 L 152.02148 741.83789 L 152.02148 742.51562 L 152.02148 776.73438 C 152.02148 789.62383 162.39765 800 175.28711 800 C 188.17657 800 198.55273 789.62383 198.55273 776.73438 L 198.55273 742.51562 L 198.55273 741.83789 L 198.55273 613.19922 L 198.55273 566.82617 L 198.55273 538.26562 L 326.79492 538.26562 L 372.50977 538.26562 L 499.65234 538.26562 L 518.44922 538.26562 C 531.33868 538.26562 541.71484 527.88946 541.71484 515 C 541.71484 502.11054 531.33868 491.73438 518.44922 491.73438 L 499.65234 491.73438 L 372.50977 491.73438 L 326.79492 491.73438 L 198.55273 491.73438 L 198.55273 443.33008 L 198.55273 362.68164 L 198.55273 334.69531 C 198.55273 321.80585 188.17657 311.42773 175.28711 311.42773 z "
       transform="matrix(0.26458333,0,0,0.26458333,0,32.41665)"
       id="rect850" />
  </g>
</svg>
