<?xml version="1.0" encoding="UTF-8" standalone="no"?>
<!-- Created with Inkscape (http://www.inkscape.org/) -->

<svg
   xmlns:dc="http://purl.org/dc/elements/1.1/"
   xmlns:cc="http://creativecommons.org/ns#"
   xmlns:rdf="http://www.w3.org/1999/02/22-rdf-syntax-ns#"
   xmlns:svg="http://www.w3.org/2000/svg"
   xmlns="http://www.w3.org/2000/svg"
   xmlns:sodipodi="http://sodipodi.sourceforge.net/DTD/sodipodi-0.dtd"
   xmlns:inkscape="http://www.inkscape.org/namespaces/inkscape"
   width="1000"
   height="1000"
   viewBox="0 0 264.58333 264.58334"
   version="1.1"
   id="svg8"
   inkscape:version="0.92.4 (5da689c313, 2019-01-14)"
   sodipodi:docname="f.svg">
  <defs
     id="defs2" />
  <sodipodi:namedview
     id="base"
     pagecolor="#ffffff"
     bordercolor="#666666"
     borderopacity="1.0"
     inkscape:pageopacity="0.0"
     inkscape:pageshadow="2"
     inkscape:zoom="1.4"
     inkscape:cx="241.65968"
     inkscape:cy="511.63892"
     inkscape:document-units="mm"
     inkscape:current-layer="layer1"
     showgrid="false"
     units="px"
     inkscape:window-width="1600"
     inkscape:window-height="1149"
     inkscape:window-x="0"
     inkscape:window-y="26"
     inkscape:window-maximized="1"
     showguides="true"
     inkscape:guide-bbox="true">
    <sodipodi:guide
       position="0,52.916667"
       orientation="0,1"
       id="guide29"
       inkscape:locked="false"
       inkscape:label=""
       inkscape:color="rgb(0,0,255)" />
    <sodipodi:guide
       position="57.150382,139.09526"
       orientation="0,1"
       id="guide913"
       inkscape:locked="false" />
    <sodipodi:guide
       position="35.605739,52.916672"
       orientation="1,0"
       id="guide1095"
       inkscape:locked="false" />
    <sodipodi:guide
       position="35.605739,203.7292"
       orientation="0,1"
       id="guide1097"
       inkscape:locked="false" />
    <sodipodi:guide
       position="143.32896,52.916672"
       orientation="1,0"
       id="guide1099"
       inkscape:locked="false" />
    <sodipodi:guide
       position="97.161864,52.916687"
       orientation="1,0"
       id="guide1238"
       inkscape:locked="false" />
    <sodipodi:guide
       position="35.605739,102.16158"
       orientation="0,1"
       id="guide1240"
       inkscape:locked="false" />
  </sodipodi:namedview>
  <metadata
     id="metadata5">
    <rdf:RDF>
      <cc:Work
         rdf:about="">
        <dc:format>image/svg+xml</dc:format>
        <dc:type
           rdf:resource="http://purl.org/dc/dcmitype/StillImage" />
        <dc:title />
      </cc:Work>
    </rdf:RDF>
  </metadata>
  <g
     inkscape:label="Layer 1"
     inkscape:groupmode="layer"
     id="layer1"
     transform="translate(0,-32.41665)">
    <path
       style="fill:#010101;fill-opacity:1;fill-rule:nonzero;stroke:#ffffff;stroke-width:0;stroke-miterlimit:4;stroke-dasharray:none;stroke-opacity:1;paint-order:normal"
       d="M 250.89844 241.63281 C 238.00946 241.63281 227.63477 252.00946 227.63477 264.89844 C 227.63477 277.78742 238.00946 288.16406 250.89844 288.16406 C 251.05103 288.16406 251.20164 288.15524 251.35352 288.15234 C 251.43137 288.15515 251.50737 288.16406 251.58594 288.16406 L 343.27344 288.16406 C 343.35177 288.16406 343.42823 288.15513 343.50586 288.15234 C 343.65774 288.15524 343.80834 288.16406 343.96094 288.16406 C 356.84992 288.16406 367.22656 277.78742 367.22656 264.89844 C 367.22656 252.00946 356.84992 241.63281 343.96094 241.63281 C 343.80506 241.63281 343.65122 241.64151 343.49609 241.64453 C 343.42169 241.64197 343.34848 241.63281 343.27344 241.63281 L 251.58594 241.63281 C 251.51067 241.63281 251.4379 241.64196 251.36328 241.64453 C 251.20815 241.64151 251.05431 241.63281 250.89844 241.63281 z M 204.36914 288.16406 C 191.48016 288.16406 181.10352 298.53875 181.10352 311.42773 C 181.10352 312.05213 181.13383 312.66954 181.18164 313.28125 C 181.13433 313.68815 181.10352 314.09953 181.10352 314.51953 L 181.10352 370.68359 C 181.10352 371.74045 181.26198 372.75759 181.54883 373.71875 C 181.26119 374.6749 181.10352 375.68791 181.10352 376.74023 L 181.10352 432.23828 L 181.10352 474.28516 L 158.88086 474.28516 C 158.76203 474.28516 158.64648 474.29635 158.5293 474.30273 C 158.29913 474.29607 158.06973 474.28516 157.83789 474.28516 C 144.94891 474.28516 134.57227 484.6618 134.57227 497.55078 C 134.57227 510.43976 144.94891 520.81641 157.83789 520.81641 C 158.07432 520.81641 158.30828 520.80576 158.54297 520.79883 C 158.65567 520.80473 158.76664 520.81641 158.88086 520.81641 L 181.10352 520.81641 L 181.10352 575.01953 L 181.10352 625.7793 L 181.10352 654.05859 L 181.10352 716.16992 C 181.10352 716.42464 181.12539 716.67307 181.14062 716.92383 C 181.1232 717.17515 181.10352 717.42574 181.10352 717.68164 L 181.10352 774.92383 C 181.10352 775.12696 181.12179 775.32511 181.13281 775.52539 C 181.13296 775.52799 181.13267 775.53061 181.13281 775.5332 C 181.11279 775.93084 181.10352 776.33159 181.10352 776.73438 C 181.10352 789.62336 191.48016 800 204.36914 800 C 217.25812 800 227.63477 789.62336 227.63477 776.73438 C 227.63477 776.33159 227.62354 775.93084 227.60352 775.5332 C 227.61482 775.33035 227.63477 775.12961 227.63477 774.92383 L 227.63477 717.68164 C 227.63477 717.42968 227.6126 717.18307 227.5957 716.93555 C 227.61142 716.68094 227.63477 716.42862 227.63477 716.16992 L 227.63477 651.17773 L 227.63477 620.22656 L 227.63477 555.44531 L 227.63477 520.81641 L 297.10156 520.81641 L 342.91797 520.81641 C 343.0368 520.81641 343.15235 520.80521 343.26953 520.79883 C 343.4997 520.8055 343.7291 520.81641 343.96094 520.81641 C 356.84992 520.81641 367.22656 510.43976 367.22656 497.55078 C 367.22656 484.6618 356.84992 474.28516 343.96094 474.28516 C 343.7291 474.28516 343.4997 474.29607 343.26953 474.30273 C 343.15235 474.29635 343.0368 474.28516 342.91797 474.28516 L 297.10156 474.28516 L 227.63477 474.28516 L 227.63477 414.29492 L 227.63477 376.74023 C 227.63477 375.68791 227.47709 374.6749 227.18945 373.71875 C 227.47629 372.75761 227.63477 371.74043 227.63477 370.68359 L 227.63477 314.51953 C 227.63477 314.09678 227.60261 313.6829 227.55469 313.27344 C 227.6021 312.66426 227.63477 312.04949 227.63477 311.42773 C 227.63477 298.53875 217.25812 288.16406 204.36914 288.16406 z "
       transform="matrix(0.26458333,0,0,0.26458333,0,32.41665)"
       id="rect884" />
  </g>
</svg>
