<?xml version="1.0" encoding="UTF-8" standalone="no"?>
<!-- Created with Inkscape (http://www.inkscape.org/) -->

<svg
   xmlns:dc="http://purl.org/dc/elements/1.1/"
   xmlns:cc="http://creativecommons.org/ns#"
   xmlns:rdf="http://www.w3.org/1999/02/22-rdf-syntax-ns#"
   xmlns:svg="http://www.w3.org/2000/svg"
   xmlns="http://www.w3.org/2000/svg"
   xmlns:sodipodi="http://sodipodi.sourceforge.net/DTD/sodipodi-0.dtd"
   xmlns:inkscape="http://www.inkscape.org/namespaces/inkscape"
   width="1000"
   height="1000"
   viewBox="0 0 264.58333 264.58334"
   version="1.1"
   id="svg8"
   inkscape:version="0.92.4 (5da689c313, 2019-01-14)"
   sodipodi:docname="G.svg">
  <defs
     id="defs2" />
  <sodipodi:namedview
     id="base"
     pagecolor="#ffffff"
     bordercolor="#666666"
     borderopacity="1.0"
     inkscape:pageopacity="0.0"
     inkscape:pageshadow="2"
     inkscape:zoom="0.49497475"
     inkscape:cx="110.80762"
     inkscape:cy="686.69339"
     inkscape:document-units="mm"
     inkscape:current-layer="layer1"
     showgrid="false"
     units="px"
     inkscape:window-width="1600"
     inkscape:window-height="1149"
     inkscape:window-x="0"
     inkscape:window-y="26"
     inkscape:window-maximized="1"
     showguides="true"
     inkscape:guide-bbox="true">
    <sodipodi:guide
       position="0,52.916667"
       orientation="0,1"
       id="guide29"
       inkscape:locked="false"
       inkscape:label=""
       inkscape:color="rgb(0,0,255)" />
    <sodipodi:guide
       position="57.150382,139.09526"
       orientation="0,1"
       id="guide913"
       inkscape:locked="false" />
    <sodipodi:guide
       position="35.605739,52.916672"
       orientation="1,0"
       id="guide1095"
       inkscape:locked="false" />
    <sodipodi:guide
       position="35.605739,203.7292"
       orientation="0,1"
       id="guide1097"
       inkscape:locked="false" />
    <sodipodi:guide
       position="143.32896,52.916672"
       orientation="1,0"
       id="guide1099"
       inkscape:locked="false" />
  </sodipodi:namedview>
  <metadata
     id="metadata5">
    <rdf:RDF>
      <cc:Work
         rdf:about="">
        <dc:format>image/svg+xml</dc:format>
        <dc:type
           rdf:resource="http://purl.org/dc/dcmitype/StillImage" />
        <dc:title />
      </cc:Work>
    </rdf:RDF>
  </metadata>
  <g
     inkscape:label="Layer 1"
     inkscape:groupmode="layer"
     id="layer1"
     transform="translate(0,-32.41665)">
    <path
       style="fill:#010101;fill-opacity:1;fill-rule:nonzero;stroke:#ffffff;stroke-width:0;stroke-miterlimit:4;stroke-dasharray:none;stroke-opacity:1;paint-order:normal"
       d="M 239.26758 247.44727 C 226.37812 247.44727 216.00195 257.82538 216.00195 270.71484 C 216.00195 283.6043 226.37812 293.98047 239.26758 293.98047 L 274.16406 293.98047 L 404.65234 293.98047 L 500.91016 293.98047 L 518.44922 293.98047 C 531.33868 293.98047 541.71484 283.6043 541.71484 270.71484 C 541.71484 257.82538 531.33868 247.44727 518.44922 247.44727 L 500.91016 247.44727 L 404.65234 247.44727 L 274.16406 247.44727 L 239.26758 247.44727 z M 175.28711 311.42773 C 162.39765 311.42773 152.02148 321.80585 152.02148 334.69531 L 152.02148 369.5918 L 152.02148 506.875 L 152.02148 580.95898 L 152.02148 685.23633 C 152.02148 688.39792 152.3316 691.44972 152.90039 694.34375 C 152.33376 695.67984 152.02148 697.15182 152.02148 698.69922 L 152.02148 757.9043 C 152.02148 758.05808 152.0388 758.20715 152.04492 758.35938 C 152.03299 758.6668 152.02148 758.9747 152.02148 759.28516 C 152.02148 772.17462 162.39765 782.55273 175.28711 782.55273 C 175.50783 782.55273 175.7261 782.5412 175.94531 782.53516 C 176.05674 782.54092 176.16639 782.55273 176.2793 782.55273 L 286.08008 782.55273 L 405.36523 782.55273 L 437.02148 782.55273 C 449.91094 782.55273 460.28711 772.17462 460.28711 759.28516 C 460.28711 746.3957 449.91094 736.01953 437.02148 736.01953 L 405.36523 736.01953 L 286.08008 736.01953 L 198.55273 736.01953 L 198.55273 698.69922 C 198.55273 697.15245 198.24002 695.68136 197.67383 694.3457 C 198.2429 691.45101 198.55273 688.39874 198.55273 685.23633 L 198.55273 507.62109 L 198.55273 449.04102 L 198.55273 360.26758 L 198.55273 334.69531 C 198.55273 321.80585 188.17657 311.42773 175.28711 311.42773 z M 402.125 491.73438 C 389.23554 491.73438 378.85938 502.11054 378.85938 515 C 378.85938 527.88946 389.23554 538.26562 402.125 538.26562 L 437.02148 538.26562 L 477.73438 538.26562 L 477.73438 548.89453 L 477.73438 573.17383 L 477.73438 660.4082 L 477.73438 660.98047 L 477.73438 695.30469 C 477.73438 708.19415 488.11249 718.57227 501.00195 718.57227 C 513.89141 718.57227 524.26758 708.19415 524.26758 695.30469 L 524.26758 660.98047 L 524.26758 660.4082 L 524.26758 573.17383 L 524.26758 548.89453 L 524.26758 513.96875 C 524.26758 513.17741 524.18316 512.40776 524.02734 511.66406 C 522.41809 500.36683 512.75778 491.73438 501.00195 491.73438 C 500.61094 491.73438 500.22211 491.74479 499.83594 491.76367 C 499.64065 491.74574 499.44231 491.73438 499.24219 491.73438 L 437.02148 491.73438 L 402.125 491.73438 z "
       transform="matrix(0.26458333,0,0,0.26458333,0,32.41665)"
       id="rect854" />
  </g>
</svg>
