<?xml version="1.0" encoding="UTF-8" standalone="no"?>
<!-- Created with Inkscape (http://www.inkscape.org/) -->

<svg
   xmlns:dc="http://purl.org/dc/elements/1.1/"
   xmlns:cc="http://creativecommons.org/ns#"
   xmlns:rdf="http://www.w3.org/1999/02/22-rdf-syntax-ns#"
   xmlns:svg="http://www.w3.org/2000/svg"
   xmlns="http://www.w3.org/2000/svg"
   xmlns:sodipodi="http://sodipodi.sourceforge.net/DTD/sodipodi-0.dtd"
   xmlns:inkscape="http://www.inkscape.org/namespaces/inkscape"
   width="1000"
   height="1000"
   viewBox="0 0 264.58333 264.58334"
   version="1.1"
   id="svg8"
   inkscape:version="0.92.4 (5da689c313, 2019-01-14)"
   sodipodi:docname="g.svg">
  <defs
     id="defs2" />
  <sodipodi:namedview
     id="base"
     pagecolor="#ffffff"
     bordercolor="#666666"
     borderopacity="1.0"
     inkscape:pageopacity="0.0"
     inkscape:pageshadow="2"
     inkscape:zoom="0.35"
     inkscape:cx="804.74443"
     inkscape:cy="179.07525"
     inkscape:document-units="mm"
     inkscape:current-layer="layer1"
     showgrid="false"
     units="px"
     inkscape:window-width="1600"
     inkscape:window-height="1149"
     inkscape:window-x="0"
     inkscape:window-y="26"
     inkscape:window-maximized="1"
     showguides="true"
     inkscape:guide-bbox="true">
    <sodipodi:guide
       position="0,52.916667"
       orientation="0,1"
       id="guide29"
       inkscape:locked="false"
       inkscape:label=""
       inkscape:color="rgb(0,0,255)" />
    <sodipodi:guide
       position="57.150382,139.09526"
       orientation="0,1"
       id="guide913"
       inkscape:locked="false" />
    <sodipodi:guide
       position="35.605739,52.916672"
       orientation="1,0"
       id="guide1095"
       inkscape:locked="false" />
    <sodipodi:guide
       position="35.605739,203.7292"
       orientation="0,1"
       id="guide1097"
       inkscape:locked="false" />
    <sodipodi:guide
       position="143.32896,52.916672"
       orientation="1,0"
       id="guide1099"
       inkscape:locked="false" />
    <sodipodi:guide
       position="97.161864,52.916687"
       orientation="1,0"
       id="guide1238"
       inkscape:locked="false" />
    <sodipodi:guide
       position="35.605739,102.16158"
       orientation="0,1"
       id="guide1240"
       inkscape:locked="false" />
  </sodipodi:namedview>
  <metadata
     id="metadata5">
    <rdf:RDF>
      <cc:Work
         rdf:about="">
        <dc:format>image/svg+xml</dc:format>
        <dc:type
           rdf:resource="http://purl.org/dc/dcmitype/StillImage" />
        <dc:title />
      </cc:Work>
    </rdf:RDF>
  </metadata>
  <g
     inkscape:label="Layer 1"
     inkscape:groupmode="layer"
     id="layer1"
     transform="translate(0,-32.41665)">
    <path
       style="fill:#010101;fill-opacity:1;fill-rule:nonzero;stroke:#ffffff;stroke-width:0;stroke-miterlimit:4;stroke-dasharray:none;stroke-opacity:1;paint-order:normal"
       d="M 202.91211 474.28516 C 202.37092 474.28516 201.84857 474.36008 201.34766 474.48633 C 189.89752 475.95985 181.10352 485.68695 181.10352 497.55078 C 181.10352 509.41731 189.90152 519.14709 201.35547 520.61719 C 201.85402 520.74216 202.37374 520.81641 202.91211 520.81641 L 267.81445 520.81641 L 320.69531 520.81641 L 320.69531 585.14648 L 320.69531 607.52734 L 320.69531 670.67773 L 320.69531 700.58984 L 320.69531 753.46875 L 296.0293 753.46875 L 221.28516 753.46875 L 181.10352 753.46875 L 181.10352 717.83789 L 181.10352 646.24414 L 181.10352 620.22656 L 181.10352 547.76367 C 181.10352 547.19645 181.0717 546.63728 181.01367 546.08594 C 181.06961 545.42495 181.10352 544.75797 181.10352 544.08203 C 181.10352 531.19305 170.72687 520.81641 157.83789 520.81641 C 144.94891 520.81641 134.57227 531.19305 134.57227 544.08203 C 134.57227 544.75797 134.60812 545.42495 134.66406 546.08594 C 134.60603 546.63729 134.57227 547.19645 134.57227 547.76367 L 134.57227 631.49805 L 134.57227 654.05859 L 134.57227 721.10352 L 134.57227 775.90625 C 134.57227 776.00124 134.58355 776.09311 134.58594 776.1875 C 134.58176 776.36984 134.57227 776.551 134.57227 776.73438 C 134.57227 789.62336 144.94891 800 157.83789 800 C 158.13981 800 158.43922 799.9898 158.73828 799.97852 C 158.88103 799.98802 159.02273 800 159.16797 800 L 221.28516 800 L 296.0293 800 L 320.69531 800 L 320.69531 856.80078 C 320.69531 856.8021 320.69531 856.80337 320.69531 856.80469 C 320.69531 856.806 320.69531 856.80728 320.69531 856.80859 L 320.69531 893.06055 L 298.5293 893.06055 L 221.28516 893.06055 L 159.16797 893.06055 C 159.01611 893.06055 158.86788 893.0736 158.71875 893.08398 C 158.42611 893.07318 158.13327 893.06055 157.83789 893.06055 C 144.94891 893.06055 134.57227 903.43719 134.57227 916.32617 C 134.57227 929.21515 144.94891 939.5918 157.83789 939.5918 C 158.13327 939.5918 158.42611 939.57916 158.71875 939.56836 C 158.86788 939.57874 159.01611 939.5918 159.16797 939.5918 L 221.28516 939.5918 L 298.5293 939.5918 L 341.87305 939.5918 C 342.11669 939.5918 342.35545 939.57529 342.5918 939.54883 C 343.04496 939.5749 343.50102 939.5918 343.96094 939.5918 C 356.84992 939.5918 367.22656 929.21515 367.22656 916.32617 C 367.22656 915.35623 367.15909 914.40297 367.04492 913.46484 C 367.15848 912.85086 367.22656 912.2201 367.22656 911.57227 L 367.22656 856.80859 C 367.22656 856.80728 367.22656 856.806 367.22656 856.80469 C 367.22656 856.80337 367.22656 856.8021 367.22656 856.80078 L 367.22656 793.65039 L 367.22656 759.81836 L 367.22656 696.07617 L 367.22656 666.75781 L 367.22656 603.60742 L 367.22656 573.69727 L 367.22656 503.01562 C 367.22656 502.19365 367.14423 501.3939 367.02148 500.60742 C 367.15179 499.60682 367.22656 498.58803 367.22656 497.55078 C 367.22656 484.6618 356.84992 474.28516 343.96094 474.28516 C 343.64985 474.28516 343.34125 474.29662 343.0332 474.30859 C 342.87647 474.29711 342.72031 474.28516 342.56055 474.28516 L 267.81445 474.28516 L 202.91211 474.28516 z "
       transform="matrix(0.26458333,0,0,0.26458333,0,32.41665)"
       id="rect860" />
  </g>
</svg>
