<?xml version="1.0" encoding="UTF-8" standalone="no"?>
<!-- Created with Inkscape (http://www.inkscape.org/) -->

<svg
   xmlns:dc="http://purl.org/dc/elements/1.1/"
   xmlns:cc="http://creativecommons.org/ns#"
   xmlns:rdf="http://www.w3.org/1999/02/22-rdf-syntax-ns#"
   xmlns:svg="http://www.w3.org/2000/svg"
   xmlns="http://www.w3.org/2000/svg"
   xmlns:sodipodi="http://sodipodi.sourceforge.net/DTD/sodipodi-0.dtd"
   xmlns:inkscape="http://www.inkscape.org/namespaces/inkscape"
   width="1000"
   height="1000"
   viewBox="0 0 264.58333 264.58334"
   version="1.1"
   id="svg8"
   inkscape:version="0.92.4 (5da689c313, 2019-01-14)"
   sodipodi:docname="H.svg">
  <defs
     id="defs2" />
  <sodipodi:namedview
     id="base"
     pagecolor="#ffffff"
     bordercolor="#666666"
     borderopacity="1.0"
     inkscape:pageopacity="0.0"
     inkscape:pageshadow="2"
     inkscape:zoom="0.49497475"
     inkscape:cx="252.22056"
     inkscape:cy="601.80442"
     inkscape:document-units="mm"
     inkscape:current-layer="layer1"
     showgrid="false"
     units="px"
     inkscape:window-width="1600"
     inkscape:window-height="1149"
     inkscape:window-x="0"
     inkscape:window-y="26"
     inkscape:window-maximized="1"
     showguides="true"
     inkscape:guide-bbox="true">
    <sodipodi:guide
       position="0,52.916667"
       orientation="0,1"
       id="guide29"
       inkscape:locked="false"
       inkscape:label=""
       inkscape:color="rgb(0,0,255)" />
    <sodipodi:guide
       position="57.150382,139.09526"
       orientation="0,1"
       id="guide913"
       inkscape:locked="false" />
    <sodipodi:guide
       position="35.605739,52.916672"
       orientation="1,0"
       id="guide1095"
       inkscape:locked="false" />
    <sodipodi:guide
       position="35.605739,203.7292"
       orientation="0,1"
       id="guide1097"
       inkscape:locked="false" />
    <sodipodi:guide
       position="143.32896,52.916672"
       orientation="1,0"
       id="guide1099"
       inkscape:locked="false" />
  </sodipodi:namedview>
  <metadata
     id="metadata5">
    <rdf:RDF>
      <cc:Work
         rdf:about="">
        <dc:format>image/svg+xml</dc:format>
        <dc:type
           rdf:resource="http://purl.org/dc/dcmitype/StillImage" />
        <dc:title />
      </cc:Work>
    </rdf:RDF>
  </metadata>
  <g
     inkscape:label="Layer 1"
     inkscape:groupmode="layer"
     id="layer1"
     transform="translate(0,-32.41665)">
    <path
       style="fill:#010101;fill-opacity:1;fill-rule:nonzero;stroke:#ffffff;stroke-width:0;stroke-miterlimit:4;stroke-dasharray:none;stroke-opacity:1;paint-order:normal"
       d="M 501.00195 230 C 488.11249 230 477.73438 240.37617 477.73438 253.26562 L 477.73438 288.16211 L 477.73438 418.46875 L 477.73438 487.125 L 477.73438 491.73438 L 372.50977 491.73438 L 339.56836 491.73438 L 198.55273 491.73438 L 198.55273 448.67383 L 198.55273 367.33203 L 198.55273 334.69531 C 198.55273 321.80585 188.17657 311.42773 175.28711 311.42773 C 162.39765 311.42773 152.02148 321.80585 152.02148 334.69531 L 152.02148 369.5918 L 152.02148 457.38477 L 152.02148 581.32617 L 152.02148 648.06445 C 152.02148 649.00139 152.10905 649.9157 152.23633 650.81641 C 152.10667 651.64532 152.02148 652.48905 152.02148 653.35547 L 152.02148 739.73438 C 152.02148 739.99823 152.0482 740.25493 152.06055 740.51562 C 152.03624 740.95336 152.02148 741.39387 152.02148 741.83789 L 152.02148 776.73438 C 152.02148 789.62383 162.39765 800 175.28711 800 C 188.17657 800 198.55273 789.62383 198.55273 776.73438 L 198.55273 741.83789 C 198.55273 741.39387 198.53798 740.95336 198.51367 740.51562 C 198.52601 740.25493 198.55273 739.99823 198.55273 739.73438 L 198.55273 653.35547 C 198.55273 652.48905 198.46755 651.64532 198.33789 650.81641 C 198.46517 649.9157 198.55273 649.00139 198.55273 648.06445 L 198.55273 544.79297 L 198.55273 538.26562 L 339.56836 538.26562 L 372.50977 538.26562 L 477.73438 538.26562 L 477.73438 544.60156 L 477.73438 661.28516 L 477.73438 745.28516 L 477.73438 776.73438 C 477.73438 789.62383 488.11249 800 501.00195 800 C 513.89141 800 524.26758 789.62383 524.26758 776.73438 L 524.26758 741.83789 L 524.26758 610.42969 L 524.26758 531.57227 L 524.26758 485.39648 L 524.26758 380.01758 L 524.26758 285.81641 L 524.26758 253.26562 C 524.26758 240.37617 513.89141 230 501.00195 230 z "
       transform="matrix(0.26458333,0,0,0.26458333,0,32.41665)"
       id="rect850" />
  </g>
</svg>
