<?xml version="1.0" encoding="UTF-8" standalone="no"?>
<!-- Created with Inkscape (http://www.inkscape.org/) -->

<svg
   xmlns:dc="http://purl.org/dc/elements/1.1/"
   xmlns:cc="http://creativecommons.org/ns#"
   xmlns:rdf="http://www.w3.org/1999/02/22-rdf-syntax-ns#"
   xmlns:svg="http://www.w3.org/2000/svg"
   xmlns="http://www.w3.org/2000/svg"
   xmlns:sodipodi="http://sodipodi.sourceforge.net/DTD/sodipodi-0.dtd"
   xmlns:inkscape="http://www.inkscape.org/namespaces/inkscape"
   width="1000"
   height="1000"
   viewBox="0 0 264.58333 264.58334"
   version="1.1"
   id="svg8"
   inkscape:version="0.92.4 (5da689c313, 2019-01-14)"
   sodipodi:docname="h.svg">
  <defs
     id="defs2" />
  <sodipodi:namedview
     id="base"
     pagecolor="#ffffff"
     bordercolor="#666666"
     borderopacity="1.0"
     inkscape:pageopacity="0.0"
     inkscape:pageshadow="2"
     inkscape:zoom="0.7"
     inkscape:cx="110.24777"
     inkscape:cy="498.87839"
     inkscape:document-units="mm"
     inkscape:current-layer="layer1"
     showgrid="false"
     units="px"
     inkscape:window-width="1600"
     inkscape:window-height="1149"
     inkscape:window-x="0"
     inkscape:window-y="26"
     inkscape:window-maximized="1"
     showguides="true"
     inkscape:guide-bbox="true">
    <sodipodi:guide
       position="0,52.916667"
       orientation="0,1"
       id="guide29"
       inkscape:locked="false"
       inkscape:label=""
       inkscape:color="rgb(0,0,255)" />
    <sodipodi:guide
       position="57.150382,139.09526"
       orientation="0,1"
       id="guide913"
       inkscape:locked="false" />
    <sodipodi:guide
       position="35.605739,52.916672"
       orientation="1,0"
       id="guide1095"
       inkscape:locked="false" />
    <sodipodi:guide
       position="35.605739,203.7292"
       orientation="0,1"
       id="guide1097"
       inkscape:locked="false" />
    <sodipodi:guide
       position="143.32896,52.916672"
       orientation="1,0"
       id="guide1099"
       inkscape:locked="false" />
    <sodipodi:guide
       position="97.161864,52.916687"
       orientation="1,0"
       id="guide1238"
       inkscape:locked="false" />
    <sodipodi:guide
       position="35.605739,102.16158"
       orientation="0,1"
       id="guide1240"
       inkscape:locked="false" />
  </sodipodi:namedview>
  <metadata
     id="metadata5">
    <rdf:RDF>
      <cc:Work
         rdf:about="">
        <dc:format>image/svg+xml</dc:format>
        <dc:type
           rdf:resource="http://purl.org/dc/dcmitype/StillImage" />
        <dc:title />
      </cc:Work>
    </rdf:RDF>
  </metadata>
  <g
     inkscape:label="Layer 1"
     inkscape:groupmode="layer"
     id="layer1"
     transform="translate(0,-32.41665)">
    <path
       style="fill:#010101;fill-opacity:1;fill-rule:nonzero;stroke:#ffffff;stroke-width:0;stroke-miterlimit:4;stroke-dasharray:none;stroke-opacity:1;paint-order:normal"
       d="M 157.83789 241.63281 C 144.94891 241.63281 134.57227 252.00946 134.57227 264.89844 C 134.57227 265.41355 134.59626 265.9231 134.62891 266.42969 C 134.59213 266.79059 134.57227 267.15642 134.57227 267.52734 L 134.57227 324.08008 C 134.57227 324.66226 134.63138 325.22893 134.7207 325.78516 C 134.6327 326.35861 134.57227 326.94219 134.57227 327.54102 L 134.57227 388.37695 L 134.57227 431.08789 C 134.57227 431.65429 134.63094 432.20593 134.7207 432.74609 C 134.62583 433.18406 134.57227 433.63828 134.57227 434.10547 L 134.57227 467.93555 L 134.57227 538.61719 L 134.57227 574.83398 L 134.57227 607.52734 L 134.57227 650.30664 C 134.57227 650.97905 134.64147 651.63454 134.76562 652.26953 C 134.64453 652.92636 134.57227 653.60007 134.57227 654.29297 L 134.57227 713.05273 C 134.57227 713.87273 134.66775 714.66942 134.83594 715.4375 C 134.66794 716.19911 134.57227 716.98918 134.57227 717.80273 L 134.57227 775.6875 C 134.57227 775.80694 134.58606 775.92253 134.58984 776.04102 C 134.58314 776.27183 134.57227 776.50188 134.57227 776.73438 C 134.57227 789.62336 144.94891 800 157.83789 800 C 170.72687 800 181.10352 789.62336 181.10352 776.73438 C 181.10352 776.49729 181.09291 776.26268 181.08594 776.02734 C 181.08944 775.91339 181.10352 775.80233 181.10352 775.6875 L 181.10352 717.80273 C 181.10352 716.98981 181.00759 716.20052 180.83984 715.43945 C 181.00836 714.67068 181.10352 713.87354 181.10352 713.05273 L 181.10352 654.29297 C 181.10352 653.59865 181.03173 652.92371 180.91016 652.26562 C 181.03383 651.6318 181.10352 650.97773 181.10352 650.30664 L 181.10352 596.48047 L 181.10352 573.69727 L 181.10352 520.81641 L 246.64258 520.81641 L 295.84766 520.81641 C 296.0279 520.81641 296.20451 520.80364 296.38086 520.78906 C 296.72865 520.80435 297.07799 520.81641 297.42969 520.81641 C 310.31867 520.81641 320.69531 510.43976 320.69531 497.55078 C 320.69531 484.6618 310.31867 474.28516 297.42969 474.28516 C 297.07799 474.28516 296.72865 474.29721 296.38086 474.3125 C 296.20451 474.29792 296.0279 474.28516 295.84766 474.28516 L 246.64258 474.28516 L 181.10352 474.28516 L 181.10352 456.48633 L 181.10352 434.10547 C 181.10352 433.63828 181.04995 433.18406 180.95508 432.74609 C 181.04485 432.2059 181.10352 431.65433 181.10352 431.08789 L 181.10352 377.89258 L 181.10352 327.54102 C 181.10352 326.94081 181.04348 326.35596 180.95508 325.78125 C 181.044 325.22623 181.10352 324.66093 181.10352 324.08008 L 181.10352 267.52734 C 181.10352 267.15984 181.08494 266.79517 181.04883 266.4375 C 181.08181 265.92836 181.10352 265.4162 181.10352 264.89844 C 181.10352 252.00946 170.72687 241.63281 157.83789 241.63281 z M 343.96094 520.81641 C 331.07196 520.81641 320.69531 531.19305 320.69531 544.08203 C 320.69531 544.4488 320.70603 544.81327 320.72266 545.17578 C 320.7138 545.3557 320.69531 545.53265 320.69531 545.71484 L 320.69531 603.10547 L 320.69531 650.30664 C 320.69531 650.97706 320.76523 651.63043 320.88867 652.26367 C 320.76706 652.92186 320.69531 653.59853 320.69531 654.29297 L 320.69531 713.05273 C 320.69531 713.87354 320.79047 714.67068 320.95898 715.43945 C 320.79124 716.20052 320.69531 716.98981 320.69531 717.80273 L 320.69531 775.6875 C 320.69531 775.80233 320.70939 775.91339 320.71289 776.02734 C 320.70592 776.26268 320.69531 776.49729 320.69531 776.73438 C 320.69531 789.62336 331.07196 800 343.96094 800 C 356.84992 800 367.22656 789.62336 367.22656 776.73438 C 367.22656 776.50188 367.21569 776.27183 367.20898 776.04102 C 367.21277 775.92253 367.22656 775.80694 367.22656 775.6875 L 367.22656 717.80273 C 367.22656 716.98918 367.13089 716.19911 366.96289 715.4375 C 367.13108 714.66942 367.22656 713.87273 367.22656 713.05273 L 367.22656 654.29297 C 367.22656 653.60061 367.15411 652.92588 367.0332 652.26953 C 367.15736 651.63454 367.22656 650.97905 367.22656 650.30664 L 367.22656 596.48047 L 367.22656 545.71484 C 367.22656 545.52937 367.20839 545.34913 367.19922 545.16602 C 367.21555 544.80671 367.22656 544.44551 367.22656 544.08203 C 367.22656 531.19305 356.84992 520.81641 343.96094 520.81641 z "
       transform="matrix(0.26458333,0,0,0.26458333,0,32.41665)"
       id="rect860" />
  </g>
</svg>
