<?xml version="1.0" encoding="UTF-8" standalone="no"?>
<!-- Created with Inkscape (http://www.inkscape.org/) -->

<svg
   xmlns:dc="http://purl.org/dc/elements/1.1/"
   xmlns:cc="http://creativecommons.org/ns#"
   xmlns:rdf="http://www.w3.org/1999/02/22-rdf-syntax-ns#"
   xmlns:svg="http://www.w3.org/2000/svg"
   xmlns="http://www.w3.org/2000/svg"
   xmlns:sodipodi="http://sodipodi.sourceforge.net/DTD/sodipodi-0.dtd"
   xmlns:inkscape="http://www.inkscape.org/namespaces/inkscape"
   width="1000"
   height="1000"
   viewBox="0 0 264.58333 264.58334"
   version="1.1"
   id="svg8"
   inkscape:version="0.92.4 (5da689c313, 2019-01-14)"
   sodipodi:docname="H.svg">
  <defs
     id="defs2" />
  <sodipodi:namedview
     id="base"
     pagecolor="#ffffff"
     bordercolor="#666666"
     borderopacity="1.0"
     inkscape:pageopacity="0.0"
     inkscape:pageshadow="2"
     inkscape:zoom="0.98994949"
     inkscape:cx="361.6859"
     inkscape:cy="326.84099"
     inkscape:document-units="mm"
     inkscape:current-layer="layer1"
     showgrid="false"
     units="px"
     inkscape:window-width="1600"
     inkscape:window-height="1149"
     inkscape:window-x="0"
     inkscape:window-y="26"
     inkscape:window-maximized="1"
     showguides="true"
     inkscape:guide-bbox="true">
    <sodipodi:guide
       position="0,52.916667"
       orientation="0,1"
       id="guide29"
       inkscape:locked="false"
       inkscape:label=""
       inkscape:color="rgb(0,0,255)" />
    <sodipodi:guide
       position="57.150382,139.09526"
       orientation="0,1"
       id="guide913"
       inkscape:locked="false" />
    <sodipodi:guide
       position="35.605739,52.916672"
       orientation="1,0"
       id="guide1095"
       inkscape:locked="false" />
    <sodipodi:guide
       position="35.605739,203.7292"
       orientation="0,1"
       id="guide1097"
       inkscape:locked="false" />
    <sodipodi:guide
       position="143.32896,52.916672"
       orientation="1,0"
       id="guide1099"
       inkscape:locked="false" />
  </sodipodi:namedview>
  <metadata
     id="metadata5">
    <rdf:RDF>
      <cc:Work
         rdf:about="">
        <dc:format>image/svg+xml</dc:format>
        <dc:type
           rdf:resource="http://purl.org/dc/dcmitype/StillImage" />
        <dc:title />
      </cc:Work>
    </rdf:RDF>
  </metadata>
  <g
     inkscape:label="Layer 1"
     inkscape:groupmode="layer"
     id="layer1"
     transform="translate(0,-32.41665)">
    <path
       style="fill:#010101;fill-opacity:1;fill-rule:nonzero;stroke:#ffffff;stroke-width:0;stroke-miterlimit:4;stroke-dasharray:none;stroke-opacity:1;paint-order:normal"
       d="M 501.00195 230 C 478.44624 230 460.28711 248.15913 460.28711 270.71484 C 460.28711 270.95853 460.30047 271.19877 460.30469 271.44141 C 460.29903 271.68249 460.28711 271.92157 460.28711 272.16406 L 460.28711 432.12109 L 460.28711 463.17383 L 460.28711 474.28516 L 367.74609 474.28516 L 316.62305 474.28516 L 216.00195 474.28516 L 216.00195 356.5957 C 216.00195 355.91435 215.96977 355.24156 215.92383 354.57227 C 215.97076 353.76795 216.00195 352.95907 216.00195 352.14258 C 216.00195 329.58687 197.84282 311.42773 175.28711 311.42773 C 152.7314 311.42773 134.57227 329.58687 134.57227 352.14258 C 134.57227 352.9584 134.60353 353.76664 134.65039 354.57031 C 134.60436 355.24024 134.57227 355.91369 134.57227 356.5957 L 134.57227 510.54688 L 134.57227 544.60156 L 134.57227 666.05859 L 134.57227 755.56641 C 134.57227 756.12713 134.59213 756.6836 134.62305 757.23633 C 134.58973 757.91495 134.57227 758.59798 134.57227 759.28516 C 134.57227 781.84087 152.7314 800 175.28711 800 C 197.84282 800 216.00195 781.84087 216.00195 759.28516 C 216.00195 758.59798 215.98449 757.91495 215.95117 757.23633 C 215.98209 756.6836 216.00195 756.12713 216.00195 755.56641 L 216.00195 600.14648 L 216.00195 555.71484 L 316.62305 555.71484 L 367.74609 555.71484 L 460.28711 555.71484 L 460.28711 573.61328 L 460.28711 626.03125 L 460.28711 754.91406 C 460.28711 755.58217 460.31719 756.2419 460.36133 756.89844 C 460.31605 757.68856 460.28711 758.4833 460.28711 759.28516 C 460.28711 781.84087 478.44624 800 501.00195 800 C 523.55766 800 541.71484 781.84087 541.71484 759.28516 C 541.71484 758.4833 541.6859 757.68856 541.64062 756.89844 C 541.68477 756.2419 541.71484 755.58217 541.71484 754.91406 L 541.71484 600.80078 L 541.71484 566.82617 L 541.71484 456.38672 L 541.71484 403.96875 L 541.71484 272.16406 C 541.71484 271.91501 541.70324 271.66944 541.69727 271.42188 C 541.70126 271.18573 541.71484 270.95198 541.71484 270.71484 C 541.71484 248.15913 523.55766 230 501.00195 230 z "
       transform="matrix(0.26458333,0,0,0.26458333,0,32.41665)"
       id="rect850" />
  </g>
</svg>
