<?xml version="1.0" encoding="UTF-8" standalone="no"?>
<!-- Created with Inkscape (http://www.inkscape.org/) -->

<svg
   xmlns:dc="http://purl.org/dc/elements/1.1/"
   xmlns:cc="http://creativecommons.org/ns#"
   xmlns:rdf="http://www.w3.org/1999/02/22-rdf-syntax-ns#"
   xmlns:svg="http://www.w3.org/2000/svg"
   xmlns="http://www.w3.org/2000/svg"
   xmlns:sodipodi="http://sodipodi.sourceforge.net/DTD/sodipodi-0.dtd"
   xmlns:inkscape="http://www.inkscape.org/namespaces/inkscape"
   width="1000"
   height="1000"
   viewBox="0 0 264.58333 264.58334"
   version="1.1"
   id="svg8"
   inkscape:version="0.92.4 (5da689c313, 2019-01-14)"
   sodipodi:docname="i.svg">
  <defs
     id="defs2" />
  <sodipodi:namedview
     id="base"
     pagecolor="#ffffff"
     bordercolor="#666666"
     borderopacity="1.0"
     inkscape:pageopacity="0.0"
     inkscape:pageshadow="2"
     inkscape:zoom="1.979899"
     inkscape:cx="230.00622"
     inkscape:cy="338.91081"
     inkscape:document-units="mm"
     inkscape:current-layer="layer1"
     showgrid="false"
     units="px"
     inkscape:window-width="1600"
     inkscape:window-height="1149"
     inkscape:window-x="0"
     inkscape:window-y="26"
     inkscape:window-maximized="1"
     showguides="true"
     inkscape:guide-bbox="true">
    <sodipodi:guide
       position="0,52.916667"
       orientation="0,1"
       id="guide29"
       inkscape:locked="false"
       inkscape:label=""
       inkscape:color="rgb(0,0,255)" />
    <sodipodi:guide
       position="57.150382,139.09526"
       orientation="0,1"
       id="guide913"
       inkscape:locked="false" />
    <sodipodi:guide
       position="35.605739,52.916672"
       orientation="1,0"
       id="guide1095"
       inkscape:locked="false" />
    <sodipodi:guide
       position="35.605739,203.7292"
       orientation="0,1"
       id="guide1097"
       inkscape:locked="false" />
    <sodipodi:guide
       position="143.32896,52.916672"
       orientation="1,0"
       id="guide1099"
       inkscape:locked="false" />
    <sodipodi:guide
       position="97.161864,52.916687"
       orientation="1,0"
       id="guide1238"
       inkscape:locked="false" />
    <sodipodi:guide
       position="35.605739,102.16158"
       orientation="0,1"
       id="guide1240"
       inkscape:locked="false" />
  </sodipodi:namedview>
  <metadata
     id="metadata5">
    <rdf:RDF>
      <cc:Work
         rdf:about="">
        <dc:format>image/svg+xml</dc:format>
        <dc:type
           rdf:resource="http://purl.org/dc/dcmitype/StillImage" />
        <dc:title />
      </cc:Work>
    </rdf:RDF>
  </metadata>
  <g
     inkscape:label="Layer 1"
     inkscape:groupmode="layer"
     id="layer1"
     transform="translate(0,-32.41665)">
    <path
       style="fill:#010101;fill-opacity:1;fill-rule:nonzero;stroke:#ffffff;stroke-width:0;stroke-miterlimit:4;stroke-dasharray:none;stroke-opacity:1;paint-order:normal"
       d="M 250.89844 334.69336 C 238.00946 334.69336 227.63477 345.07 227.63477 357.95898 C 227.63477 370.84796 238.00946 381.22461 250.89844 381.22461 C 263.78742 381.22461 274.16406 370.84796 274.16406 357.95898 C 274.16406 345.07 263.78742 334.69336 250.89844 334.69336 z M 250.89844 474.28516 C 238.00946 474.28516 227.63477 484.6618 227.63477 497.55078 C 227.63477 498.5281 227.70052 499.4886 227.81641 500.43359 C 227.70128 501.05145 227.63477 501.68761 227.63477 502.33984 L 227.63477 557.07422 L 227.63477 573.69727 L 227.63477 607.52734 L 227.63477 666.75781 L 227.63477 700.58984 L 227.63477 721.72266 L 227.63477 772.25586 C 227.63477 772.85919 227.69652 773.44512 227.79492 774.01953 C 227.69219 774.91048 227.63477 775.815 227.63477 776.73438 C 227.63477 789.62336 238.00946 800 250.89844 800 C 263.78742 800 274.16406 789.62336 274.16406 776.73438 C 274.16406 775.815 274.10664 774.91048 274.00391 774.01953 C 274.10231 773.44512 274.16406 772.85919 274.16406 772.25586 L 274.16406 717.25977 L 274.16406 700.58984 L 274.16406 666.75781 L 274.16406 607.52734 L 274.16406 573.69727 L 274.16406 552.56445 L 274.16406 502.33984 C 274.16406 501.68761 274.09755 501.05145 273.98242 500.43359 C 274.09831 499.4886 274.16406 498.5281 274.16406 497.55078 C 274.16406 484.6618 263.78742 474.28516 250.89844 474.28516 z "
       transform="matrix(0.26458333,0,0,0.26458333,0,32.41665)"
       id="rect1193" />
  </g>
</svg>
