<?xml version="1.0" encoding="UTF-8" standalone="no"?>
<!-- Created with Inkscape (http://www.inkscape.org/) -->

<svg
   xmlns:dc="http://purl.org/dc/elements/1.1/"
   xmlns:cc="http://creativecommons.org/ns#"
   xmlns:rdf="http://www.w3.org/1999/02/22-rdf-syntax-ns#"
   xmlns:svg="http://www.w3.org/2000/svg"
   xmlns="http://www.w3.org/2000/svg"
   xmlns:sodipodi="http://sodipodi.sourceforge.net/DTD/sodipodi-0.dtd"
   xmlns:inkscape="http://www.inkscape.org/namespaces/inkscape"
   width="1000"
   height="1000"
   viewBox="0 0 264.58333 264.58334"
   version="1.1"
   id="svg8"
   inkscape:version="0.92.4 (5da689c313, 2019-01-14)"
   sodipodi:docname="j.svg">
  <defs
     id="defs2" />
  <sodipodi:namedview
     id="base"
     pagecolor="#ffffff"
     bordercolor="#666666"
     borderopacity="1.0"
     inkscape:pageopacity="0.0"
     inkscape:pageshadow="2"
     inkscape:zoom="0.7"
     inkscape:cx="69.358326"
     inkscape:cy="377.71243"
     inkscape:document-units="mm"
     inkscape:current-layer="layer1"
     showgrid="false"
     units="px"
     inkscape:window-width="1600"
     inkscape:window-height="1149"
     inkscape:window-x="0"
     inkscape:window-y="26"
     inkscape:window-maximized="1"
     showguides="true"
     inkscape:guide-bbox="true">
    <sodipodi:guide
       position="0,52.916667"
       orientation="0,1"
       id="guide29"
       inkscape:locked="false"
       inkscape:label=""
       inkscape:color="rgb(0,0,255)" />
    <sodipodi:guide
       position="57.150382,139.09526"
       orientation="0,1"
       id="guide913"
       inkscape:locked="false" />
    <sodipodi:guide
       position="35.605739,52.916672"
       orientation="1,0"
       id="guide1095"
       inkscape:locked="false" />
    <sodipodi:guide
       position="35.605739,203.7292"
       orientation="0,1"
       id="guide1097"
       inkscape:locked="false" />
    <sodipodi:guide
       position="143.32896,52.916672"
       orientation="1,0"
       id="guide1099"
       inkscape:locked="false" />
    <sodipodi:guide
       position="97.161864,52.916687"
       orientation="1,0"
       id="guide1238"
       inkscape:locked="false" />
    <sodipodi:guide
       position="35.605739,102.16158"
       orientation="0,1"
       id="guide1240"
       inkscape:locked="false" />
  </sodipodi:namedview>
  <metadata
     id="metadata5">
    <rdf:RDF>
      <cc:Work
         rdf:about="">
        <dc:format>image/svg+xml</dc:format>
        <dc:type
           rdf:resource="http://purl.org/dc/dcmitype/StillImage" />
        <dc:title />
      </cc:Work>
    </rdf:RDF>
  </metadata>
  <g
     inkscape:label="Layer 1"
     inkscape:groupmode="layer"
     id="layer1"
     transform="translate(0,-32.41665)">
    <path
       style="fill:#010101;fill-opacity:1;fill-rule:nonzero;stroke:#ffffff;stroke-width:0;stroke-miterlimit:4;stroke-dasharray:none;stroke-opacity:1;paint-order:normal"
       d="M 297.42969 334.69336 C 284.54071 334.69336 274.16406 345.07 274.16406 357.95898 C 274.16406 370.84796 284.54071 381.22461 297.42969 381.22461 C 310.31867 381.22461 320.69531 370.84796 320.69531 357.95898 C 320.69531 345.07 310.31867 334.69336 297.42969 334.69336 z M 297.42969 474.28516 C 284.54071 474.28516 274.16406 484.6618 274.16406 497.55078 C 274.16406 498.47828 274.22554 499.39052 274.33008 500.28906 C 274.22788 500.87379 274.16406 501.47302 274.16406 502.08789 L 274.16406 557.03516 L 274.16406 627.59766 L 274.16406 661.33008 L 274.16406 714.35156 L 274.16406 754.91016 L 274.16406 805.07617 C 274.16406 806.03255 274.30064 806.95348 274.53516 807.83398 C 274.30013 808.71321 274.16406 809.6345 274.16406 810.58984 L 274.16406 867.01172 C 274.16406 867.40012 274.18815 867.78282 274.22852 868.16016 C 274.19124 868.70113 274.16406 869.24416 274.16406 869.79492 C 274.16406 882.6839 284.54071 893.06055 297.42969 893.06055 C 310.31867 893.06055 320.69531 882.6839 320.69531 869.79492 C 320.69531 869.24152 320.67045 868.69586 320.63281 868.15234 C 320.67261 867.7776 320.69531 867.39737 320.69531 867.01172 L 320.69531 810.58984 C 320.69531 809.63517 320.55893 808.71462 320.32422 807.83594 C 320.55908 806.95483 320.69531 806.03328 320.69531 805.07617 L 320.69531 748.39258 L 320.69531 705.49805 L 320.69531 652.99414 L 320.69531 612.95703 L 320.69531 553.62695 L 320.69531 502.08789 C 320.69531 501.47512 320.63277 500.87777 320.53125 500.29492 C 320.63622 499.39454 320.69531 498.48024 320.69531 497.55078 C 320.69531 484.6618 310.31867 474.28516 297.42969 474.28516 z M 204.36914 893.06055 C 191.48016 893.06055 181.10352 903.43719 181.10352 916.32617 C 181.10352 929.21515 191.48016 939.5918 204.36914 939.5918 C 204.86296 939.5918 205.35189 939.57299 205.83789 939.54297 C 206.14142 939.57472 206.44951 939.5918 206.76172 939.5918 L 250.89844 939.5918 L 253.13867 939.5918 C 254.35108 939.5918 255.50398 939.34639 256.55078 938.90234 C 266.69027 936.38939 274.16406 927.26411 274.16406 916.32617 C 274.16406 905.38823 266.69027 896.26295 256.55078 893.75 C 255.50399 893.30596 254.35107 893.06055 253.13867 893.06055 L 250.89844 893.06055 L 206.76172 893.06055 C 206.44676 893.06055 206.13619 893.07903 205.83008 893.11133 C 205.34664 893.08163 204.86032 893.06055 204.36914 893.06055 z "
       transform="matrix(0.26458333,0,0,0.26458333,0,32.41665)"
       id="rect857" />
  </g>
</svg>
