<?xml version="1.0" encoding="UTF-8" standalone="no"?>
<!-- Created with Inkscape (http://www.inkscape.org/) -->

<svg
   xmlns:dc="http://purl.org/dc/elements/1.1/"
   xmlns:cc="http://creativecommons.org/ns#"
   xmlns:rdf="http://www.w3.org/1999/02/22-rdf-syntax-ns#"
   xmlns:svg="http://www.w3.org/2000/svg"
   xmlns="http://www.w3.org/2000/svg"
   xmlns:sodipodi="http://sodipodi.sourceforge.net/DTD/sodipodi-0.dtd"
   xmlns:inkscape="http://www.inkscape.org/namespaces/inkscape"
   width="1000"
   height="1000"
   viewBox="0 0 264.58333 264.58334"
   version="1.1"
   id="svg8"
   inkscape:version="0.92.4 (5da689c313, 2019-01-14)"
   sodipodi:docname="j.svg">
  <defs
     id="defs2" />
  <sodipodi:namedview
     id="base"
     pagecolor="#ffffff"
     bordercolor="#666666"
     borderopacity="1.0"
     inkscape:pageopacity="0.0"
     inkscape:pageshadow="2"
     inkscape:zoom="0.98994949"
     inkscape:cx="47.282742"
     inkscape:cy="332.22101"
     inkscape:document-units="mm"
     inkscape:current-layer="layer1"
     showgrid="false"
     units="px"
     inkscape:window-width="1600"
     inkscape:window-height="1149"
     inkscape:window-x="0"
     inkscape:window-y="26"
     inkscape:window-maximized="1"
     showguides="true"
     inkscape:guide-bbox="true">
    <sodipodi:guide
       position="0,52.916667"
       orientation="0,1"
       id="guide29"
       inkscape:locked="false"
       inkscape:label=""
       inkscape:color="rgb(0,0,255)" />
    <sodipodi:guide
       position="57.150382,139.09526"
       orientation="0,1"
       id="guide913"
       inkscape:locked="false" />
    <sodipodi:guide
       position="35.605739,52.916672"
       orientation="1,0"
       id="guide1095"
       inkscape:locked="false" />
    <sodipodi:guide
       position="35.605739,203.7292"
       orientation="0,1"
       id="guide1097"
       inkscape:locked="false" />
    <sodipodi:guide
       position="143.32896,52.916672"
       orientation="1,0"
       id="guide1099"
       inkscape:locked="false" />
    <sodipodi:guide
       position="97.161864,52.916687"
       orientation="1,0"
       id="guide1238"
       inkscape:locked="false" />
    <sodipodi:guide
       position="35.605739,102.16158"
       orientation="0,1"
       id="guide1240"
       inkscape:locked="false" />
  </sodipodi:namedview>
  <metadata
     id="metadata5">
    <rdf:RDF>
      <cc:Work
         rdf:about="">
        <dc:format>image/svg+xml</dc:format>
        <dc:type
           rdf:resource="http://purl.org/dc/dcmitype/StillImage" />
        <dc:title />
      </cc:Work>
    </rdf:RDF>
  </metadata>
  <g
     inkscape:label="Layer 1"
     inkscape:groupmode="layer"
     id="layer1"
     transform="translate(0,-32.41665)">
    <path
       style="fill:#010101;fill-opacity:1;fill-rule:nonzero;stroke:#ffffff;stroke-width:0;stroke-miterlimit:4;stroke-dasharray:none;stroke-opacity:1;paint-order:normal"
       d="M 280.51367 334.69336 C 276.99603 334.69336 274.16406 337.52533 274.16406 341.04297 L 274.16406 374.875 C 274.16406 378.39264 276.99603 381.22461 280.51367 381.22461 L 314.3457 381.22461 C 317.86334 381.22461 320.69531 378.39264 320.69531 374.875 L 320.69531 341.04297 C 320.69531 337.52533 317.86334 334.69336 314.3457 334.69336 L 280.51367 334.69336 z M 280.51367 474.28516 C 276.99603 474.28516 274.16406 477.11713 274.16406 480.63477 L 274.16406 514.4668 L 274.16406 594.82812 L 274.16406 607.52734 L 274.16406 687.89062 L 274.16406 700.58984 L 274.16406 713.28906 L 274.16406 747.11914 L 274.16406 806.34961 L 274.16406 840.18164 L 274.16406 861.3125 L 274.16406 886.71094 C 274.16406 890.22858 276.99603 893.06055 280.51367 893.06055 L 314.3457 893.06055 C 317.86334 893.06055 320.69531 890.22858 320.69531 886.71094 L 320.69531 852.88086 L 320.69531 840.18164 L 320.69531 806.34961 L 320.69531 747.11914 L 320.69531 713.28906 L 320.69531 692.15625 L 320.69531 666.75781 L 320.69531 607.52734 L 320.69531 573.69727 L 320.69531 493.33398 L 320.69531 480.63477 C 320.69531 477.11713 317.86334 474.28516 314.3457 474.28516 L 280.51367 474.28516 z M 187.45312 893.06055 C 183.93549 893.06055 181.10352 895.89252 181.10352 899.41016 L 181.10352 933.24219 C 181.10352 936.75983 183.93549 939.5918 187.45312 939.5918 L 221.28516 939.5918 L 233.98438 939.5918 L 267.81445 939.5918 C 271.33209 939.5918 274.16406 936.75983 274.16406 933.24219 L 274.16406 899.41016 C 274.16406 895.89252 271.33209 893.06055 267.81445 893.06055 L 233.98438 893.06055 L 221.28516 893.06055 L 187.45312 893.06055 z "
       transform="matrix(0.26458333,0,0,0.26458333,0,32.41665)"
       id="rect182" />
  </g>
</svg>
