<?xml version="1.0" encoding="UTF-8" standalone="no"?>
<!-- Created with Inkscape (http://www.inkscape.org/) -->

<svg
   xmlns:dc="http://purl.org/dc/elements/1.1/"
   xmlns:cc="http://creativecommons.org/ns#"
   xmlns:rdf="http://www.w3.org/1999/02/22-rdf-syntax-ns#"
   xmlns:svg="http://www.w3.org/2000/svg"
   xmlns="http://www.w3.org/2000/svg"
   xmlns:sodipodi="http://sodipodi.sourceforge.net/DTD/sodipodi-0.dtd"
   xmlns:inkscape="http://www.inkscape.org/namespaces/inkscape"
   width="1000"
   height="1000"
   viewBox="0 0 264.58333 264.58334"
   version="1.1"
   id="svg8"
   inkscape:version="0.92.4 (5da689c313, 2019-01-14)"
   sodipodi:docname="J.svg">
  <defs
     id="defs2" />
  <sodipodi:namedview
     id="base"
     pagecolor="#ffffff"
     bordercolor="#666666"
     borderopacity="1.0"
     inkscape:pageopacity="0.0"
     inkscape:pageshadow="2"
     inkscape:zoom="0.35"
     inkscape:cx="520.24272"
     inkscape:cy="399.47036"
     inkscape:document-units="mm"
     inkscape:current-layer="layer1"
     showgrid="false"
     units="px"
     inkscape:window-width="1600"
     inkscape:window-height="1149"
     inkscape:window-x="0"
     inkscape:window-y="26"
     inkscape:window-maximized="1"
     showguides="true"
     inkscape:guide-bbox="true">
    <sodipodi:guide
       position="0,52.916667"
       orientation="0,1"
       id="guide29"
       inkscape:locked="false"
       inkscape:label=""
       inkscape:color="rgb(0,0,255)" />
    <sodipodi:guide
       position="57.150382,139.09526"
       orientation="0,1"
       id="guide913"
       inkscape:locked="false" />
    <sodipodi:guide
       position="35.605739,52.916672"
       orientation="1,0"
       id="guide1095"
       inkscape:locked="false" />
    <sodipodi:guide
       position="35.605739,203.7292"
       orientation="0,1"
       id="guide1097"
       inkscape:locked="false" />
    <sodipodi:guide
       position="143.32896,52.916672"
       orientation="1,0"
       id="guide1099"
       inkscape:locked="false" />
  </sodipodi:namedview>
  <metadata
     id="metadata5">
    <rdf:RDF>
      <cc:Work
         rdf:about="">
        <dc:format>image/svg+xml</dc:format>
        <dc:type
           rdf:resource="http://purl.org/dc/dcmitype/StillImage" />
        <dc:title />
      </cc:Work>
    </rdf:RDF>
  </metadata>
  <g
     inkscape:label="Layer 1"
     inkscape:groupmode="layer"
     id="layer1"
     transform="translate(0,-32.41665)">
    <path
       style="fill:#010101;fill-opacity:1;fill-rule:nonzero;stroke:#ffffff;stroke-width:0;stroke-miterlimit:4;stroke-dasharray:none;stroke-opacity:1;paint-order:normal"
       d="M 239.26758 247.44727 C 226.37812 247.44727 216.00195 257.82538 216.00195 270.71484 C 216.00195 283.6043 226.37812 293.98047 239.26758 293.98047 L 274.16406 293.98047 L 314.87891 293.98047 L 314.87891 375.81836 L 314.87891 496.22461 L 314.87891 581.32617 L 314.87891 708.80859 L 314.87891 736.01953 L 302.7207 736.01953 L 270.90039 736.01953 L 241.09961 736.01953 L 202.17188 736.01953 L 192.73438 736.01953 L 172.37109 736.01953 L 157.83984 736.01953 C 144.95038 736.01953 134.57227 746.3957 134.57227 759.28516 C 134.57227 772.17462 144.95038 782.55273 157.83984 782.55273 L 172.37109 782.55273 L 192.73438 782.55273 L 202.17188 782.55273 L 241.09961 782.55273 L 270.90039 782.55273 L 302.7207 782.55273 L 338.58008 782.55273 C 338.73326 782.55273 338.8828 782.53986 339.0332 782.5293 C 351.50705 782.06467 361.41016 771.87661 361.41016 759.28516 C 361.41016 759.01728 361.39952 758.75196 361.39062 758.48633 C 361.39519 758.35483 361.41016 758.2264 361.41016 758.09375 L 361.41016 698.88867 L 361.41016 575.97266 L 361.41016 448.67383 L 361.41016 370.91797 L 361.41016 293.98047 L 495.72266 293.98047 L 518.44922 293.98047 C 531.33868 293.98047 541.71484 283.6043 541.71484 270.71484 C 541.71484 257.82538 531.33868 247.44727 518.44922 247.44727 L 495.72266 247.44727 L 414.29492 247.44727 L 274.16406 247.44727 L 239.26758 247.44727 z "
       transform="matrix(0.26458333,0,0,0.26458333,0,32.41665)"
       id="rect850" />
  </g>
</svg>
