<?xml version="1.0" encoding="UTF-8" standalone="no"?>
<!-- Created with Inkscape (http://www.inkscape.org/) -->

<svg
   xmlns:dc="http://purl.org/dc/elements/1.1/"
   xmlns:cc="http://creativecommons.org/ns#"
   xmlns:rdf="http://www.w3.org/1999/02/22-rdf-syntax-ns#"
   xmlns:svg="http://www.w3.org/2000/svg"
   xmlns="http://www.w3.org/2000/svg"
   xmlns:sodipodi="http://sodipodi.sourceforge.net/DTD/sodipodi-0.dtd"
   xmlns:inkscape="http://www.inkscape.org/namespaces/inkscape"
   width="1000"
   height="1000"
   viewBox="0 0 264.58333 264.58334"
   version="1.1"
   id="svg8"
   inkscape:version="0.92.4 (5da689c313, 2019-01-14)"
   sodipodi:docname="K.svg">
  <defs
     id="defs2" />
  <sodipodi:namedview
     id="base"
     pagecolor="#ffffff"
     bordercolor="#666666"
     borderopacity="1.0"
     inkscape:pageopacity="0.0"
     inkscape:pageshadow="2"
     inkscape:zoom="0.9899495"
     inkscape:cx="175.07563"
     inkscape:cy="534.86835"
     inkscape:document-units="mm"
     inkscape:current-layer="layer1"
     showgrid="false"
     units="px"
     inkscape:window-width="1600"
     inkscape:window-height="1149"
     inkscape:window-x="0"
     inkscape:window-y="26"
     inkscape:window-maximized="1"
     showguides="true"
     inkscape:guide-bbox="true">
    <sodipodi:guide
       position="0,52.916667"
       orientation="0,1"
       id="guide29"
       inkscape:locked="false"
       inkscape:label=""
       inkscape:color="rgb(0,0,255)" />
    <sodipodi:guide
       position="57.150382,139.09526"
       orientation="0,1"
       id="guide913"
       inkscape:locked="false" />
    <sodipodi:guide
       position="35.605739,52.916672"
       orientation="1,0"
       id="guide1095"
       inkscape:locked="false" />
    <sodipodi:guide
       position="35.605739,203.7292"
       orientation="0,1"
       id="guide1097"
       inkscape:locked="false" />
    <sodipodi:guide
       position="143.32896,52.916672"
       orientation="1,0"
       id="guide1099"
       inkscape:locked="false" />
  </sodipodi:namedview>
  <metadata
     id="metadata5">
    <rdf:RDF>
      <cc:Work
         rdf:about="">
        <dc:format>image/svg+xml</dc:format>
        <dc:type
           rdf:resource="http://purl.org/dc/dcmitype/StillImage" />
        <dc:title />
      </cc:Work>
    </rdf:RDF>
  </metadata>
  <g
     inkscape:label="Layer 1"
     inkscape:groupmode="layer"
     id="layer1"
     transform="translate(0,-32.41665)">
    <path
       style="fill:#010101;fill-opacity:1;fill-rule:nonzero;stroke:#ffffff;stroke-width:0;stroke-miterlimit:4;stroke-dasharray:none;stroke-opacity:1;paint-order:normal"
       d="M 175.28711 230 C 162.39765 230 152.02148 240.37617 152.02148 253.26562 L 152.02148 288.16211 L 152.02148 375.60547 C 152.02148 375.9256 152.05131 376.237 152.06836 376.55273 C 152.04044 376.99688 152.02148 377.44311 152.02148 377.89453 L 152.02148 489.24805 L 152.02148 575.08203 L 152.02148 673.45508 C 152.02148 675.86308 152.40491 678.17682 153.10547 680.3457 C 152.41695 681.79357 152.02148 683.40942 152.02148 685.125 L 152.02148 744.33008 L 152.02148 776.73438 C 152.02148 789.62383 162.39765 800 175.28711 800 C 188.17657 800 198.55273 789.62383 198.55273 776.73438 L 198.55273 741.83789 L 198.55273 685.125 C 198.55273 683.40942 198.15727 681.79357 197.46875 680.3457 C 198.1693 678.17682 198.55273 675.86308 198.55273 673.45508 L 198.55273 554.75781 L 198.55273 538.26562 L 273.63281 538.26562 C 277.15058 538.26562 279.98242 535.43379 279.98242 531.91602 L 279.98242 498.08398 C 279.98242 494.56621 277.15058 491.73438 273.63281 491.73438 L 198.55273 491.73438 L 198.55273 454.91797 L 198.55273 377.89453 C 198.55273 377.44311 198.53378 376.99688 198.50586 376.55273 C 198.5229 376.237 198.55273 375.9256 198.55273 375.60547 L 198.55273 283.68164 L 198.55273 253.26562 C 198.55273 240.37617 188.17657 230 175.28711 230 z M 419.57227 311.42773 C 406.68281 311.42773 396.30664 321.80585 396.30664 334.69531 L 396.30664 369.5918 C 396.30664 382.48126 406.68281 392.85742 419.57227 392.85742 C 432.46172 392.85742 442.83984 382.48126 442.83984 369.5918 L 442.83984 334.69531 C 442.83984 321.80585 432.46172 311.42773 419.57227 311.42773 z M 356.125 392.85742 C 352.60723 392.85742 349.77344 395.68926 349.77344 399.20703 L 349.77344 433.03906 C 349.77344 436.55683 352.60723 439.38867 356.125 439.38867 L 389.95703 439.38867 C 393.4748 439.38867 396.30664 436.55683 396.30664 433.03906 L 396.30664 399.20703 C 396.30664 395.68926 393.4748 392.85742 389.95703 392.85742 L 356.125 392.85742 z M 309.5918 439.38867 C 306.07403 439.38867 303.24219 442.22051 303.24219 445.73828 L 303.24219 479.57227 C 303.24219 483.09004 306.07403 485.92188 309.5918 485.92188 L 343.42383 485.92188 C 346.9416 485.92188 349.77344 483.09004 349.77344 479.57227 L 349.77344 445.73828 C 349.77344 442.22051 346.9416 439.38867 343.42383 439.38867 L 309.5918 439.38867 z M 286.33203 538.26562 C 282.81426 538.26562 279.98242 541.09746 279.98242 544.61523 L 279.98242 578.44922 C 279.98242 581.96699 282.81426 584.79883 286.33203 584.79883 L 320.16406 584.79883 C 323.68183 584.79883 326.51367 581.96699 326.51367 578.44922 L 326.51367 544.61523 C 326.51367 541.09746 323.68183 538.26562 320.16406 538.26562 L 286.33203 538.26562 z M 344.48828 578.97461 C 340.97051 578.97461 338.13867 581.80645 338.13867 585.32422 L 338.13867 619.15625 C 338.13867 622.67402 340.97051 625.50586 344.48828 625.50586 L 378.32031 625.50586 C 381.83808 625.50586 384.66992 622.67402 384.66992 619.15625 L 384.66992 585.32422 C 384.66992 581.80645 381.83808 578.97461 378.32031 578.97461 L 344.48828 578.97461 z M 391.01953 625.50586 C 387.50176 625.50586 384.66992 628.33965 384.66992 631.85742 L 384.66992 665.68945 C 384.66992 669.20722 387.50176 672.03906 391.01953 672.03906 L 424.85352 672.03906 C 428.37129 672.03906 431.20312 669.20722 431.20312 665.68945 L 431.20312 631.85742 C 431.20312 628.33965 428.37129 625.50586 424.85352 625.50586 L 391.01953 625.50586 z M 437.55273 672.03906 C 434.03496 672.03906 431.20312 674.8709 431.20312 678.38867 L 431.20312 712.2207 C 431.20313 715.73847 434.03496 718.57227 437.55273 718.57227 L 471.38477 718.57227 C 474.90254 718.57227 477.73438 715.73847 477.73438 712.2207 L 477.73438 678.38867 C 477.73437 674.8709 474.90254 672.03906 471.38477 672.03906 L 437.55273 672.03906 z M 501.00195 718.57227 C 488.11249 718.57227 477.73438 728.94843 477.73438 741.83789 L 477.73438 776.73438 C 477.73438 789.62383 488.11249 800 501.00195 800 C 513.89141 800 524.26758 789.62383 524.26758 776.73438 L 524.26758 741.83789 C 524.26758 728.94843 513.89141 718.57227 501.00195 718.57227 z "
       transform="matrix(0.26458333,0,0,0.26458333,0,32.41665)"
       id="rect14591" />
  </g>
</svg>
