<?xml version="1.0" encoding="UTF-8" standalone="no"?>
<!-- Created with Inkscape (http://www.inkscape.org/) -->

<svg
   xmlns:dc="http://purl.org/dc/elements/1.1/"
   xmlns:cc="http://creativecommons.org/ns#"
   xmlns:rdf="http://www.w3.org/1999/02/22-rdf-syntax-ns#"
   xmlns:svg="http://www.w3.org/2000/svg"
   xmlns="http://www.w3.org/2000/svg"
   xmlns:sodipodi="http://sodipodi.sourceforge.net/DTD/sodipodi-0.dtd"
   xmlns:inkscape="http://www.inkscape.org/namespaces/inkscape"
   width="1000"
   height="1000"
   viewBox="0 0 264.58333 264.58334"
   version="1.1"
   id="svg8"
   inkscape:version="0.92.4 (5da689c313, 2019-01-14)"
   sodipodi:docname="k.svg">
  <defs
     id="defs2" />
  <sodipodi:namedview
     id="base"
     pagecolor="#ffffff"
     bordercolor="#666666"
     borderopacity="1.0"
     inkscape:pageopacity="0.0"
     inkscape:pageshadow="2"
     inkscape:zoom="0.98994949"
     inkscape:cx="182.9851"
     inkscape:cy="396.35664"
     inkscape:document-units="mm"
     inkscape:current-layer="layer1"
     showgrid="false"
     units="px"
     inkscape:window-width="1600"
     inkscape:window-height="1149"
     inkscape:window-x="0"
     inkscape:window-y="26"
     inkscape:window-maximized="1"
     showguides="true"
     inkscape:guide-bbox="true">
    <sodipodi:guide
       position="0,52.916667"
       orientation="0,1"
       id="guide29"
       inkscape:locked="false"
       inkscape:label=""
       inkscape:color="rgb(0,0,255)" />
    <sodipodi:guide
       position="57.150382,139.09526"
       orientation="0,1"
       id="guide913"
       inkscape:locked="false" />
    <sodipodi:guide
       position="35.605739,52.916672"
       orientation="1,0"
       id="guide1095"
       inkscape:locked="false" />
    <sodipodi:guide
       position="35.605739,203.7292"
       orientation="0,1"
       id="guide1097"
       inkscape:locked="false" />
    <sodipodi:guide
       position="143.32896,52.916672"
       orientation="1,0"
       id="guide1099"
       inkscape:locked="false" />
    <sodipodi:guide
       position="97.161864,52.916687"
       orientation="1,0"
       id="guide1238"
       inkscape:locked="false" />
    <sodipodi:guide
       position="35.605739,102.16158"
       orientation="0,1"
       id="guide1240"
       inkscape:locked="false" />
  </sodipodi:namedview>
  <metadata
     id="metadata5">
    <rdf:RDF>
      <cc:Work
         rdf:about="">
        <dc:format>image/svg+xml</dc:format>
        <dc:type
           rdf:resource="http://purl.org/dc/dcmitype/StillImage" />
        <dc:title />
      </cc:Work>
    </rdf:RDF>
  </metadata>
  <g
     inkscape:label="Layer 1"
     inkscape:groupmode="layer"
     id="layer1"
     transform="translate(0,-32.41665)">
    <path
       style="fill:#010101;fill-opacity:1;fill-rule:nonzero;stroke:#ffffff;stroke-width:0;stroke-miterlimit:4;stroke-dasharray:none;stroke-opacity:1;paint-order:normal"
       d="M 157.83789 241.63281 C 144.94891 241.63281 134.57227 252.00946 134.57227 264.89844 C 134.57227 265.96845 134.65054 267.01795 134.78906 268.04883 C 134.64833 268.72628 134.57227 269.42803 134.57227 270.14844 L 134.57227 324.49414 C 134.57227 324.56015 134.5808 324.62375 134.58203 324.68945 C 134.58102 324.75513 134.57227 324.81884 134.57227 324.88477 L 134.57227 391.0332 L 134.57227 440.62109 L 134.57227 485.60938 L 134.57227 514.4668 L 134.57227 577.15625 L 134.57227 607.52734 L 134.57227 671.73242 L 134.57227 712.5332 C 134.57227 713.30743 134.65759 714.06164 134.81055 714.78906 C 134.65916 715.48327 134.57227 716.20247 134.57227 716.94336 L 134.57227 770.25 C 134.57227 771.13075 134.69643 771.98035 134.9082 772.79297 C 134.6912 774.07418 134.57227 775.38952 134.57227 776.73438 C 134.57227 789.62336 144.94891 800 157.83789 800 C 170.72687 800 181.10352 789.62336 181.10352 776.73438 C 181.10352 775.38952 180.98458 774.07418 180.76758 772.79297 C 180.97936 771.98035 181.10352 771.13075 181.10352 770.25 L 181.10352 716.94336 C 181.10352 716.2033 181.01824 715.4845 180.86719 714.79102 C 181.02039 714.06303 181.10352 713.30808 181.10352 712.5332 L 181.10352 654.8125 L 181.10352 613.87695 L 205.05859 613.87695 C 205.31648 613.87695 205.56869 613.85772 205.81836 613.82812 C 218.02654 613.08413 227.63477 603.0131 227.63477 590.61133 C 227.63477 578.21088 218.02859 568.14239 205.82227 567.39648 C 205.57134 567.36658 205.31783 567.34766 205.05859 567.34766 L 181.10352 567.34766 L 181.10352 511.00781 L 181.10352 480.63477 L 181.10352 416.43164 L 181.10352 368.35742 L 181.10352 324.88477 C 181.10352 324.81884 181.09476 324.75513 181.09375 324.68945 C 181.09499 324.62375 181.10352 324.56015 181.10352 324.49414 L 181.10352 270.14844 C 181.10352 269.4287 181.0272 268.72766 180.88672 268.05078 C 181.02542 267.01926 181.10352 265.96914 181.10352 264.89844 C 181.10352 252.00946 170.72687 241.63281 157.83789 241.63281 z M 343.96094 427.75586 C 331.07196 427.75586 320.69531 438.13055 320.69531 451.01953 C 320.69531 463.90851 331.07196 474.28516 343.96094 474.28516 C 356.84992 474.28516 367.22656 463.90851 367.22656 451.01953 C 367.22656 438.13055 356.84992 427.75586 343.96094 427.75586 z M 280.51367 474.28516 C 276.99603 474.28516 274.16406 477.11713 274.16406 480.63477 L 274.16406 514.4668 C 274.16406 517.98444 276.99603 520.81641 280.51367 520.81641 L 314.3457 520.81641 C 317.86334 520.81641 320.69531 517.98444 320.69531 514.4668 L 320.69531 480.63477 C 320.69531 477.11713 317.86334 474.28516 314.3457 474.28516 L 280.51367 474.28516 z M 233.98438 520.81641 C 230.46674 520.81641 227.63477 523.64838 227.63477 527.16602 L 227.63477 560.99805 C 227.63477 564.51569 230.46674 567.34766 233.98438 567.34766 L 267.81445 567.34766 C 271.33209 567.34766 274.16406 564.51569 274.16406 560.99805 L 274.16406 527.16602 C 274.16406 523.64838 271.33209 520.81641 267.81445 520.81641 L 233.98438 520.81641 z M 233.98438 613.87695 C 230.46674 613.87695 227.63477 616.70892 227.63477 620.22656 L 227.63477 654.05859 C 227.63477 657.57623 230.46674 660.4082 233.98438 660.4082 L 267.81445 660.4082 C 271.33209 660.4082 274.16406 657.57623 274.16406 654.05859 L 274.16406 620.22656 C 274.16406 616.70892 271.33209 613.87695 267.81445 613.87695 L 233.98438 613.87695 z M 280.51367 660.4082 C 276.99603 660.4082 274.16406 663.24017 274.16406 666.75781 L 274.16406 700.58984 C 274.16406 704.10748 276.99603 706.93945 280.51367 706.93945 L 314.3457 706.93945 C 317.86334 706.93945 320.69531 704.10748 320.69531 700.58984 L 320.69531 666.75781 C 320.69531 663.24017 317.86334 660.4082 314.3457 660.4082 L 280.51367 660.4082 z M 343.96094 706.93945 C 331.07196 706.93945 320.69531 717.31414 320.69531 730.20312 C 320.69531 730.9211 320.73189 731.63101 320.79492 732.33203 C 320.73486 732.72263 320.69531 733.11942 320.69531 733.52734 L 320.69531 774.89062 C 320.69531 775.10197 320.71015 775.30864 320.72656 775.51562 C 320.70594 775.9191 320.69531 776.3256 320.69531 776.73438 C 320.69531 789.62336 331.07196 800 343.96094 800 C 356.84992 800 367.22656 789.62336 367.22656 776.73438 C 367.22656 776.32626 367.21392 775.92041 367.19336 775.51758 C 367.20987 775.30996 367.22656 775.10263 367.22656 774.89062 L 367.22656 733.52734 C 367.22656 733.11942 367.18506 732.72263 367.125 732.33203 C 367.18804 731.63101 367.22656 730.9211 367.22656 730.20312 C 367.22656 717.31414 356.84992 706.93945 343.96094 706.93945 z "
       transform="matrix(0.26458333,0,0,0.26458333,0,32.41665)"
       id="rect7184" />
  </g>
</svg>
