<?xml version="1.0" encoding="UTF-8" standalone="no"?>
<!-- Created with Inkscape (http://www.inkscape.org/) -->

<svg
   xmlns:dc="http://purl.org/dc/elements/1.1/"
   xmlns:cc="http://creativecommons.org/ns#"
   xmlns:rdf="http://www.w3.org/1999/02/22-rdf-syntax-ns#"
   xmlns:svg="http://www.w3.org/2000/svg"
   xmlns="http://www.w3.org/2000/svg"
   xmlns:sodipodi="http://sodipodi.sourceforge.net/DTD/sodipodi-0.dtd"
   xmlns:inkscape="http://www.inkscape.org/namespaces/inkscape"
   width="1000"
   height="1000"
   viewBox="0 0 264.58333 264.58334"
   version="1.1"
   id="svg8"
   inkscape:version="0.92.4 (5da689c313, 2019-01-14)"
   sodipodi:docname="L.svg">
  <defs
     id="defs2" />
  <sodipodi:namedview
     id="base"
     pagecolor="#ffffff"
     bordercolor="#666666"
     borderopacity="1.0"
     inkscape:pageopacity="0.0"
     inkscape:pageshadow="2"
     inkscape:zoom="0.49497475"
     inkscape:cx="318.4222"
     inkscape:cy="594.6677"
     inkscape:document-units="mm"
     inkscape:current-layer="layer1"
     showgrid="false"
     units="px"
     inkscape:window-width="1600"
     inkscape:window-height="1149"
     inkscape:window-x="0"
     inkscape:window-y="26"
     inkscape:window-maximized="1"
     showguides="true"
     inkscape:guide-bbox="true">
    <sodipodi:guide
       position="0,52.916667"
       orientation="0,1"
       id="guide29"
       inkscape:locked="false"
       inkscape:label=""
       inkscape:color="rgb(0,0,255)" />
    <sodipodi:guide
       position="57.150382,139.09526"
       orientation="0,1"
       id="guide913"
       inkscape:locked="false" />
    <sodipodi:guide
       position="35.605739,52.916672"
       orientation="1,0"
       id="guide1095"
       inkscape:locked="false" />
    <sodipodi:guide
       position="35.605739,203.7292"
       orientation="0,1"
       id="guide1097"
       inkscape:locked="false" />
    <sodipodi:guide
       position="143.32896,52.916672"
       orientation="1,0"
       id="guide1099"
       inkscape:locked="false" />
  </sodipodi:namedview>
  <metadata
     id="metadata5">
    <rdf:RDF>
      <cc:Work
         rdf:about="">
        <dc:format>image/svg+xml</dc:format>
        <dc:type
           rdf:resource="http://purl.org/dc/dcmitype/StillImage" />
        <dc:title />
      </cc:Work>
    </rdf:RDF>
  </metadata>
  <g
     inkscape:label="Layer 1"
     inkscape:groupmode="layer"
     id="layer1"
     transform="translate(0,-32.41665)">
    <path
       style="fill:#010101;fill-opacity:1;fill-rule:nonzero;stroke:#ffffff;stroke-width:0;stroke-miterlimit:4;stroke-dasharray:none;stroke-opacity:1;paint-order:normal"
       d="M 175.28711 230 C 162.39765 230 152.02148 240.37617 152.02148 253.26562 L 152.02148 288.16211 L 152.02148 390.43945 L 152.02148 522.37891 L 152.02148 603.80859 L 152.02148 669.49414 L 152.02148 695.30469 C 152.02148 708.19415 162.39765 718.57227 175.28711 718.57227 C 188.17657 718.57227 198.55273 708.19415 198.55273 695.30469 L 198.55273 660.4082 L 198.55273 533.71875 L 198.55273 426.19141 L 198.55273 344.76367 L 198.55273 270.99023 L 198.55273 253.26562 C 198.55273 240.37617 188.17657 230 175.28711 230 z M 239.26758 736.01953 C 226.37812 736.01953 216.00195 746.3957 216.00195 759.28516 C 216.00195 772.17462 226.37812 782.55273 239.26758 782.55273 L 274.16406 782.55273 L 424.02734 782.55273 L 483.55273 782.55273 L 510.50586 782.55273 L 518.44922 782.55273 C 531.33868 782.55273 541.71484 772.17462 541.71484 759.28516 C 541.71484 746.3957 531.33868 736.01953 518.44922 736.01953 L 510.50586 736.01953 L 483.55273 736.01953 L 424.02734 736.01953 L 274.16406 736.01953 L 239.26758 736.01953 z "
       transform="matrix(0.26458333,0,0,0.26458333,0,32.41665)"
       id="rect1235" />
  </g>
</svg>
