<?xml version="1.0" encoding="UTF-8" standalone="no"?>
<!-- Created with Inkscape (http://www.inkscape.org/) -->

<svg
   xmlns:dc="http://purl.org/dc/elements/1.1/"
   xmlns:cc="http://creativecommons.org/ns#"
   xmlns:rdf="http://www.w3.org/1999/02/22-rdf-syntax-ns#"
   xmlns:svg="http://www.w3.org/2000/svg"
   xmlns="http://www.w3.org/2000/svg"
   xmlns:sodipodi="http://sodipodi.sourceforge.net/DTD/sodipodi-0.dtd"
   xmlns:inkscape="http://www.inkscape.org/namespaces/inkscape"
   width="1000"
   height="1000"
   viewBox="0 0 264.58333 264.58334"
   version="1.1"
   id="svg8"
   inkscape:version="0.92.4 (5da689c313, 2019-01-14)"
   sodipodi:docname="l.svg">
  <defs
     id="defs2" />
  <sodipodi:namedview
     id="base"
     pagecolor="#ffffff"
     bordercolor="#666666"
     borderopacity="1.0"
     inkscape:pageopacity="0.0"
     inkscape:pageshadow="2"
     inkscape:zoom="0.98994949"
     inkscape:cx="241.80894"
     inkscape:cy="420.70085"
     inkscape:document-units="mm"
     inkscape:current-layer="layer1"
     showgrid="false"
     units="px"
     inkscape:window-width="1600"
     inkscape:window-height="1149"
     inkscape:window-x="0"
     inkscape:window-y="26"
     inkscape:window-maximized="1"
     showguides="true"
     inkscape:guide-bbox="true">
    <sodipodi:guide
       position="0,52.916667"
       orientation="0,1"
       id="guide29"
       inkscape:locked="false"
       inkscape:label=""
       inkscape:color="rgb(0,0,255)" />
    <sodipodi:guide
       position="57.150382,139.09526"
       orientation="0,1"
       id="guide913"
       inkscape:locked="false" />
    <sodipodi:guide
       position="35.605739,52.916672"
       orientation="1,0"
       id="guide1095"
       inkscape:locked="false" />
    <sodipodi:guide
       position="35.605739,203.7292"
       orientation="0,1"
       id="guide1097"
       inkscape:locked="false" />
    <sodipodi:guide
       position="143.32896,52.916672"
       orientation="1,0"
       id="guide1099"
       inkscape:locked="false" />
    <sodipodi:guide
       position="97.161864,52.916687"
       orientation="1,0"
       id="guide1238"
       inkscape:locked="false" />
    <sodipodi:guide
       position="35.605739,102.16158"
       orientation="0,1"
       id="guide1240"
       inkscape:locked="false" />
  </sodipodi:namedview>
  <metadata
     id="metadata5">
    <rdf:RDF>
      <cc:Work
         rdf:about="">
        <dc:format>image/svg+xml</dc:format>
        <dc:type
           rdf:resource="http://purl.org/dc/dcmitype/StillImage" />
        <dc:title />
      </cc:Work>
    </rdf:RDF>
  </metadata>
  <g
     inkscape:label="Layer 1"
     inkscape:groupmode="layer"
     id="layer1"
     transform="translate(0,-32.41665)">
    <path
       style="fill:#010101;fill-opacity:1;fill-rule:nonzero;stroke:#ffffff;stroke-width:0;stroke-miterlimit:4;stroke-dasharray:none;stroke-opacity:1;paint-order:normal"
       d="M 157.83789 241.63281 C 144.94891 241.63281 134.57227 252.00946 134.57227 264.89844 C 134.57227 265.36825 134.59195 265.83216 134.61914 266.29492 C 134.59316 266.59982 134.57227 266.9069 134.57227 267.21875 L 134.57227 324.03125 L 134.57227 393.05273 L 134.57227 449.44922 L 134.57227 495.20117 L 134.57227 542.77148 L 134.57227 560.99805 L 134.57227 620.22656 L 134.57227 654.05859 L 134.57227 666.95703 C 134.57227 667.85223 134.62838 668.73346 134.72656 669.60156 C 134.63414 670.17633 134.57227 670.76166 134.57227 671.36328 L 134.57227 729.73438 C 134.57227 729.78846 134.5793 729.84063 134.58008 729.89453 C 134.57874 729.99785 134.57227 730.09948 134.57227 730.20312 C 134.57227 743.09211 144.94891 753.46875 157.83789 753.46875 C 170.72687 753.46875 181.10352 743.09211 181.10352 730.20312 C 181.10352 730.09685 181.09711 729.99264 181.0957 729.88672 C 181.0964 729.83543 181.10352 729.78583 181.10352 729.73438 L 181.10352 671.36328 C 181.10352 670.76166 181.04164 670.17633 180.94922 669.60156 C 181.0474 668.73346 181.10352 667.85223 181.10352 666.95703 L 181.10352 654.05859 L 181.10352 620.22656 L 181.10352 543.91016 L 181.10352 527.16602 L 181.10352 452.33008 L 181.10352 406.83984 L 181.10352 359.5293 L 181.10352 322.86719 L 181.10352 267.21875 C 181.10352 266.9122 181.08371 266.61039 181.05859 266.31055 C 181.0864 265.84267 181.10352 265.37353 181.10352 264.89844 C 181.10352 252.00946 170.72687 241.63281 157.83789 241.63281 z M 204.36914 753.46875 C 191.48016 753.46875 181.10352 763.84539 181.10352 776.73438 C 181.10352 789.62336 191.48016 800 204.36914 800 C 204.60885 800 204.84607 799.98955 205.08398 799.98242 C 205.19797 799.98846 205.31024 800 205.42578 800 L 296.37305 800 C 296.48859 800 296.60086 799.98846 296.71484 799.98242 C 296.95276 799.98955 297.18998 800 297.42969 800 C 310.31867 800 320.69531 789.62336 320.69531 776.73438 C 320.69531 763.84539 310.31867 753.46875 297.42969 753.46875 C 297.19523 753.46875 296.96322 753.47951 296.73047 753.48633 C 296.61137 753.47973 296.49386 753.46875 296.37305 753.46875 L 205.42578 753.46875 C 205.30497 753.46875 205.18746 753.47973 205.06836 753.48633 C 204.83561 753.47951 204.6036 753.46875 204.36914 753.46875 z "
       transform="matrix(0.26458333,0,0,0.26458333,0,32.41665)"
       id="rect1193" />
  </g>
</svg>
