<?xml version="1.0" encoding="UTF-8" standalone="no"?>
<!-- Created with Inkscape (http://www.inkscape.org/) -->

<svg
   xmlns:dc="http://purl.org/dc/elements/1.1/"
   xmlns:cc="http://creativecommons.org/ns#"
   xmlns:rdf="http://www.w3.org/1999/02/22-rdf-syntax-ns#"
   xmlns:svg="http://www.w3.org/2000/svg"
   xmlns="http://www.w3.org/2000/svg"
   xmlns:sodipodi="http://sodipodi.sourceforge.net/DTD/sodipodi-0.dtd"
   xmlns:inkscape="http://www.inkscape.org/namespaces/inkscape"
   width="1000"
   height="1000"
   viewBox="0 0 264.58333 264.58334"
   version="1.1"
   id="svg8"
   inkscape:version="0.92.4 (5da689c313, 2019-01-14)"
   sodipodi:docname="m.svg">
  <defs
     id="defs2" />
  <sodipodi:namedview
     id="base"
     pagecolor="#ffffff"
     bordercolor="#666666"
     borderopacity="1.0"
     inkscape:pageopacity="0.0"
     inkscape:pageshadow="2"
     inkscape:zoom="0.98994949"
     inkscape:cx="154.27581"
     inkscape:cy="412.35781"
     inkscape:document-units="mm"
     inkscape:current-layer="layer1"
     showgrid="false"
     units="px"
     inkscape:window-width="1600"
     inkscape:window-height="1149"
     inkscape:window-x="0"
     inkscape:window-y="26"
     inkscape:window-maximized="1"
     showguides="true"
     inkscape:guide-bbox="true">
    <sodipodi:guide
       position="0,52.916667"
       orientation="0,1"
       id="guide29"
       inkscape:locked="false"
       inkscape:label=""
       inkscape:color="rgb(0,0,255)" />
    <sodipodi:guide
       position="57.150382,139.09526"
       orientation="0,1"
       id="guide913"
       inkscape:locked="false" />
    <sodipodi:guide
       position="35.605739,52.916672"
       orientation="1,0"
       id="guide1095"
       inkscape:locked="false" />
    <sodipodi:guide
       position="35.605739,203.7292"
       orientation="0,1"
       id="guide1097"
       inkscape:locked="false" />
    <sodipodi:guide
       position="143.32896,52.916672"
       orientation="1,0"
       id="guide1099"
       inkscape:locked="false" />
    <sodipodi:guide
       position="97.161864,52.916687"
       orientation="1,0"
       id="guide1238"
       inkscape:locked="false" />
    <sodipodi:guide
       position="35.605739,102.16158"
       orientation="0,1"
       id="guide1240"
       inkscape:locked="false" />
  </sodipodi:namedview>
  <metadata
     id="metadata5">
    <rdf:RDF>
      <cc:Work
         rdf:about="">
        <dc:format>image/svg+xml</dc:format>
        <dc:type
           rdf:resource="http://purl.org/dc/dcmitype/StillImage" />
        <dc:title />
      </cc:Work>
    </rdf:RDF>
  </metadata>
  <g
     inkscape:label="Layer 1"
     inkscape:groupmode="layer"
     id="layer1"
     transform="translate(0,-32.41665)">
    <path
       style="fill:#010101;fill-opacity:1;fill-rule:nonzero;stroke:#ffffff;stroke-width:0;stroke-miterlimit:4;stroke-dasharray:none;stroke-opacity:1;paint-order:normal"
       d="M 157.83789 474.28516 C 144.94891 474.28516 134.57227 484.6618 134.57227 497.55078 C 134.57227 498.70864 134.66049 499.84543 134.82227 500.95703 C 134.66346 501.67217 134.57227 502.41341 134.57227 503.17773 L 134.57227 557.20703 L 134.57227 625.1543 L 134.57227 671.94141 L 134.57227 700.58984 L 134.57227 773.3457 C 134.57227 773.87215 134.60176 774.39296 134.65039 774.90625 C 134.60383 775.51002 134.57227 776.11826 134.57227 776.73438 C 134.57227 789.62336 144.94891 800 157.83789 800 C 170.72687 800 181.10352 789.62336 181.10352 776.73438 C 181.10352 776.11292 181.07275 775.49951 181.02539 774.89062 C 181.07307 774.38232 181.10352 773.86689 181.10352 773.3457 L 181.10352 687.06055 L 181.10352 666.75781 L 181.10352 623.05273 L 181.10352 556.06836 L 181.10352 520.81641 L 201.77539 520.81641 C 202.07732 520.81641 202.37164 520.78842 202.66211 520.74805 C 203.22633 520.78864 203.79423 520.81641 204.36914 520.81641 C 217.25812 520.81641 227.63477 510.43976 227.63477 497.55078 C 227.63477 484.6618 217.25812 474.28516 204.36914 474.28516 C 203.79552 474.28516 203.22899 474.31506 202.66602 474.35547 C 202.37424 474.31472 202.07875 474.28516 201.77539 474.28516 L 162.13477 474.28516 C 161.62735 474.28516 161.13845 474.35148 160.66602 474.46289 C 159.73854 474.35136 158.79639 474.28516 157.83789 474.28516 z M 297.42969 474.28516 C 284.54071 474.28516 274.16406 484.6618 274.16406 497.55078 C 274.16406 510.43976 284.54071 520.81641 297.42969 520.81641 C 310.31867 520.81641 320.69531 510.43976 320.69531 497.55078 C 320.69531 484.6618 310.31867 474.28516 297.42969 474.28516 z M 250.89844 520.81641 C 238.00946 520.81641 227.63477 531.19305 227.63477 544.08203 C 227.63477 544.74405 227.66897 545.39723 227.72266 546.04492 C 227.66562 546.5983 227.63477 547.15957 227.63477 547.72852 L 227.63477 633.49609 L 227.63477 671.94141 L 227.63477 700.58984 L 227.63477 773.3457 C 227.63477 773.87149 227.66242 774.39163 227.71094 774.9043 C 227.66428 775.5087 227.63477 776.1176 227.63477 776.73438 C 227.63477 789.62336 238.00946 800 250.89844 800 C 263.78742 800 274.16406 789.62336 274.16406 776.73438 C 274.16406 776.1176 274.13455 775.5087 274.08789 774.9043 C 274.1364 774.39163 274.16406 773.87149 274.16406 773.3457 L 274.16406 687.06055 L 274.16406 666.75781 L 274.16406 623.05273 L 274.16406 547.72852 C 274.16406 547.15957 274.1332 546.5983 274.07617 546.04492 C 274.12985 545.39723 274.16406 544.74405 274.16406 544.08203 C 274.16406 531.19305 263.78742 520.81641 250.89844 520.81641 z M 343.96094 520.81641 C 331.07196 520.81641 320.69531 531.19305 320.69531 544.08203 C 320.69531 544.41473 320.70506 544.74501 320.71875 545.07422 C 320.71146 545.23781 320.69531 545.399 320.69531 545.56445 L 320.69531 603.08203 L 320.69531 662.76562 C 320.69531 663.61167 320.77107 664.43693 320.88086 665.25195 C 320.76403 665.73505 320.69531 666.23782 320.69531 666.75781 L 320.69531 700.58984 L 320.69531 773.3457 C 320.69531 773.86689 320.72576 774.38232 320.77344 774.89062 C 320.72607 775.49951 320.69531 776.11292 320.69531 776.73438 C 320.69531 789.62336 331.07196 800 343.96094 800 C 356.84992 800 367.22656 789.62336 367.22656 776.73438 C 367.22656 776.11826 367.195 775.51002 367.14844 774.90625 C 367.19707 774.39296 367.22656 773.87215 367.22656 773.3457 L 367.22656 687.06055 L 367.22656 666.75781 C 367.22656 666.23632 367.15655 665.7324 367.03906 665.24805 C 367.14852 664.43425 367.22656 663.61035 367.22656 662.76562 L 367.22656 564.99023 L 367.22656 545.56445 C 367.22656 545.3957 367.20876 545.23127 367.20117 545.06445 C 367.2146 544.73844 367.22656 544.41146 367.22656 544.08203 C 367.22656 531.19305 356.84992 520.81641 343.96094 520.81641 z "
       transform="matrix(0.26458333,0,0,0.26458333,0,32.41665)"
       id="rect1193" />
  </g>
</svg>
