<?xml version="1.0" encoding="UTF-8" standalone="no"?>
<!-- Created with Inkscape (http://www.inkscape.org/) -->

<svg
   xmlns:dc="http://purl.org/dc/elements/1.1/"
   xmlns:cc="http://creativecommons.org/ns#"
   xmlns:rdf="http://www.w3.org/1999/02/22-rdf-syntax-ns#"
   xmlns:svg="http://www.w3.org/2000/svg"
   xmlns="http://www.w3.org/2000/svg"
   xmlns:sodipodi="http://sodipodi.sourceforge.net/DTD/sodipodi-0.dtd"
   xmlns:inkscape="http://www.inkscape.org/namespaces/inkscape"
   width="1000"
   height="1000"
   viewBox="0 0 264.58333 264.58334"
   version="1.1"
   id="svg8"
   inkscape:version="0.92.4 (5da689c313, 2019-01-14)"
   sodipodi:docname="M.svg">
  <defs
     id="defs2" />
  <sodipodi:namedview
     id="base"
     pagecolor="#ffffff"
     bordercolor="#666666"
     borderopacity="1.0"
     inkscape:pageopacity="0.0"
     inkscape:pageshadow="2"
     inkscape:zoom="0.49497475"
     inkscape:cx="-58.020912"
     inkscape:cy="660.18467"
     inkscape:document-units="mm"
     inkscape:current-layer="layer1"
     showgrid="false"
     units="px"
     inkscape:window-width="1600"
     inkscape:window-height="1149"
     inkscape:window-x="0"
     inkscape:window-y="26"
     inkscape:window-maximized="1"
     showguides="true"
     inkscape:guide-bbox="true">
    <sodipodi:guide
       position="0,52.916667"
       orientation="0,1"
       id="guide29"
       inkscape:locked="false"
       inkscape:label=""
       inkscape:color="rgb(0,0,255)" />
    <sodipodi:guide
       position="57.150382,139.09526"
       orientation="0,1"
       id="guide913"
       inkscape:locked="false" />
    <sodipodi:guide
       position="35.605739,52.916672"
       orientation="1,0"
       id="guide1095"
       inkscape:locked="false" />
    <sodipodi:guide
       position="35.605739,203.7292"
       orientation="0,1"
       id="guide1097"
       inkscape:locked="false" />
    <sodipodi:guide
       position="143.32896,52.916672"
       orientation="1,0"
       id="guide1099"
       inkscape:locked="false" />
  </sodipodi:namedview>
  <metadata
     id="metadata5">
    <rdf:RDF>
      <cc:Work
         rdf:about="">
        <dc:format>image/svg+xml</dc:format>
        <dc:type
           rdf:resource="http://purl.org/dc/dcmitype/StillImage" />
        <dc:title />
      </cc:Work>
    </rdf:RDF>
  </metadata>
  <g
     inkscape:label="Layer 1"
     inkscape:groupmode="layer"
     id="layer1"
     transform="translate(0,-32.41665)">
    <path
       style="fill:#010101;fill-opacity:1;fill-rule:nonzero;stroke:#ffffff;stroke-width:0;stroke-miterlimit:4;stroke-dasharray:none;stroke-opacity:1;paint-order:normal"
       d="M 175.28711 230 C 162.39765 230 152.02148 240.37617 152.02148 253.26562 L 152.02148 288.16211 L 152.02148 420.95508 L 152.02148 514.84961 L 152.02148 597.31641 L 152.02148 672.51172 L 152.02148 747.70898 L 152.02148 776.73438 C 152.02148 789.62383 162.39765 800 175.28711 800 C 188.17657 800 198.55273 789.62383 198.55273 776.73438 L 198.55273 741.83789 L 198.55273 608.00586 L 198.55273 520.34375 L 198.55273 432.68359 L 198.55273 375.4082 L 274.16406 375.4082 C 287.05352 375.4082 297.42969 365.03204 297.42969 352.14258 C 297.42969 339.25312 287.05352 328.87695 274.16406 328.87695 L 198.55273 328.87695 L 198.55273 283.33008 L 198.55273 253.26562 C 198.55273 240.37617 188.17657 230 175.28711 230 z M 402.125 328.87695 C 389.23554 328.87695 378.85938 339.25312 378.85938 352.14258 C 378.85938 365.03204 389.23554 375.4082 402.125 375.4082 L 477.73438 375.4082 L 477.73438 410.85156 L 477.73438 531.10938 L 477.73438 685.23633 L 477.73438 743.3457 L 477.73438 776.73438 C 477.73438 789.62383 488.11249 800 501.00195 800 C 513.89141 800 524.26758 789.62383 524.26758 776.73438 L 524.26758 741.83789 L 524.26758 612.36719 L 524.26758 507.62109 L 524.26758 400.01367 L 524.26758 352.14258 L 524.26758 351.64648 C 524.26758 351.48546 524.25085 351.32923 524.24414 351.16992 C 524.23802 351.01972 524.22964 350.87014 524.2207 350.7207 C 524.21996 350.71165 524.21951 350.7024 524.21875 350.69336 C 524.21161 350.60884 524.21017 350.52341 524.20117 350.43945 C 524.20095 350.43742 524.19944 350.43563 524.19922 350.43359 C 524.18296 350.20791 524.17103 349.98163 524.14844 349.75781 C 522.96122 337.99721 513.08582 328.87695 501.00195 328.87695 L 402.125 328.87695 z M 338.14453 392.85742 C 325.25507 392.85742 314.87891 403.23359 314.87891 416.12305 L 314.87891 451.01953 C 314.87891 463.90899 325.25507 474.28516 338.14453 474.28516 C 351.03399 474.28516 361.41016 463.90899 361.41016 451.01953 L 361.41016 416.12305 C 361.41016 403.23359 351.03399 392.85742 338.14453 392.85742 z "
       transform="matrix(0.26458333,0,0,0.26458333,0,32.41665)"
       id="rect835" />
  </g>
</svg>
