<?xml version="1.0" encoding="UTF-8" standalone="no"?>
<!-- Created with Inkscape (http://www.inkscape.org/) -->

<svg
   xmlns:dc="http://purl.org/dc/elements/1.1/"
   xmlns:cc="http://creativecommons.org/ns#"
   xmlns:rdf="http://www.w3.org/1999/02/22-rdf-syntax-ns#"
   xmlns:svg="http://www.w3.org/2000/svg"
   xmlns="http://www.w3.org/2000/svg"
   xmlns:sodipodi="http://sodipodi.sourceforge.net/DTD/sodipodi-0.dtd"
   xmlns:inkscape="http://www.inkscape.org/namespaces/inkscape"
   width="1000"
   height="1000"
   viewBox="0 0 264.58333 264.58334"
   version="1.1"
   id="svg8"
   inkscape:version="0.92.4 (5da689c313, 2019-01-14)"
   sodipodi:docname="m.svg">
  <defs
     id="defs2" />
  <sodipodi:namedview
     id="base"
     pagecolor="#ffffff"
     bordercolor="#666666"
     borderopacity="1.0"
     inkscape:pageopacity="0.0"
     inkscape:pageshadow="2"
     inkscape:zoom="1.4"
     inkscape:cx="165.67808"
     inkscape:cy="411.23661"
     inkscape:document-units="mm"
     inkscape:current-layer="layer1"
     showgrid="false"
     units="px"
     inkscape:window-width="1600"
     inkscape:window-height="1149"
     inkscape:window-x="0"
     inkscape:window-y="26"
     inkscape:window-maximized="1"
     showguides="true"
     inkscape:guide-bbox="true">
    <sodipodi:guide
       position="0,52.916667"
       orientation="0,1"
       id="guide29"
       inkscape:locked="false"
       inkscape:label=""
       inkscape:color="rgb(0,0,255)" />
    <sodipodi:guide
       position="57.150382,139.09526"
       orientation="0,1"
       id="guide913"
       inkscape:locked="false" />
    <sodipodi:guide
       position="35.605739,52.916672"
       orientation="1,0"
       id="guide1095"
       inkscape:locked="false" />
    <sodipodi:guide
       position="35.605739,203.7292"
       orientation="0,1"
       id="guide1097"
       inkscape:locked="false" />
    <sodipodi:guide
       position="143.32896,52.916672"
       orientation="1,0"
       id="guide1099"
       inkscape:locked="false" />
    <sodipodi:guide
       position="97.161864,52.916687"
       orientation="1,0"
       id="guide1238"
       inkscape:locked="false" />
    <sodipodi:guide
       position="35.605739,102.16158"
       orientation="0,1"
       id="guide1240"
       inkscape:locked="false" />
  </sodipodi:namedview>
  <metadata
     id="metadata5">
    <rdf:RDF>
      <cc:Work
         rdf:about="">
        <dc:format>image/svg+xml</dc:format>
        <dc:type
           rdf:resource="http://purl.org/dc/dcmitype/StillImage" />
        <dc:title />
      </cc:Work>
    </rdf:RDF>
  </metadata>
  <g
     inkscape:label="Layer 1"
     inkscape:groupmode="layer"
     id="layer1"
     transform="translate(0,-32.41665)">
    <path
       style="fill:#010101;fill-opacity:1;fill-rule:nonzero;stroke:#ffffff;stroke-width:0;stroke-miterlimit:4;stroke-dasharray:none;stroke-opacity:1;paint-order:normal"
       d="M 140.92188 474.28516 C 137.40424 474.28516 134.57227 477.11713 134.57227 480.63477 L 134.57227 514.4668 L 134.57227 594.82812 L 134.57227 607.52734 L 134.57227 687.89062 L 134.57227 700.58984 L 134.57227 780.95117 L 134.57227 793.65039 C 134.57227 797.16803 137.40424 800 140.92188 800 L 174.75391 800 C 178.27155 800 181.10352 797.16803 181.10352 793.65039 L 181.10352 759.81836 L 181.10352 700.58984 L 181.10352 666.75781 L 181.10352 607.52734 L 181.10352 573.69727 L 181.10352 520.81641 L 187.45312 520.81641 L 221.28516 520.81641 C 224.8028 520.81641 227.63477 517.98444 227.63477 514.4668 L 227.63477 480.63477 C 227.63477 477.11713 224.8028 474.28516 221.28516 474.28516 L 187.45312 474.28516 L 174.75391 474.28516 L 153.62109 474.28516 L 140.92188 474.28516 z M 280.51367 474.28516 C 276.99603 474.28516 274.16406 477.11713 274.16406 480.63477 L 274.16406 514.4668 C 274.16406 517.98444 276.99603 520.81641 280.51367 520.81641 L 314.3457 520.81641 C 317.86334 520.81641 320.69531 517.98444 320.69531 514.4668 L 320.69531 480.63477 C 320.69531 477.11713 317.86334 474.28516 314.3457 474.28516 L 280.51367 474.28516 z M 233.98438 520.81641 C 230.46674 520.81641 227.63477 523.64838 227.63477 527.16602 L 227.63477 560.99805 L 227.63477 641.35938 L 227.63477 654.05859 L 227.63477 774.60156 L 227.63477 793.65039 C 227.63477 797.16803 230.46674 800 233.98438 800 L 267.81445 800 C 271.33209 800 274.16406 797.16803 274.16406 793.65039 L 274.16406 759.81836 L 274.16406 639.27539 L 274.16406 620.22656 L 274.16406 539.86523 L 274.16406 527.16602 C 274.16406 523.64838 271.33209 520.81641 267.81445 520.81641 L 233.98438 520.81641 z M 327.04492 520.81641 C 323.52728 520.81641 320.69531 523.64838 320.69531 527.16602 L 320.69531 560.99805 L 320.69531 641.35938 L 320.69531 654.05859 L 320.69531 774.60156 L 320.69531 793.65039 C 320.69531 797.16803 323.52728 800 327.04492 800 L 360.87695 800 C 364.39459 800 367.22656 797.16803 367.22656 793.65039 L 367.22656 759.81836 L 367.22656 639.27539 L 367.22656 620.22656 L 367.22656 539.86523 L 367.22656 527.16602 C 367.22656 523.64838 364.39459 520.81641 360.87695 520.81641 L 327.04492 520.81641 z "
       transform="matrix(0.26458333,0,0,0.26458333,0,32.41665)"
       id="rect1193" />
  </g>
</svg>
