<?xml version="1.0" encoding="UTF-8" standalone="no"?>
<!-- Created with Inkscape (http://www.inkscape.org/) -->

<svg
   xmlns:dc="http://purl.org/dc/elements/1.1/"
   xmlns:cc="http://creativecommons.org/ns#"
   xmlns:rdf="http://www.w3.org/1999/02/22-rdf-syntax-ns#"
   xmlns:svg="http://www.w3.org/2000/svg"
   xmlns="http://www.w3.org/2000/svg"
   xmlns:sodipodi="http://sodipodi.sourceforge.net/DTD/sodipodi-0.dtd"
   xmlns:inkscape="http://www.inkscape.org/namespaces/inkscape"
   width="1000"
   height="1000"
   viewBox="0 0 264.58333 264.58334"
   version="1.1"
   id="svg8"
   inkscape:version="0.92.4 (5da689c313, 2019-01-14)"
   sodipodi:docname="N.svg">
  <defs
     id="defs2" />
  <sodipodi:namedview
     id="base"
     pagecolor="#ffffff"
     bordercolor="#666666"
     borderopacity="1.0"
     inkscape:pageopacity="0.0"
     inkscape:pageshadow="2"
     inkscape:zoom="0.7"
     inkscape:cx="-88.744498"
     inkscape:cy="707.718"
     inkscape:document-units="mm"
     inkscape:current-layer="layer1"
     showgrid="false"
     units="px"
     inkscape:window-width="1600"
     inkscape:window-height="1149"
     inkscape:window-x="0"
     inkscape:window-y="26"
     inkscape:window-maximized="1"
     showguides="true"
     inkscape:guide-bbox="true">
    <sodipodi:guide
       position="0,52.916667"
       orientation="0,1"
       id="guide29"
       inkscape:locked="false"
       inkscape:label=""
       inkscape:color="rgb(0,0,255)" />
    <sodipodi:guide
       position="57.150382,139.09526"
       orientation="0,1"
       id="guide913"
       inkscape:locked="false" />
    <sodipodi:guide
       position="35.605739,52.916672"
       orientation="1,0"
       id="guide1095"
       inkscape:locked="false" />
    <sodipodi:guide
       position="35.605739,203.7292"
       orientation="0,1"
       id="guide1097"
       inkscape:locked="false" />
    <sodipodi:guide
       position="143.32896,52.916672"
       orientation="1,0"
       id="guide1099"
       inkscape:locked="false" />
  </sodipodi:namedview>
  <metadata
     id="metadata5">
    <rdf:RDF>
      <cc:Work
         rdf:about="">
        <dc:format>image/svg+xml</dc:format>
        <dc:type
           rdf:resource="http://purl.org/dc/dcmitype/StillImage" />
        <dc:title />
      </cc:Work>
    </rdf:RDF>
  </metadata>
  <g
     inkscape:label="Layer 1"
     inkscape:groupmode="layer"
     id="layer1"
     transform="translate(0,-32.41665)">
    <path
       style="fill:#010101;fill-opacity:1;fill-rule:nonzero;stroke:#ffffff;stroke-width:0;stroke-miterlimit:4;stroke-dasharray:none;stroke-opacity:1;paint-order:normal"
       d="M 175.28711 230 C 162.39765 230 152.02148 240.37617 152.02148 253.26562 L 152.02148 288.16211 L 152.02148 369.75 L 152.02148 487.44141 L 152.02148 591.86328 L 152.02148 672.77148 L 152.02148 749.00781 L 152.02148 776.73438 C 152.02148 789.62383 162.39765 800 175.28711 800 C 188.17657 800 198.55273 789.62383 198.55273 776.73438 L 198.55273 741.83789 L 198.55273 606.70703 L 198.55273 520.08398 L 198.55273 438.13672 L 198.55273 392.85742 L 221.82031 392.85742 L 222.33789 392.85742 C 222.53061 392.85742 222.71795 392.83772 222.9082 392.82812 C 222.98188 392.82476 223.05541 392.8224 223.12891 392.81836 C 223.28158 392.80767 223.43506 392.8019 223.58594 392.78516 C 235.64284 391.88705 245.08594 381.88605 245.08594 369.5918 L 245.08594 334.69531 C 245.08594 322.39642 235.6357 312.39156 223.57227 311.5 C 223.44196 311.4857 223.30939 311.48049 223.17773 311.4707 C 223.075 311.46484 222.97224 311.45962 222.86914 311.45508 C 222.69177 311.44674 222.51739 311.42773 222.33789 311.42773 L 221.82031 311.42773 L 198.55273 311.42773 L 198.55273 262.80469 L 198.55273 253.26562 C 198.55273 240.37617 188.17657 230 175.28711 230 z M 501.00195 311.42773 C 488.11249 311.42773 477.73438 321.80585 477.73438 334.69531 L 477.73438 369.5918 L 477.73438 497.66992 L 477.73438 596.01562 L 477.73438 626.03125 L 477.73438 718.57227 L 455.27539 718.57227 C 455.18563 718.57227 455.099 718.58384 455.00977 718.58594 C 454.82936 718.58185 454.65018 718.57227 454.46875 718.57227 C 441.57929 718.57227 431.20312 728.94843 431.20312 741.83789 L 431.20312 776.73438 C 431.20313 789.62383 441.57929 800 454.46875 800 C 454.65018 800 454.82936 799.99042 455.00977 799.98633 C 455.099 799.98842 455.18563 800 455.27539 800 L 501.88672 800 C 502.50394 800 503.10405 799.93765 503.69336 799.8418 C 515.30474 798.51471 524.26758 788.71249 524.26758 776.73438 L 524.26758 741.83789 L 524.26758 610.13086 L 524.26758 566.82617 L 524.26758 433.98438 L 524.26758 363.91602 L 524.26758 334.69531 C 524.26758 321.80585 513.89141 311.42773 501.00195 311.42773 z M 256.71484 392.85742 C 243.82538 392.85742 233.44922 403.23359 233.44922 416.12305 L 233.44922 451.01953 C 233.44922 463.90899 243.82538 474.28516 256.71484 474.28516 C 269.6043 474.28516 279.98242 463.90899 279.98242 451.01953 L 279.98242 416.12305 C 279.98242 403.23359 269.6043 392.85742 256.71484 392.85742 z M 303.24805 474.28516 C 290.35859 474.28516 279.98242 484.66132 279.98242 497.55078 L 279.98242 532.44727 C 279.98242 545.33672 290.35859 555.71484 303.24805 555.71484 C 316.13751 555.71484 326.51367 545.33672 326.51367 532.44727 L 326.51367 497.55078 C 326.51367 484.66132 316.13751 474.28516 303.24805 474.28516 z M 373.04102 555.71484 C 360.15156 555.71484 349.77344 566.09101 349.77344 578.98047 L 349.77344 613.87695 C 349.77344 626.76641 360.15156 637.14258 373.04102 637.14258 C 385.93047 637.14258 396.30664 626.76641 396.30664 613.87695 L 396.30664 578.98047 C 396.30664 566.09101 385.93047 555.71484 373.04102 555.71484 z M 419.57227 637.14258 C 406.68281 637.14258 396.30664 647.51874 396.30664 660.4082 L 396.30664 695.30469 C 396.30664 708.19415 406.68281 718.57227 419.57227 718.57227 C 432.46172 718.57227 442.83984 708.19415 442.83984 695.30469 L 442.83984 660.4082 C 442.83984 647.51874 432.46172 637.14258 419.57227 637.14258 z "
       transform="matrix(0.26458333,0,0,0.26458333,0,32.41665)"
       id="rect848" />
  </g>
</svg>
