<?xml version="1.0" encoding="UTF-8" standalone="no"?>
<!-- Created with Inkscape (http://www.inkscape.org/) -->

<svg
   xmlns:dc="http://purl.org/dc/elements/1.1/"
   xmlns:cc="http://creativecommons.org/ns#"
   xmlns:rdf="http://www.w3.org/1999/02/22-rdf-syntax-ns#"
   xmlns:svg="http://www.w3.org/2000/svg"
   xmlns="http://www.w3.org/2000/svg"
   xmlns:sodipodi="http://sodipodi.sourceforge.net/DTD/sodipodi-0.dtd"
   xmlns:inkscape="http://www.inkscape.org/namespaces/inkscape"
   width="1000"
   height="1000"
   viewBox="0 0 264.58333 264.58334"
   version="1.1"
   id="svg8"
   inkscape:version="0.92.4 (5da689c313, 2019-01-14)"
   sodipodi:docname="n.svg">
  <defs
     id="defs2" />
  <sodipodi:namedview
     id="base"
     pagecolor="#ffffff"
     bordercolor="#666666"
     borderopacity="1.0"
     inkscape:pageopacity="0.0"
     inkscape:pageshadow="2"
     inkscape:zoom="1.4"
     inkscape:cx="160.14422"
     inkscape:cy="407.5398"
     inkscape:document-units="mm"
     inkscape:current-layer="layer1"
     showgrid="false"
     units="px"
     inkscape:window-width="1600"
     inkscape:window-height="1149"
     inkscape:window-x="0"
     inkscape:window-y="26"
     inkscape:window-maximized="1"
     showguides="true"
     inkscape:guide-bbox="true">
    <sodipodi:guide
       position="0,52.916667"
       orientation="0,1"
       id="guide29"
       inkscape:locked="false"
       inkscape:label=""
       inkscape:color="rgb(0,0,255)" />
    <sodipodi:guide
       position="57.150382,139.09526"
       orientation="0,1"
       id="guide913"
       inkscape:locked="false" />
    <sodipodi:guide
       position="35.605739,52.916672"
       orientation="1,0"
       id="guide1095"
       inkscape:locked="false" />
    <sodipodi:guide
       position="35.605739,203.7292"
       orientation="0,1"
       id="guide1097"
       inkscape:locked="false" />
    <sodipodi:guide
       position="143.32896,52.916672"
       orientation="1,0"
       id="guide1099"
       inkscape:locked="false" />
    <sodipodi:guide
       position="97.161864,52.916687"
       orientation="1,0"
       id="guide1238"
       inkscape:locked="false" />
    <sodipodi:guide
       position="35.605739,102.16158"
       orientation="0,1"
       id="guide1240"
       inkscape:locked="false" />
  </sodipodi:namedview>
  <metadata
     id="metadata5">
    <rdf:RDF>
      <cc:Work
         rdf:about="">
        <dc:format>image/svg+xml</dc:format>
        <dc:type
           rdf:resource="http://purl.org/dc/dcmitype/StillImage" />
        <dc:title />
      </cc:Work>
    </rdf:RDF>
  </metadata>
  <g
     inkscape:label="Layer 1"
     inkscape:groupmode="layer"
     id="layer1"
     transform="translate(0,-32.41665)">
    <path
       style="fill:#010101;fill-opacity:1;fill-rule:nonzero;stroke:#ffffff;stroke-width:0;stroke-miterlimit:4;stroke-dasharray:none;stroke-opacity:1;paint-order:normal"
       d="M 157.83789 474.28516 C 144.94891 474.28516 134.57227 484.6618 134.57227 497.55078 C 134.57227 498.24335 134.60927 498.92668 134.66797 499.60352 C 134.61164 500.04556 134.57227 500.49333 134.57227 500.95117 L 134.57227 556.85547 L 134.57227 634.01367 L 134.57227 654.05859 L 134.57227 714.35156 C 134.57227 714.94285 134.63166 715.51912 134.7168 716.08594 C 134.63115 716.63676 134.57227 717.19591 134.57227 717.77148 L 134.57227 775.49414 C 134.57227 775.63547 134.58844 775.77213 134.59375 775.91211 C 134.58433 776.18546 134.57227 776.45865 134.57227 776.73438 C 134.57227 789.62336 144.94891 800 157.83789 800 C 170.72687 800 181.10352 789.62336 181.10352 776.73438 C 181.10352 776.45276 181.09381 776.17366 181.08398 775.89453 C 181.08886 775.7604 181.10352 775.6295 181.10352 775.49414 L 181.10352 717.77148 C 181.10352 717.19662 181.04638 716.63806 180.96094 716.08789 C 181.04626 715.52047 181.10352 714.94351 181.10352 714.35156 L 181.10352 652.99414 L 181.10352 620.22656 L 181.10352 547.20898 L 181.10352 520.81641 L 259.49805 520.81641 L 296.74414 520.81641 C 296.81875 520.81641 296.89087 520.80722 296.96484 520.80469 C 297.11997 520.80771 297.27381 520.81641 297.42969 520.81641 C 310.31867 520.81641 320.69531 510.43976 320.69531 497.55078 C 320.69531 484.6618 310.31867 474.28516 297.42969 474.28516 C 297.27709 474.28516 297.12649 474.29398 296.97461 474.29688 C 296.8974 474.29412 296.82205 474.28516 296.74414 474.28516 L 259.49805 474.28516 L 161.02539 474.28516 C 160.65373 474.28516 160.29132 474.32407 159.9375 474.38477 C 159.24547 474.32336 158.54642 474.28516 157.83789 474.28516 z M 343.96094 520.81641 C 331.07196 520.81641 320.69531 531.19305 320.69531 544.08203 C 320.69531 544.65764 320.72298 545.22613 320.76367 545.79102 C 320.72339 546.23956 320.69531 546.69102 320.69531 547.15039 L 320.69531 626.57422 L 320.69531 654.05859 L 320.69531 714.35156 C 320.69531 714.94351 320.75256 715.52047 320.83789 716.08789 C 320.75245 716.63806 320.69531 717.19662 320.69531 717.77148 L 320.69531 775.49414 C 320.69531 775.6295 320.70997 775.7604 320.71484 775.89453 C 320.70502 776.17366 320.69531 776.45276 320.69531 776.73438 C 320.69531 789.62336 331.07196 800 343.96094 800 C 356.84992 800 367.22656 789.62336 367.22656 776.73438 C 367.22656 776.45865 367.2145 776.18546 367.20508 775.91211 C 367.21039 775.77213 367.22656 775.63547 367.22656 775.49414 L 367.22656 717.77148 C 367.22656 717.19591 367.16768 716.63676 367.08203 716.08594 C 367.16717 715.51912 367.22656 714.94285 367.22656 714.35156 L 367.22656 652.99414 L 367.22656 620.22656 L 367.22656 547.15039 C 367.22656 546.69036 367.19664 546.23823 367.15625 545.78906 C 367.19685 545.22482 367.22656 544.65697 367.22656 544.08203 C 367.22656 531.19305 356.84992 520.81641 343.96094 520.81641 z "
       transform="matrix(0.26458333,0,0,0.26458333,0,32.41665)"
       id="rect1193" />
  </g>
</svg>
