<?xml version="1.0" encoding="UTF-8" standalone="no"?>
<!-- Created with Inkscape (http://www.inkscape.org/) -->

<svg
   xmlns:dc="http://purl.org/dc/elements/1.1/"
   xmlns:cc="http://creativecommons.org/ns#"
   xmlns:rdf="http://www.w3.org/1999/02/22-rdf-syntax-ns#"
   xmlns:svg="http://www.w3.org/2000/svg"
   xmlns="http://www.w3.org/2000/svg"
   xmlns:sodipodi="http://sodipodi.sourceforge.net/DTD/sodipodi-0.dtd"
   xmlns:inkscape="http://www.inkscape.org/namespaces/inkscape"
   width="1000"
   height="1000"
   viewBox="0 0 264.58333 264.58334"
   version="1.1"
   id="svg8"
   inkscape:version="0.92.4 (5da689c313, 2019-01-14)"
   sodipodi:docname="o.svg">
  <defs
     id="defs2" />
  <sodipodi:namedview
     id="base"
     pagecolor="#ffffff"
     bordercolor="#666666"
     borderopacity="1.0"
     inkscape:pageopacity="0.0"
     inkscape:pageshadow="2"
     inkscape:zoom="0.7"
     inkscape:cx="234.79213"
     inkscape:cy="375.22719"
     inkscape:document-units="mm"
     inkscape:current-layer="layer1"
     showgrid="false"
     units="px"
     inkscape:window-width="1600"
     inkscape:window-height="1149"
     inkscape:window-x="0"
     inkscape:window-y="26"
     inkscape:window-maximized="1"
     showguides="true"
     inkscape:guide-bbox="true">
    <sodipodi:guide
       position="0,52.916667"
       orientation="0,1"
       id="guide29"
       inkscape:locked="false"
       inkscape:label=""
       inkscape:color="rgb(0,0,255)" />
    <sodipodi:guide
       position="57.150382,139.09526"
       orientation="0,1"
       id="guide913"
       inkscape:locked="false" />
    <sodipodi:guide
       position="35.605739,52.916672"
       orientation="1,0"
       id="guide1095"
       inkscape:locked="false" />
    <sodipodi:guide
       position="35.605739,203.7292"
       orientation="0,1"
       id="guide1097"
       inkscape:locked="false" />
    <sodipodi:guide
       position="143.32896,52.916672"
       orientation="1,0"
       id="guide1099"
       inkscape:locked="false" />
    <sodipodi:guide
       position="97.161864,52.916687"
       orientation="1,0"
       id="guide1238"
       inkscape:locked="false" />
    <sodipodi:guide
       position="35.605739,102.16158"
       orientation="0,1"
       id="guide1240"
       inkscape:locked="false" />
  </sodipodi:namedview>
  <metadata
     id="metadata5">
    <rdf:RDF>
      <cc:Work
         rdf:about="">
        <dc:format>image/svg+xml</dc:format>
        <dc:type
           rdf:resource="http://purl.org/dc/dcmitype/StillImage" />
        <dc:title />
      </cc:Work>
    </rdf:RDF>
  </metadata>
  <g
     inkscape:label="Layer 1"
     inkscape:groupmode="layer"
     id="layer1"
     transform="translate(0,-32.41665)">
    <path
       style="fill:#010101;fill-opacity:1;fill-rule:nonzero;stroke:#ffffff;stroke-width:0;stroke-miterlimit:4;stroke-dasharray:none;stroke-opacity:1;paint-order:normal"
       d="M 157.83789 474.28516 C 144.94891 474.28516 134.57227 484.6618 134.57227 497.55078 C 134.57227 498.47828 134.63375 499.39052 134.73828 500.28906 C 134.63608 500.87379 134.57227 501.47302 134.57227 502.08789 L 134.57227 557.03516 L 134.57227 626.99219 L 134.57227 675.72461 L 134.57227 700.58984 L 134.57227 772.82617 C 134.57227 773.42631 134.61008 774.01699 134.67383 774.59961 C 134.61036 775.30301 134.57227 776.0139 134.57227 776.73438 C 134.57227 787.89032 142.34882 797.15904 152.79688 799.45117 C 153.58593 799.80155 154.45897 800 155.38086 800 L 210.59375 800 L 296.68945 800 L 343.96094 800 L 346.41797 800 C 347.33985 800 348.2129 799.80155 349.00195 799.45117 C 359.45001 797.15904 367.22656 787.89032 367.22656 776.73438 C 367.22656 776.0139 367.18847 775.30301 367.125 774.59961 C 367.18875 774.01699 367.22656 773.42631 367.22656 772.82617 L 367.22656 687.58203 L 367.22656 666.75781 L 367.22656 598.56055 L 367.22656 547.96289 C 367.22656 547.45046 367.17627 546.95121 367.10547 546.45898 C 367.1841 545.67747 367.22656 544.88495 367.22656 544.08203 C 367.22656 531.19305 356.84992 520.81641 343.96094 520.81641 C 331.07196 520.81641 320.69531 531.19305 320.69531 544.08203 C 320.69531 544.88759 320.73531 545.68279 320.81445 546.4668 C 320.74438 546.95654 320.69531 547.45316 320.69531 547.96289 L 320.69531 603.46094 L 320.69531 675.72461 L 320.69531 700.58984 L 320.69531 753.46875 L 296.68945 753.46875 L 210.59375 753.46875 L 181.10352 753.46875 L 181.10352 687.58203 L 181.10352 666.75781 L 181.10352 598.56055 L 181.10352 554.23242 L 181.10352 520.81641 L 221.28516 520.81641 L 297.61523 520.81641 C 297.67266 520.81641 297.72811 520.81009 297.78516 520.80859 C 310.50824 520.61913 320.69531 510.32057 320.69531 497.55078 C 320.69531 484.78886 310.52071 474.49672 297.80859 474.29492 C 297.74372 474.29298 297.68059 474.28516 297.61523 474.28516 L 221.28516 474.28516 L 158.66406 474.28516 C 158.56994 474.28516 158.47786 474.29481 158.38477 474.29883 C 158.20243 474.29465 158.02127 474.28516 157.83789 474.28516 z "
       transform="matrix(0.26458333,0,0,0.26458333,0,32.41665)"
       id="rect1193" />
  </g>
</svg>
