<?xml version="1.0" encoding="UTF-8" standalone="no"?>
<!-- Created with Inkscape (http://www.inkscape.org/) -->

<svg
   xmlns:dc="http://purl.org/dc/elements/1.1/"
   xmlns:cc="http://creativecommons.org/ns#"
   xmlns:rdf="http://www.w3.org/1999/02/22-rdf-syntax-ns#"
   xmlns:svg="http://www.w3.org/2000/svg"
   xmlns="http://www.w3.org/2000/svg"
   xmlns:sodipodi="http://sodipodi.sourceforge.net/DTD/sodipodi-0.dtd"
   xmlns:inkscape="http://www.inkscape.org/namespaces/inkscape"
   width="1000"
   height="1000"
   viewBox="0 0 264.58333 264.58334"
   version="1.1"
   id="svg8"
   inkscape:version="0.92.4 (5da689c313, 2019-01-14)"
   sodipodi:docname="O.svg">
  <defs
     id="defs2" />
  <sodipodi:namedview
     id="base"
     pagecolor="#ffffff"
     bordercolor="#666666"
     borderopacity="1.0"
     inkscape:pageopacity="0.0"
     inkscape:pageshadow="2"
     inkscape:zoom="0.49497475"
     inkscape:cx="83.566017"
     inkscape:cy="813.78062"
     inkscape:document-units="mm"
     inkscape:current-layer="layer1"
     showgrid="false"
     units="px"
     inkscape:window-width="1600"
     inkscape:window-height="1149"
     inkscape:window-x="0"
     inkscape:window-y="26"
     inkscape:window-maximized="1"
     showguides="true"
     inkscape:guide-bbox="true">
    <sodipodi:guide
       position="0,52.916667"
       orientation="0,1"
       id="guide29"
       inkscape:locked="false"
       inkscape:label=""
       inkscape:color="rgb(0,0,255)" />
    <sodipodi:guide
       position="57.150382,139.09526"
       orientation="0,1"
       id="guide913"
       inkscape:locked="false" />
    <sodipodi:guide
       position="35.605739,52.916672"
       orientation="1,0"
       id="guide1095"
       inkscape:locked="false" />
    <sodipodi:guide
       position="35.605739,203.7292"
       orientation="0,1"
       id="guide1097"
       inkscape:locked="false" />
    <sodipodi:guide
       position="143.32896,52.916672"
       orientation="1,0"
       id="guide1099"
       inkscape:locked="false" />
  </sodipodi:namedview>
  <metadata
     id="metadata5">
    <rdf:RDF>
      <cc:Work
         rdf:about="">
        <dc:format>image/svg+xml</dc:format>
        <dc:type
           rdf:resource="http://purl.org/dc/dcmitype/StillImage" />
        <dc:title />
      </cc:Work>
    </rdf:RDF>
  </metadata>
  <g
     inkscape:label="Layer 1"
     inkscape:groupmode="layer"
     id="layer1"
     transform="translate(0,-32.41665)">
    <path
       style="fill:#010101;fill-opacity:1;fill-rule:nonzero;stroke:#ffffff;stroke-width:0;stroke-miterlimit:4;stroke-dasharray:none;stroke-opacity:1;paint-order:normal"
       d="M 175.28711 247.44727 C 164.85431 247.44727 156.06998 254.24752 153.09961 263.67383 C 152.41177 265.66718 152.02148 267.80032 152.02148 270.0332 L 152.02148 373.44727 L 152.02148 455.37695 L 152.02148 538.16992 L 152.02148 619.79297 L 152.02148 753.97852 C 152.02148 754.96786 152.06148 755.94533 152.14062 756.9082 C 152.06199 757.68975 152.02148 758.48221 152.02148 759.28516 C 152.02148 772.17462 162.39765 782.55273 175.28711 782.55273 C 175.47311 782.55273 175.65687 782.54336 175.8418 782.53906 C 175.94032 782.54356 176.03705 782.55273 176.13672 782.55273 L 273.15039 782.55273 L 434.12891 782.55273 L 500.02539 782.55273 C 500.13435 782.55273 500.24008 782.54053 500.34766 782.53516 C 500.56558 782.54113 500.78254 782.55273 501.00195 782.55273 C 513.89141 782.55273 524.26758 772.17462 524.26758 759.28516 C 524.26758 758.48221 524.22707 757.68975 524.14844 756.9082 C 524.14854 756.90692 524.14833 756.90558 524.14844 756.9043 C 524.14831 756.90301 524.14857 756.90168 524.14844 756.90039 C 524.22717 755.94001 524.26758 754.96521 524.26758 753.97852 L 524.26758 601.73633 L 524.26758 527.34961 L 524.26758 444.6875 L 524.26758 354.62305 L 524.26758 334.69531 C 524.26758 321.80585 513.89141 311.42773 501.00195 311.42773 C 488.11249 311.42773 477.73438 321.80585 477.73438 334.69531 L 477.73438 369.5918 L 477.73438 455.37695 L 477.73438 538.16992 L 477.73438 619.79297 L 477.73438 736.01953 L 434.12891 736.01953 L 273.15039 736.01953 L 198.55273 736.01953 L 198.55273 601.73633 L 198.55273 527.34961 L 198.55273 444.6875 L 198.55273 354.62305 L 198.55273 293.98047 L 318.85938 293.98047 L 408.4375 293.98047 L 437.02148 293.98047 C 449.91094 293.98047 460.28711 283.6043 460.28711 270.71484 C 460.28711 257.82538 449.91094 247.44727 437.02148 247.44727 L 408.4375 247.44727 L 318.85938 247.44727 L 175.88477 247.44727 C 175.81632 247.44727 175.74956 247.4549 175.68164 247.45703 C 175.54988 247.45485 175.41941 247.44727 175.28711 247.44727 z "
       transform="matrix(0.26458333,0,0,0.26458333,0,32.41665)"
       id="rect848" />
  </g>
</svg>
