<?xml version="1.0" encoding="UTF-8" standalone="no"?>
<!-- Created with Inkscape (http://www.inkscape.org/) -->

<svg
   xmlns:dc="http://purl.org/dc/elements/1.1/"
   xmlns:cc="http://creativecommons.org/ns#"
   xmlns:rdf="http://www.w3.org/1999/02/22-rdf-syntax-ns#"
   xmlns:svg="http://www.w3.org/2000/svg"
   xmlns="http://www.w3.org/2000/svg"
   xmlns:sodipodi="http://sodipodi.sourceforge.net/DTD/sodipodi-0.dtd"
   xmlns:inkscape="http://www.inkscape.org/namespaces/inkscape"
   width="1000"
   height="1000"
   viewBox="0 0 264.58333 264.58334"
   version="1.1"
   id="svg8"
   inkscape:version="0.92.4 (5da689c313, 2019-01-14)"
   sodipodi:docname="p.svg">
  <defs
     id="defs2" />
  <sodipodi:namedview
     id="base"
     pagecolor="#ffffff"
     bordercolor="#666666"
     borderopacity="1.0"
     inkscape:pageopacity="0.0"
     inkscape:pageshadow="2"
     inkscape:zoom="0.7"
     inkscape:cx="225.19491"
     inkscape:cy="493.46974"
     inkscape:document-units="mm"
     inkscape:current-layer="layer1"
     showgrid="false"
     units="px"
     inkscape:window-width="1600"
     inkscape:window-height="1149"
     inkscape:window-x="0"
     inkscape:window-y="26"
     inkscape:window-maximized="1"
     showguides="true"
     inkscape:guide-bbox="true">
    <sodipodi:guide
       position="0,52.916667"
       orientation="0,1"
       id="guide29"
       inkscape:locked="false"
       inkscape:label=""
       inkscape:color="rgb(0,0,255)" />
    <sodipodi:guide
       position="57.150382,139.09526"
       orientation="0,1"
       id="guide913"
       inkscape:locked="false" />
    <sodipodi:guide
       position="35.605739,52.916672"
       orientation="1,0"
       id="guide1095"
       inkscape:locked="false" />
    <sodipodi:guide
       position="35.605739,203.7292"
       orientation="0,1"
       id="guide1097"
       inkscape:locked="false" />
    <sodipodi:guide
       position="143.32896,52.916672"
       orientation="1,0"
       id="guide1099"
       inkscape:locked="false" />
    <sodipodi:guide
       position="97.161864,52.916687"
       orientation="1,0"
       id="guide1238"
       inkscape:locked="false" />
    <sodipodi:guide
       position="35.605739,102.16158"
       orientation="0,1"
       id="guide1240"
       inkscape:locked="false" />
  </sodipodi:namedview>
  <metadata
     id="metadata5">
    <rdf:RDF>
      <cc:Work
         rdf:about="">
        <dc:format>image/svg+xml</dc:format>
        <dc:type
           rdf:resource="http://purl.org/dc/dcmitype/StillImage" />
        <dc:title />
      </cc:Work>
    </rdf:RDF>
  </metadata>
  <g
     inkscape:label="Layer 1"
     inkscape:groupmode="layer"
     id="layer1"
     transform="translate(0,-32.41665)">
    <path
       style="fill:#010101;fill-opacity:1;fill-rule:nonzero;stroke:#ffffff;stroke-width:0;stroke-miterlimit:4;stroke-dasharray:none;stroke-opacity:1;paint-order:normal"
       d="M 157.83789 474.28516 C 144.94891 474.28516 134.57227 484.6618 134.57227 497.55078 C 134.57227 497.79246 134.58455 498.03163 134.5918 498.27148 C 134.58771 498.39447 134.57227 498.51466 134.57227 498.63867 L 134.57227 556.49023 L 134.57227 631.03125 L 134.57227 676.95703 L 134.57227 717.81836 C 134.57227 717.82761 134.57419 717.83646 134.57422 717.8457 C 134.5742 717.85428 134.57227 717.86251 134.57227 717.87109 L 134.57227 776.125 L 134.57227 793.65039 L 134.57227 855.76172 C 134.57227 856.00722 134.59521 856.24645 134.60938 856.48828 C 134.59317 856.73008 134.57227 856.97075 134.57227 857.2168 L 134.57227 914.16016 C 134.57227 914.44048 134.59229 914.71547 134.61328 914.99023 C 134.58847 915.43244 134.57227 915.87754 134.57227 916.32617 C 134.57227 929.21515 144.94891 939.5918 157.83789 939.5918 C 170.72687 939.5918 181.10352 929.21515 181.10352 916.32617 C 181.10352 915.87221 181.0879 915.422 181.0625 914.97461 C 181.08271 914.70489 181.10352 914.43522 181.10352 914.16016 L 181.10352 857.2168 C 181.10352 856.97075 181.08261 856.73008 181.06641 856.48828 C 181.08057 856.24645 181.10352 856.00722 181.10352 855.76172 L 181.10352 800 L 238.45703 800 L 281.45312 800 L 341.8457 800 C 342.08994 800 342.3295 799.98362 342.56641 799.95703 C 343.02794 799.98408 343.49238 800 343.96094 800 C 356.84992 800 367.22656 789.62336 367.22656 776.73438 C 367.22656 775.90527 367.18144 775.08747 367.09766 774.28125 C 367.17431 773.77024 367.22656 773.24982 367.22656 772.7168 L 367.22656 717.33398 L 367.22656 641.78516 L 367.22656 599.93555 L 367.22656 548.61719 C 367.22656 548.00232 367.16275 547.40504 367.06055 546.82031 C 367.16508 545.92177 367.22656 545.00953 367.22656 544.08203 C 367.22656 531.19305 356.84992 520.81641 343.96094 520.81641 C 331.07196 520.81641 320.69531 531.19305 320.69531 544.08203 C 320.69531 545.01149 320.7544 545.92579 320.85938 546.82617 C 320.75785 547.40902 320.69531 548.00441 320.69531 548.61719 L 320.69531 603.56445 L 320.69531 660.20703 L 320.69531 725.56055 L 320.69531 753.46875 L 281.45312 753.46875 L 238.45703 753.46875 L 181.10352 753.46875 L 181.10352 717.87109 C 181.10352 717.86251 181.10158 717.85428 181.10156 717.8457 C 181.10159 717.83646 181.10352 717.82761 181.10352 717.81836 L 181.10352 669.48047 L 181.10352 623.8457 L 181.10352 550.19336 L 181.10352 520.81641 L 221.28516 520.81641 L 252.59961 520.81641 L 295.59375 520.81641 C 295.80503 520.81641 296.01483 520.80512 296.2207 520.78516 C 296.62091 520.80544 297.02426 520.81641 297.42969 520.81641 C 310.31867 520.81641 320.69531 510.43976 320.69531 497.55078 C 320.69531 484.6618 310.31867 474.28516 297.42969 474.28516 C 297.02426 474.28516 296.62091 474.29612 296.2207 474.31641 C 296.01483 474.29644 295.80503 474.28516 295.59375 474.28516 L 252.59961 474.28516 L 221.28516 474.28516 L 159.67383 474.28516 C 159.46257 474.28516 159.25467 474.29644 159.04883 474.31641 C 158.64798 474.29605 158.24398 474.28516 157.83789 474.28516 z "
       transform="matrix(0.26458333,0,0,0.26458333,0,32.41665)"
       id="rect7722" />
  </g>
</svg>
