<?xml version="1.0" encoding="UTF-8" standalone="no"?>
<!-- Created with Inkscape (http://www.inkscape.org/) -->

<svg
   xmlns:dc="http://purl.org/dc/elements/1.1/"
   xmlns:cc="http://creativecommons.org/ns#"
   xmlns:rdf="http://www.w3.org/1999/02/22-rdf-syntax-ns#"
   xmlns:svg="http://www.w3.org/2000/svg"
   xmlns="http://www.w3.org/2000/svg"
   xmlns:sodipodi="http://sodipodi.sourceforge.net/DTD/sodipodi-0.dtd"
   xmlns:inkscape="http://www.inkscape.org/namespaces/inkscape"
   width="1000"
   height="1000"
   viewBox="0 0 264.58333 264.58334"
   version="1.1"
   id="svg8"
   inkscape:version="0.92.4 (5da689c313, 2019-01-14)"
   sodipodi:docname="P.svg">
  <defs
     id="defs2" />
  <sodipodi:namedview
     id="base"
     pagecolor="#ffffff"
     bordercolor="#666666"
     borderopacity="1.0"
     inkscape:pageopacity="0.0"
     inkscape:pageshadow="2"
     inkscape:zoom="0.7"
     inkscape:cx="274.6459"
     inkscape:cy="701.03564"
     inkscape:document-units="mm"
     inkscape:current-layer="layer1"
     showgrid="false"
     units="px"
     inkscape:window-width="1600"
     inkscape:window-height="1149"
     inkscape:window-x="0"
     inkscape:window-y="26"
     inkscape:window-maximized="1"
     showguides="true"
     inkscape:guide-bbox="true">
    <sodipodi:guide
       position="0,52.916667"
       orientation="0,1"
       id="guide29"
       inkscape:locked="false"
       inkscape:label=""
       inkscape:color="rgb(0,0,255)" />
    <sodipodi:guide
       position="57.150382,139.09526"
       orientation="0,1"
       id="guide913"
       inkscape:locked="false" />
    <sodipodi:guide
       position="35.605739,52.916672"
       orientation="1,0"
       id="guide1095"
       inkscape:locked="false" />
    <sodipodi:guide
       position="35.605739,203.7292"
       orientation="0,1"
       id="guide1097"
       inkscape:locked="false" />
    <sodipodi:guide
       position="143.32896,52.916672"
       orientation="1,0"
       id="guide1099"
       inkscape:locked="false" />
  </sodipodi:namedview>
  <metadata
     id="metadata5">
    <rdf:RDF>
      <cc:Work
         rdf:about="">
        <dc:format>image/svg+xml</dc:format>
        <dc:type
           rdf:resource="http://purl.org/dc/dcmitype/StillImage" />
        <dc:title />
      </cc:Work>
    </rdf:RDF>
  </metadata>
  <g
     inkscape:label="Layer 1"
     inkscape:groupmode="layer"
     id="layer1"
     transform="translate(0,-32.41665)">
    <path
       style="fill:#010101;fill-opacity:1;fill-rule:nonzero;stroke:#ffffff;stroke-width:0;stroke-miterlimit:4;stroke-dasharray:none;stroke-opacity:1;paint-order:normal"
       d="M 175.24609 247.44727 C 175.23157 247.44727 175.21762 247.44912 175.20312 247.44922 C 162.35282 247.49442 152.02148 257.85355 152.02148 270.71484 C 152.02148 271.0258 152.03295 271.3327 152.04492 271.64062 C 152.0388 271.79285 152.02148 271.94192 152.02148 272.0957 L 152.02148 331.30273 L 152.02148 447.32227 L 152.02148 640.48438 L 152.02148 734.63477 L 152.02148 744.83594 L 152.02148 776.73438 C 152.02148 789.62383 162.39765 800 175.28711 800 C 188.17657 800 198.55273 789.62383 198.55273 776.73438 L 198.55273 741.83789 L 198.55273 685.63086 L 198.55273 621.08008 L 198.55273 538.26562 L 324.41602 538.26562 L 451.79492 538.26562 L 500.56055 538.26562 C 500.61074 538.26562 500.65908 538.25896 500.70898 538.25781 C 500.80694 538.25901 500.9037 538.26562 501.00195 538.26562 C 513.89141 538.26562 524.26758 527.88946 524.26758 515 C 524.26758 514.5972 524.25831 514.19648 524.23828 513.79883 C 524.24891 513.59867 524.26758 513.40017 524.26758 513.19727 L 524.26758 453.99219 L 524.26758 414.6875 L 524.26758 403.96875 L 524.26758 369.5918 L 524.26758 355.48047 L 524.26758 334.69531 C 524.26758 321.80585 513.89141 311.42773 501.00195 311.42773 C 488.11249 311.42773 477.73438 321.80585 477.73438 334.69531 L 477.73438 355.48047 L 477.73438 369.5918 L 477.73438 403.96875 L 477.73438 414.6875 L 477.73438 463.17383 L 477.73438 491.73438 L 451.79492 491.73438 L 324.41602 491.73438 L 198.55273 491.73438 L 198.55273 389.51562 L 198.55273 303.65234 L 198.55273 293.98047 L 243.97461 293.98047 L 414.42969 293.98047 L 437.02148 293.98047 C 449.91094 293.98047 460.28711 283.6043 460.28711 270.71484 C 460.28711 257.82538 449.91094 247.44727 437.02148 247.44727 L 414.42969 247.44727 L 243.97461 247.44727 L 175.24609 247.44727 z "
       transform="matrix(0.26458333,0,0,0.26458333,0,32.41665)"
       id="rect848" />
  </g>
</svg>
