<?xml version="1.0" encoding="UTF-8" standalone="no"?>
<!-- Created with Inkscape (http://www.inkscape.org/) -->

<svg
   xmlns:dc="http://purl.org/dc/elements/1.1/"
   xmlns:cc="http://creativecommons.org/ns#"
   xmlns:rdf="http://www.w3.org/1999/02/22-rdf-syntax-ns#"
   xmlns:svg="http://www.w3.org/2000/svg"
   xmlns="http://www.w3.org/2000/svg"
   xmlns:sodipodi="http://sodipodi.sourceforge.net/DTD/sodipodi-0.dtd"
   xmlns:inkscape="http://www.inkscape.org/namespaces/inkscape"
   width="1000"
   height="1000"
   viewBox="0 0 264.58333 264.58334"
   version="1.1"
   id="svg8"
   inkscape:version="0.92.4 (5da689c313, 2019-01-14)"
   sodipodi:docname="Q.svg">
  <defs
     id="defs2" />
  <sodipodi:namedview
     id="base"
     pagecolor="#ffffff"
     bordercolor="#666666"
     borderopacity="1.0"
     inkscape:pageopacity="0.0"
     inkscape:pageshadow="2"
     inkscape:zoom="0.98994949"
     inkscape:cx="411.23971"
     inkscape:cy="662.4283"
     inkscape:document-units="mm"
     inkscape:current-layer="layer1"
     showgrid="false"
     units="px"
     inkscape:window-width="1600"
     inkscape:window-height="1149"
     inkscape:window-x="0"
     inkscape:window-y="26"
     inkscape:window-maximized="1"
     showguides="true"
     inkscape:guide-bbox="true">
    <sodipodi:guide
       position="0,52.916667"
       orientation="0,1"
       id="guide29"
       inkscape:locked="false"
       inkscape:label=""
       inkscape:color="rgb(0,0,255)" />
    <sodipodi:guide
       position="57.150382,139.09526"
       orientation="0,1"
       id="guide913"
       inkscape:locked="false" />
    <sodipodi:guide
       position="35.605739,52.916672"
       orientation="1,0"
       id="guide1095"
       inkscape:locked="false" />
    <sodipodi:guide
       position="35.605739,203.7292"
       orientation="0,1"
       id="guide1097"
       inkscape:locked="false" />
    <sodipodi:guide
       position="143.32896,52.916672"
       orientation="1,0"
       id="guide1099"
       inkscape:locked="false" />
  </sodipodi:namedview>
  <metadata
     id="metadata5">
    <rdf:RDF>
      <cc:Work
         rdf:about="">
        <dc:format>image/svg+xml</dc:format>
        <dc:type
           rdf:resource="http://purl.org/dc/dcmitype/StillImage" />
        <dc:title />
      </cc:Work>
    </rdf:RDF>
  </metadata>
  <g
     inkscape:label="Layer 1"
     inkscape:groupmode="layer"
     id="layer1"
     transform="translate(0,-32.41665)">
    <path
       style="fill:#010101;fill-opacity:1;fill-rule:nonzero;stroke:#ffffff;stroke-width:0;stroke-miterlimit:4;stroke-dasharray:none;stroke-opacity:1;paint-order:normal"
       d="M 175.28711 247.44727 C 162.39765 247.44727 152.02148 257.82538 152.02148 270.71484 C 152.02148 271.21254 152.04178 271.70361 152.07227 272.19336 C 152.04211 272.52842 152.02148 272.86581 152.02148 273.20898 L 152.02148 322.54102 L 152.02148 332.41406 L 152.02148 372.29102 L 152.02148 381.74609 L 152.02148 431.49609 L 152.02148 463.17383 L 152.02148 512.92383 L 152.02148 544.60156 L 152.02148 594.35352 L 152.02148 626.03125 L 152.02148 675.78125 L 152.02148 707.45898 L 152.02148 757.20898 C 152.02148 757.46591 152.0416 757.71824 152.05859 757.9707 C 152.03458 758.40582 152.02148 758.84383 152.02148 759.28516 C 152.02148 771.89168 161.94843 782.0894 174.44336 782.53125 C 174.58633 782.54078 174.72953 782.55273 174.875 782.55273 L 243.60352 782.55273 L 273.63281 782.55273 L 325.03125 782.55273 L 372.50977 782.55273 L 406.46094 782.55273 L 453.9375 782.55273 L 470.78906 782.55273 L 531.21289 782.55273 L 569.31836 782.55273 L 599.87891 782.55273 C 612.76837 782.55273 623.14453 772.17462 623.14453 759.28516 C 623.14453 746.3957 612.76837 736.01953 599.87891 736.01953 L 569.31836 736.01953 L 524.26758 736.01953 L 524.26758 610.42188 L 524.26758 566.82617 L 524.26758 436.31836 L 524.26758 362.16211 L 524.26758 334.69531 C 524.26758 321.80585 513.89141 311.42773 501.00195 311.42773 C 488.11249 311.42773 477.73438 321.80585 477.73438 334.69531 L 477.73438 369.5918 L 477.73438 504.98047 L 477.73438 593.67969 L 477.73438 626.03125 L 477.73438 736.01953 L 470.78906 736.01953 L 453.9375 736.01953 L 406.46094 736.01953 L 372.50977 736.01953 L 325.03125 736.01953 L 273.63281 736.01953 L 243.60352 736.01953 L 198.55273 736.01953 L 198.55273 698.00391 L 198.55273 648.25391 L 198.55273 616.57617 L 198.55273 566.82617 L 198.55273 535.14648 L 198.55273 485.39648 L 198.55273 453.71875 L 198.55273 403.96875 L 198.55273 381.74609 L 198.55273 372.29102 L 198.55273 332.41406 L 198.55273 322.54102 L 198.55273 293.98047 L 245.00977 293.98047 L 296.08008 293.98047 L 329.65234 293.98047 L 377.50977 293.98047 L 411.08008 293.98047 L 437.02148 293.98047 C 449.91094 293.98047 460.28711 283.6043 460.28711 270.71484 C 460.28711 257.82538 449.91094 247.44727 437.02148 247.44727 L 411.08008 247.44727 L 377.50977 247.44727 L 329.65234 247.44727 L 296.08008 247.44727 L 245.00977 247.44727 L 176.2793 247.44727 C 176.16639 247.44727 176.05674 247.45908 175.94531 247.46484 C 175.7261 247.4588 175.50783 247.44727 175.28711 247.44727 z "
       transform="matrix(0.26458333,0,0,0.26458333,0,32.41665)"
       id="rect848" />
  </g>
</svg>
