<?xml version="1.0" encoding="UTF-8" standalone="no"?>
<!-- Created with Inkscape (http://www.inkscape.org/) -->

<svg
   xmlns:dc="http://purl.org/dc/elements/1.1/"
   xmlns:cc="http://creativecommons.org/ns#"
   xmlns:rdf="http://www.w3.org/1999/02/22-rdf-syntax-ns#"
   xmlns:svg="http://www.w3.org/2000/svg"
   xmlns="http://www.w3.org/2000/svg"
   xmlns:sodipodi="http://sodipodi.sourceforge.net/DTD/sodipodi-0.dtd"
   xmlns:inkscape="http://www.inkscape.org/namespaces/inkscape"
   width="1000"
   height="1000"
   viewBox="0 0 264.58333 264.58334"
   version="1.1"
   id="svg8"
   inkscape:version="0.92.4 (5da689c313, 2019-01-14)"
   sodipodi:docname="q.svg">
  <defs
     id="defs2" />
  <sodipodi:namedview
     id="base"
     pagecolor="#ffffff"
     bordercolor="#666666"
     borderopacity="1.0"
     inkscape:pageopacity="0.0"
     inkscape:pageshadow="2"
     inkscape:zoom="1.979899"
     inkscape:cx="277.48818"
     inkscape:cy="333.54728"
     inkscape:document-units="mm"
     inkscape:current-layer="layer1"
     showgrid="false"
     units="px"
     inkscape:window-width="1600"
     inkscape:window-height="1149"
     inkscape:window-x="0"
     inkscape:window-y="26"
     inkscape:window-maximized="1"
     showguides="true"
     inkscape:guide-bbox="true">
    <sodipodi:guide
       position="0,52.916667"
       orientation="0,1"
       id="guide29"
       inkscape:locked="false"
       inkscape:label=""
       inkscape:color="rgb(0,0,255)" />
    <sodipodi:guide
       position="57.150382,139.09526"
       orientation="0,1"
       id="guide913"
       inkscape:locked="false" />
    <sodipodi:guide
       position="35.605739,52.916672"
       orientation="1,0"
       id="guide1095"
       inkscape:locked="false" />
    <sodipodi:guide
       position="35.605739,203.7292"
       orientation="0,1"
       id="guide1097"
       inkscape:locked="false" />
    <sodipodi:guide
       position="143.32896,52.916672"
       orientation="1,0"
       id="guide1099"
       inkscape:locked="false" />
    <sodipodi:guide
       position="97.161864,52.916687"
       orientation="1,0"
       id="guide1238"
       inkscape:locked="false" />
    <sodipodi:guide
       position="35.605739,102.16158"
       orientation="0,1"
       id="guide1240"
       inkscape:locked="false" />
  </sodipodi:namedview>
  <metadata
     id="metadata5">
    <rdf:RDF>
      <cc:Work
         rdf:about="">
        <dc:format>image/svg+xml</dc:format>
        <dc:type
           rdf:resource="http://purl.org/dc/dcmitype/StillImage" />
        <dc:title />
      </cc:Work>
    </rdf:RDF>
  </metadata>
  <g
     inkscape:label="Layer 1"
     inkscape:groupmode="layer"
     id="layer1"
     transform="translate(0,-32.41665)">
    <path
       style="fill:#010101;fill-opacity:1;fill-rule:nonzero;stroke:#ffffff;stroke-width:0;stroke-miterlimit:4;stroke-dasharray:none;stroke-opacity:1;paint-order:normal"
       d="M 204.36914 474.28516 C 191.48016 474.28516 181.10352 484.6618 181.10352 497.55078 C 181.10352 510.43976 191.48016 520.81641 204.36914 520.81641 C 204.99789 520.81641 205.6185 520.7848 206.23438 520.73633 C 206.54938 520.78404 206.86854 520.81641 207.19727 520.81641 L 267.81445 520.81641 L 320.69531 520.81641 L 320.69531 556.85547 L 320.69531 613.51562 L 320.69531 666.26367 L 320.69531 715.65039 L 320.69531 747.11914 C 320.69531 747.38192 320.71733 747.6403 320.74805 747.89453 C 320.71589 748.22962 320.69531 748.56831 320.69531 748.91211 L 320.69531 753.46875 L 287.45898 753.46875 L 221.28516 753.46875 L 181.10352 753.46875 L 181.10352 717.57617 C 181.10352 716.89725 181.03449 716.23668 180.91406 715.59375 C 181.0327 714.93737 181.10352 714.26386 181.10352 713.57227 L 181.10352 653.77344 L 181.10352 604.90625 C 181.10352 604.69907 181.08245 604.49753 181.07227 604.29297 C 181.08437 604.08856 181.10352 603.88529 181.10352 603.67773 L 181.10352 549.33203 C 181.10352 548.61229 181.0272 547.91125 180.88672 547.23438 C 181.02531 546.20326 181.10352 545.1523 181.10352 544.08203 C 181.10352 531.19305 170.72687 520.81641 157.83789 520.81641 C 144.94891 520.81641 134.57227 531.19305 134.57227 544.08203 C 134.57227 545.15161 134.65065 546.20194 134.78906 547.23242 C 134.64833 547.90987 134.57227 548.61163 134.57227 549.33203 L 134.57227 603.67773 C 134.57227 603.88529 134.59141 604.08856 134.60352 604.29297 C 134.59333 604.49753 134.57227 604.69907 134.57227 604.90625 L 134.57227 669.37891 L 134.57227 713.57227 C 134.57227 714.26388 134.64502 714.93735 134.76367 715.59375 C 134.64324 716.23669 134.57227 716.89724 134.57227 717.57617 L 134.57227 774.25977 C 134.57227 774.60237 134.59169 774.93931 134.62305 775.27344 C 134.59334 775.75688 134.57227 776.2432 134.57227 776.73438 C 134.57227 789.62336 144.94891 800 157.83789 800 C 158.38691 800 158.92946 799.97455 159.46875 799.9375 C 159.74444 799.97376 160.02464 800 160.31055 800 L 221.28516 800 L 287.45898 800 L 320.69531 800 L 320.69531 804.55664 L 320.69531 858.09766 L 320.69531 910.91211 C 320.69531 911.69908 320.77565 912.46443 320.90625 913.21289 C 320.77108 914.23153 320.69531 915.26941 320.69531 916.32617 C 320.69531 929.21515 331.07196 939.5918 343.96094 939.5918 C 356.84992 939.5918 367.22656 929.21515 367.22656 916.32617 C 367.22656 915.27069 367.14852 914.23426 367.01367 913.2168 C 367.14474 912.46705 367.22656 911.70051 367.22656 910.91211 L 367.22656 840.4668 L 367.22656 788.43164 L 367.22656 748.91211 C 367.22656 748.56831 367.20598 748.22962 367.17383 747.89453 C 367.20454 747.6403 367.22656 747.38192 367.22656 747.11914 L 367.22656 713.28906 L 367.22656 651.69727 L 367.22656 608.02148 L 367.22656 535.46484 L 367.22656 500.95117 C 367.22656 500.49333 367.18719 500.04556 367.13086 499.60352 C 367.18956 498.92668 367.22656 498.24335 367.22656 497.55078 C 367.22656 484.6618 356.84992 474.28516 343.96094 474.28516 C 343.09478 474.28516 342.24147 474.3364 341.40039 474.42773 C 340.96859 474.33565 340.52061 474.28516 340.06055 474.28516 L 267.81445 474.28516 L 207.19727 474.28516 C 206.8671 474.28516 206.54677 474.31907 206.23047 474.36719 C 205.61583 474.31891 204.99659 474.28516 204.36914 474.28516 z "
       transform="matrix(0.26458333,0,0,0.26458333,0,32.41665)"
       id="rect1199" />
  </g>
</svg>
