<?xml version="1.0" encoding="UTF-8" standalone="no"?>
<!-- Created with Inkscape (http://www.inkscape.org/) -->

<svg
   xmlns:dc="http://purl.org/dc/elements/1.1/"
   xmlns:cc="http://creativecommons.org/ns#"
   xmlns:rdf="http://www.w3.org/1999/02/22-rdf-syntax-ns#"
   xmlns:svg="http://www.w3.org/2000/svg"
   xmlns="http://www.w3.org/2000/svg"
   xmlns:sodipodi="http://sodipodi.sourceforge.net/DTD/sodipodi-0.dtd"
   xmlns:inkscape="http://www.inkscape.org/namespaces/inkscape"
   width="1000"
   height="1000"
   viewBox="0 0 264.58333 264.58334"
   version="1.1"
   id="svg8"
   inkscape:version="0.92.4 (5da689c313, 2019-01-14)"
   sodipodi:docname="r.svg">
  <defs
     id="defs2" />
  <sodipodi:namedview
     id="base"
     pagecolor="#ffffff"
     bordercolor="#666666"
     borderopacity="1.0"
     inkscape:pageopacity="0.0"
     inkscape:pageshadow="2"
     inkscape:zoom="0.49497475"
     inkscape:cx="92.776527"
     inkscape:cy="420.50777"
     inkscape:document-units="mm"
     inkscape:current-layer="layer1"
     showgrid="false"
     units="px"
     inkscape:window-width="1600"
     inkscape:window-height="1149"
     inkscape:window-x="0"
     inkscape:window-y="26"
     inkscape:window-maximized="1"
     showguides="true"
     inkscape:guide-bbox="true">
    <sodipodi:guide
       position="0,52.916667"
       orientation="0,1"
       id="guide29"
       inkscape:locked="false"
       inkscape:label=""
       inkscape:color="rgb(0,0,255)" />
    <sodipodi:guide
       position="57.150382,139.09526"
       orientation="0,1"
       id="guide913"
       inkscape:locked="false" />
    <sodipodi:guide
       position="35.605739,52.916672"
       orientation="1,0"
       id="guide1095"
       inkscape:locked="false" />
    <sodipodi:guide
       position="35.605739,203.7292"
       orientation="0,1"
       id="guide1097"
       inkscape:locked="false" />
    <sodipodi:guide
       position="143.32896,52.916672"
       orientation="1,0"
       id="guide1099"
       inkscape:locked="false" />
    <sodipodi:guide
       position="97.161864,52.916687"
       orientation="1,0"
       id="guide1238"
       inkscape:locked="false" />
    <sodipodi:guide
       position="35.605739,102.16158"
       orientation="0,1"
       id="guide1240"
       inkscape:locked="false" />
  </sodipodi:namedview>
  <metadata
     id="metadata5">
    <rdf:RDF>
      <cc:Work
         rdf:about="">
        <dc:format>image/svg+xml</dc:format>
        <dc:type
           rdf:resource="http://purl.org/dc/dcmitype/StillImage" />
        <dc:title />
      </cc:Work>
    </rdf:RDF>
  </metadata>
  <g
     inkscape:label="Layer 1"
     inkscape:groupmode="layer"
     id="layer1"
     transform="translate(0,-32.41665)">
    <path
       style="fill:#010101;fill-opacity:1;fill-rule:nonzero;stroke:#ffffff;stroke-width:0;stroke-miterlimit:4;stroke-dasharray:none;stroke-opacity:1;paint-order:normal"
       d="M 204.36914 474.28516 C 191.48016 474.28516 181.10352 484.6618 181.10352 497.55078 C 181.10352 510.43976 191.48016 520.81641 204.36914 520.81641 C 204.4772 520.81641 204.58371 520.81005 204.69141 520.80859 C 204.74651 520.80999 204.80002 520.81641 204.85547 520.81641 L 267.81445 520.81641 L 344.375 520.81641 C 344.52024 520.81641 344.66194 520.80443 344.80469 520.79492 C 357.29915 520.35309 367.22656 510.15684 367.22656 497.55078 C 367.22656 484.94473 357.29915 474.74847 344.80469 474.30664 C 344.66194 474.29714 344.52024 474.28516 344.375 474.28516 L 267.81445 474.28516 L 204.85547 474.28516 C 204.80002 474.28516 204.74651 474.29157 204.69141 474.29297 C 204.58371 474.29151 204.4772 474.28516 204.36914 474.28516 z M 157.83789 520.81641 C 144.94891 520.81641 134.57227 531.19305 134.57227 544.08203 C 134.57227 544.38723 134.58417 544.68992 134.5957 544.99219 C 134.58919 545.14701 134.57227 545.2986 134.57227 545.45508 L 134.57227 603.06445 L 134.57227 674.25586 L 134.57227 717.84961 L 134.57227 774.05273 C 134.57227 774.42946 134.59291 774.80161 134.63086 775.16797 C 134.59669 775.68609 134.57227 776.20731 134.57227 776.73438 C 134.57227 789.62336 144.94891 800 157.83789 800 C 170.72687 800 181.10352 789.62336 181.10352 776.73438 C 181.10352 776.20462 181.07943 775.68088 181.04492 775.16016 C 181.08234 774.7963 181.10352 774.4268 181.10352 774.05273 L 181.10352 717.54492 L 181.10352 649.49805 L 181.10352 600.0293 L 181.10352 545.45508 C 181.10352 545.30191 181.08828 545.15353 181.08203 545.00195 C 181.09381 544.69648 181.10352 544.39049 181.10352 544.08203 C 181.10352 531.19305 170.72687 520.81641 157.83789 520.81641 z "
       transform="matrix(0.26458333,0,0,0.26458333,0,32.41665)"
       id="rect59" />
  </g>
</svg>
