<?xml version="1.0" encoding="UTF-8" standalone="no"?>
<!-- Created with Inkscape (http://www.inkscape.org/) -->

<svg
   xmlns:dc="http://purl.org/dc/elements/1.1/"
   xmlns:cc="http://creativecommons.org/ns#"
   xmlns:rdf="http://www.w3.org/1999/02/22-rdf-syntax-ns#"
   xmlns:svg="http://www.w3.org/2000/svg"
   xmlns="http://www.w3.org/2000/svg"
   xmlns:sodipodi="http://sodipodi.sourceforge.net/DTD/sodipodi-0.dtd"
   xmlns:inkscape="http://www.inkscape.org/namespaces/inkscape"
   width="1000"
   height="1000"
   viewBox="0 0 264.58333 264.58334"
   version="1.1"
   id="svg8"
   inkscape:version="0.92.4 (5da689c313, 2019-01-14)"
   sodipodi:docname="R.svg">
  <defs
     id="defs2" />
  <sodipodi:namedview
     id="base"
     pagecolor="#ffffff"
     bordercolor="#666666"
     borderopacity="1.0"
     inkscape:pageopacity="0.0"
     inkscape:pageshadow="2"
     inkscape:zoom="0.7"
     inkscape:cx="336.84225"
     inkscape:cy="464.97012"
     inkscape:document-units="mm"
     inkscape:current-layer="layer1"
     showgrid="false"
     units="px"
     inkscape:window-width="1600"
     inkscape:window-height="1149"
     inkscape:window-x="0"
     inkscape:window-y="26"
     inkscape:window-maximized="1"
     showguides="true"
     inkscape:guide-bbox="true">
    <sodipodi:guide
       position="0,52.916667"
       orientation="0,1"
       id="guide29"
       inkscape:locked="false"
       inkscape:label=""
       inkscape:color="rgb(0,0,255)" />
    <sodipodi:guide
       position="57.150382,139.09526"
       orientation="0,1"
       id="guide913"
       inkscape:locked="false" />
    <sodipodi:guide
       position="35.605739,52.916672"
       orientation="1,0"
       id="guide1095"
       inkscape:locked="false" />
    <sodipodi:guide
       position="35.605739,203.7292"
       orientation="0,1"
       id="guide1097"
       inkscape:locked="false" />
    <sodipodi:guide
       position="143.32896,52.916672"
       orientation="1,0"
       id="guide1099"
       inkscape:locked="false" />
  </sodipodi:namedview>
  <metadata
     id="metadata5">
    <rdf:RDF>
      <cc:Work
         rdf:about="">
        <dc:format>image/svg+xml</dc:format>
        <dc:type
           rdf:resource="http://purl.org/dc/dcmitype/StillImage" />
        <dc:title />
      </cc:Work>
    </rdf:RDF>
  </metadata>
  <g
     inkscape:label="Layer 1"
     inkscape:groupmode="layer"
     id="layer1"
     transform="translate(0,-32.41665)">
    <path
       style="fill:#010101;fill-opacity:1;fill-rule:nonzero;stroke:#ffffff;stroke-width:0;stroke-miterlimit:4;stroke-dasharray:none;stroke-opacity:1;paint-order:normal"
       d="M 175.28711 230 C 152.7314 230 134.57227 248.15913 134.57227 270.71484 C 134.57227 271.30508 134.59257 271.89064 134.61719 272.47461 C 134.60391 272.76654 134.57227 273.05429 134.57227 273.34961 L 134.57227 373.97266 L 134.57227 503.68359 L 134.57227 536.16211 L 134.57227 544.60156 L 134.57227 568.28906 L 134.57227 656.69531 L 134.57227 754.56445 C 134.57227 755.22461 134.60918 755.87561 134.67578 756.51758 C 134.61482 757.43302 134.57227 758.35375 134.57227 759.28516 C 134.57227 781.84087 152.7314 800 175.28711 800 C 197.84282 800 216.00195 781.84087 216.00195 759.28516 C 216.00195 758.35308 215.95948 757.43172 215.89844 756.51562 C 215.96491 755.87428 216.00195 755.22395 216.00195 754.56445 L 216.00195 655.69727 L 216.00195 555.71484 L 297.42969 555.71484 L 297.42969 600.73242 C 297.42969 604.18236 298.29553 607.42175 299.82227 610.24805 C 305.45783 625.96027 320.44573 637.14258 338.14453 637.14258 C 355.84772 637.14258 370.83838 625.95469 376.4707 610.23633 C 377.99358 607.41274 378.85938 604.17769 378.85938 600.73242 L 378.85938 555.71484 L 500.44141 555.71484 C 500.50345 555.71484 500.56321 555.70608 500.625 555.70508 C 500.75115 555.70622 500.87552 555.71484 501.00195 555.71484 C 523.55766 555.71484 541.71484 537.55571 541.71484 515 C 541.71484 514.56829 541.69485 514.14128 541.68164 513.71289 C 541.70098 513.27181 541.71484 512.82883 541.71484 512.38281 L 541.71484 354.75977 C 541.71484 354.31375 541.70098 353.87077 541.68164 353.42969 C 541.69485 353.0013 541.71484 352.57428 541.71484 352.14258 C 541.71484 329.58687 523.55766 311.42773 501.00195 311.42773 C 478.44624 311.42773 460.28711 329.58687 460.28711 352.14258 C 460.28711 352.58541 460.30642 353.02355 460.32031 353.46289 C 460.30192 353.89308 460.28711 354.32489 460.28711 354.75977 L 460.28711 474.28516 L 432.74609 474.28516 L 216.00195 474.28516 L 216.00195 461.71094 L 216.00195 363.45898 L 216.00195 311.42773 L 300.96094 311.42773 L 415.64844 311.42773 C 416.10589 311.42773 416.55344 311.39304 416.99609 311.33984 C 417.84863 311.39263 418.70598 311.42773 419.57227 311.42773 C 442.12797 311.42773 460.28711 293.27055 460.28711 270.71484 C 460.28711 248.15913 442.12797 230 419.57227 230 C 418.70598 230 417.84863 230.0351 416.99609 230.08789 C 416.55344 230.0347 416.10589 230 415.64844 230 L 300.96094 230 L 178.7207 230 C 178.31961 230 177.92307 230.02341 177.5332 230.06445 C 176.7895 230.02438 176.04116 230 175.28711 230 z M 389.9707 637.14258 C 383.81483 637.14258 378.85938 642.09804 378.85938 648.25391 L 378.85938 707.45898 C 378.85938 713.61485 383.81483 718.57227 389.9707 718.57227 L 449.17578 718.57227 C 455.33165 718.57227 460.28711 713.61485 460.28711 707.45898 L 460.28711 648.25391 C 460.28711 642.09804 455.33165 637.14258 449.17578 637.14258 L 389.9707 637.14258 z M 501.00195 718.57227 C 478.44624 718.57227 460.28711 736.72945 460.28711 759.28516 C 460.28711 781.84087 478.44624 800 501.00195 800 C 523.55766 800 541.71484 781.84087 541.71484 759.28516 C 541.71484 736.72945 523.55766 718.57227 501.00195 718.57227 z "
       transform="matrix(0.26458333,0,0,0.26458333,0,32.41665)"
       id="rect7707" />
  </g>
</svg>
