<?xml version="1.0" encoding="UTF-8" standalone="no"?>
<!-- Created with Inkscape (http://www.inkscape.org/) -->

<svg
   xmlns:dc="http://purl.org/dc/elements/1.1/"
   xmlns:cc="http://creativecommons.org/ns#"
   xmlns:rdf="http://www.w3.org/1999/02/22-rdf-syntax-ns#"
   xmlns:svg="http://www.w3.org/2000/svg"
   xmlns="http://www.w3.org/2000/svg"
   xmlns:sodipodi="http://sodipodi.sourceforge.net/DTD/sodipodi-0.dtd"
   xmlns:inkscape="http://www.inkscape.org/namespaces/inkscape"
   width="1000"
   height="1000"
   viewBox="0 0 264.58333 264.58334"
   version="1.1"
   id="svg8"
   inkscape:version="0.92.4 (5da689c313, 2019-01-14)"
   sodipodi:docname="R.svg">
  <defs
     id="defs2" />
  <sodipodi:namedview
     id="base"
     pagecolor="#ffffff"
     bordercolor="#666666"
     borderopacity="1.0"
     inkscape:pageopacity="0.0"
     inkscape:pageshadow="2"
     inkscape:zoom="0.12374369"
     inkscape:cx="-511.91003"
     inkscape:cy="1081.3568"
     inkscape:document-units="mm"
     inkscape:current-layer="layer1"
     showgrid="false"
     units="px"
     inkscape:window-width="1600"
     inkscape:window-height="1149"
     inkscape:window-x="0"
     inkscape:window-y="26"
     inkscape:window-maximized="1"
     showguides="true"
     inkscape:guide-bbox="true">
    <sodipodi:guide
       position="0,52.916667"
       orientation="0,1"
       id="guide29"
       inkscape:locked="false"
       inkscape:label=""
       inkscape:color="rgb(0,0,255)" />
    <sodipodi:guide
       position="57.150382,139.09526"
       orientation="0,1"
       id="guide913"
       inkscape:locked="false" />
    <sodipodi:guide
       position="35.605739,52.916672"
       orientation="1,0"
       id="guide1095"
       inkscape:locked="false" />
    <sodipodi:guide
       position="35.605739,203.7292"
       orientation="0,1"
       id="guide1097"
       inkscape:locked="false" />
    <sodipodi:guide
       position="143.32896,52.916672"
       orientation="1,0"
       id="guide1099"
       inkscape:locked="false" />
  </sodipodi:namedview>
  <metadata
     id="metadata5">
    <rdf:RDF>
      <cc:Work
         rdf:about="">
        <dc:format>image/svg+xml</dc:format>
        <dc:type
           rdf:resource="http://purl.org/dc/dcmitype/StillImage" />
        <dc:title></dc:title>
      </cc:Work>
    </rdf:RDF>
  </metadata>
  <g
     inkscape:label="Layer 1"
     inkscape:groupmode="layer"
     id="layer1"
     transform="translate(0,-32.41665)">
    <path
       style="fill:#010101;fill-opacity:1;fill-rule:nonzero;stroke:#ffffff;stroke-width:0;stroke-miterlimit:4;stroke-dasharray:none;stroke-opacity:1;paint-order:normal"
       d="M 175.28711 247.44727 C 162.39765 247.44727 152.02148 257.82538 152.02148 270.71484 C 152.02148 271.08943 152.03149 271.45993 152.04883 271.83008 C 152.03994 272.01324 152.02148 272.19346 152.02148 272.37891 L 152.02148 331.58398 L 152.02148 364.29688 L 152.02148 413.01367 L 152.02148 463.17383 L 152.02148 494.44141 L 152.02148 544.60156 L 152.02148 575.87109 L 152.02148 626.03125 L 152.02148 657.29883 L 152.02148 679.52344 L 152.02148 707.45898 L 152.02148 738.72852 C 152.02148 739.16088 152.05202 739.58469 152.09961 740.00391 C 152.05279 740.60931 152.02148 741.22007 152.02148 741.83789 L 152.02148 776.73438 C 152.02148 789.62383 162.39765 800 175.28711 800 C 188.17657 800 198.55273 789.62383 198.55273 776.73438 L 198.55273 741.83789 C 198.55273 741.22007 198.52142 740.60931 198.47461 740.00391 C 198.5222 739.58469 198.55273 739.16088 198.55273 738.72852 L 198.55273 707.45898 L 198.55273 679.52344 L 198.55273 648.25391 L 198.55273 598.09375 L 198.55273 566.82617 L 198.55273 538.26562 L 257.6875 538.26562 L 291.08008 538.26562 L 339.11523 538.26562 L 372.50977 538.26562 L 420.54492 538.26562 L 453.9375 538.26562 L 501.97266 538.26562 C 502.32523 538.26562 502.66922 538.23052 503.00586 538.17578 C 514.26858 537.22257 523.19108 528.3171 524.17188 517.0625 C 524.22841 516.60648 524.26758 516.14563 524.26758 515.67383 L 524.26758 456.46875 L 524.26758 421.41602 L 524.26758 375.04102 L 524.26758 339.98828 L 524.26758 334.69531 C 524.26758 321.80585 513.89141 311.42773 501.00195 311.42773 C 488.11249 311.42773 477.73438 321.80585 477.73438 334.69531 L 477.73438 369.5918 L 477.73438 399.19336 L 477.73438 434.24609 L 477.73438 480.62305 L 477.73438 491.73438 L 453.9375 491.73438 L 420.54492 491.73438 L 372.50977 491.73438 L 339.11523 491.73438 L 291.08008 491.73438 L 257.6875 491.73438 L 198.55273 491.73438 L 198.55273 485.39648 L 198.55273 435.23633 L 198.55273 403.96875 L 198.55273 353.80859 L 198.55273 305.0918 L 198.55273 293.98047 L 245.70312 293.98047 L 273.63281 293.98047 L 327.13281 293.98047 L 372.50977 293.98047 L 408.56055 293.98047 L 437.02148 293.98047 C 449.91094 293.98047 460.28711 283.6043 460.28711 270.71484 C 460.28711 257.82538 449.91094 247.44727 437.02148 247.44727 L 408.56055 247.44727 L 372.50977 247.44727 L 327.13281 247.44727 L 273.63281 247.44727 L 245.70312 247.44727 L 176.97461 247.44727 C 176.78182 247.44727 176.59262 247.4599 176.4043 247.47656 C 176.0341 247.45922 175.66174 247.44727 175.28711 247.44727 z M 402.125 555.71484 C 389.23554 555.71484 378.85938 566.09101 378.85938 578.98047 L 378.85938 613.87695 C 378.85938 626.76641 389.23554 637.14258 402.125 637.14258 C 415.01446 637.14258 425.39062 626.76641 425.39062 613.87695 L 425.39062 578.98047 C 425.39063 566.09101 415.01446 555.71484 402.125 555.71484 z M 448.65625 637.14258 C 435.76679 637.14258 425.39062 647.51874 425.39062 660.4082 L 425.39062 695.30469 C 425.39063 708.19415 435.76679 718.57031 448.65625 718.57031 C 461.54571 718.57031 471.92383 708.19415 471.92383 695.30469 L 471.92383 660.4082 C 471.92383 647.51874 461.54571 637.14258 448.65625 637.14258 z M 501.00195 718.57227 C 488.11249 718.57227 477.73438 728.94843 477.73438 741.83789 L 477.73438 776.73438 C 477.73438 789.62383 488.11249 800 501.00195 800 C 513.89141 800 524.26758 789.62383 524.26758 776.73438 L 524.26758 741.83789 C 524.26758 728.94843 513.89141 718.57227 501.00195 718.57227 z "
       transform="matrix(0.26458333,0,0,0.26458333,0,32.41665)"
       id="rect14685" />
  </g>
</svg>
