<?xml version="1.0" encoding="UTF-8" standalone="no"?>
<!-- Created with Inkscape (http://www.inkscape.org/) -->

<svg
   xmlns:dc="http://purl.org/dc/elements/1.1/"
   xmlns:cc="http://creativecommons.org/ns#"
   xmlns:rdf="http://www.w3.org/1999/02/22-rdf-syntax-ns#"
   xmlns:svg="http://www.w3.org/2000/svg"
   xmlns="http://www.w3.org/2000/svg"
   xmlns:sodipodi="http://sodipodi.sourceforge.net/DTD/sodipodi-0.dtd"
   xmlns:inkscape="http://www.inkscape.org/namespaces/inkscape"
   width="1000"
   height="1000"
   viewBox="0 0 264.58333 264.58334"
   version="1.1"
   id="svg8"
   inkscape:version="0.92.4 (5da689c313, 2019-01-14)"
   sodipodi:docname="S.svg">
  <defs
     id="defs2" />
  <sodipodi:namedview
     id="base"
     pagecolor="#ffffff"
     bordercolor="#666666"
     borderopacity="1.0"
     inkscape:pageopacity="0.0"
     inkscape:pageshadow="2"
     inkscape:zoom="0.98994949"
     inkscape:cx="398.55869"
     inkscape:cy="477.40196"
     inkscape:document-units="mm"
     inkscape:current-layer="layer1"
     showgrid="false"
     units="px"
     inkscape:window-width="1600"
     inkscape:window-height="1149"
     inkscape:window-x="0"
     inkscape:window-y="26"
     inkscape:window-maximized="1"
     showguides="true"
     inkscape:guide-bbox="true">
    <sodipodi:guide
       position="0,52.916667"
       orientation="0,1"
       id="guide29"
       inkscape:locked="false"
       inkscape:label=""
       inkscape:color="rgb(0,0,255)" />
    <sodipodi:guide
       position="57.150382,139.09526"
       orientation="0,1"
       id="guide913"
       inkscape:locked="false" />
    <sodipodi:guide
       position="35.605739,52.916672"
       orientation="1,0"
       id="guide1095"
       inkscape:locked="false" />
    <sodipodi:guide
       position="35.605739,203.7292"
       orientation="0,1"
       id="guide1097"
       inkscape:locked="false" />
    <sodipodi:guide
       position="143.32896,52.916672"
       orientation="1,0"
       id="guide1099"
       inkscape:locked="false" />
  </sodipodi:namedview>
  <metadata
     id="metadata5">
    <rdf:RDF>
      <cc:Work
         rdf:about="">
        <dc:format>image/svg+xml</dc:format>
        <dc:type
           rdf:resource="http://purl.org/dc/dcmitype/StillImage" />
        <dc:title />
      </cc:Work>
    </rdf:RDF>
  </metadata>
  <g
     inkscape:label="Layer 1"
     inkscape:groupmode="layer"
     id="layer1"
     transform="translate(0,-32.41665)">
    <path
       style="fill:#010101;fill-opacity:1;fill-rule:nonzero;stroke:#ffffff;stroke-width:0;stroke-miterlimit:4;stroke-dasharray:none;stroke-opacity:1;paint-order:normal"
       d="M 256.71484 230 C 234.15913 230 216.00195 248.15913 216.00195 270.71484 C 216.00195 293.27055 234.15913 311.42773 256.71484 311.42773 C 257.83453 311.42773 258.94078 311.37101 260.03711 311.2832 C 260.59868 311.36996 261.16924 311.42773 261.75586 311.42773 L 414.5332 311.42773 L 497.39062 311.42773 C 497.81205 311.42773 498.22579 311.40072 498.63477 311.35547 C 499.41844 311.40001 500.20675 311.42773 501.00195 311.42773 C 523.55766 311.42773 541.71484 293.27055 541.71484 270.71484 C 541.71484 248.15913 523.55766 230 501.00195 230 C 500.20675 230 499.41844 230.02773 498.63477 230.07227 C 498.22579 230.02702 497.81205 230 497.39062 230 L 414.5332 230 L 261.75586 230 C 261.16924 230 260.59868 230.05777 260.03711 230.14453 C 258.94078 230.05672 257.83453 230 256.71484 230 z M 175.28711 311.42773 C 152.7314 311.42773 134.57227 329.58687 134.57227 352.14258 C 134.57227 352.51924 134.58955 352.89148 134.59961 353.26562 C 134.58626 353.63333 134.57227 354.00001 134.57227 354.37109 L 134.57227 512.77148 C 134.57227 513.14257 134.58626 513.50924 134.59961 513.87695 C 134.58955 514.2511 134.57227 514.62334 134.57227 515 C 134.57227 537.55571 152.7314 555.71484 175.28711 555.71484 C 175.69916 555.71484 176.10659 555.69563 176.51562 555.68359 C 176.71486 555.69413 176.91133 555.71484 177.11328 555.71484 L 336.31836 555.71484 L 367.74609 555.71484 L 460.28711 555.71484 L 460.28711 672.51172 L 460.28711 718.57227 L 339.17578 718.57227 L 175.28711 718.57227 L 174.25586 718.57227 C 173.90147 718.57227 173.55275 718.59287 173.20703 718.625 C 173.19997 718.62566 173.19261 718.62433 173.18555 718.625 C 173.17898 718.62533 173.17259 718.62662 173.16602 718.62695 C 173.14467 718.62902 173.12287 718.62868 173.10156 718.63086 C 151.57001 719.75927 134.57227 737.46287 134.57227 759.28516 C 134.57227 781.10744 151.57001 798.81299 173.10156 799.94141 C 173.12287 799.94359 173.14467 799.94325 173.16602 799.94531 C 173.17259 799.94565 173.17898 799.94693 173.18555 799.94727 C 173.19261 799.94794 173.19997 799.94661 173.20703 799.94727 C 173.55275 799.9794 173.90147 800 174.25586 800 L 175.28711 800 L 339.17578 800 L 503.81836 800 C 504.85488 800 505.85219 799.84902 506.80273 799.58594 C 526.59014 796.78556 541.71484 779.86981 541.71484 759.28516 C 541.71484 758.78664 541.69533 758.29094 541.67773 757.79688 C 541.70307 757.29377 541.71484 756.78696 541.71484 756.27734 L 541.71484 599.43555 L 541.71484 520.34375 C 541.71484 519.51152 541.6726 518.69071 541.60352 517.87695 C 541.6694 516.92565 541.71484 515.96861 541.71484 515 C 541.71484 492.44429 523.55766 474.28516 501.00195 474.28516 C 500.83162 474.28516 500.66396 474.29676 500.49414 474.29883 C 500.41091 474.29701 500.32978 474.28516 500.24609 474.28516 L 367.74609 474.28516 L 336.31836 474.28516 L 216.00195 474.28516 L 216.00195 354.37109 C 216.00195 354.00001 215.98796 353.63333 215.97461 353.26562 C 215.98467 352.89148 216.00195 352.51924 216.00195 352.14258 C 216.00195 329.58687 197.84282 311.42773 175.28711 311.42773 z "
       transform="matrix(0.26458333,0,0,0.26458333,0,32.41665)"
       id="rect850" />
  </g>
</svg>
