<?xml version="1.0" encoding="UTF-8" standalone="no"?>
<!-- Created with Inkscape (http://www.inkscape.org/) -->

<svg
   xmlns:dc="http://purl.org/dc/elements/1.1/"
   xmlns:cc="http://creativecommons.org/ns#"
   xmlns:rdf="http://www.w3.org/1999/02/22-rdf-syntax-ns#"
   xmlns:svg="http://www.w3.org/2000/svg"
   xmlns="http://www.w3.org/2000/svg"
   xmlns:sodipodi="http://sodipodi.sourceforge.net/DTD/sodipodi-0.dtd"
   xmlns:inkscape="http://www.inkscape.org/namespaces/inkscape"
   width="1000"
   height="1000"
   viewBox="0 0 264.58333 264.58334"
   version="1.1"
   id="svg8"
   inkscape:version="0.92.4 (5da689c313, 2019-01-14)"
   sodipodi:docname="S.svg">
  <defs
     id="defs2" />
  <sodipodi:namedview
     id="base"
     pagecolor="#ffffff"
     bordercolor="#666666"
     borderopacity="1.0"
     inkscape:pageopacity="0.0"
     inkscape:pageshadow="2"
     inkscape:zoom="0.7"
     inkscape:cx="379.25272"
     inkscape:cy="606.22189"
     inkscape:document-units="mm"
     inkscape:current-layer="layer1"
     showgrid="false"
     units="px"
     inkscape:window-width="1600"
     inkscape:window-height="1149"
     inkscape:window-x="0"
     inkscape:window-y="26"
     inkscape:window-maximized="1"
     showguides="true"
     inkscape:guide-bbox="true">
    <sodipodi:guide
       position="0,52.916667"
       orientation="0,1"
       id="guide29"
       inkscape:locked="false"
       inkscape:label=""
       inkscape:color="rgb(0,0,255)" />
    <sodipodi:guide
       position="57.150382,139.09526"
       orientation="0,1"
       id="guide913"
       inkscape:locked="false" />
    <sodipodi:guide
       position="35.605739,52.916672"
       orientation="1,0"
       id="guide1095"
       inkscape:locked="false" />
    <sodipodi:guide
       position="35.605739,203.7292"
       orientation="0,1"
       id="guide1097"
       inkscape:locked="false" />
    <sodipodi:guide
       position="143.32896,52.916672"
       orientation="1,0"
       id="guide1099"
       inkscape:locked="false" />
  </sodipodi:namedview>
  <metadata
     id="metadata5">
    <rdf:RDF>
      <cc:Work
         rdf:about="">
        <dc:format>image/svg+xml</dc:format>
        <dc:type
           rdf:resource="http://purl.org/dc/dcmitype/StillImage" />
        <dc:title />
      </cc:Work>
    </rdf:RDF>
  </metadata>
  <g
     inkscape:label="Layer 1"
     inkscape:groupmode="layer"
     id="layer1"
     transform="translate(0,-32.41665)">
    <path
       style="fill:#010101;fill-opacity:1;fill-rule:nonzero;stroke:#ffffff;stroke-width:0;stroke-miterlimit:4;stroke-dasharray:none;stroke-opacity:1;paint-order:normal"
       d="M 239.26758 247.44727 C 226.37812 247.44727 216.00195 257.82538 216.00195 270.71484 C 216.00195 283.6043 226.37812 293.98047 239.26758 293.98047 L 274.16406 293.98047 L 336.79492 293.98047 L 372.50977 293.98047 L 418.22266 293.98047 L 453.9375 293.98047 L 499.65234 293.98047 L 518.44922 293.98047 C 531.33868 293.98047 541.71484 283.6043 541.71484 270.71484 C 541.71484 257.82538 531.33868 247.44727 518.44922 247.44727 L 499.65234 247.44727 L 453.9375 247.44727 L 418.22266 247.44727 L 372.50977 247.44727 L 336.79492 247.44727 L 274.16406 247.44727 L 239.26758 247.44727 z M 175.28711 311.42773 C 162.39765 311.42773 152.02148 321.80585 152.02148 334.69531 L 152.02148 369.5918 L 152.02148 408.9668 L 152.02148 463.17383 L 152.02148 513.94336 C 152.02148 514.06063 152.03549 514.17464 152.03906 514.29102 C 152.03205 514.52701 152.02148 514.76225 152.02148 515 C 152.02148 527.3331 161.52324 537.35806 173.63477 538.20117 C 173.91677 538.23916 174.20335 538.26562 174.49609 538.26562 L 243.22461 538.26562 L 273.63281 538.26562 L 324.65234 538.26562 L 372.50977 538.26562 L 406.08203 538.26562 L 453.9375 538.26562 L 477.73438 538.26562 L 477.73438 573.42969 L 477.73438 608.58398 L 477.73438 654.85938 L 477.73438 690.01172 L 477.73438 736.01953 L 471.38477 736.01953 L 453.9375 736.01953 L 436.25977 736.01953 L 372.50977 736.01953 L 328.67773 736.01953 L 291.08008 736.01953 L 247.25 736.01953 L 222.35156 736.01953 L 192.73438 736.01953 L 178.52148 736.01953 L 157.83984 736.01953 C 144.95038 736.01953 134.57227 746.3957 134.57227 759.28516 C 134.57227 772.17462 144.95038 782.55273 157.83984 782.55273 L 178.52148 782.55273 L 192.73438 782.55273 L 222.35156 782.55273 L 247.25 782.55273 L 291.08008 782.55273 L 328.67773 782.55273 L 372.50977 782.55273 L 436.25977 782.55273 L 453.9375 782.55273 L 471.38477 782.55273 L 501.88477 782.55273 C 502.21151 782.55273 502.5286 782.5198 502.8418 782.47266 C 514.86361 781.53951 524.26758 771.55446 524.26758 759.28516 C 524.26758 759.14958 524.2601 759.01587 524.25781 758.88086 C 524.25923 758.81453 524.26758 758.75028 524.26758 758.68359 L 524.26758 736.28711 L 524.26758 677.08203 L 524.26758 630.80664 L 524.26758 595.6543 L 524.26758 549.37695 L 524.26758 514.22461 C 524.26758 513.71755 524.22335 513.22305 524.1582 512.73438 C 523.02559 500.91658 513.12639 491.73438 501.00195 491.73438 C 500.63256 491.73438 500.26547 491.74486 499.90039 491.76172 C 499.71575 491.74571 499.52877 491.73438 499.33984 491.73438 L 453.9375 491.73438 L 406.08203 491.73438 L 372.50977 491.73438 L 324.65234 491.73438 L 273.63281 491.73438 L 243.22461 491.73438 L 198.55273 491.73438 L 198.55273 454.73828 L 198.55273 403.96875 L 198.55273 349.76172 L 198.55273 334.69531 C 198.55273 321.80585 188.17657 311.42773 175.28711 311.42773 z "
       transform="matrix(0.26458333,0,0,0.26458333,0,32.41665)"
       id="rect850" />
  </g>
</svg>
