<?xml version="1.0" encoding="UTF-8" standalone="no"?>
<!-- Created with Inkscape (http://www.inkscape.org/) -->

<svg
   xmlns:dc="http://purl.org/dc/elements/1.1/"
   xmlns:cc="http://creativecommons.org/ns#"
   xmlns:rdf="http://www.w3.org/1999/02/22-rdf-syntax-ns#"
   xmlns:svg="http://www.w3.org/2000/svg"
   xmlns="http://www.w3.org/2000/svg"
   xmlns:sodipodi="http://sodipodi.sourceforge.net/DTD/sodipodi-0.dtd"
   xmlns:inkscape="http://www.inkscape.org/namespaces/inkscape"
   width="1000"
   height="1000"
   viewBox="0 0 264.58333 264.58334"
   version="1.1"
   id="svg8"
   inkscape:version="0.92.4 (5da689c313, 2019-01-14)"
   sodipodi:docname="s.svg">
  <defs
     id="defs2" />
  <sodipodi:namedview
     id="base"
     pagecolor="#ffffff"
     bordercolor="#666666"
     borderopacity="1.0"
     inkscape:pageopacity="0.0"
     inkscape:pageshadow="2"
     inkscape:zoom="0.98994949"
     inkscape:cx="220.89061"
     inkscape:cy="214.39207"
     inkscape:document-units="mm"
     inkscape:current-layer="layer1"
     showgrid="false"
     units="px"
     inkscape:window-width="1600"
     inkscape:window-height="1149"
     inkscape:window-x="0"
     inkscape:window-y="26"
     inkscape:window-maximized="1"
     showguides="true"
     inkscape:guide-bbox="true">
    <sodipodi:guide
       position="0,52.916667"
       orientation="0,1"
       id="guide29"
       inkscape:locked="false"
       inkscape:label=""
       inkscape:color="rgb(0,0,255)" />
    <sodipodi:guide
       position="57.150382,139.09526"
       orientation="0,1"
       id="guide913"
       inkscape:locked="false" />
    <sodipodi:guide
       position="35.605739,52.916672"
       orientation="1,0"
       id="guide1095"
       inkscape:locked="false" />
    <sodipodi:guide
       position="35.605739,203.7292"
       orientation="0,1"
       id="guide1097"
       inkscape:locked="false" />
    <sodipodi:guide
       position="143.32896,52.916672"
       orientation="1,0"
       id="guide1099"
       inkscape:locked="false" />
    <sodipodi:guide
       position="97.161864,52.916687"
       orientation="1,0"
       id="guide1238"
       inkscape:locked="false" />
    <sodipodi:guide
       position="35.605739,102.16158"
       orientation="0,1"
       id="guide1240"
       inkscape:locked="false" />
  </sodipodi:namedview>
  <metadata
     id="metadata5">
    <rdf:RDF>
      <cc:Work
         rdf:about="">
        <dc:format>image/svg+xml</dc:format>
        <dc:type
           rdf:resource="http://purl.org/dc/dcmitype/StillImage" />
        <dc:title />
      </cc:Work>
    </rdf:RDF>
  </metadata>
  <g
     inkscape:label="Layer 1"
     inkscape:groupmode="layer"
     id="layer1"
     transform="translate(0,-32.41665)">
    <path
       style="fill:#010101;fill-opacity:1;fill-rule:nonzero;stroke:#ffffff;stroke-width:0;stroke-miterlimit:4;stroke-dasharray:none;stroke-opacity:1;paint-order:normal"
       d="M 204.36914 474.28516 C 191.48016 474.28516 181.10352 484.6618 181.10352 497.55078 C 181.10352 510.43976 191.48016 520.81641 204.36914 520.81641 C 205.34311 520.81641 206.30031 520.74987 207.24219 520.63477 C 207.71996 520.74887 208.21676 520.81641 208.73047 520.81641 L 267.81445 520.81641 L 345.15625 520.81641 C 345.60158 520.81641 346.03413 520.77002 346.45312 520.68359 C 358.16104 519.44701 367.22656 509.59715 367.22656 497.55078 C 367.22656 485.50848 358.16702 475.66386 346.46484 474.42188 C 346.0421 474.33382 345.60589 474.28516 345.15625 474.28516 L 267.81445 474.28516 L 208.73047 474.28516 C 208.2161 474.28516 207.71857 474.3524 207.24023 474.4668 C 206.29902 474.35185 205.3424 474.28516 204.36914 474.28516 z M 157.83789 520.81641 C 144.94891 520.81641 134.57227 531.19305 134.57227 544.08203 C 134.57227 544.69418 134.60442 545.29846 134.65039 545.89844 C 134.60292 546.40585 134.57227 546.91922 134.57227 547.43945 L 134.57227 633.78516 C 134.57227 634.30539 134.60292 634.81875 134.65039 635.32617 C 134.60442 635.92615 134.57227 636.53043 134.57227 637.14258 C 134.57227 650.03156 144.94891 660.4082 157.83789 660.4082 C 158.0252 660.4082 158.21026 660.39889 158.39648 660.39453 C 158.48573 660.39822 158.57388 660.4082 158.66406 660.4082 L 221.28516 660.4082 L 303.92773 660.4082 L 320.69531 660.4082 L 320.69531 695.9375 L 320.69531 753.46875 L 291.04883 753.46875 L 221.28516 753.46875 L 155.88477 753.46875 C 155.1568 753.46875 154.4627 753.59677 153.8125 753.82031 C 142.85654 755.7174 134.57227 765.2198 134.57227 776.73438 C 134.57227 788.24895 142.85654 797.75135 153.8125 799.64844 C 154.4627 799.87198 155.1568 800 155.88477 800 L 221.28516 800 L 291.04883 800 L 342.63086 800 C 342.7761 800 342.9178 799.98802 343.06055 799.97852 C 343.35961 799.9898 343.65902 800 343.96094 800 C 356.84992 800 367.22656 789.62336 367.22656 776.73438 C 367.22656 776.04715 367.19062 775.36902 367.13281 774.69727 C 367.19243 774.13161 367.22656 773.55657 367.22656 772.97461 L 367.22656 687.17969 L 367.22656 637.31641 C 367.22656 637.29658 367.22276 637.27761 367.22266 637.25781 C 367.22284 637.21921 367.22656 637.18123 367.22656 637.14258 C 367.22656 624.2536 356.84992 613.87695 343.96094 613.87695 C 343.55485 613.87695 343.15085 613.88785 342.75 613.9082 C 342.54415 613.88824 342.33626 613.87695 342.125 613.87695 L 303.92773 613.87695 L 221.28516 613.87695 L 181.10352 613.87695 L 181.10352 547.43945 C 181.10352 546.92451 181.07387 546.41646 181.02734 545.91406 C 181.0741 545.30902 181.10352 544.69947 181.10352 544.08203 C 181.10352 531.19305 170.72687 520.81641 157.83789 520.81641 z "
       transform="matrix(0.26458333,0,0,0.26458333,0,32.41665)"
       id="rect59" />
  </g>
</svg>
