<?xml version="1.0" encoding="UTF-8" standalone="no"?>
<!-- Created with Inkscape (http://www.inkscape.org/) -->

<svg
   xmlns:dc="http://purl.org/dc/elements/1.1/"
   xmlns:cc="http://creativecommons.org/ns#"
   xmlns:rdf="http://www.w3.org/1999/02/22-rdf-syntax-ns#"
   xmlns:svg="http://www.w3.org/2000/svg"
   xmlns="http://www.w3.org/2000/svg"
   xmlns:sodipodi="http://sodipodi.sourceforge.net/DTD/sodipodi-0.dtd"
   xmlns:inkscape="http://www.inkscape.org/namespaces/inkscape"
   width="1000"
   height="1000"
   viewBox="0 0 264.58333 264.58334"
   version="1.1"
   id="svg8"
   inkscape:version="0.92.4 (5da689c313, 2019-01-14)"
   sodipodi:docname="t.svg">
  <defs
     id="defs2" />
  <sodipodi:namedview
     id="base"
     pagecolor="#ffffff"
     bordercolor="#666666"
     borderopacity="1.0"
     inkscape:pageopacity="0.0"
     inkscape:pageshadow="2"
     inkscape:zoom="0.98994949"
     inkscape:cx="251.50376"
     inkscape:cy="369.21798"
     inkscape:document-units="mm"
     inkscape:current-layer="layer1"
     showgrid="false"
     units="px"
     inkscape:window-width="1600"
     inkscape:window-height="1149"
     inkscape:window-x="0"
     inkscape:window-y="26"
     inkscape:window-maximized="1"
     showguides="true"
     inkscape:guide-bbox="true">
    <sodipodi:guide
       position="0,52.916667"
       orientation="0,1"
       id="guide29"
       inkscape:locked="false"
       inkscape:label=""
       inkscape:color="rgb(0,0,255)" />
    <sodipodi:guide
       position="57.150382,139.09526"
       orientation="0,1"
       id="guide913"
       inkscape:locked="false" />
    <sodipodi:guide
       position="35.605739,52.916672"
       orientation="1,0"
       id="guide1095"
       inkscape:locked="false" />
    <sodipodi:guide
       position="35.605739,203.7292"
       orientation="0,1"
       id="guide1097"
       inkscape:locked="false" />
    <sodipodi:guide
       position="143.32896,52.916672"
       orientation="1,0"
       id="guide1099"
       inkscape:locked="false" />
    <sodipodi:guide
       position="97.161864,52.916687"
       orientation="1,0"
       id="guide1238"
       inkscape:locked="false" />
    <sodipodi:guide
       position="35.605739,102.16158"
       orientation="0,1"
       id="guide1240"
       inkscape:locked="false" />
  </sodipodi:namedview>
  <metadata
     id="metadata5">
    <rdf:RDF>
      <cc:Work
         rdf:about="">
        <dc:format>image/svg+xml</dc:format>
        <dc:type
           rdf:resource="http://purl.org/dc/dcmitype/StillImage" />
        <dc:title />
      </cc:Work>
    </rdf:RDF>
  </metadata>
  <g
     inkscape:label="Layer 1"
     inkscape:groupmode="layer"
     id="layer1"
     transform="translate(0,-32.41665)">
    <path
       style="fill:#010101;fill-opacity:1;fill-rule:nonzero;stroke:#ffffff;stroke-width:0;stroke-miterlimit:4;stroke-dasharray:none;stroke-opacity:1;paint-order:normal"
       d="M 204.36914 241.63281 C 191.48016 241.63281 181.10352 252.00946 181.10352 264.89844 C 181.10352 265.59365 181.13812 266.27963 181.19727 266.95898 C 181.14164 267.39832 181.10352 267.84391 181.10352 268.29883 L 181.10352 324.20117 L 181.10352 370.43945 C 181.10352 370.60638 181.12148 370.76856 181.12891 370.93359 C 181.12275 371.0949 181.10352 371.25315 181.10352 371.41602 L 181.10352 437.56445 L 181.10352 474.28516 L 161.18945 474.28516 C 160.79876 474.28516 160.41771 474.32565 160.04688 474.39258 C 159.31949 474.32463 158.58362 474.28516 157.83789 474.28516 C 144.94891 474.28516 134.57227 484.6618 134.57227 497.55078 C 134.57227 510.43976 144.94891 520.81641 157.83789 520.81641 C 158.58627 520.81641 159.32479 520.77936 160.05469 520.71094 C 160.42306 520.77694 160.80153 520.81641 161.18945 520.81641 L 181.10352 520.81641 L 181.10352 576.05469 L 181.10352 607.52734 L 181.10352 672.83398 L 181.10352 727.84961 C 181.10352 728.16317 181.12412 728.47081 181.15039 728.77734 C 181.12204 729.24974 181.10352 729.72336 181.10352 730.20312 C 181.10352 743.09211 191.48016 753.46875 204.36914 753.46875 C 217.25812 753.46875 227.63477 743.09211 227.63477 730.20312 C 227.63477 729.72869 227.61562 729.2602 227.58789 728.79297 C 227.61505 728.48142 227.63477 728.16844 227.63477 727.84961 L 227.63477 671.06445 L 227.63477 601.45117 L 227.63477 573.69727 L 227.63477 520.81641 L 296.47852 520.81641 C 296.58217 520.81641 296.68275 520.80564 296.78516 520.80078 C 296.99983 520.80658 297.21356 520.81641 297.42969 520.81641 C 310.31867 520.81641 320.69531 510.43976 320.69531 497.55078 C 320.69531 484.6618 310.31867 474.28516 297.42969 474.28516 C 297.21815 474.28516 297.00897 474.29523 296.79883 474.30078 C 296.69193 474.29548 296.58678 474.28516 296.47852 474.28516 L 227.63477 474.28516 L 227.63477 415.33008 L 227.63477 371.41602 C 227.63477 371.24987 227.61578 371.08835 227.60938 370.92383 C 227.61652 370.76203 227.63477 370.60308 227.63477 370.43945 L 227.63477 312.97852 L 227.63477 268.29883 C 227.63477 267.84116 227.59535 267.39306 227.53906 266.95117 C 227.59776 266.27434 227.63477 265.591 227.63477 264.89844 C 227.63477 252.00946 217.25812 241.63281 204.36914 241.63281 z M 250.89844 753.46875 C 238.00946 753.46875 227.63477 763.84539 227.63477 776.73438 C 227.63477 789.62336 238.00946 800 250.89844 800 C 263.78742 800 274.16406 789.62336 274.16406 776.73438 C 274.16406 763.84539 263.78742 753.46875 250.89844 753.46875 z "
       transform="matrix(0.26458333,0,0,0.26458333,0,32.41665)"
       id="rect1199" />
  </g>
</svg>
