<?xml version="1.0" encoding="UTF-8" standalone="no"?>
<!-- Created with Inkscape (http://www.inkscape.org/) -->

<svg
   xmlns:dc="http://purl.org/dc/elements/1.1/"
   xmlns:cc="http://creativecommons.org/ns#"
   xmlns:rdf="http://www.w3.org/1999/02/22-rdf-syntax-ns#"
   xmlns:svg="http://www.w3.org/2000/svg"
   xmlns="http://www.w3.org/2000/svg"
   xmlns:sodipodi="http://sodipodi.sourceforge.net/DTD/sodipodi-0.dtd"
   xmlns:inkscape="http://www.inkscape.org/namespaces/inkscape"
   width="1000"
   height="1000"
   viewBox="0 0 264.58333 264.58334"
   version="1.1"
   id="svg8"
   inkscape:version="0.92.4 (5da689c313, 2019-01-14)"
   sodipodi:docname="U.svg">
  <defs
     id="defs2" />
  <sodipodi:namedview
     id="base"
     pagecolor="#ffffff"
     bordercolor="#666666"
     borderopacity="1.0"
     inkscape:pageopacity="0.0"
     inkscape:pageshadow="2"
     inkscape:zoom="0.7"
     inkscape:cx="222.75977"
     inkscape:cy="636.42773"
     inkscape:document-units="mm"
     inkscape:current-layer="layer1"
     showgrid="false"
     units="px"
     inkscape:window-width="1600"
     inkscape:window-height="1149"
     inkscape:window-x="0"
     inkscape:window-y="26"
     inkscape:window-maximized="1"
     showguides="true"
     inkscape:guide-bbox="true">
    <sodipodi:guide
       position="0,52.916667"
       orientation="0,1"
       id="guide29"
       inkscape:locked="false"
       inkscape:label=""
       inkscape:color="rgb(0,0,255)" />
    <sodipodi:guide
       position="57.150382,139.09526"
       orientation="0,1"
       id="guide913"
       inkscape:locked="false" />
    <sodipodi:guide
       position="35.605739,52.916672"
       orientation="1,0"
       id="guide1095"
       inkscape:locked="false" />
    <sodipodi:guide
       position="35.605739,203.7292"
       orientation="0,1"
       id="guide1097"
       inkscape:locked="false" />
    <sodipodi:guide
       position="143.32896,52.916672"
       orientation="1,0"
       id="guide1099"
       inkscape:locked="false" />
  </sodipodi:namedview>
  <metadata
     id="metadata5">
    <rdf:RDF>
      <cc:Work
         rdf:about="">
        <dc:format>image/svg+xml</dc:format>
        <dc:type
           rdf:resource="http://purl.org/dc/dcmitype/StillImage" />
        <dc:title />
      </cc:Work>
    </rdf:RDF>
  </metadata>
  <g
     inkscape:label="Layer 1"
     inkscape:groupmode="layer"
     id="layer1"
     transform="translate(0,-32.41665)">
    <path
       style="fill:#010101;fill-opacity:1;fill-rule:nonzero;stroke:#ffffff;stroke-width:0;stroke-miterlimit:4;stroke-dasharray:none;stroke-opacity:1;paint-order:normal"
       d="M 175.28711 230 C 162.39765 230 152.02148 240.37617 152.02148 253.26562 L 152.02148 288.16211 L 152.02148 335.31641 L 152.02148 358.17383 L 152.02148 416.74609 L 152.02148 463.17383 L 152.02148 484.95898 C 152.02148 485.03278 152.03179 485.10429 152.0332 485.17773 C 152.03178 485.25131 152.02148 485.32256 152.02148 485.39648 L 152.02148 544.60156 L 152.02148 583.17383 L 152.02148 626.03125 L 152.02148 664.60156 L 152.02148 695.30469 C 152.02148 708.19415 162.39765 718.57227 175.28711 718.57227 C 188.17657 718.57227 198.55273 708.19415 198.55273 695.30469 L 198.55273 660.4082 L 198.55273 605.39648 L 198.55273 566.82617 L 198.55273 523.96875 L 198.55273 485.39648 C 198.55273 485.32256 198.54244 485.25131 198.54102 485.17773 C 198.54243 485.10429 198.55273 485.03278 198.55273 484.95898 L 198.55273 425.75391 L 198.55273 403.96875 L 198.55273 357.54102 L 198.55273 298.96875 L 198.55273 276.11133 L 198.55273 253.26562 C 198.55273 240.37617 188.17657 230 175.28711 230 z M 501.00195 230 C 488.11249 230 477.73438 240.37617 477.73438 253.26562 L 477.73438 288.16211 C 477.73438 288.63602 477.75359 289.10554 477.78125 289.57227 C 477.75678 289.8746 477.73438 290.17748 477.73438 290.48633 L 477.73438 322.54102 L 477.73438 349.69141 L 477.73438 381.74609 L 477.73438 431.12109 L 477.73438 463.17383 L 477.73438 512.54883 L 477.73438 544.60156 L 477.73438 593.97656 L 477.73438 626.03125 L 477.73438 675.40625 L 477.73438 724.9082 L 477.73438 736.01953 L 453.9375 736.01953 L 418.8457 736.01953 L 372.50977 736.01953 L 337.41797 736.01953 L 274.16406 736.01953 L 239.26758 736.01953 C 226.37812 736.01953 216.00195 746.3957 216.00195 759.28516 C 216.00195 772.17462 226.37812 782.55273 239.26758 782.55273 L 274.16406 782.55273 L 337.41797 782.55273 L 372.50977 782.55273 L 418.8457 782.55273 L 453.9375 782.55273 L 500.27539 782.55273 C 500.35857 782.55273 500.4391 782.54415 500.52148 782.54102 C 500.6818 782.54424 500.84084 782.55273 501.00195 782.55273 C 513.89141 782.55273 524.26758 772.17462 524.26758 759.28516 C 524.26758 758.7933 524.24853 758.30636 524.21875 757.82227 C 524.24722 757.49655 524.26758 757.16734 524.26758 756.83398 L 524.26758 697.62891 L 524.26758 665.70312 L 524.26758 616.20117 L 524.26758 566.82617 L 524.26758 534.77148 L 524.26758 485.39648 L 524.26758 453.34375 L 524.26758 403.96875 L 524.26758 371.91602 L 524.26758 349.69141 L 524.26758 322.54102 L 524.26758 290.48633 C 524.26758 290.17815 524.24703 289.87591 524.22266 289.57422 C 524.2504 289.10685 524.26758 288.63668 524.26758 288.16211 L 524.26758 253.26562 C 524.26758 240.37617 513.89141 230 501.00195 230 z "
       transform="matrix(0.26458333,0,0,0.26458333,0,32.41665)"
       id="rect850" />
  </g>
</svg>
