<?xml version="1.0" encoding="UTF-8" standalone="no"?>
<!-- Created with Inkscape (http://www.inkscape.org/) -->

<svg
   xmlns:dc="http://purl.org/dc/elements/1.1/"
   xmlns:cc="http://creativecommons.org/ns#"
   xmlns:rdf="http://www.w3.org/1999/02/22-rdf-syntax-ns#"
   xmlns:svg="http://www.w3.org/2000/svg"
   xmlns="http://www.w3.org/2000/svg"
   xmlns:sodipodi="http://sodipodi.sourceforge.net/DTD/sodipodi-0.dtd"
   xmlns:inkscape="http://www.inkscape.org/namespaces/inkscape"
   width="1000"
   height="1000"
   viewBox="0 0 264.58333 264.58334"
   version="1.1"
   id="svg8"
   inkscape:version="0.92.4 (5da689c313, 2019-01-14)"
   sodipodi:docname="U.svg">
  <defs
     id="defs2" />
  <sodipodi:namedview
     id="base"
     pagecolor="#ffffff"
     bordercolor="#666666"
     borderopacity="1.0"
     inkscape:pageopacity="0.0"
     inkscape:pageshadow="2"
     inkscape:zoom="0.7"
     inkscape:cx="238.19136"
     inkscape:cy="441.75114"
     inkscape:document-units="mm"
     inkscape:current-layer="layer1"
     showgrid="false"
     units="px"
     inkscape:window-width="1600"
     inkscape:window-height="1149"
     inkscape:window-x="0"
     inkscape:window-y="26"
     inkscape:window-maximized="1"
     showguides="true"
     inkscape:guide-bbox="true">
    <sodipodi:guide
       position="0,52.916667"
       orientation="0,1"
       id="guide29"
       inkscape:locked="false"
       inkscape:label=""
       inkscape:color="rgb(0,0,255)" />
    <sodipodi:guide
       position="57.150382,139.09526"
       orientation="0,1"
       id="guide913"
       inkscape:locked="false" />
    <sodipodi:guide
       position="35.605739,52.916672"
       orientation="1,0"
       id="guide1095"
       inkscape:locked="false" />
    <sodipodi:guide
       position="35.605739,203.7292"
       orientation="0,1"
       id="guide1097"
       inkscape:locked="false" />
    <sodipodi:guide
       position="143.32896,52.916672"
       orientation="1,0"
       id="guide1099"
       inkscape:locked="false" />
  </sodipodi:namedview>
  <metadata
     id="metadata5">
    <rdf:RDF>
      <cc:Work
         rdf:about="">
        <dc:format>image/svg+xml</dc:format>
        <dc:type
           rdf:resource="http://purl.org/dc/dcmitype/StillImage" />
        <dc:title />
      </cc:Work>
    </rdf:RDF>
  </metadata>
  <g
     inkscape:label="Layer 1"
     inkscape:groupmode="layer"
     id="layer1"
     transform="translate(0,-32.41665)">
    <path
       style="fill:#010101;fill-opacity:1;fill-rule:nonzero;stroke:#ffffff;stroke-width:0;stroke-miterlimit:4;stroke-dasharray:none;stroke-opacity:1;paint-order:normal"
       d="M 175.28711 230 C 152.7314 230 134.57227 248.15913 134.57227 270.71484 C 134.57227 271.22516 134.5929 271.73067 134.61133 272.23633 C 134.58708 272.72859 134.57227 273.22417 134.57227 273.72266 L 134.57227 430.56445 L 134.57227 499.52734 L 134.57227 544.60156 L 134.57227 673.77148 C 134.57227 674.38829 134.59919 674.99844 134.63672 675.60547 C 134.59644 676.3511 134.57227 677.1014 134.57227 677.85742 C 134.57227 700.41313 152.7314 718.57227 175.28711 718.57227 C 197.84282 718.57227 216.00195 700.41313 216.00195 677.85742 C 216.00195 677.10073 215.97785 676.34979 215.9375 675.60352 C 215.97495 674.99712 216.00195 674.38763 216.00195 673.77148 L 216.00195 519.08594 L 216.00195 485.39648 L 216.00195 367.61523 L 216.00195 273.72266 C 216.00195 273.22417 215.98714 272.72859 215.96289 272.23633 C 215.98132 271.73067 216.00195 271.22516 216.00195 270.71484 C 216.00195 248.15913 197.84282 230 175.28711 230 z M 501.00195 230 C 478.44624 230 460.28711 248.15913 460.28711 270.71484 C 460.28711 271.22516 460.30774 271.73067 460.32617 272.23633 C 460.30192 272.72859 460.28711 273.22417 460.28711 273.72266 L 460.28711 430.56445 L 460.28711 463.17383 L 460.28711 582.77344 L 460.28711 626.03125 L 460.28711 718.57227 L 416.31836 718.57227 L 259.9707 718.57227 C 259.59388 718.57227 259.22048 718.59067 258.85352 718.62695 C 258.1454 718.59065 257.4323 718.57227 256.71484 718.57227 C 234.15913 718.57227 216.00195 736.72945 216.00195 759.28516 C 216.00195 781.84087 234.15913 800 256.71484 800 C 257.4323 800 258.1454 799.98161 258.85352 799.94531 C 259.22048 799.98159 259.59388 800 259.9707 800 L 416.31836 800 L 500.60352 800 C 500.6483 800 500.69167 799.99466 500.73633 799.99414 C 500.82527 799.99471 500.91287 800 501.00195 800 C 523.55766 800 541.71484 781.84087 541.71484 759.28516 C 541.71484 759.08535 541.70206 758.88856 541.69922 758.68945 C 541.70303 758.49125 541.71484 758.29485 541.71484 758.0957 L 541.71484 597.61914 L 541.71484 566.82617 L 541.71484 447.22461 L 541.71484 403.96875 L 541.71484 273.72266 C 541.71484 273.21304 541.70307 272.70623 541.67773 272.20312 C 541.69537 271.70841 541.71484 271.21401 541.71484 270.71484 C 541.71484 248.15913 523.55766 230 501.00195 230 z "
       transform="matrix(0.26458333,0,0,0.26458333,0,32.41665)"
       id="rect850" />
  </g>
</svg>
