<?xml version="1.0" encoding="UTF-8" standalone="no"?>
<!-- Created with Inkscape (http://www.inkscape.org/) -->

<svg
   xmlns:dc="http://purl.org/dc/elements/1.1/"
   xmlns:cc="http://creativecommons.org/ns#"
   xmlns:rdf="http://www.w3.org/1999/02/22-rdf-syntax-ns#"
   xmlns:svg="http://www.w3.org/2000/svg"
   xmlns="http://www.w3.org/2000/svg"
   xmlns:sodipodi="http://sodipodi.sourceforge.net/DTD/sodipodi-0.dtd"
   xmlns:inkscape="http://www.inkscape.org/namespaces/inkscape"
   width="1000"
   height="1000"
   viewBox="0 0 264.58333 264.58334"
   version="1.1"
   id="svg8"
   inkscape:version="0.92.4 (5da689c313, 2019-01-14)"
   sodipodi:docname="u.svg">
  <defs
     id="defs2" />
  <sodipodi:namedview
     id="base"
     pagecolor="#ffffff"
     bordercolor="#666666"
     borderopacity="1.0"
     inkscape:pageopacity="0.0"
     inkscape:pageshadow="2"
     inkscape:zoom="0.49497475"
     inkscape:cx="156.59561"
     inkscape:cy="226.74386"
     inkscape:document-units="mm"
     inkscape:current-layer="layer1"
     showgrid="false"
     units="px"
     inkscape:window-width="1600"
     inkscape:window-height="1149"
     inkscape:window-x="0"
     inkscape:window-y="26"
     inkscape:window-maximized="1"
     showguides="true"
     inkscape:guide-bbox="true">
    <sodipodi:guide
       position="0,52.916667"
       orientation="0,1"
       id="guide29"
       inkscape:locked="false"
       inkscape:label=""
       inkscape:color="rgb(0,0,255)" />
    <sodipodi:guide
       position="57.150382,139.09526"
       orientation="0,1"
       id="guide913"
       inkscape:locked="false" />
    <sodipodi:guide
       position="35.605739,52.916672"
       orientation="1,0"
       id="guide1095"
       inkscape:locked="false" />
    <sodipodi:guide
       position="35.605739,203.7292"
       orientation="0,1"
       id="guide1097"
       inkscape:locked="false" />
    <sodipodi:guide
       position="143.32896,52.916672"
       orientation="1,0"
       id="guide1099"
       inkscape:locked="false" />
    <sodipodi:guide
       position="97.161864,52.916687"
       orientation="1,0"
       id="guide1238"
       inkscape:locked="false" />
    <sodipodi:guide
       position="35.605739,102.16158"
       orientation="0,1"
       id="guide1240"
       inkscape:locked="false" />
  </sodipodi:namedview>
  <metadata
     id="metadata5">
    <rdf:RDF>
      <cc:Work
         rdf:about="">
        <dc:format>image/svg+xml</dc:format>
        <dc:type
           rdf:resource="http://purl.org/dc/dcmitype/StillImage" />
        <dc:title />
      </cc:Work>
    </rdf:RDF>
  </metadata>
  <g
     inkscape:label="Layer 1"
     inkscape:groupmode="layer"
     id="layer1"
     transform="translate(0,-32.41665)">
    <path
       style="fill:#010101;fill-opacity:1;fill-rule:nonzero;stroke:#ffffff;stroke-width:0;stroke-miterlimit:4;stroke-dasharray:none;stroke-opacity:1;paint-order:normal"
       d="M 157.83789 474.28516 C 144.94891 474.28516 134.57227 484.6618 134.57227 497.55078 C 134.57227 498.62036 134.65065 499.67069 134.78906 500.70117 C 134.64833 501.37862 134.57227 502.08038 134.57227 502.80078 L 134.57227 557.14648 L 134.57227 573.69727 L 134.57227 607.52734 L 134.57227 691.00391 L 134.57227 725.26172 C 134.57227 725.93806 134.64176 726.59726 134.76562 727.23633 C 134.6428 728.20851 134.57227 729.1985 134.57227 730.20508 C 134.57227 743.09406 144.94891 753.46875 157.83789 753.46875 C 170.72687 753.46875 181.10352 743.09406 181.10352 730.20508 C 181.10352 729.19912 181.03283 728.20989 180.91016 727.23828 C 181.0343 726.59854 181.10352 725.93881 181.10352 725.26172 L 181.10352 670.65625 L 181.10352 607.52734 L 181.10352 573.69727 L 181.10352 533.7832 L 181.10352 502.80078 C 181.10352 502.08104 181.0272 501.38 180.88672 500.70312 C 181.02531 499.67201 181.10352 498.62105 181.10352 497.55078 C 181.10352 484.6618 170.72687 474.28516 157.83789 474.28516 z M 343.96094 474.28516 C 331.07196 474.28516 320.69531 484.6618 320.69531 497.55078 C 320.69531 498.76534 320.7891 499.95774 320.9668 501.12109 C 320.796 501.85975 320.69531 502.62593 320.69531 503.41797 L 320.69531 557.24414 L 320.69531 666.75781 L 320.69531 700.58984 L 320.69531 732.64648 L 320.69531 753.46875 L 267.81445 753.46875 L 206.12695 753.46875 C 205.92686 753.46875 205.72846 753.48012 205.5332 753.49805 C 205.1477 753.47923 204.75947 753.46875 204.36914 753.46875 C 191.48016 753.46875 181.10352 763.84539 181.10352 776.73438 C 181.10352 789.62336 191.48016 800 204.36914 800 C 204.76734 800 205.16347 799.99028 205.55664 799.9707 C 205.56113 799.9711 205.56582 799.97032 205.57031 799.9707 C 205.7537 799.98649 205.93934 800 206.12695 800 L 267.81445 800 L 340.77344 800 C 341.14233 800 341.50218 799.96216 341.85352 799.90234 C 342.54806 799.9642 343.24977 800 343.96094 800 C 356.84992 800 367.22656 789.62336 367.22656 776.73438 C 367.22656 776.45865 367.2145 776.18546 367.20508 775.91211 C 367.21039 775.77213 367.22656 775.63547 367.22656 775.49414 L 367.22656 717.77148 L 367.22656 700.58984 L 367.22656 666.75781 L 367.22656 541.63867 L 367.22656 503.41797 C 367.22656 502.62593 367.12588 501.85975 366.95508 501.12109 C 367.13278 499.95774 367.22656 498.76534 367.22656 497.55078 C 367.22656 484.6618 356.84992 474.28516 343.96094 474.28516 z "
       transform="matrix(0.26458333,0,0,0.26458333,0,32.41665)"
       id="rect1199" />
  </g>
</svg>
