<?xml version="1.0" encoding="UTF-8" standalone="no"?>
<!-- Created with Inkscape (http://www.inkscape.org/) -->

<svg
   xmlns:dc="http://purl.org/dc/elements/1.1/"
   xmlns:cc="http://creativecommons.org/ns#"
   xmlns:rdf="http://www.w3.org/1999/02/22-rdf-syntax-ns#"
   xmlns:svg="http://www.w3.org/2000/svg"
   xmlns="http://www.w3.org/2000/svg"
   xmlns:sodipodi="http://sodipodi.sourceforge.net/DTD/sodipodi-0.dtd"
   xmlns:inkscape="http://www.inkscape.org/namespaces/inkscape"
   width="1000"
   height="1000"
   viewBox="0 0 264.58333 264.58334"
   version="1.1"
   id="svg8"
   inkscape:version="0.92.4 (5da689c313, 2019-01-14)"
   sodipodi:docname="V.svg">
  <defs
     id="defs2" />
  <sodipodi:namedview
     id="base"
     pagecolor="#ffffff"
     bordercolor="#666666"
     borderopacity="1.0"
     inkscape:pageopacity="0.0"
     inkscape:pageshadow="2"
     inkscape:zoom="0.98994949"
     inkscape:cx="251.72505"
     inkscape:cy="460.97853"
     inkscape:document-units="mm"
     inkscape:current-layer="layer1"
     showgrid="false"
     units="px"
     inkscape:window-width="1600"
     inkscape:window-height="1149"
     inkscape:window-x="0"
     inkscape:window-y="26"
     inkscape:window-maximized="1"
     showguides="true"
     inkscape:guide-bbox="true">
    <sodipodi:guide
       position="0,52.916667"
       orientation="0,1"
       id="guide29"
       inkscape:locked="false"
       inkscape:label=""
       inkscape:color="rgb(0,0,255)" />
    <sodipodi:guide
       position="57.150382,139.09526"
       orientation="0,1"
       id="guide913"
       inkscape:locked="false" />
    <sodipodi:guide
       position="35.605739,52.916672"
       orientation="1,0"
       id="guide1095"
       inkscape:locked="false" />
    <sodipodi:guide
       position="35.605739,203.7292"
       orientation="0,1"
       id="guide1097"
       inkscape:locked="false" />
    <sodipodi:guide
       position="143.32896,52.916672"
       orientation="1,0"
       id="guide1099"
       inkscape:locked="false" />
  </sodipodi:namedview>
  <metadata
     id="metadata5">
    <rdf:RDF>
      <cc:Work
         rdf:about="">
        <dc:format>image/svg+xml</dc:format>
        <dc:type
           rdf:resource="http://purl.org/dc/dcmitype/StillImage" />
        <dc:title />
      </cc:Work>
    </rdf:RDF>
  </metadata>
  <g
     inkscape:label="Layer 1"
     inkscape:groupmode="layer"
     id="layer1"
     transform="translate(0,-32.41665)">
    <path
       style="fill:#010101;fill-opacity:1;fill-rule:nonzero;stroke:#ffffff;stroke-width:0;stroke-miterlimit:4;stroke-dasharray:none;stroke-opacity:1;paint-order:normal"
       d="M 145.68359 230 C 139.52772 230 134.57227 234.95546 134.57227 241.11133 L 134.57227 300.31641 L 134.57227 322.54102 L 134.57227 381.74609 L 134.57227 512.17969 L 134.57227 544.60156 C 134.57227 550.75743 139.52772 555.71484 145.68359 555.71484 L 204.89062 555.71484 C 211.04649 555.71484 216.00195 550.75743 216.00195 544.60156 L 216.00195 485.39648 L 216.00195 381.74609 L 216.00195 322.54102 L 216.00195 280.21289 L 216.00195 241.11133 C 216.00195 234.95546 211.04649 230 204.89062 230 L 145.68359 230 z M 471.39844 311.42773 C 465.24257 311.42773 460.28711 316.38515 460.28711 322.54102 L 460.28711 381.74609 L 460.28711 522.37891 L 460.28711 544.60156 C 460.28711 550.75743 465.24257 555.71484 471.39844 555.71484 L 530.60352 555.71484 C 536.75939 555.71484 541.71484 550.75743 541.71484 544.60156 L 541.71484 485.39648 L 541.71484 344.76367 L 541.71484 322.54102 C 541.71484 316.38515 536.75939 311.42773 530.60352 311.42773 L 471.39844 311.42773 z M 227.11328 555.71484 C 220.95741 555.71484 216.00195 560.6703 216.00195 566.82617 L 216.00195 626.03125 L 216.00195 696.34766 L 216.00195 707.45898 C 216.00195 713.61485 220.95741 718.57227 227.11328 718.57227 L 286.31836 718.57227 C 292.47423 718.57227 297.42969 713.61485 297.42969 707.45898 L 297.42969 648.25391 L 297.42969 577.9375 L 297.42969 566.82617 C 297.42969 560.6703 292.47423 555.71484 286.31836 555.71484 L 227.11328 555.71484 z M 389.9707 555.71484 C 383.81483 555.71484 378.85938 560.6703 378.85938 566.82617 L 378.85938 577.9375 L 378.85938 626.03125 L 378.85938 648.25391 L 378.85938 696.34766 L 378.85938 707.45898 C 378.85938 713.61485 383.81483 718.57227 389.9707 718.57227 L 401.08203 718.57227 L 438.06445 718.57227 L 449.17578 718.57227 C 455.33165 718.57227 460.28711 713.61485 460.28711 707.45898 L 460.28711 696.34766 L 460.28711 648.25391 L 460.28711 626.03125 L 460.28711 577.9375 L 460.28711 566.82617 C 460.28711 560.6703 455.33165 555.71484 449.17578 555.71484 L 438.06445 555.71484 L 401.08203 555.71484 L 389.9707 555.71484 z M 308.54102 718.57227 C 302.38515 718.57227 297.42969 723.52772 297.42969 729.68359 L 297.42969 788.88867 C 297.42969 795.04454 302.38515 800 308.54102 800 L 367.74609 800 C 373.90196 800 378.85938 795.04454 378.85938 788.88867 L 378.85938 729.68359 C 378.85937 723.52772 373.90196 718.57227 367.74609 718.57227 L 308.54102 718.57227 z "
       transform="matrix(0.26458333,0,0,0.26458333,0,32.41665)"
       id="rect846" />
  </g>
</svg>
