<?xml version="1.0" encoding="UTF-8" standalone="no"?>
<!-- Created with Inkscape (http://www.inkscape.org/) -->

<svg
   xmlns:dc="http://purl.org/dc/elements/1.1/"
   xmlns:cc="http://creativecommons.org/ns#"
   xmlns:rdf="http://www.w3.org/1999/02/22-rdf-syntax-ns#"
   xmlns:svg="http://www.w3.org/2000/svg"
   xmlns="http://www.w3.org/2000/svg"
   xmlns:sodipodi="http://sodipodi.sourceforge.net/DTD/sodipodi-0.dtd"
   xmlns:inkscape="http://www.inkscape.org/namespaces/inkscape"
   width="1000"
   height="1000"
   viewBox="0 0 264.58333 264.58334"
   version="1.1"
   id="svg8"
   inkscape:version="0.92.4 (5da689c313, 2019-01-14)"
   sodipodi:docname="V.svg">
  <defs
     id="defs2" />
  <sodipodi:namedview
     id="base"
     pagecolor="#ffffff"
     bordercolor="#666666"
     borderopacity="1.0"
     inkscape:pageopacity="0.0"
     inkscape:pageshadow="2"
     inkscape:zoom="0.49497475"
     inkscape:cx="606.49073"
     inkscape:cy="813.18335"
     inkscape:document-units="mm"
     inkscape:current-layer="layer1"
     showgrid="false"
     units="px"
     inkscape:window-width="1600"
     inkscape:window-height="1149"
     inkscape:window-x="0"
     inkscape:window-y="26"
     inkscape:window-maximized="1"
     showguides="true"
     inkscape:guide-bbox="true">
    <sodipodi:guide
       position="0,52.916667"
       orientation="0,1"
       id="guide29"
       inkscape:locked="false"
       inkscape:label=""
       inkscape:color="rgb(0,0,255)" />
    <sodipodi:guide
       position="57.150382,139.09526"
       orientation="0,1"
       id="guide913"
       inkscape:locked="false" />
    <sodipodi:guide
       position="35.605739,52.916672"
       orientation="1,0"
       id="guide1095"
       inkscape:locked="false" />
    <sodipodi:guide
       position="35.605739,203.7292"
       orientation="0,1"
       id="guide1097"
       inkscape:locked="false" />
    <sodipodi:guide
       position="143.32896,52.916672"
       orientation="1,0"
       id="guide1099"
       inkscape:locked="false" />
  </sodipodi:namedview>
  <metadata
     id="metadata5">
    <rdf:RDF>
      <cc:Work
         rdf:about="">
        <dc:format>image/svg+xml</dc:format>
        <dc:type
           rdf:resource="http://purl.org/dc/dcmitype/StillImage" />
        <dc:title />
      </cc:Work>
    </rdf:RDF>
  </metadata>
  <g
     inkscape:label="Layer 1"
     inkscape:groupmode="layer"
     id="layer1"
     transform="translate(0,-32.41665)">
    <path
       style="fill:#010101;fill-opacity:1;fill-rule:nonzero;stroke:#ffffff;stroke-width:0;stroke-miterlimit:4;stroke-dasharray:none;stroke-opacity:1;paint-order:normal"
       d="M 175.28711 230 C 162.39765 230 152.02148 240.37617 152.02148 253.26562 L 152.02148 288.16211 L 152.02148 339.36523 L 152.02148 386.50781 L 152.02148 420.79297 L 152.02148 467.93555 L 152.02148 502.2207 L 152.02148 532.44727 C 152.02148 545.33672 162.39765 555.71484 175.28711 555.71484 C 188.17657 555.71484 198.55273 545.33672 198.55273 532.44727 L 198.55273 497.55273 L 198.55273 433.49219 L 198.55273 399.20703 L 198.55273 352.06445 L 198.55273 317.77734 L 198.55273 270.63477 L 198.55273 253.26562 C 198.55273 240.37617 188.17657 230 175.28711 230 z M 501.00195 311.42773 C 488.11249 311.42773 477.73438 321.80585 477.73438 334.69531 L 477.73438 369.5918 L 477.73438 411.50781 L 477.73438 424.20703 L 477.73438 467.93555 L 477.73438 492.93555 C 477.73438 493.48023 477.80967 494.00593 477.9375 494.50977 C 477.80843 495.50577 477.73438 496.52046 477.73438 497.55273 L 477.73438 532.44727 C 477.73438 545.33672 488.11249 555.71484 501.00195 555.71484 C 513.89141 555.71484 524.26758 545.33672 524.26758 532.44727 L 524.26758 497.55273 C 524.26758 496.51976 524.1937 495.50446 524.06445 494.50781 C 524.19198 494.00453 524.26758 493.47957 524.26758 492.93555 L 524.26758 467.93555 L 524.26758 424.20703 L 524.26758 399.20703 L 524.26758 342.77734 L 524.26758 334.69531 C 524.26758 321.80585 513.89141 311.42773 501.00195 311.42773 z M 245.08008 555.71484 C 232.19062 555.71484 221.8125 566.09101 221.8125 578.98047 L 221.8125 613.87695 C 221.8125 626.76641 232.19062 637.14258 245.08008 637.14258 C 257.96954 637.14258 268.3457 626.76641 268.3457 613.87695 L 268.3457 578.98047 C 268.3457 566.09101 257.96954 555.71484 245.08008 555.71484 z M 431.20898 555.71484 C 418.31953 555.71484 407.94336 566.09101 407.94336 578.98047 L 407.94336 613.87695 C 407.94336 626.76641 418.31953 637.14258 431.20898 637.14258 C 444.09844 637.14258 454.47461 626.76641 454.47461 613.87695 L 454.47461 578.98047 C 454.47461 566.09101 444.09844 555.71484 431.20898 555.71484 z M 291.61133 637.14258 C 278.72187 637.14258 268.3457 647.51874 268.3457 660.4082 L 268.3457 695.30469 C 268.3457 708.19415 278.72187 718.57227 291.61133 718.57227 C 304.50079 718.57227 314.87891 708.19415 314.87891 695.30469 L 314.87891 660.4082 C 314.87891 647.51874 304.50079 637.14258 291.61133 637.14258 z M 384.67578 637.14258 C 371.78632 637.14258 361.41016 647.51874 361.41016 660.4082 L 361.41016 695.30469 C 361.41016 708.19415 371.78632 718.57227 384.67578 718.57227 C 397.56524 718.57227 407.94336 708.19415 407.94336 695.30469 L 407.94336 660.4082 C 407.94336 647.51874 397.56524 637.14258 384.67578 637.14258 z M 338.14453 718.57227 C 325.25507 718.57227 314.87891 728.94843 314.87891 741.83789 L 314.87891 776.73438 C 314.87891 789.62383 325.25507 800 338.14453 800 C 351.03399 800 361.41016 789.62383 361.41016 776.73438 L 361.41016 741.83789 C 361.41016 728.94843 351.03399 718.57227 338.14453 718.57227 z "
       transform="matrix(0.26458333,0,0,0.26458333,0,32.41665)"
       id="rect860" />
  </g>
</svg>
