<?xml version="1.0" encoding="UTF-8" standalone="no"?>
<!-- Created with Inkscape (http://www.inkscape.org/) -->

<svg
   xmlns:dc="http://purl.org/dc/elements/1.1/"
   xmlns:cc="http://creativecommons.org/ns#"
   xmlns:rdf="http://www.w3.org/1999/02/22-rdf-syntax-ns#"
   xmlns:svg="http://www.w3.org/2000/svg"
   xmlns="http://www.w3.org/2000/svg"
   xmlns:sodipodi="http://sodipodi.sourceforge.net/DTD/sodipodi-0.dtd"
   xmlns:inkscape="http://www.inkscape.org/namespaces/inkscape"
   width="1000"
   height="1000"
   viewBox="0 0 264.58333 264.58334"
   version="1.1"
   id="svg8"
   inkscape:version="0.92.4 (5da689c313, 2019-01-14)"
   sodipodi:docname="v.svg">
  <defs
     id="defs2" />
  <sodipodi:namedview
     id="base"
     pagecolor="#ffffff"
     bordercolor="#666666"
     borderopacity="1.0"
     inkscape:pageopacity="0.0"
     inkscape:pageshadow="2"
     inkscape:zoom="1.4"
     inkscape:cx="289.45529"
     inkscape:cy="327.43683"
     inkscape:document-units="mm"
     inkscape:current-layer="layer1"
     showgrid="false"
     units="px"
     inkscape:window-width="1600"
     inkscape:window-height="1149"
     inkscape:window-x="0"
     inkscape:window-y="26"
     inkscape:window-maximized="1"
     showguides="true"
     inkscape:guide-bbox="true">
    <sodipodi:guide
       position="0,52.916667"
       orientation="0,1"
       id="guide29"
       inkscape:locked="false"
       inkscape:label=""
       inkscape:color="rgb(0,0,255)" />
    <sodipodi:guide
       position="57.150382,139.09526"
       orientation="0,1"
       id="guide913"
       inkscape:locked="false" />
    <sodipodi:guide
       position="35.605739,52.916672"
       orientation="1,0"
       id="guide1095"
       inkscape:locked="false" />
    <sodipodi:guide
       position="35.605739,203.7292"
       orientation="0,1"
       id="guide1097"
       inkscape:locked="false" />
    <sodipodi:guide
       position="143.32896,52.916672"
       orientation="1,0"
       id="guide1099"
       inkscape:locked="false" />
    <sodipodi:guide
       position="97.161864,52.916687"
       orientation="1,0"
       id="guide1238"
       inkscape:locked="false" />
    <sodipodi:guide
       position="35.605739,102.16158"
       orientation="0,1"
       id="guide1240"
       inkscape:locked="false" />
  </sodipodi:namedview>
  <metadata
     id="metadata5">
    <rdf:RDF>
      <cc:Work
         rdf:about="">
        <dc:format>image/svg+xml</dc:format>
        <dc:type
           rdf:resource="http://purl.org/dc/dcmitype/StillImage" />
        <dc:title />
      </cc:Work>
    </rdf:RDF>
  </metadata>
  <g
     inkscape:label="Layer 1"
     inkscape:groupmode="layer"
     id="layer1"
     transform="translate(0,-32.41665)">
    <path
       style="fill:#010101;fill-opacity:1;fill-rule:nonzero;stroke:#ffffff;stroke-width:0;stroke-miterlimit:4;stroke-dasharray:none;stroke-opacity:1;paint-order:normal"
       d="M 157.83789 474.28516 C 144.94891 474.28516 134.57227 484.6618 134.57227 497.55078 C 134.57227 497.79246 134.58455 498.03163 134.5918 498.27148 C 134.58771 498.39447 134.57227 498.51466 134.57227 498.63867 L 134.57227 556.49023 L 134.57227 584.79883 L 134.57227 636.05664 C 134.57227 636.18087 134.5877 636.30063 134.5918 636.42383 C 134.58459 636.66304 134.57227 636.90156 134.57227 637.14258 C 134.57227 650.03156 144.94891 660.4082 157.83789 660.4082 C 170.72687 660.4082 181.10352 650.03156 181.10352 637.14258 C 181.10352 636.89633 181.09346 636.65256 181.08594 636.4082 C 181.08969 636.29023 181.10352 636.17556 181.10352 636.05664 L 181.10352 578.20508 L 181.10352 550.96875 L 181.10352 498.63867 C 181.10352 498.51996 181.08968 498.40488 181.08594 498.28711 C 181.0935 498.0421 181.10352 497.79769 181.10352 497.55078 C 181.10352 484.6618 170.72687 474.28516 157.83789 474.28516 z M 343.96094 520.81641 C 331.07196 520.81641 320.69531 531.19305 320.69531 544.08203 C 320.69531 544.8052 320.73293 545.51865 320.79688 546.22461 C 320.73382 546.80412 320.69531 547.39145 320.69531 547.98828 L 320.69531 633.23633 C 320.69531 633.83311 320.73383 634.41858 320.79688 634.99805 C 320.73282 635.70463 320.69531 636.41875 320.69531 637.14258 C 320.69531 650.03156 331.07196 660.4082 343.96094 660.4082 C 356.84992 660.4082 367.22656 650.03156 367.22656 637.14258 C 367.22656 636.42211 367.18847 635.71121 367.125 635.00781 C 367.18874 634.42523 367.22656 633.83643 367.22656 633.23633 L 367.22656 547.98828 C 367.22656 547.38879 367.18861 546.79881 367.125 546.2168 C 367.18847 545.5134 367.22656 544.8025 367.22656 544.08203 C 367.22656 531.19305 356.84992 520.81641 343.96094 520.81641 z M 204.36914 660.4082 C 191.48016 660.4082 181.10352 670.78485 181.10352 683.67383 C 181.10352 684.05368 181.11304 684.43135 181.13086 684.80664 C 181.11842 684.99031 181.10352 685.17244 181.10352 685.35938 L 181.10352 728.1543 C 181.10352 728.40604 181.11818 728.6547 181.14062 728.90039 C 181.11697 729.33223 181.10352 729.76713 181.10352 730.20508 C 181.10352 743.09406 191.48016 753.46875 204.36914 753.46875 C 217.25812 753.46875 227.63477 743.09406 227.63477 730.20508 C 227.63477 729.77246 227.62074 729.34268 227.59766 728.91602 C 227.62103 728.66533 227.63477 728.41129 227.63477 728.1543 L 227.63477 685.35938 C 227.63477 685.16384 227.61907 684.97321 227.60547 684.78125 C 227.62251 684.41426 227.63477 684.04518 227.63477 683.67383 C 227.63477 670.78485 217.25812 660.4082 204.36914 660.4082 z M 297.42969 660.4082 C 284.54071 660.4082 274.16406 670.78485 274.16406 683.67383 C 274.16406 684.12912 274.18148 684.58063 274.20703 685.0293 C 274.17891 685.30381 274.16406 685.58305 274.16406 685.86523 L 274.16406 728.66016 C 274.16406 728.83919 274.17998 729.01341 274.19141 729.18945 C 274.17706 729.52637 274.16406 729.86451 274.16406 730.20508 C 274.16406 743.09406 284.54071 753.46875 297.42969 753.46875 C 310.31867 753.46875 320.69531 743.09406 320.69531 730.20508 C 320.69531 729.85731 320.68488 729.51192 320.66992 729.16797 C 320.68044 728.99896 320.69531 728.8319 320.69531 728.66016 L 320.69531 685.86523 C 320.69531 685.58714 320.68162 685.31168 320.6543 685.04102 C 320.65417 685.03972 320.65443 685.0384 320.6543 685.03711 C 320.68014 684.58587 320.69531 684.13176 320.69531 683.67383 C 320.69531 670.78485 310.31867 660.4082 297.42969 660.4082 z M 250.90039 753.46875 C 238.01141 753.46875 227.63477 763.84539 227.63477 776.73438 C 227.63477 789.62336 238.01141 800 250.90039 800 C 263.78937 800 274.16406 789.62336 274.16406 776.73438 C 274.16406 763.84539 263.78937 753.46875 250.90039 753.46875 z "
       transform="matrix(0.26458333,0,0,0.26458333,0,32.41665)"
       id="rect111" />
  </g>
</svg>
