<?xml version="1.0" encoding="UTF-8" standalone="no"?>
<!-- Created with Inkscape (http://www.inkscape.org/) -->

<svg
   xmlns:dc="http://purl.org/dc/elements/1.1/"
   xmlns:cc="http://creativecommons.org/ns#"
   xmlns:rdf="http://www.w3.org/1999/02/22-rdf-syntax-ns#"
   xmlns:svg="http://www.w3.org/2000/svg"
   xmlns="http://www.w3.org/2000/svg"
   xmlns:sodipodi="http://sodipodi.sourceforge.net/DTD/sodipodi-0.dtd"
   xmlns:inkscape="http://www.inkscape.org/namespaces/inkscape"
   width="1000"
   height="1000"
   viewBox="0 0 264.58333 264.58334"
   version="1.1"
   id="svg8"
   inkscape:version="0.92.4 (5da689c313, 2019-01-14)"
   sodipodi:docname="w.svg">
  <defs
     id="defs2" />
  <sodipodi:namedview
     id="base"
     pagecolor="#ffffff"
     bordercolor="#666666"
     borderopacity="1.0"
     inkscape:pageopacity="0.0"
     inkscape:pageshadow="2"
     inkscape:zoom="1.979899"
     inkscape:cx="272.94763"
     inkscape:cy="361.51247"
     inkscape:document-units="mm"
     inkscape:current-layer="layer1"
     showgrid="false"
     units="px"
     inkscape:window-width="1600"
     inkscape:window-height="1149"
     inkscape:window-x="0"
     inkscape:window-y="26"
     inkscape:window-maximized="1"
     showguides="true"
     inkscape:guide-bbox="true">
    <sodipodi:guide
       position="0,52.916667"
       orientation="0,1"
       id="guide29"
       inkscape:locked="false"
       inkscape:label=""
       inkscape:color="rgb(0,0,255)" />
    <sodipodi:guide
       position="57.150382,139.09526"
       orientation="0,1"
       id="guide913"
       inkscape:locked="false" />
    <sodipodi:guide
       position="35.605739,52.916672"
       orientation="1,0"
       id="guide1095"
       inkscape:locked="false" />
    <sodipodi:guide
       position="35.605739,203.7292"
       orientation="0,1"
       id="guide1097"
       inkscape:locked="false" />
    <sodipodi:guide
       position="143.32896,52.916672"
       orientation="1,0"
       id="guide1099"
       inkscape:locked="false" />
    <sodipodi:guide
       position="97.161864,52.916687"
       orientation="1,0"
       id="guide1238"
       inkscape:locked="false" />
    <sodipodi:guide
       position="35.605739,102.16158"
       orientation="0,1"
       id="guide1240"
       inkscape:locked="false" />
  </sodipodi:namedview>
  <metadata
     id="metadata5">
    <rdf:RDF>
      <cc:Work
         rdf:about="">
        <dc:format>image/svg+xml</dc:format>
        <dc:type
           rdf:resource="http://purl.org/dc/dcmitype/StillImage" />
        <dc:title />
      </cc:Work>
    </rdf:RDF>
  </metadata>
  <g
     inkscape:label="Layer 1"
     inkscape:groupmode="layer"
     id="layer1"
     transform="translate(0,-32.41665)">
    <path
       style="fill:#010101;fill-opacity:1;fill-rule:nonzero;stroke:#ffffff;stroke-width:0;stroke-miterlimit:4;stroke-dasharray:none;stroke-opacity:1;paint-order:normal"
       d="M 157.83789 474.28516 C 144.94891 474.28516 134.57227 484.6618 134.57227 497.55078 C 134.57227 498.13701 134.60234 498.71592 134.64453 499.29102 C 134.60041 499.68472 134.57227 500.08242 134.57227 500.48828 L 134.57227 556.78125 L 134.57227 629.21094 L 134.57227 654.05859 C 134.57227 654.15102 134.58207 654.24059 134.58594 654.33203 C 134.58362 654.42506 134.57227 654.51577 134.57227 654.60938 L 134.57227 712.73828 C 134.57227 713.53741 134.66262 714.31309 134.82422 715.0625 C 134.66396 715.78969 134.57227 716.54358 134.57227 717.32031 L 134.57227 772.63477 C 134.57227 773.18037 134.62669 773.71195 134.70703 774.23438 C 134.62 775.05581 134.57227 775.88911 134.57227 776.73438 C 134.57227 788.92749 143.86063 798.868 155.77539 799.90625 C 156.11958 799.96356 156.47108 800 156.83203 800 L 157.83789 800 L 204.04883 800 C 204.08383 800 204.11748 799.9947 204.15234 799.99414 C 204.22488 799.9948 204.29644 800 204.36914 800 C 217.25812 800 227.63477 789.62336 227.63477 776.73438 C 227.63477 763.84539 217.25812 753.46875 204.36914 753.46875 C 204.29775 753.46875 204.22748 753.47397 204.15625 753.47461 C 204.12008 753.47401 204.08515 753.46875 204.04883 753.46875 L 181.10352 753.46875 L 181.10352 717.32031 C 181.10352 716.54358 181.01182 715.78969 180.85156 715.0625 C 181.01317 714.31308 181.10352 713.53743 181.10352 712.73828 L 181.10352 654.60938 C 181.10352 654.51577 181.09216 654.42506 181.08984 654.33203 C 181.09371 654.24059 181.10352 654.15102 181.10352 654.05859 L 181.10352 620.22656 L 181.10352 552.01367 L 181.10352 500.48828 C 181.10352 500.08517 181.07674 499.68995 181.0332 499.29883 C 181.07577 498.7212 181.10352 498.13965 181.10352 497.55078 C 181.10352 484.6618 170.72687 474.28516 157.83789 474.28516 z M 343.96094 474.28516 C 331.07196 474.28516 320.69531 484.6618 320.69531 497.55078 C 320.69531 497.97084 320.70675 498.38828 320.72852 498.80273 C 320.71492 499.0248 320.69531 499.2451 320.69531 499.4707 L 320.69531 556.62109 C 320.69531 557.20876 320.75368 557.7803 320.84375 558.3418 C 320.75484 558.91893 320.69531 559.50659 320.69531 560.10938 L 320.69531 621.11523 L 320.69531 671.31836 L 320.69531 727.63086 C 320.69531 727.98812 320.71393 728.34145 320.74805 728.68945 C 320.71609 729.19071 320.69531 729.69547 320.69531 730.20508 C 320.69531 743.09406 331.07196 753.46875 343.96094 753.46875 C 356.84992 753.46875 367.22656 743.09406 367.22656 730.20508 C 367.22656 729.70075 367.20318 729.20124 367.17188 728.70508 C 367.207 728.35207 367.22656 727.99341 367.22656 727.63086 L 367.22656 671.03125 L 367.22656 602.9668 L 367.22656 560.10938 C 367.22656 559.5045 367.16569 558.91497 367.07617 558.33594 C 367.16564 557.77625 367.22656 557.20676 367.22656 556.62109 L 367.22656 499.4707 C 367.22656 499.24311 367.20524 499.02086 367.19141 498.79688 C 367.21297 498.38435 367.22656 497.96886 367.22656 497.55078 C 367.22656 484.6618 356.84992 474.28516 343.96094 474.28516 z M 250.89844 613.87695 C 238.00946 613.87695 227.63477 624.2536 227.63477 637.14258 C 227.63477 637.75071 227.66361 638.35114 227.70898 638.94727 C 227.66546 639.44021 227.63477 639.93677 227.63477 640.44141 L 227.63477 729.16406 C 227.63477 729.27885 227.65005 729.38968 227.65234 729.50391 C 227.64549 729.73731 227.63477 729.96996 227.63477 730.20508 C 227.63477 743.09406 238.00946 753.46875 250.89844 753.46875 C 263.78742 753.46875 274.16406 743.09406 274.16406 730.20508 C 274.16406 729.96996 274.15334 729.73731 274.14648 729.50391 C 274.14877 729.38968 274.16406 729.27885 274.16406 729.16406 L 274.16406 640.44141 C 274.16406 639.93677 274.13337 639.44021 274.08984 638.94727 C 274.13522 638.35114 274.16406 637.75071 274.16406 637.14258 C 274.16406 624.2536 263.78742 613.87695 250.89844 613.87695 z M 297.42969 753.46875 C 284.54071 753.46875 274.16406 763.84539 274.16406 776.73438 C 274.16406 789.62336 284.54071 800 297.42969 800 C 310.31867 800 320.69531 789.62336 320.69531 776.73438 C 320.69531 763.84539 310.31867 753.46875 297.42969 753.46875 z "
       transform="matrix(0.26458333,0,0,0.26458333,0,32.41665)"
       id="rect1199" />
  </g>
</svg>
