<?xml version="1.0" encoding="UTF-8" standalone="no"?>
<!-- Created with Inkscape (http://www.inkscape.org/) -->

<svg
   xmlns:dc="http://purl.org/dc/elements/1.1/"
   xmlns:cc="http://creativecommons.org/ns#"
   xmlns:rdf="http://www.w3.org/1999/02/22-rdf-syntax-ns#"
   xmlns:svg="http://www.w3.org/2000/svg"
   xmlns="http://www.w3.org/2000/svg"
   xmlns:sodipodi="http://sodipodi.sourceforge.net/DTD/sodipodi-0.dtd"
   xmlns:inkscape="http://www.inkscape.org/namespaces/inkscape"
   width="1000"
   height="1000"
   viewBox="0 0 264.58333 264.58334"
   version="1.1"
   id="svg8"
   inkscape:version="0.92.4 (5da689c313, 2019-01-14)"
   sodipodi:docname="W.svg">
  <defs
     id="defs2" />
  <sodipodi:namedview
     id="base"
     pagecolor="#ffffff"
     bordercolor="#666666"
     borderopacity="1.0"
     inkscape:pageopacity="0.0"
     inkscape:pageshadow="2"
     inkscape:zoom="0.49497475"
     inkscape:cx="596.6897"
     inkscape:cy="720.77537"
     inkscape:document-units="mm"
     inkscape:current-layer="layer1"
     showgrid="false"
     units="px"
     inkscape:window-width="1600"
     inkscape:window-height="1149"
     inkscape:window-x="0"
     inkscape:window-y="26"
     inkscape:window-maximized="1"
     showguides="true"
     inkscape:guide-bbox="true">
    <sodipodi:guide
       position="0,52.916667"
       orientation="0,1"
       id="guide29"
       inkscape:locked="false"
       inkscape:label=""
       inkscape:color="rgb(0,0,255)" />
    <sodipodi:guide
       position="57.150382,139.09526"
       orientation="0,1"
       id="guide913"
       inkscape:locked="false" />
    <sodipodi:guide
       position="35.605739,52.916672"
       orientation="1,0"
       id="guide1095"
       inkscape:locked="false" />
    <sodipodi:guide
       position="35.605739,203.7292"
       orientation="0,1"
       id="guide1097"
       inkscape:locked="false" />
    <sodipodi:guide
       position="143.32896,52.916672"
       orientation="1,0"
       id="guide1099"
       inkscape:locked="false" />
  </sodipodi:namedview>
  <metadata
     id="metadata5">
    <rdf:RDF>
      <cc:Work
         rdf:about="">
        <dc:format>image/svg+xml</dc:format>
        <dc:type
           rdf:resource="http://purl.org/dc/dcmitype/StillImage" />
        <dc:title />
      </cc:Work>
    </rdf:RDF>
  </metadata>
  <g
     inkscape:label="Layer 1"
     inkscape:groupmode="layer"
     id="layer1"
     transform="translate(0,-32.41665)">
    <path
       style="fill:#010101;fill-opacity:1;fill-rule:nonzero;stroke:#ffffff;stroke-width:0;stroke-miterlimit:4;stroke-dasharray:none;stroke-opacity:1;paint-order:normal"
       d="M 175.28711 230 C 162.39765 230 152.02148 240.37617 152.02148 253.26562 L 152.02148 288.16211 L 152.02148 331.74609 L 152.02148 357.11133 L 152.02148 413.17383 L 152.02148 463.17383 L 152.02148 494.60352 L 152.02148 544.60156 L 152.02148 576.03125 L 152.02148 626.03125 L 152.02148 657.45898 L 152.02148 707.45898 L 152.02148 738.88867 L 152.02148 759.95898 C 152.02148 760.43146 152.0605 760.89493 152.11719 761.35156 C 153.1567 773.26551 163.09443 782.55273 175.28711 782.55273 C 175.38666 782.55273 175.48473 782.54616 175.58398 782.54492 C 175.68323 782.54616 175.78131 782.55273 175.88086 782.55273 L 274.16406 782.55273 C 287.05352 782.55273 297.42969 772.17462 297.42969 759.28516 C 297.42969 746.3957 287.05352 736.01953 274.16406 736.01953 L 198.55273 736.01953 L 198.55273 707.45898 L 198.55273 700.75391 L 198.55273 679.68359 L 198.55273 648.25391 L 198.55273 598.25391 L 198.55273 566.82617 L 198.55273 516.82617 L 198.55273 485.39648 L 198.55273 435.39648 L 198.55273 403.96875 L 198.55273 353.96875 L 198.55273 297.90625 L 198.55273 272.54102 L 198.55273 253.26562 C 198.55273 240.37617 188.17657 230 175.28711 230 z M 501.00195 230 C 488.11249 230 477.73438 240.37617 477.73438 253.26562 L 477.73438 288.16211 C 477.73438 288.65264 477.75553 289.13827 477.78516 289.62109 C 477.75659 289.94736 477.73438 290.27545 477.73438 290.60938 L 477.73438 322.54102 L 477.73438 349.81445 L 477.73438 381.74609 L 477.73438 431.24219 L 477.73438 463.17383 L 477.73438 512.67188 L 477.73438 544.60156 L 477.73438 594.09961 L 477.73438 626.03125 L 477.73438 675.5293 L 477.73438 695.30469 C 477.73438 708.19415 488.11249 718.57227 501.00195 718.57227 C 513.89141 718.57227 524.26758 708.19415 524.26758 695.30469 L 524.26758 660.4082 L 524.26758 616.32422 L 524.26758 566.82617 L 524.26758 534.89453 L 524.26758 485.39648 L 524.26758 453.4668 L 524.26758 403.96875 L 524.26758 372.03711 L 524.26758 349.81445 L 524.26758 322.54102 L 524.26758 290.60938 C 524.26758 290.27611 524.2472 289.94868 524.21875 289.62305 C 524.24845 289.13959 524.26758 288.6533 524.26758 288.16211 L 524.26758 253.26562 C 524.26758 240.37617 513.89141 230 501.00195 230 z M 338.14453 637.14258 C 325.25507 637.14258 314.87891 647.51874 314.87891 660.4082 L 314.87891 695.30469 C 314.87891 708.19415 325.25507 718.57227 338.14453 718.57227 C 351.03399 718.57227 361.41016 708.19415 361.41016 695.30469 L 361.41016 660.4082 C 361.41016 647.51874 351.03399 637.14258 338.14453 637.14258 z M 402.125 736.01953 C 389.23554 736.01953 378.85938 746.3957 378.85938 759.28516 C 378.85937 772.17462 389.23554 782.55273 402.125 782.55273 L 437.02148 782.55273 C 449.91094 782.55273 460.28711 772.17462 460.28711 759.28516 C 460.28711 746.3957 449.91094 736.01953 437.02148 736.01953 L 402.125 736.01953 z "
       transform="matrix(0.26458333,0,0,0.26458333,0,32.41665)"
       id="rect848" />
  </g>
</svg>
