<?xml version="1.0" encoding="UTF-8" standalone="no"?>
<!-- Created with Inkscape (http://www.inkscape.org/) -->

<svg
   xmlns:dc="http://purl.org/dc/elements/1.1/"
   xmlns:cc="http://creativecommons.org/ns#"
   xmlns:rdf="http://www.w3.org/1999/02/22-rdf-syntax-ns#"
   xmlns:svg="http://www.w3.org/2000/svg"
   xmlns="http://www.w3.org/2000/svg"
   xmlns:sodipodi="http://sodipodi.sourceforge.net/DTD/sodipodi-0.dtd"
   xmlns:inkscape="http://www.inkscape.org/namespaces/inkscape"
   width="1000"
   height="1000"
   viewBox="0 0 264.58333 264.58334"
   version="1.1"
   id="svg8"
   inkscape:version="0.92.4 (5da689c313, 2019-01-14)"
   sodipodi:docname="x.svg">
  <defs
     id="defs2" />
  <sodipodi:namedview
     id="base"
     pagecolor="#ffffff"
     bordercolor="#666666"
     borderopacity="1.0"
     inkscape:pageopacity="0.0"
     inkscape:pageshadow="2"
     inkscape:zoom="1.4"
     inkscape:cx="311.63512"
     inkscape:cy="469.30391"
     inkscape:document-units="mm"
     inkscape:current-layer="layer1"
     showgrid="false"
     units="px"
     inkscape:window-width="1600"
     inkscape:window-height="1149"
     inkscape:window-x="0"
     inkscape:window-y="26"
     inkscape:window-maximized="1"
     showguides="true"
     inkscape:guide-bbox="true">
    <sodipodi:guide
       position="0,52.916667"
       orientation="0,1"
       id="guide29"
       inkscape:locked="false"
       inkscape:label=""
       inkscape:color="rgb(0,0,255)" />
    <sodipodi:guide
       position="57.150382,139.09526"
       orientation="0,1"
       id="guide913"
       inkscape:locked="false" />
    <sodipodi:guide
       position="35.605739,52.916672"
       orientation="1,0"
       id="guide1095"
       inkscape:locked="false" />
    <sodipodi:guide
       position="35.605739,203.7292"
       orientation="0,1"
       id="guide1097"
       inkscape:locked="false" />
    <sodipodi:guide
       position="143.32896,52.916672"
       orientation="1,0"
       id="guide1099"
       inkscape:locked="false" />
    <sodipodi:guide
       position="97.161864,52.916687"
       orientation="1,0"
       id="guide1238"
       inkscape:locked="false" />
    <sodipodi:guide
       position="35.605739,102.16158"
       orientation="0,1"
       id="guide1240"
       inkscape:locked="false" />
  </sodipodi:namedview>
  <metadata
     id="metadata5">
    <rdf:RDF>
      <cc:Work
         rdf:about="">
        <dc:format>image/svg+xml</dc:format>
        <dc:type
           rdf:resource="http://purl.org/dc/dcmitype/StillImage" />
        <dc:title />
      </cc:Work>
    </rdf:RDF>
  </metadata>
  <g
     inkscape:label="Layer 1"
     inkscape:groupmode="layer"
     id="layer1"
     transform="translate(0,-32.41665)">
    <path
       style="fill:#010101;fill-opacity:1;fill-rule:nonzero;stroke:#ffffff;stroke-width:0;stroke-miterlimit:4;stroke-dasharray:none;stroke-opacity:1;paint-order:normal"
       d="M 157.83789 474.28516 C 144.94891 474.28516 134.57227 484.6618 134.57227 497.55078 C 134.57227 498.27125 134.61036 498.98215 134.67383 499.68555 C 134.61008 500.26818 134.57227 500.85883 134.57227 501.45898 L 134.57227 586.70508 C 134.57227 587.30457 134.61022 587.89455 134.67383 588.47656 C 134.61033 589.18009 134.57227 589.89072 134.57227 590.61133 C 134.57227 603.50031 144.94891 613.87695 157.83789 613.87695 C 158.30848 613.87695 158.77477 613.85931 159.23828 613.83203 C 159.51745 613.86104 159.80079 613.87695 160.08789 613.87695 L 203.00781 613.87695 C 203.15945 613.87695 203.30751 613.86366 203.45703 613.85547 C 203.75994 613.86705 204.0633 613.87695 204.36914 613.87695 C 217.25812 613.87695 227.63477 603.50031 227.63477 590.61133 C 227.63477 577.72235 217.25812 567.34766 204.36914 567.34766 C 204.0633 567.34766 203.75994 567.35756 203.45703 567.36914 C 203.30751 567.36095 203.15945 567.34766 203.00781 567.34766 L 181.10352 567.34766 L 181.10352 501.45898 C 181.10352 500.86215 181.06501 500.27483 181.00195 499.69531 C 181.06601 498.98873 181.10352 498.27461 181.10352 497.55078 C 181.10352 484.6618 170.72687 474.28516 157.83789 474.28516 z M 343.96094 474.28516 C 331.07196 474.28516 320.69531 484.6618 320.69531 497.55078 C 320.69531 497.66735 320.70143 497.78228 320.70312 497.89844 C 320.70187 497.95619 320.69531 498.01225 320.69531 498.07031 L 320.69531 539.30273 C 320.69531 539.90255 320.76853 540.48303 320.89648 541.04297 C 320.76776 542.03766 320.69531 543.05117 320.69531 544.08203 C 320.69531 556.97101 331.07196 567.34766 343.96094 567.34766 C 356.84992 567.34766 367.22656 556.97101 367.22656 544.08203 C 367.22656 543.05046 367.15234 542.03636 367.02344 541.04102 C 367.15114 540.48161 367.22656 539.90193 367.22656 539.30273 L 367.22656 498.07031 C 367.22656 498.01156 367.21809 497.95491 367.2168 497.89648 C 367.21847 497.78097 367.22656 497.66671 367.22656 497.55078 C 367.22656 484.6618 356.84992 474.28516 343.96094 474.28516 z M 297.42969 567.34766 C 284.54071 567.34766 274.16406 577.72235 274.16406 590.61133 C 274.16406 603.50031 284.54071 613.87695 297.42969 613.87695 C 310.31867 613.87695 320.69531 603.50031 320.69531 590.61133 C 320.69531 577.72235 310.31867 567.34766 297.42969 567.34766 z M 250.89844 613.87695 C 238.00946 613.87695 227.63477 624.2536 227.63477 637.14258 C 227.63477 650.03156 238.00946 660.4082 250.89844 660.4082 C 263.78742 660.4082 274.16406 650.03156 274.16406 637.14258 C 274.16406 624.2536 263.78742 613.87695 250.89844 613.87695 z M 157.83789 660.4082 C 144.94891 660.4082 134.57227 670.78485 134.57227 683.67383 C 134.57227 683.95086 134.58424 684.22537 134.59375 684.5 C 134.59015 684.64303 134.57227 684.78185 134.57227 684.92578 L 134.57227 713.28906 L 134.57227 747.11914 L 134.57227 773.41992 C 134.57227 773.93226 134.60347 774.4353 134.64844 774.93555 C 134.60336 775.52977 134.57227 776.12822 134.57227 776.73438 C 134.57227 789.62336 144.94891 800 157.83789 800 C 170.72687 800 181.10352 789.62336 181.10352 776.73438 C 181.10352 776.12288 181.07321 775.51926 181.02734 774.91992 C 181.0714 774.42469 181.10352 773.92699 181.10352 773.41992 L 181.10352 747.11914 L 181.10352 713.28906 L 181.10352 706.93945 L 204.11914 706.93945 C 204.14749 706.93945 204.17485 706.93584 204.20312 706.93555 C 204.2587 706.93593 204.31348 706.93945 204.36914 706.93945 C 217.25812 706.93945 227.63477 696.56281 227.63477 683.67383 C 227.63477 670.78485 217.25812 660.4082 204.36914 660.4082 C 204.31282 660.4082 204.2574 660.41171 204.20117 660.41211 C 204.17355 660.41183 204.14683 660.4082 204.11914 660.4082 L 161.19922 660.4082 C 160.78284 660.4082 160.37753 660.44943 159.97852 660.50977 C 159.27319 660.44594 158.56039 660.4082 157.83789 660.4082 z M 297.42969 660.4082 C 284.54071 660.4082 274.16406 670.78485 274.16406 683.67383 C 274.16406 696.56281 284.54071 706.93945 297.42969 706.93945 C 297.68314 706.93945 297.93409 706.92789 298.18555 706.91992 C 298.31225 706.9255 298.43633 706.93945 298.56445 706.93945 L 320.69531 706.93945 L 320.69531 774.02734 C 320.69531 774.41248 320.72545 774.7898 320.75195 775.16797 C 320.71779 775.68609 320.69531 776.20731 320.69531 776.73438 C 320.69531 789.62336 331.07196 800 343.96094 800 C 356.84992 800 367.22656 789.62336 367.22656 776.73438 C 367.22656 776.2126 367.20146 775.69661 367.16797 775.18359 C 367.1952 774.80033 367.22656 774.41777 367.22656 774.02734 L 367.22656 688.78125 C 367.22656 688.00841 367.15374 687.2547 367.04883 686.51172 C 367.16112 685.58115 367.22656 684.63564 367.22656 683.67383 C 367.22656 670.78485 356.84992 660.4082 343.96094 660.4082 C 343.89938 660.4082 343.83879 660.41164 343.77734 660.41211 C 343.74712 660.4118 343.7178 660.4082 343.6875 660.4082 L 298.56445 660.4082 C 298.43767 660.4082 298.31485 660.42032 298.18945 660.42578 C 297.93672 660.41773 297.68445 660.4082 297.42969 660.4082 z "
       transform="matrix(0.26458333,0,0,0.26458333,0,32.41665)"
       id="rect251" />
  </g>
</svg>
