<?xml version="1.0" encoding="UTF-8" standalone="no"?>
<!-- Created with Inkscape (http://www.inkscape.org/) -->

<svg
   xmlns:dc="http://purl.org/dc/elements/1.1/"
   xmlns:cc="http://creativecommons.org/ns#"
   xmlns:rdf="http://www.w3.org/1999/02/22-rdf-syntax-ns#"
   xmlns:svg="http://www.w3.org/2000/svg"
   xmlns="http://www.w3.org/2000/svg"
   xmlns:sodipodi="http://sodipodi.sourceforge.net/DTD/sodipodi-0.dtd"
   xmlns:inkscape="http://www.inkscape.org/namespaces/inkscape"
   width="1000"
   height="1000"
   viewBox="0 0 264.58333 264.58334"
   version="1.1"
   id="svg8"
   inkscape:version="0.92.4 (5da689c313, 2019-01-14)"
   sodipodi:docname="X.svg">
  <defs
     id="defs2" />
  <sodipodi:namedview
     id="base"
     pagecolor="#ffffff"
     bordercolor="#666666"
     borderopacity="1.0"
     inkscape:pageopacity="0.0"
     inkscape:pageshadow="2"
     inkscape:zoom="0.49497475"
     inkscape:cx="397.59903"
     inkscape:cy="698.95666"
     inkscape:document-units="mm"
     inkscape:current-layer="layer1"
     showgrid="false"
     units="px"
     inkscape:window-width="1600"
     inkscape:window-height="1149"
     inkscape:window-x="0"
     inkscape:window-y="26"
     inkscape:window-maximized="1"
     showguides="true"
     inkscape:guide-bbox="true">
    <sodipodi:guide
       position="0,52.916667"
       orientation="0,1"
       id="guide29"
       inkscape:locked="false"
       inkscape:label=""
       inkscape:color="rgb(0,0,255)" />
    <sodipodi:guide
       position="57.150382,139.09526"
       orientation="0,1"
       id="guide913"
       inkscape:locked="false" />
    <sodipodi:guide
       position="35.605739,52.916672"
       orientation="1,0"
       id="guide1095"
       inkscape:locked="false" />
    <sodipodi:guide
       position="35.605739,203.7292"
       orientation="0,1"
       id="guide1097"
       inkscape:locked="false" />
    <sodipodi:guide
       position="143.32896,52.916672"
       orientation="1,0"
       id="guide1099"
       inkscape:locked="false" />
  </sodipodi:namedview>
  <metadata
     id="metadata5">
    <rdf:RDF>
      <cc:Work
         rdf:about="">
        <dc:format>image/svg+xml</dc:format>
        <dc:type
           rdf:resource="http://purl.org/dc/dcmitype/StillImage" />
        <dc:title />
      </cc:Work>
    </rdf:RDF>
  </metadata>
  <g
     inkscape:label="Layer 1"
     inkscape:groupmode="layer"
     id="layer1"
     transform="translate(0,-32.41665)">
    <path
       style="fill:#010101;fill-opacity:1;fill-rule:nonzero;stroke:#ffffff;stroke-width:0;stroke-miterlimit:4;stroke-dasharray:none;stroke-opacity:1;paint-order:normal"
       d="M 175.28711 230 C 162.39765 230 152.02148 240.37617 152.02148 253.26562 L 152.02148 288.16211 C 152.02148 288.64868 152.04116 289.13039 152.07031 289.60938 C 152.04296 289.92873 152.02148 290.24949 152.02148 290.57617 L 152.02148 349.78125 L 152.02148 381.74609 L 152.02148 431.20898 C 152.02148 431.52456 152.04282 431.83577 152.06836 432.14453 C 152.04001 432.61694 152.02148 433.09053 152.02148 433.57031 C 152.02148 446.45977 162.39765 456.83789 175.28711 456.83789 C 175.31789 456.83789 175.34816 456.83606 175.37891 456.83594 C 175.41031 456.83606 175.44122 456.83789 175.47266 456.83789 L 256.71484 456.83789 C 269.6043 456.83789 279.98242 446.45977 279.98242 433.57031 C 279.98242 420.68085 269.6043 410.30469 256.71484 410.30469 L 198.55273 410.30469 L 198.55273 372.00391 L 198.55273 322.54102 L 198.55273 290.57617 C 198.55273 290.24949 198.53126 289.92873 198.50391 289.60938 C 198.53306 289.13039 198.55273 288.64868 198.55273 288.16211 L 198.55273 253.26562 C 198.55273 240.37617 188.17657 230 175.28711 230 z M 501.00195 230 C 488.11249 230 477.73438 240.37617 477.73438 253.26562 L 477.73438 324.02344 L 477.73438 369.58984 C 477.73438 382.4793 488.11249 392.85742 501.00195 392.85742 C 513.89141 392.85742 524.26758 382.4793 524.26758 369.58984 L 524.26758 290.24805 L 524.26758 253.26562 C 524.26758 240.37617 513.89141 230 501.00195 230 z M 419.57227 410.30469 C 406.68281 410.30469 396.30664 420.68085 396.30664 433.57031 C 396.30664 446.45977 406.68281 456.83789 419.57227 456.83789 L 454.46875 456.83789 C 467.35821 456.83789 477.73438 446.45977 477.73438 433.57031 C 477.73438 420.68085 467.35821 410.30469 454.46875 410.30469 L 419.57227 410.30469 z M 291.61133 445.20117 C 278.72187 445.20117 268.3457 455.57734 268.3457 468.4668 C 268.3457 481.35626 278.72187 491.73438 291.61133 491.73438 C 304.50079 491.73438 314.87891 481.35626 314.87891 468.4668 C 314.87891 455.57734 304.50079 445.20117 291.61133 445.20117 z M 384.67578 445.20117 C 371.78632 445.20117 361.41016 455.57734 361.41016 468.4668 C 361.41016 481.35626 371.78632 491.73438 384.67578 491.73438 C 397.56524 491.73438 407.94336 481.35626 407.94336 468.4668 C 407.94336 455.57734 397.56524 445.20117 384.67578 445.20117 z M 338.14453 491.73438 C 325.25507 491.73437 314.87891 502.11054 314.87891 515 C 314.87891 527.88946 325.25507 538.26562 338.14453 538.26562 C 351.03399 538.26563 361.41016 527.88946 361.41016 515 C 361.41016 502.11054 351.03399 491.73438 338.14453 491.73438 z M 291.61133 538.26562 C 278.72187 538.26562 268.3457 548.64374 268.3457 561.5332 C 268.3457 574.42266 278.72187 584.79883 291.61133 584.79883 C 304.50079 584.79883 314.87891 574.42266 314.87891 561.5332 C 314.87891 548.64374 304.50079 538.26562 291.61133 538.26562 z M 384.67578 538.26562 C 371.78632 538.26562 361.41016 548.64374 361.41016 561.5332 C 361.41016 574.42266 371.78632 584.79883 384.67578 584.79883 C 397.56524 584.79883 407.94336 574.42266 407.94336 561.5332 C 407.94336 548.64374 397.56524 538.26562 384.67578 538.26562 z M 175.28711 573.16211 C 162.39765 573.16211 152.02148 583.53828 152.02148 596.42773 C 152.02148 596.58493 152.03013 596.74006 152.0332 596.89648 C 152.03194 596.97411 152.02148 597.04902 152.02148 597.12695 L 152.02148 671.11328 L 152.02148 707.45898 L 152.02148 755.31641 L 152.02148 776.73438 C 152.02148 789.62383 162.39765 800 175.28711 800 C 188.17657 800 198.55273 789.62383 198.55273 776.73438 L 198.55273 741.83789 L 198.55273 696.11133 L 198.55273 648.25391 L 198.55273 619.69531 L 256.71484 619.69531 C 269.6043 619.69531 279.98242 609.31719 279.98242 596.42773 C 279.98242 583.53828 269.6043 573.16211 256.71484 573.16211 L 176.46484 573.16211 C 176.26705 573.16211 176.07159 573.17288 175.875 573.17773 C 175.67906 573.17291 175.48425 573.16211 175.28711 573.16211 z M 419.57227 573.16211 C 406.68281 573.16211 396.30664 583.53828 396.30664 596.42773 C 396.30664 609.31719 406.68281 619.69531 419.57227 619.69531 L 477.73438 619.69531 L 477.73438 648.25391 L 477.73438 674.45312 L 477.73438 707.45898 L 477.73438 759.60352 L 477.73438 776.73438 C 477.73438 789.62383 488.11249 800 501.00195 800 C 513.89141 800 524.26758 789.62383 524.26758 776.73438 L 524.26758 741.83789 L 524.26758 700.39648 L 524.26758 674.45312 L 524.26758 648.25391 L 524.26758 596.42773 L 524.26758 595.41602 C 524.26758 594.16908 524.09963 592.96619 523.8125 591.81055 C 521.68149 581.1486 512.30907 573.16211 501.00195 573.16211 C 500.96594 573.16211 500.93051 573.1639 500.89453 573.16406 C 500.85921 573.16391 500.82442 573.16211 500.78906 573.16211 L 419.57227 573.16211 z "
       transform="matrix(0.26458333,0,0,0.26458333,0,32.41665)"
       id="rect848" />
  </g>
</svg>
