<?xml version="1.0" encoding="UTF-8" standalone="no"?>
<!-- Created with Inkscape (http://www.inkscape.org/) -->

<svg
   xmlns:dc="http://purl.org/dc/elements/1.1/"
   xmlns:cc="http://creativecommons.org/ns#"
   xmlns:rdf="http://www.w3.org/1999/02/22-rdf-syntax-ns#"
   xmlns:svg="http://www.w3.org/2000/svg"
   xmlns="http://www.w3.org/2000/svg"
   xmlns:sodipodi="http://sodipodi.sourceforge.net/DTD/sodipodi-0.dtd"
   xmlns:inkscape="http://www.inkscape.org/namespaces/inkscape"
   width="1000"
   height="1000"
   viewBox="0 0 264.58333 264.58334"
   version="1.1"
   id="svg8"
   inkscape:version="0.92.4 (5da689c313, 2019-01-14)"
   sodipodi:docname="Y.svg">
  <defs
     id="defs2" />
  <sodipodi:namedview
     id="base"
     pagecolor="#ffffff"
     bordercolor="#666666"
     borderopacity="1.0"
     inkscape:pageopacity="0.0"
     inkscape:pageshadow="2"
     inkscape:zoom="0.49497475"
     inkscape:cx="401.13783"
     inkscape:cy="743.50757"
     inkscape:document-units="mm"
     inkscape:current-layer="layer1"
     showgrid="false"
     units="px"
     inkscape:window-width="1600"
     inkscape:window-height="1149"
     inkscape:window-x="0"
     inkscape:window-y="26"
     inkscape:window-maximized="1"
     showguides="true"
     inkscape:guide-bbox="true">
    <sodipodi:guide
       position="0,52.916667"
       orientation="0,1"
       id="guide29"
       inkscape:locked="false"
       inkscape:label=""
       inkscape:color="rgb(0,0,255)" />
    <sodipodi:guide
       position="57.150382,139.09526"
       orientation="0,1"
       id="guide913"
       inkscape:locked="false" />
    <sodipodi:guide
       position="35.605739,52.916672"
       orientation="1,0"
       id="guide1095"
       inkscape:locked="false" />
    <sodipodi:guide
       position="35.605739,203.7292"
       orientation="0,1"
       id="guide1097"
       inkscape:locked="false" />
    <sodipodi:guide
       position="143.32896,52.916672"
       orientation="1,0"
       id="guide1099"
       inkscape:locked="false" />
  </sodipodi:namedview>
  <metadata
     id="metadata5">
    <rdf:RDF>
      <cc:Work
         rdf:about="">
        <dc:format>image/svg+xml</dc:format>
        <dc:type
           rdf:resource="http://purl.org/dc/dcmitype/StillImage" />
        <dc:title />
      </cc:Work>
    </rdf:RDF>
  </metadata>
  <g
     inkscape:label="Layer 1"
     inkscape:groupmode="layer"
     id="layer1"
     transform="translate(0,-32.41665)">
    <path
       style="fill:#010101;fill-opacity:1;fill-rule:nonzero;stroke:#ffffff;stroke-width:0;stroke-miterlimit:4;stroke-dasharray:none;stroke-opacity:1;paint-order:normal"
       d="M 175.28711 230 C 162.39765 230 152.02148 240.37617 152.02148 253.26562 L 152.02148 288.16211 C 152.02148 288.55114 152.03014 288.93803 152.04883 289.32227 C 152.03927 289.51216 152.02148 289.70022 152.02148 289.89258 L 152.02148 349.09766 L 152.02148 381.74609 L 152.02148 430.52539 C 152.02148 430.95024 152.04973 431.36907 152.0957 431.78125 C 152.05106 432.37264 152.02148 432.96906 152.02148 433.57227 C 152.02148 446.46172 162.39765 456.83789 175.28711 456.83789 L 239.26758 456.83789 L 242.73438 456.83789 L 274.16406 456.83789 C 287.05352 456.83789 297.42969 446.46172 297.42969 433.57227 C 297.42969 420.68281 287.05352 410.30469 274.16406 410.30469 L 242.73438 410.30469 L 239.26758 410.30469 L 198.55273 410.30469 L 198.55273 371.32031 L 198.55273 322.54102 L 198.55273 289.89258 C 198.55273 289.70022 198.53495 289.51216 198.52539 289.32227 C 198.54408 288.93803 198.55273 288.55114 198.55273 288.16211 L 198.55273 253.26562 C 198.55273 240.37617 188.17657 230 175.28711 230 z M 501.00195 230 C 488.11249 230 477.73438 240.37617 477.73438 253.26562 L 477.73438 327.44727 L 477.73438 369.5918 C 477.73438 382.48126 488.11249 392.85742 501.00195 392.85742 C 513.89141 392.85742 524.26758 382.48126 524.26758 369.5918 L 524.26758 303.62305 L 524.26758 253.26562 C 524.26758 240.37617 513.89141 230 501.00195 230 z M 402.125 410.30469 C 389.23554 410.30469 378.85938 420.68281 378.85938 433.57227 C 378.85938 446.46172 389.23554 456.83789 402.125 456.83789 L 437.02148 456.83789 C 449.91094 456.83789 460.28711 446.46172 460.28711 433.57227 C 460.28711 420.68281 449.91094 410.30469 437.02148 410.30469 L 402.125 410.30469 z M 338.14453 474.28516 C 325.25507 474.28516 314.87891 484.66328 314.87891 497.55273 L 314.87891 532.44727 L 314.87891 588.88867 L 314.87891 626.03125 L 314.87891 670.31641 L 314.87891 707.45898 L 314.87891 751.74609 L 314.87891 776.73438 C 314.87891 789.62383 325.25507 800 338.14453 800 C 351.03399 800 361.41016 789.62383 361.41016 776.73438 L 361.41016 741.83789 L 361.41016 692.54102 L 361.41016 648.25391 L 361.41016 611.11133 L 361.41016 566.82617 L 361.41016 529.68359 L 361.41016 497.55273 C 361.41016 484.66328 351.03399 474.28516 338.14453 474.28516 z "
       transform="matrix(0.26458333,0,0,0.26458333,0,32.41665)"
       id="rect7797" />
  </g>
</svg>
