<?xml version="1.0" encoding="UTF-8" standalone="no"?>
<!-- Created with Inkscape (http://www.inkscape.org/) -->

<svg
   xmlns:dc="http://purl.org/dc/elements/1.1/"
   xmlns:cc="http://creativecommons.org/ns#"
   xmlns:rdf="http://www.w3.org/1999/02/22-rdf-syntax-ns#"
   xmlns:svg="http://www.w3.org/2000/svg"
   xmlns="http://www.w3.org/2000/svg"
   xmlns:sodipodi="http://sodipodi.sourceforge.net/DTD/sodipodi-0.dtd"
   xmlns:inkscape="http://www.inkscape.org/namespaces/inkscape"
   width="1000"
   height="1000"
   viewBox="0 0 264.58333 264.58334"
   version="1.1"
   id="svg8"
   inkscape:version="0.92.4 (5da689c313, 2019-01-14)"
   sodipodi:docname="y.svg">
  <defs
     id="defs2" />
  <sodipodi:namedview
     id="base"
     pagecolor="#ffffff"
     bordercolor="#666666"
     borderopacity="1.0"
     inkscape:pageopacity="0.0"
     inkscape:pageshadow="2"
     inkscape:zoom="1.4"
     inkscape:cx="137.55655"
     inkscape:cy="441.45355"
     inkscape:document-units="mm"
     inkscape:current-layer="layer1"
     showgrid="false"
     units="px"
     inkscape:window-width="1600"
     inkscape:window-height="1149"
     inkscape:window-x="0"
     inkscape:window-y="26"
     inkscape:window-maximized="1"
     showguides="true"
     inkscape:guide-bbox="true">
    <sodipodi:guide
       position="0,52.916667"
       orientation="0,1"
       id="guide29"
       inkscape:locked="false"
       inkscape:label=""
       inkscape:color="rgb(0,0,255)" />
    <sodipodi:guide
       position="57.150382,139.09526"
       orientation="0,1"
       id="guide913"
       inkscape:locked="false" />
    <sodipodi:guide
       position="35.605739,52.916672"
       orientation="1,0"
       id="guide1095"
       inkscape:locked="false" />
    <sodipodi:guide
       position="35.605739,203.7292"
       orientation="0,1"
       id="guide1097"
       inkscape:locked="false" />
    <sodipodi:guide
       position="143.32896,52.916672"
       orientation="1,0"
       id="guide1099"
       inkscape:locked="false" />
    <sodipodi:guide
       position="97.161864,52.916687"
       orientation="1,0"
       id="guide1238"
       inkscape:locked="false" />
    <sodipodi:guide
       position="35.605739,102.16158"
       orientation="0,1"
       id="guide1240"
       inkscape:locked="false" />
  </sodipodi:namedview>
  <metadata
     id="metadata5">
    <rdf:RDF>
      <cc:Work
         rdf:about="">
        <dc:format>image/svg+xml</dc:format>
        <dc:type
           rdf:resource="http://purl.org/dc/dcmitype/StillImage" />
        <dc:title />
      </cc:Work>
    </rdf:RDF>
  </metadata>
  <g
     inkscape:label="Layer 1"
     inkscape:groupmode="layer"
     id="layer1"
     transform="translate(0,-32.41665)">
    <path
       style="fill:#010101;fill-opacity:1;fill-rule:nonzero;stroke:#ffffff;stroke-width:0;stroke-miterlimit:4;stroke-dasharray:none;stroke-opacity:1;paint-order:normal"
       d="M 140.92188 474.28516 C 137.40424 474.28516 134.57227 477.11713 134.57227 480.63477 L 134.57227 514.4668 L 134.57227 594.82812 L 134.57227 607.52734 C 134.57227 611.04498 137.40424 613.87695 140.92188 613.87695 L 153.62109 613.87695 L 221.28516 613.87695 C 224.8028 613.87695 227.63477 611.04498 227.63477 607.52734 L 227.63477 573.69727 C 227.63477 570.17963 224.8028 567.34766 221.28516 567.34766 L 181.10352 567.34766 L 181.10352 493.33398 L 181.10352 480.63477 C 181.10352 477.11713 178.27155 474.28516 174.75391 474.28516 L 140.92188 474.28516 z M 327.04492 474.28516 C 323.52728 474.28516 320.69531 477.11713 320.69531 480.63477 L 320.69531 486.98438 L 320.69531 514.4668 L 320.69531 527.16602 L 320.69531 554.64844 L 320.69531 560.99805 C 320.69531 564.51569 323.52728 567.34766 327.04492 567.34766 L 333.39453 567.34766 L 354.52734 567.34766 L 360.87695 567.34766 C 364.39459 567.34766 367.22656 564.51569 367.22656 560.99805 L 367.22656 554.64844 L 367.22656 527.16602 L 367.22656 514.4668 L 367.22656 486.98438 L 367.22656 480.63477 C 367.22656 477.11713 364.39459 474.28516 360.87695 474.28516 L 354.52734 474.28516 L 333.39453 474.28516 L 327.04492 474.28516 z M 280.51367 567.34766 C 276.99603 567.34766 274.16406 570.17963 274.16406 573.69727 L 274.16406 607.52734 C 274.16406 611.04498 276.99603 613.87695 280.51367 613.87695 L 314.3457 613.87695 C 317.86334 613.87695 320.69531 611.04498 320.69531 607.52734 L 320.69531 573.69727 C 320.69531 570.17963 317.86334 567.34766 314.3457 567.34766 L 280.51367 567.34766 z M 233.98438 613.87695 C 230.46674 613.87695 227.63477 616.70892 227.63477 620.22656 L 227.63477 654.05859 L 227.63477 713.28906 L 227.63477 747.11914 L 227.63477 757.31445 C 227.30632 758.08253 227.12305 758.92744 227.12305 759.81836 L 227.12305 793.65039 C 227.12305 797.16803 229.95502 800 233.47266 800 L 267.30469 800 C 270.82233 800 273.6543 797.16803 273.6543 793.65039 L 273.6543 779.91797 C 273.98631 778.20387 274.16406 776.4267 274.16406 774.60156 L 274.16406 747.11914 L 274.16406 713.28906 L 274.16406 639.27539 L 274.16406 620.22656 C 274.16406 616.70892 271.33209 613.87695 267.81445 613.87695 L 233.98438 613.87695 z "
       transform="matrix(0.26458333,0,0,0.26458333,0,32.41665)"
       id="rect251" />
  </g>
</svg>
