<?xml version="1.0" encoding="UTF-8" standalone="no"?>
<!-- Created with Inkscape (http://www.inkscape.org/) -->

<svg
   xmlns:dc="http://purl.org/dc/elements/1.1/"
   xmlns:cc="http://creativecommons.org/ns#"
   xmlns:rdf="http://www.w3.org/1999/02/22-rdf-syntax-ns#"
   xmlns:svg="http://www.w3.org/2000/svg"
   xmlns="http://www.w3.org/2000/svg"
   xmlns:sodipodi="http://sodipodi.sourceforge.net/DTD/sodipodi-0.dtd"
   xmlns:inkscape="http://www.inkscape.org/namespaces/inkscape"
   width="1000"
   height="1000"
   viewBox="0 0 264.58333 264.58334"
   version="1.1"
   id="svg8"
   inkscape:version="0.92.4 (5da689c313, 2019-01-14)"
   sodipodi:docname="y.svg">
  <defs
     id="defs2" />
  <sodipodi:namedview
     id="base"
     pagecolor="#ffffff"
     bordercolor="#666666"
     borderopacity="1.0"
     inkscape:pageopacity="0.0"
     inkscape:pageshadow="2"
     inkscape:zoom="1.979899"
     inkscape:cx="282.79648"
     inkscape:cy="349.43068"
     inkscape:document-units="mm"
     inkscape:current-layer="layer1"
     showgrid="false"
     units="px"
     inkscape:window-width="1600"
     inkscape:window-height="1149"
     inkscape:window-x="0"
     inkscape:window-y="26"
     inkscape:window-maximized="1"
     showguides="true"
     inkscape:guide-bbox="true">
    <sodipodi:guide
       position="0,52.916667"
       orientation="0,1"
       id="guide29"
       inkscape:locked="false"
       inkscape:label=""
       inkscape:color="rgb(0,0,255)" />
    <sodipodi:guide
       position="57.150382,139.09526"
       orientation="0,1"
       id="guide913"
       inkscape:locked="false" />
    <sodipodi:guide
       position="35.605739,52.916672"
       orientation="1,0"
       id="guide1095"
       inkscape:locked="false" />
    <sodipodi:guide
       position="35.605739,203.7292"
       orientation="0,1"
       id="guide1097"
       inkscape:locked="false" />
    <sodipodi:guide
       position="143.32896,52.916672"
       orientation="1,0"
       id="guide1099"
       inkscape:locked="false" />
    <sodipodi:guide
       position="97.161864,52.916687"
       orientation="1,0"
       id="guide1238"
       inkscape:locked="false" />
    <sodipodi:guide
       position="35.605739,102.16158"
       orientation="0,1"
       id="guide1240"
       inkscape:locked="false" />
  </sodipodi:namedview>
  <metadata
     id="metadata5">
    <rdf:RDF>
      <cc:Work
         rdf:about="">
        <dc:format>image/svg+xml</dc:format>
        <dc:type
           rdf:resource="http://purl.org/dc/dcmitype/StillImage" />
        <dc:title />
      </cc:Work>
    </rdf:RDF>
  </metadata>
  <g
     inkscape:label="Layer 1"
     inkscape:groupmode="layer"
     id="layer1"
     transform="translate(0,-32.41665)">
    <path
       style="fill:#010101;fill-opacity:1;fill-rule:nonzero;stroke:#ffffff;stroke-width:0;stroke-miterlimit:4;stroke-dasharray:none;stroke-opacity:1;paint-order:normal"
       d="M 157.83789 474.28516 C 144.94891 474.28516 134.57227 484.6618 134.57227 497.55078 C 134.57227 498.3934 134.62053 499.22403 134.70703 500.04297 C 134.62732 500.68857 134.57227 501.34192 134.57227 502.00977 L 134.57227 586.15234 C 134.57227 586.82005 134.62735 587.47368 134.70703 588.11914 C 134.62052 588.93814 134.57227 589.76865 134.57227 590.61133 C 134.57227 603.50031 144.94891 613.87695 157.83789 613.87695 C 158.53244 613.87695 159.21776 613.84223 159.89648 613.7832 C 160.2806 613.83953 160.67007 613.87695 161.07031 613.87695 L 203.60156 613.87695 C 203.68664 613.87695 203.7691 613.86785 203.85352 613.86523 C 204.02549 613.86895 204.19625 613.87695 204.36914 613.87695 C 217.25812 613.87695 227.63477 603.50031 227.63477 590.61133 C 227.63477 577.72235 217.25812 567.34766 204.36914 567.34766 C 204.19625 567.34766 204.02549 567.35566 203.85352 567.35938 C 203.7691 567.35676 203.68664 567.34766 203.60156 567.34766 L 181.10352 567.34766 L 181.10352 502.00977 C 181.10352 501.34468 181.04977 500.69381 180.9707 500.05078 C 181.05774 499.22935 181.10352 498.39604 181.10352 497.55078 C 181.10352 484.6618 170.72687 474.28516 157.83789 474.28516 z M 343.96094 474.28516 C 331.07196 474.28516 320.69531 484.6618 320.69531 497.55078 C 320.69531 497.67261 320.70323 497.79269 320.70508 497.91406 C 320.7038 497.97313 320.69531 498.03046 320.69531 498.08984 L 320.69531 540.62109 C 320.69531 541.04616 320.73739 541.46045 320.80078 541.86719 C 320.73248 542.59646 320.69531 543.33431 320.69531 544.08203 C 320.69531 556.97101 331.07196 567.34766 343.96094 567.34766 C 356.84992 567.34766 367.22656 556.97101 367.22656 544.08203 C 367.22656 543.33762 367.18685 542.60309 367.11914 541.87695 C 367.18353 541.46711 367.22656 541.04958 367.22656 540.62109 L 367.22656 498.08984 C 367.22656 498.02783 367.21819 497.96792 367.2168 497.90625 C 367.21857 497.78748 367.22656 497.66998 367.22656 497.55078 C 367.22656 484.6618 356.84992 474.28516 343.96094 474.28516 z M 297.42969 567.34766 C 284.54071 567.34766 274.16406 577.72235 274.16406 590.61133 C 274.16406 603.50031 284.54071 613.87695 297.42969 613.87695 C 310.31867 613.87695 320.69531 603.50031 320.69531 590.61133 C 320.69531 577.72235 310.31867 567.34766 297.42969 567.34766 z M 250.89844 613.87695 C 238.00946 613.87695 227.63477 624.2536 227.63477 637.14258 C 227.63477 637.59253 227.64887 638.03893 227.67383 638.48242 C 227.65446 638.74653 227.63477 639.01007 227.63477 639.2793 L 227.63477 696.24805 L 227.63477 774.95117 C 227.63477 775.14788 227.6567 775.33836 227.66406 775.5332 C 227.64404 775.93084 227.63477 776.33159 227.63477 776.73438 C 227.63477 789.62336 238.00946 800 250.89844 800 C 263.78742 800 274.16406 789.62336 274.16406 776.73438 C 274.16406 776.33159 274.15479 775.93084 274.13477 775.5332 C 274.14213 775.33836 274.16406 775.14788 274.16406 774.95117 L 274.16406 694.29688 L 274.16406 639.2793 C 274.16406 639.01007 274.14436 638.74653 274.125 638.48242 C 274.14996 638.03893 274.16406 637.59253 274.16406 637.14258 C 274.16406 624.2536 263.78742 613.87695 250.89844 613.87695 z "
       transform="matrix(0.26458333,0,0,0.26458333,0,32.41665)"
       id="rect251" />
  </g>
</svg>
