<?xml version="1.0" encoding="UTF-8" standalone="no"?>
<!-- Created with Inkscape (http://www.inkscape.org/) -->

<svg
   xmlns:dc="http://purl.org/dc/elements/1.1/"
   xmlns:cc="http://creativecommons.org/ns#"
   xmlns:rdf="http://www.w3.org/1999/02/22-rdf-syntax-ns#"
   xmlns:svg="http://www.w3.org/2000/svg"
   xmlns="http://www.w3.org/2000/svg"
   xmlns:sodipodi="http://sodipodi.sourceforge.net/DTD/sodipodi-0.dtd"
   xmlns:inkscape="http://www.inkscape.org/namespaces/inkscape"
   width="1000"
   height="1000"
   viewBox="0 0 264.58333 264.58334"
   version="1.1"
   id="svg8"
   inkscape:version="0.92.4 (5da689c313, 2019-01-14)"
   sodipodi:docname="Z.svg">
  <defs
     id="defs2" />
  <sodipodi:namedview
     id="base"
     pagecolor="#ffffff"
     bordercolor="#666666"
     borderopacity="1.0"
     inkscape:pageopacity="0.0"
     inkscape:pageshadow="2"
     inkscape:zoom="0.7"
     inkscape:cx="506.11847"
     inkscape:cy="501.25629"
     inkscape:document-units="mm"
     inkscape:current-layer="layer1"
     showgrid="false"
     units="px"
     inkscape:window-width="1600"
     inkscape:window-height="1149"
     inkscape:window-x="0"
     inkscape:window-y="26"
     inkscape:window-maximized="1"
     showguides="true"
     inkscape:guide-bbox="true">
    <sodipodi:guide
       position="0,52.916667"
       orientation="0,1"
       id="guide29"
       inkscape:locked="false"
       inkscape:label=""
       inkscape:color="rgb(0,0,255)" />
    <sodipodi:guide
       position="57.150382,139.09526"
       orientation="0,1"
       id="guide913"
       inkscape:locked="false" />
    <sodipodi:guide
       position="35.605739,52.916672"
       orientation="1,0"
       id="guide1095"
       inkscape:locked="false" />
    <sodipodi:guide
       position="35.605739,203.7292"
       orientation="0,1"
       id="guide1097"
       inkscape:locked="false" />
    <sodipodi:guide
       position="143.32896,52.916672"
       orientation="1,0"
       id="guide1099"
       inkscape:locked="false" />
  </sodipodi:namedview>
  <metadata
     id="metadata5">
    <rdf:RDF>
      <cc:Work
         rdf:about="">
        <dc:format>image/svg+xml</dc:format>
        <dc:type
           rdf:resource="http://purl.org/dc/dcmitype/StillImage" />
        <dc:title />
      </cc:Work>
    </rdf:RDF>
  </metadata>
  <g
     inkscape:label="Layer 1"
     inkscape:groupmode="layer"
     id="layer1"
     transform="translate(0,-32.41665)">
    <path
       style="fill:#010101;fill-opacity:1;fill-rule:nonzero;stroke:#ffffff;stroke-width:0;stroke-miterlimit:4;stroke-dasharray:none;stroke-opacity:1;paint-order:normal"
       d="M 157.83984 247.44727 C 144.95038 247.44727 134.57227 257.82538 134.57227 270.71484 C 134.57227 283.6043 144.95038 293.98047 157.83984 293.98047 L 192.73438 293.98047 L 245.875 293.98047 L 291.08008 293.98047 L 327.30469 293.98047 L 372.50977 293.98047 L 408.73242 293.98047 L 437.02148 293.98047 C 449.91094 293.98047 460.28711 283.6043 460.28711 270.71484 C 460.28711 257.82538 449.91094 247.44727 437.02148 247.44727 L 408.73242 247.44727 L 372.50977 247.44727 L 327.30469 247.44727 L 291.08008 247.44727 L 245.875 247.44727 L 192.73438 247.44727 L 157.83984 247.44727 z M 501.00195 311.42773 C 488.11249 311.42773 477.73438 321.80585 477.73438 334.69531 L 477.73438 369.5918 C 477.73438 370.63287 477.81016 371.65406 477.94141 372.6582 C 477.81043 373.34286 477.73438 374.04753 477.73438 374.77148 L 477.73438 433.97656 L 477.73438 463.17383 L 477.73438 491.73438 L 453.9375 491.73438 L 419.47266 491.73438 L 372.50977 491.73438 L 338.04492 491.73438 L 291.08008 491.73438 L 256.61523 491.73438 L 176.45898 491.73438 C 176.32561 491.73438 176.19574 491.74588 176.06445 491.75391 C 175.8059 491.74548 175.54779 491.73438 175.28711 491.73438 C 162.39765 491.73437 152.02148 502.11054 152.02148 515 C 152.02148 515.29015 152.03254 515.57772 152.04297 515.86523 C 152.03762 516.00751 152.02148 516.14739 152.02148 516.29102 L 152.02148 575.49609 L 152.02148 626.03125 L 152.02148 656.92383 L 152.02148 688.36914 C 151.98151 688.78949 151.95703 689.21533 151.95703 689.64648 L 151.95703 760.05273 C 151.95703 761.16517 152.10872 762.23868 152.36523 763.26953 C 154.11909 773.50948 162.51438 781.4228 172.99414 782.43945 C 173.37835 782.51151 173.77394 782.55273 174.17969 782.55273 L 242.9082 782.55273 L 291.08008 782.55273 L 324.33789 782.55273 L 372.50977 782.55273 L 405.76562 782.55273 L 418.46484 782.55273 L 453.9375 782.55273 L 483.55273 782.55273 L 487.19336 782.55273 L 518.44922 782.55273 C 531.33868 782.55273 541.71484 772.17462 541.71484 759.28516 C 541.71484 746.3957 531.33868 736.01953 518.44922 736.01953 L 487.19336 736.01953 L 483.55273 736.01953 L 453.9375 736.01953 L 418.46484 736.01953 L 405.76562 736.01953 L 372.50977 736.01953 L 324.33789 736.01953 L 291.08008 736.01953 L 242.9082 736.01953 L 198.49023 736.01953 L 198.49023 708.63867 C 198.53072 708.25141 198.55273 707.85732 198.55273 707.45898 L 198.55273 648.25391 L 198.55273 597.71875 L 198.55273 566.82617 L 198.55273 538.26562 L 256.61523 538.26562 L 291.08008 538.26562 L 338.04492 538.26562 L 372.50977 538.26562 L 419.47266 538.26562 L 453.9375 538.26562 L 500.90234 538.26562 C 500.91357 538.26562 500.92433 538.26373 500.93555 538.26367 C 500.9578 538.26373 500.97968 538.26562 501.00195 538.26562 C 513.62419 538.26562 523.83002 528.31378 524.24805 515.79688 C 524.25257 515.66603 524.26758 515.53824 524.26758 515.40625 L 524.26758 456.20117 L 524.26758 403.96875 L 524.26758 374.77148 C 524.26758 374.0462 524.19395 373.34012 524.0625 372.6543 C 524.1934 371.65143 524.26758 370.63149 524.26758 369.5918 L 524.26758 334.69531 C 524.26758 321.80585 513.89141 311.42773 501.00195 311.42773 z "
       transform="matrix(0.26458333,0,0,0.26458333,0,32.41665)"
       id="rect884" />
  </g>
</svg>
