<?xml version="1.0" encoding="UTF-8" standalone="no"?>
<!-- Created with Inkscape (http://www.inkscape.org/) -->

<svg
   xmlns:dc="http://purl.org/dc/elements/1.1/"
   xmlns:cc="http://creativecommons.org/ns#"
   xmlns:rdf="http://www.w3.org/1999/02/22-rdf-syntax-ns#"
   xmlns:svg="http://www.w3.org/2000/svg"
   xmlns="http://www.w3.org/2000/svg"
   xmlns:sodipodi="http://sodipodi.sourceforge.net/DTD/sodipodi-0.dtd"
   xmlns:inkscape="http://www.inkscape.org/namespaces/inkscape"
   width="1000"
   height="1000"
   viewBox="0 0 264.58333 264.58334"
   version="1.1"
   id="svg8"
   inkscape:version="0.92.4 (5da689c313, 2019-01-14)"
   sodipodi:docname="Z.svg">
  <defs
     id="defs2" />
  <sodipodi:namedview
     id="base"
     pagecolor="#ffffff"
     bordercolor="#666666"
     borderopacity="1.0"
     inkscape:pageopacity="0.0"
     inkscape:pageshadow="2"
     inkscape:zoom="0.98994949"
     inkscape:cx="401.8503"
     inkscape:cy="449.63925"
     inkscape:document-units="mm"
     inkscape:current-layer="layer1"
     showgrid="false"
     units="px"
     inkscape:window-width="1600"
     inkscape:window-height="1149"
     inkscape:window-x="0"
     inkscape:window-y="26"
     inkscape:window-maximized="1"
     showguides="true"
     inkscape:guide-bbox="true">
    <sodipodi:guide
       position="0,52.916667"
       orientation="0,1"
       id="guide29"
       inkscape:locked="false"
       inkscape:label=""
       inkscape:color="rgb(0,0,255)" />
    <sodipodi:guide
       position="57.150382,139.09526"
       orientation="0,1"
       id="guide913"
       inkscape:locked="false" />
    <sodipodi:guide
       position="35.605739,52.916672"
       orientation="1,0"
       id="guide1095"
       inkscape:locked="false" />
    <sodipodi:guide
       position="35.605739,203.7292"
       orientation="0,1"
       id="guide1097"
       inkscape:locked="false" />
    <sodipodi:guide
       position="143.32896,52.916672"
       orientation="1,0"
       id="guide1099"
       inkscape:locked="false" />
  </sodipodi:namedview>
  <metadata
     id="metadata5">
    <rdf:RDF>
      <cc:Work
         rdf:about="">
        <dc:format>image/svg+xml</dc:format>
        <dc:type
           rdf:resource="http://purl.org/dc/dcmitype/StillImage" />
        <dc:title />
      </cc:Work>
    </rdf:RDF>
  </metadata>
  <g
     inkscape:label="Layer 1"
     inkscape:groupmode="layer"
     id="layer1"
     transform="translate(0,-32.41665)">
    <path
       style="fill:#010101;fill-opacity:1;fill-rule:nonzero;stroke:#ffffff;stroke-width:0;stroke-miterlimit:4;stroke-dasharray:none;stroke-opacity:1;paint-order:normal"
       d="M 175.28711 230 C 152.7314 230 134.57227 248.15913 134.57227 270.71484 C 134.57227 293.27055 152.7314 311.42773 175.28711 311.42773 C 175.58124 311.42773 175.87146 311.41239 176.16406 311.40625 C 176.31174 311.41201 176.45633 311.42773 176.60547 311.42773 L 331.77539 311.42773 L 418.64062 311.42773 C 418.74622 311.42773 418.84826 311.41501 418.95312 311.41211 C 419.16003 311.41518 419.3646 311.42773 419.57227 311.42773 C 442.12797 311.42773 460.28711 293.27055 460.28711 270.71484 C 460.28711 248.15913 442.12797 230 419.57227 230 C 419.3646 230 419.16003 230.01256 418.95312 230.01562 C 418.84826 230.01273 418.74622 230 418.64062 230 L 331.77539 230 L 176.60547 230 C 176.45633 230 176.31174 230.01572 176.16406 230.02148 C 175.87146 230.01534 175.58124 230 175.28711 230 z M 501.00195 311.42773 C 478.44624 311.42773 460.28711 329.58687 460.28711 352.14258 C 460.28711 352.51924 460.30439 352.89148 460.31445 353.26562 C 460.30111 353.63333 460.28711 354.00001 460.28711 354.37109 L 460.28711 474.28516 L 367.74609 474.28516 L 339.5332 474.28516 L 173.89844 474.28516 C 173.38792 474.28516 172.89031 474.33241 172.39844 474.39844 C 151.20268 475.87243 134.57227 493.4169 134.57227 515 C 134.57227 516.32535 134.64108 517.63359 134.76367 518.92578 C 134.64181 519.98805 134.57227 521.06615 134.57227 522.16211 L 134.57227 670.69531 L 134.57227 755.5 C 134.57227 756.06571 134.59351 756.62798 134.625 757.18555 C 134.59002 757.88077 134.57227 758.58095 134.57227 759.28516 C 134.57227 781.84087 152.7314 800 175.28711 800 C 175.29627 800 175.30529 800.00001 175.31445 800 C 175.31905 800.00001 175.32352 800 175.32812 800 L 338.10352 800 L 367.74609 800 L 500.06836 800 C 500.17395 800 500.27599 799.98727 500.38086 799.98438 C 500.58841 799.98746 500.79364 800 501.00195 800 C 523.55766 800 541.71484 781.84087 541.71484 759.28516 C 541.71484 736.72945 523.55766 718.57227 501.00195 718.57227 C 500.79364 718.57227 500.58841 718.5848 500.38086 718.58789 C 500.27599 718.58499 500.17395 718.57227 500.06836 718.57227 L 367.74609 718.57227 L 338.10352 718.57227 L 216.00195 718.57227 L 216.00195 600.21484 L 216.00195 555.71484 L 339.5332 555.71484 L 367.74609 555.71484 L 499.89062 555.71484 C 500.01405 555.71484 500.13343 555.69927 500.25586 555.69531 C 500.50501 555.69976 500.75171 555.71484 501.00195 555.71484 C 523.55766 555.71484 541.71484 537.55571 541.71484 515 C 541.71484 514.63316 541.69705 514.27071 541.6875 513.90625 C 541.70156 513.52888 541.71484 513.15241 541.71484 512.77148 L 541.71484 354.37109 C 541.71484 353.99017 541.70156 353.61369 541.6875 353.23633 C 541.69705 352.87187 541.71484 352.50942 541.71484 352.14258 C 541.71484 329.58687 523.55766 311.42773 501.00195 311.42773 z "
       transform="matrix(0.26458333,0,0,0.26458333,0,32.41665)"
       id="rect884" />
  </g>
</svg>
