<?xml version="1.0" encoding="UTF-8" standalone="no"?>
<!-- Created with Inkscape (http://www.inkscape.org/) -->

<svg
   xmlns:dc="http://purl.org/dc/elements/1.1/"
   xmlns:cc="http://creativecommons.org/ns#"
   xmlns:rdf="http://www.w3.org/1999/02/22-rdf-syntax-ns#"
   xmlns:svg="http://www.w3.org/2000/svg"
   xmlns="http://www.w3.org/2000/svg"
   xmlns:sodipodi="http://sodipodi.sourceforge.net/DTD/sodipodi-0.dtd"
   xmlns:inkscape="http://www.inkscape.org/namespaces/inkscape"
   width="1000"
   height="1000"
   viewBox="0 0 264.58333 264.58334"
   version="1.1"
   id="svg8"
   inkscape:version="0.92.4 (5da689c313, 2019-01-14)"
   sodipodi:docname="z.svg">
  <defs
     id="defs2" />
  <sodipodi:namedview
     id="base"
     pagecolor="#ffffff"
     bordercolor="#666666"
     borderopacity="1.0"
     inkscape:pageopacity="0.0"
     inkscape:pageshadow="2"
     inkscape:zoom="0.98994949"
     inkscape:cx="216.51246"
     inkscape:cy="131.36869"
     inkscape:document-units="mm"
     inkscape:current-layer="layer1"
     showgrid="false"
     units="px"
     inkscape:window-width="1600"
     inkscape:window-height="1149"
     inkscape:window-x="0"
     inkscape:window-y="26"
     inkscape:window-maximized="1"
     showguides="true"
     inkscape:guide-bbox="true">
    <sodipodi:guide
       position="0,52.916667"
       orientation="0,1"
       id="guide29"
       inkscape:locked="false"
       inkscape:label=""
       inkscape:color="rgb(0,0,255)" />
    <sodipodi:guide
       position="57.150382,139.09526"
       orientation="0,1"
       id="guide913"
       inkscape:locked="false" />
    <sodipodi:guide
       position="35.605739,52.916672"
       orientation="1,0"
       id="guide1095"
       inkscape:locked="false" />
    <sodipodi:guide
       position="35.605739,203.7292"
       orientation="0,1"
       id="guide1097"
       inkscape:locked="false" />
    <sodipodi:guide
       position="143.32896,52.916672"
       orientation="1,0"
       id="guide1099"
       inkscape:locked="false" />
    <sodipodi:guide
       position="97.161864,52.916687"
       orientation="1,0"
       id="guide1238"
       inkscape:locked="false" />
    <sodipodi:guide
       position="35.605739,102.16158"
       orientation="0,1"
       id="guide1240"
       inkscape:locked="false" />
  </sodipodi:namedview>
  <metadata
     id="metadata5">
    <rdf:RDF>
      <cc:Work
         rdf:about="">
        <dc:format>image/svg+xml</dc:format>
        <dc:type
           rdf:resource="http://purl.org/dc/dcmitype/StillImage" />
        <dc:title />
      </cc:Work>
    </rdf:RDF>
  </metadata>
  <g
     inkscape:label="Layer 1"
     inkscape:groupmode="layer"
     id="layer1"
     transform="translate(0,-32.41665)">
    <path
       style="fill:#010101;fill-opacity:1;fill-rule:nonzero;stroke:#ffffff;stroke-width:0;stroke-miterlimit:4;stroke-dasharray:none;stroke-opacity:1;paint-order:normal"
       d="M 156.89648 474.28516 C 156.54862 474.28516 156.20933 474.32169 155.87695 474.375 C 143.9136 475.36557 134.57227 485.32316 134.57227 497.55078 C 134.57227 509.78705 143.92682 519.7519 155.90234 520.73047 C 156.2267 520.78115 156.55747 520.81641 156.89648 520.81641 L 221.28516 520.81641 L 300.14062 520.81641 C 301.15488 520.81641 302.10824 520.57567 302.95703 520.15625 C 313.15978 517.68741 320.69531 508.53344 320.69531 497.55078 C 320.69531 486.5668 313.15775 477.41283 302.95312 474.94531 C 302.10523 474.52701 301.15344 474.28516 300.14062 474.28516 L 221.28516 474.28516 L 156.89648 474.28516 z M 343.96094 520.81641 C 331.07196 520.81641 320.69531 531.19305 320.69531 544.08203 C 320.69531 544.64767 320.72241 545.20642 320.76172 545.76172 C 320.72753 546.1952 320.69531 546.6297 320.69531 547.07227 L 320.69531 613.87695 L 267.81445 613.87695 L 249.35156 613.87695 L 159.38477 613.87695 C 159.20848 613.87695 159.03586 613.89034 158.86328 613.9043 C 158.52316 613.88968 158.18173 613.87695 157.83789 613.87695 C 144.94891 613.87695 134.57227 624.2536 134.57227 637.14258 C 134.57227 637.57062 134.58677 637.99576 134.60938 638.41797 C 134.5965 638.66132 134.57227 638.90176 134.57227 639.14844 L 134.57227 711.41211 C 134.57227 712.4895 134.71008 713.53152 134.94531 714.53516 C 134.70935 715.40395 134.57227 716.31424 134.57227 717.25977 L 134.57227 772.25586 C 134.57227 772.86195 134.63509 773.45046 134.73438 774.02734 C 134.63222 774.91581 134.57227 775.81765 134.57227 776.73438 C 134.57227 789.62205 144.94682 799.99789 157.83398 800 C 157.83529 800 157.83658 800 157.83789 800 L 220.77344 800 L 293.73438 800 L 343.47852 800 C 343.53133 800 343.58227 799.99346 343.63477 799.99219 C 343.74377 799.99368 343.85157 800 343.96094 800 C 356.84992 800 367.22656 789.62336 367.22656 776.73438 C 367.22656 763.84539 356.84992 753.46875 343.96094 753.46875 C 343.85353 753.46875 343.74768 753.47513 343.64062 753.47656 C 343.58618 753.4752 343.53331 753.46875 343.47852 753.46875 L 293.73438 753.46875 L 220.77344 753.46875 L 181.10352 753.46875 L 181.10352 717.25977 C 181.10352 716.31424 180.96643 715.40395 180.73047 714.53516 C 180.9657 713.53152 181.10352 712.4895 181.10352 711.41211 L 181.10352 660.4082 L 249.35156 660.4082 L 267.81445 660.4082 L 344.59375 660.4082 C 344.82522 660.4082 345.05438 660.39305 345.2793 660.36914 C 357.54997 659.68981 367.22656 649.58888 367.22656 637.14258 C 367.22656 636.58227 367.19873 636.02868 367.16016 635.47852 C 367.19515 635.03999 367.22656 634.60017 367.22656 634.15234 L 367.22656 547.07227 C 367.22656 546.62444 367.19515 546.18462 367.16016 545.74609 C 367.19873 545.19593 367.22656 544.64234 367.22656 544.08203 C 367.22656 531.19305 356.84992 520.81641 343.96094 520.81641 z "
       transform="matrix(0.26458333,0,0,0.26458333,0,32.41665)"
       id="rect251" />
  </g>
</svg>
