<?xml version="1.0" encoding="UTF-8" standalone="no"?>
<!-- Created with Inkscape (http://www.inkscape.org/) -->

<svg
   xmlns:dc="http://purl.org/dc/elements/1.1/"
   xmlns:cc="http://creativecommons.org/ns#"
   xmlns:rdf="http://www.w3.org/1999/02/22-rdf-syntax-ns#"
   xmlns:svg="http://www.w3.org/2000/svg"
   xmlns="http://www.w3.org/2000/svg"
   xmlns:sodipodi="http://sodipodi.sourceforge.net/DTD/sodipodi-0.dtd"
   xmlns:inkscape="http://www.inkscape.org/namespaces/inkscape"
   width="1000"
   height="1000"
   viewBox="0 0 264.58333 264.58334"
   version="1.1"
   id="svg8"
   inkscape:version="0.92.4 (5da689c313, 2019-01-14)"
   sodipodi:docname="g.svg">
  <defs
     id="defs2" />
  <sodipodi:namedview
     id="base"
     pagecolor="#ffffff"
     bordercolor="#666666"
     borderopacity="1.0"
     inkscape:pageopacity="0.0"
     inkscape:pageshadow="2"
     inkscape:zoom="3.959798"
     inkscape:cx="316.06056"
     inkscape:cy="444.85155"
     inkscape:document-units="mm"
     inkscape:current-layer="layer1"
     showgrid="false"
     units="px"
     inkscape:window-width="1600"
     inkscape:window-height="1149"
     inkscape:window-x="0"
     inkscape:window-y="26"
     inkscape:window-maximized="1"
     showguides="true"
     inkscape:guide-bbox="true">
    <sodipodi:guide
       position="0,52.916667"
       orientation="0,1"
       id="guide29"
       inkscape:locked="false"
       inkscape:label=""
       inkscape:color="rgb(0,0,255)" />
    <sodipodi:guide
       position="57.150382,139.09526"
       orientation="0,1"
       id="guide913"
       inkscape:locked="false" />
    <sodipodi:guide
       position="35.605739,52.916672"
       orientation="1,0"
       id="guide1095"
       inkscape:locked="false" />
    <sodipodi:guide
       position="35.605739,203.7292"
       orientation="0,1"
       id="guide1097"
       inkscape:locked="false" />
    <sodipodi:guide
       position="143.32896,52.916672"
       orientation="1,0"
       id="guide1099"
       inkscape:locked="false" />
    <sodipodi:guide
       position="97.161864,52.916687"
       orientation="1,0"
       id="guide1238"
       inkscape:locked="false" />
    <sodipodi:guide
       position="35.605739,102.16158"
       orientation="0,1"
       id="guide1240"
       inkscape:locked="false" />
  </sodipodi:namedview>
  <metadata
     id="metadata5">
    <rdf:RDF>
      <cc:Work
         rdf:about="">
        <dc:format>image/svg+xml</dc:format>
        <dc:type
           rdf:resource="http://purl.org/dc/dcmitype/StillImage" />
        <dc:title />
      </cc:Work>
    </rdf:RDF>
  </metadata>
  <g
     inkscape:label="Layer 1"
     inkscape:groupmode="layer"
     id="layer1"
     transform="translate(0,-32.41665)">
    <path
       style="fill:#010101;fill-opacity:1;fill-rule:nonzero;stroke:#ffffff;stroke-width:0;stroke-miterlimit:4;stroke-dasharray:none;stroke-opacity:1;paint-order:normal"
       d="M 187.45312 474.28516 C 183.93549 474.28516 181.10352 477.11713 181.10352 480.63477 L 181.10352 514.4668 C 181.10352 517.76458 183.59317 520.4592 186.80273 520.7832 C 187.01671 520.8048 187.23327 520.81641 187.45312 520.81641 L 320.69531 520.81641 L 320.69531 531.43164 L 320.69531 554.64844 L 320.69531 620.22656 L 320.69531 654.05859 L 320.69531 713.28906 L 320.69531 747.11914 L 320.69531 753.46875 L 181.10352 753.46875 L 181.10352 747.11914 L 181.10352 713.28906 L 181.10352 700.58984 L 181.10352 666.75781 L 181.10352 607.52734 L 181.10352 573.69727 L 181.10352 558.91406 L 181.10352 527.16602 C 181.10352 523.64838 178.27155 520.81641 174.75391 520.81641 L 140.92188 520.81641 C 137.40424 520.81641 134.57227 523.64838 134.57227 527.16602 L 134.57227 560.99805 L 134.57227 573.69727 L 134.57227 607.52734 L 134.57227 666.75781 L 134.57227 700.58984 L 134.57227 713.28906 L 134.57227 747.11914 L 134.57227 761.90234 L 134.57227 793.65039 C 134.57227 797.16803 137.40424 800 140.92188 800 L 157.83789 800 L 174.75391 800 L 320.69531 800 L 320.69531 835.91602 L 320.69531 840.18164 L 320.69531 893.06055 L 140.92188 893.06055 C 137.40424 893.06055 134.57227 895.89252 134.57227 899.41016 L 134.57227 933.24219 C 134.57227 936.75983 137.40424 939.5918 140.92188 939.5918 L 360.87695 939.5918 C 361.31666 939.5918 361.74607 939.5472 362.16016 939.46289 C 365.05781 938.87204 367.22656 936.31946 367.22656 933.24219 L 367.22656 920.54297 L 367.22656 899.41016 L 367.22656 840.18164 L 367.22656 806.34961 L 367.22656 793.65039 L 367.22656 759.81836 L 367.22656 747.11914 L 367.22656 713.28906 L 367.22656 654.05859 L 367.22656 620.22656 L 367.22656 554.64844 L 367.22656 531.43164 L 367.22656 514.4668 L 367.22656 486.98438 L 367.22656 480.63477 C 367.22656 477.11713 364.39459 474.28516 360.87695 474.28516 L 354.52734 474.28516 L 343.96094 474.28516 L 333.39453 474.28516 L 187.45312 474.28516 z "
       transform="matrix(0.26458333,0,0,0.26458333,0,32.41665)"
       id="rect105" />
  </g>
</svg>
