<?xml version="1.0" encoding="UTF-8" standalone="no"?>
<!-- Created with Inkscape (http://www.inkscape.org/) -->

<svg
   xmlns:dc="http://purl.org/dc/elements/1.1/"
   xmlns:cc="http://creativecommons.org/ns#"
   xmlns:rdf="http://www.w3.org/1999/02/22-rdf-syntax-ns#"
   xmlns:svg="http://www.w3.org/2000/svg"
   xmlns="http://www.w3.org/2000/svg"
   xmlns:sodipodi="http://sodipodi.sourceforge.net/DTD/sodipodi-0.dtd"
   xmlns:inkscape="http://www.inkscape.org/namespaces/inkscape"
   width="1000"
   height="1000"
   viewBox="0 0 264.58333 264.58334"
   version="1.1"
   id="svg8"
   inkscape:version="0.92.4 (5da689c313, 2019-01-14)"
   sodipodi:docname="k.svg">
  <defs
     id="defs2" />
  <sodipodi:namedview
     id="base"
     pagecolor="#ffffff"
     bordercolor="#666666"
     borderopacity="1.0"
     inkscape:pageopacity="0.0"
     inkscape:pageshadow="2"
     inkscape:zoom="0.98994949"
     inkscape:cx="31.884731"
     inkscape:cy="397.35113"
     inkscape:document-units="mm"
     inkscape:current-layer="layer1"
     showgrid="false"
     units="px"
     inkscape:window-width="1600"
     inkscape:window-height="1149"
     inkscape:window-x="0"
     inkscape:window-y="26"
     inkscape:window-maximized="1"
     showguides="true"
     inkscape:guide-bbox="true">
    <sodipodi:guide
       position="0,52.916667"
       orientation="0,1"
       id="guide29"
       inkscape:locked="false"
       inkscape:label=""
       inkscape:color="rgb(0,0,255)" />
    <sodipodi:guide
       position="57.150382,139.09526"
       orientation="0,1"
       id="guide913"
       inkscape:locked="false" />
    <sodipodi:guide
       position="35.605739,52.916672"
       orientation="1,0"
       id="guide1095"
       inkscape:locked="false" />
    <sodipodi:guide
       position="35.605739,203.7292"
       orientation="0,1"
       id="guide1097"
       inkscape:locked="false" />
    <sodipodi:guide
       position="143.32896,52.916672"
       orientation="1,0"
       id="guide1099"
       inkscape:locked="false" />
    <sodipodi:guide
       position="97.161864,52.916687"
       orientation="1,0"
       id="guide1238"
       inkscape:locked="false" />
    <sodipodi:guide
       position="35.605739,102.16158"
       orientation="0,1"
       id="guide1240"
       inkscape:locked="false" />
  </sodipodi:namedview>
  <metadata
     id="metadata5">
    <rdf:RDF>
      <cc:Work
         rdf:about="">
        <dc:format>image/svg+xml</dc:format>
        <dc:type
           rdf:resource="http://purl.org/dc/dcmitype/StillImage" />
        <dc:title />
      </cc:Work>
    </rdf:RDF>
  </metadata>
  <g
     inkscape:label="Layer 1"
     inkscape:groupmode="layer"
     id="layer1"
     transform="translate(0,-32.41665)">
    <path
       style="fill:#010101;fill-opacity:1;fill-rule:nonzero;stroke:#ffffff;stroke-width:0;stroke-miterlimit:4;stroke-dasharray:none;stroke-opacity:1;paint-order:normal"
       d="M 140.92188 241.63281 C 137.40424 241.63281 134.57227 244.46478 134.57227 247.98242 L 134.57227 281.81445 L 134.57227 362.17578 L 134.57227 408.70703 L 134.57227 421.40625 L 134.57227 501.76758 L 134.57227 514.4668 L 134.57227 527.16602 L 134.57227 560.99805 L 134.57227 620.22656 L 134.57227 654.05859 L 134.57227 675.19141 L 134.57227 700.58984 L 134.57227 780.95117 L 134.57227 793.65039 C 134.57227 797.16803 137.40424 800 140.92188 800 L 174.75391 800 C 178.27155 800 181.10352 797.16803 181.10352 793.65039 L 181.10352 759.81836 L 181.10352 679.45703 L 181.10352 666.75781 L 181.10352 654.05859 L 181.10352 620.22656 L 181.10352 607.52734 C 181.10352 611.04498 183.93549 613.87695 187.45312 613.87695 L 221.28516 613.87695 C 224.8028 613.87695 227.63477 611.04498 227.63477 607.52734 L 227.63477 573.69727 C 227.63477 570.17963 224.8028 567.34766 221.28516 567.34766 L 187.45312 567.34766 C 183.93549 567.34766 181.10352 570.17963 181.10352 573.69727 L 181.10352 560.99805 L 181.10352 527.16602 L 181.10352 506.0332 L 181.10352 480.63477 L 181.10352 400.27344 L 181.10352 387.57422 L 181.10352 307.21094 L 181.10352 260.68164 L 181.10352 247.98242 C 181.10352 244.46478 178.27155 241.63281 174.75391 241.63281 L 140.92188 241.63281 z M 327.04492 427.75586 C 323.52728 427.75586 320.69531 430.58783 320.69531 434.10547 L 320.69531 467.93555 C 320.69531 471.45319 323.52728 474.28516 327.04492 474.28516 L 360.87695 474.28516 C 364.39459 474.28516 367.22656 471.45319 367.22656 467.93555 L 367.22656 434.10547 C 367.22656 430.58783 364.39459 427.75586 360.87695 427.75586 L 327.04492 427.75586 z M 280.51367 474.28516 C 276.99603 474.28516 274.16406 477.11713 274.16406 480.63477 L 274.16406 514.4668 C 274.16406 517.98444 276.99603 520.81641 280.51367 520.81641 L 314.3457 520.81641 C 317.86334 520.81641 320.69531 517.98444 320.69531 514.4668 L 320.69531 480.63477 C 320.69531 477.11713 317.86334 474.28516 314.3457 474.28516 L 280.51367 474.28516 z M 233.98438 520.81641 C 230.46674 520.81641 227.63477 523.64838 227.63477 527.16602 L 227.63477 560.99805 C 227.63477 564.51569 230.46674 567.34766 233.98438 567.34766 L 267.81445 567.34766 C 271.33209 567.34766 274.16406 564.51569 274.16406 560.99805 L 274.16406 527.16602 C 274.16406 523.64838 271.33209 520.81641 267.81445 520.81641 L 233.98438 520.81641 z M 233.98438 613.87695 C 230.46674 613.87695 227.63477 616.70892 227.63477 620.22656 L 227.63477 654.05859 C 227.63477 657.57623 230.46674 660.4082 233.98438 660.4082 L 267.81445 660.4082 C 271.33209 660.4082 274.16406 657.57623 274.16406 654.05859 L 274.16406 620.22656 C 274.16406 616.70892 271.33209 613.87695 267.81445 613.87695 L 233.98438 613.87695 z M 280.51367 660.4082 C 276.99603 660.4082 274.16406 663.24017 274.16406 666.75781 L 274.16406 700.58984 C 274.16406 704.10748 276.99603 706.93945 280.51367 706.93945 L 314.3457 706.93945 C 317.86334 706.93945 320.69531 704.10748 320.69531 700.58984 L 320.69531 666.75781 C 320.69531 663.24017 317.86334 660.4082 314.3457 660.4082 L 280.51367 660.4082 z M 327.04492 706.93945 C 323.52728 706.93945 320.69531 709.77142 320.69531 713.28906 L 320.69531 719.63867 L 320.69531 747.11914 L 320.69531 759.81836 L 320.69531 787.30078 L 320.69531 793.65039 C 320.69531 797.16803 323.52728 800 327.04492 800 L 333.39453 800 L 354.52734 800 L 360.87695 800 C 364.39459 800 367.22656 797.16803 367.22656 793.65039 L 367.22656 787.30078 L 367.22656 759.81836 L 367.22656 747.11914 L 367.22656 719.63867 L 367.22656 713.28906 C 367.22656 709.77142 364.39459 706.93945 360.87695 706.93945 L 354.52734 706.93945 L 333.39453 706.93945 L 327.04492 706.93945 z "
       transform="matrix(0.26458333,0,0,0.26458333,0,32.41665)"
       id="rect1193" />
  </g>
</svg>
