<?xml version="1.0" encoding="UTF-8" standalone="no"?>
<!-- Created with Inkscape (http://www.inkscape.org/) -->

<svg
   xmlns:dc="http://purl.org/dc/elements/1.1/"
   xmlns:cc="http://creativecommons.org/ns#"
   xmlns:rdf="http://www.w3.org/1999/02/22-rdf-syntax-ns#"
   xmlns:svg="http://www.w3.org/2000/svg"
   xmlns="http://www.w3.org/2000/svg"
   xmlns:sodipodi="http://sodipodi.sourceforge.net/DTD/sodipodi-0.dtd"
   xmlns:inkscape="http://www.inkscape.org/namespaces/inkscape"
   width="1000"
   height="1000"
   viewBox="0 0 264.58333 264.58334"
   version="1.1"
   id="svg8"
   inkscape:version="0.92.4 (5da689c313, 2019-01-14)"
   sodipodi:docname="l.svg">
  <defs
     id="defs2" />
  <sodipodi:namedview
     id="base"
     pagecolor="#ffffff"
     bordercolor="#666666"
     borderopacity="1.0"
     inkscape:pageopacity="0.0"
     inkscape:pageshadow="2"
     inkscape:zoom="0.98994949"
     inkscape:cx="31.024134"
     inkscape:cy="452.73946"
     inkscape:document-units="mm"
     inkscape:current-layer="layer1"
     showgrid="false"
     units="px"
     inkscape:window-width="1600"
     inkscape:window-height="1149"
     inkscape:window-x="0"
     inkscape:window-y="26"
     inkscape:window-maximized="1"
     showguides="true"
     inkscape:guide-bbox="true">
    <sodipodi:guide
       position="0,52.916667"
       orientation="0,1"
       id="guide29"
       inkscape:locked="false"
       inkscape:label=""
       inkscape:color="rgb(0,0,255)" />
    <sodipodi:guide
       position="57.150382,139.09526"
       orientation="0,1"
       id="guide913"
       inkscape:locked="false" />
    <sodipodi:guide
       position="35.605739,52.916672"
       orientation="1,0"
       id="guide1095"
       inkscape:locked="false" />
    <sodipodi:guide
       position="35.605739,203.7292"
       orientation="0,1"
       id="guide1097"
       inkscape:locked="false" />
    <sodipodi:guide
       position="143.32896,52.916672"
       orientation="1,0"
       id="guide1099"
       inkscape:locked="false" />
    <sodipodi:guide
       position="97.161864,52.916687"
       orientation="1,0"
       id="guide1238"
       inkscape:locked="false" />
    <sodipodi:guide
       position="35.605739,102.16158"
       orientation="0,1"
       id="guide1240"
       inkscape:locked="false" />
  </sodipodi:namedview>
  <metadata
     id="metadata5">
    <rdf:RDF>
      <cc:Work
         rdf:about="">
        <dc:format>image/svg+xml</dc:format>
        <dc:type
           rdf:resource="http://purl.org/dc/dcmitype/StillImage" />
        <dc:title />
      </cc:Work>
    </rdf:RDF>
  </metadata>
  <g
     inkscape:label="Layer 1"
     inkscape:groupmode="layer"
     id="layer1"
     transform="translate(0,-32.41665)">
    <path
       style="fill:#010101;fill-opacity:1;fill-rule:nonzero;stroke:#ffffff;stroke-width:0;stroke-miterlimit:4;stroke-dasharray:none;stroke-opacity:1;paint-order:normal"
       d="M 140.92188 241.63281 C 137.40424 241.63281 134.57227 244.46478 134.57227 247.98242 L 134.57227 273.38086 L 134.57227 281.81445 L 134.57227 294.51172 L 134.57227 328.34375 L 134.57227 387.57422 L 134.57227 421.40625 L 134.57227 442.53906 L 134.57227 467.93555 L 134.57227 548.29883 L 134.57227 560.99805 L 134.57227 641.35938 L 134.57227 654.05859 L 134.57227 734.41992 L 134.57227 747.11914 C 134.57227 750.63678 137.40424 753.46875 140.92188 753.46875 L 174.75391 753.46875 C 178.27155 753.46875 181.10352 750.63678 181.10352 747.11914 L 181.10352 713.28906 L 181.10352 632.92578 L 181.10352 620.22656 L 181.10352 539.86523 L 181.10352 527.16602 L 181.10352 446.80273 L 181.10352 434.10547 L 181.10352 421.40625 L 181.10352 387.57422 L 181.10352 328.34375 L 181.10352 294.51172 L 181.10352 281.81445 L 181.10352 273.38086 L 181.10352 247.98242 C 181.10352 244.46478 178.27155 241.63281 174.75391 241.63281 L 157.83789 241.63281 L 140.92188 241.63281 z M 187.45312 753.46875 C 184.8149 753.46875 182.56292 755.06132 181.60156 757.3418 C 181.60156 757.3418 181.60156 757.34375 181.60156 757.34375 C 181.44168 757.72332 181.3166 758.12168 181.23242 758.53516 C 181.23242 758.53516 181.23242 758.53711 181.23242 758.53711 C 181.14836 758.95061 181.10352 759.37932 181.10352 759.81836 L 181.10352 793.65039 C 181.10352 797.16803 183.93549 800 187.45312 800 L 221.28516 800 L 314.3457 800 C 317.86334 800 320.69531 797.16803 320.69531 793.65039 L 320.69531 759.81836 C 320.69531 756.30072 317.86334 753.46875 314.3457 753.46875 L 221.28516 753.46875 L 187.45312 753.46875 z "
       transform="matrix(0.26458333,0,0,0.26458333,0,32.41665)"
       id="rect1193" />
  </g>
</svg>
