<?xml version="1.0" encoding="UTF-8" standalone="no"?>
<!-- Created with Inkscape (http://www.inkscape.org/) -->

<svg
   xmlns:dc="http://purl.org/dc/elements/1.1/"
   xmlns:cc="http://creativecommons.org/ns#"
   xmlns:rdf="http://www.w3.org/1999/02/22-rdf-syntax-ns#"
   xmlns:svg="http://www.w3.org/2000/svg"
   xmlns="http://www.w3.org/2000/svg"
   xmlns:sodipodi="http://sodipodi.sourceforge.net/DTD/sodipodi-0.dtd"
   xmlns:inkscape="http://www.inkscape.org/namespaces/inkscape"
   width="1000"
   height="1000"
   viewBox="0 0 264.58333 264.58334"
   version="1.1"
   id="svg8"
   inkscape:version="0.92.4 (5da689c313, 2019-01-14)"
   sodipodi:docname="v.svg">
  <defs
     id="defs2" />
  <sodipodi:namedview
     id="base"
     pagecolor="#ffffff"
     bordercolor="#666666"
     borderopacity="1.0"
     inkscape:pageopacity="0.0"
     inkscape:pageshadow="2"
     inkscape:zoom="1.4"
     inkscape:cx="132.55655"
     inkscape:cy="419.3107"
     inkscape:document-units="mm"
     inkscape:current-layer="layer1"
     showgrid="false"
     units="px"
     inkscape:window-width="1600"
     inkscape:window-height="1149"
     inkscape:window-x="0"
     inkscape:window-y="26"
     inkscape:window-maximized="1"
     showguides="true"
     inkscape:guide-bbox="true">
    <sodipodi:guide
       position="0,52.916667"
       orientation="0,1"
       id="guide29"
       inkscape:locked="false"
       inkscape:label=""
       inkscape:color="rgb(0,0,255)" />
    <sodipodi:guide
       position="57.150382,139.09526"
       orientation="0,1"
       id="guide913"
       inkscape:locked="false" />
    <sodipodi:guide
       position="35.605739,52.916672"
       orientation="1,0"
       id="guide1095"
       inkscape:locked="false" />
    <sodipodi:guide
       position="35.605739,203.7292"
       orientation="0,1"
       id="guide1097"
       inkscape:locked="false" />
    <sodipodi:guide
       position="143.32896,52.916672"
       orientation="1,0"
       id="guide1099"
       inkscape:locked="false" />
    <sodipodi:guide
       position="97.161864,52.916687"
       orientation="1,0"
       id="guide1238"
       inkscape:locked="false" />
    <sodipodi:guide
       position="35.605739,102.16158"
       orientation="0,1"
       id="guide1240"
       inkscape:locked="false" />
  </sodipodi:namedview>
  <metadata
     id="metadata5">
    <rdf:RDF>
      <cc:Work
         rdf:about="">
        <dc:format>image/svg+xml</dc:format>
        <dc:type
           rdf:resource="http://purl.org/dc/dcmitype/StillImage" />
        <dc:title />
      </cc:Work>
    </rdf:RDF>
  </metadata>
  <g
     inkscape:label="Layer 1"
     inkscape:groupmode="layer"
     id="layer1"
     transform="translate(0,-32.41665)">
    <path
       style="fill:#010101;fill-opacity:1;fill-rule:nonzero;stroke:#ffffff;stroke-width:0;stroke-miterlimit:4;stroke-dasharray:none;stroke-opacity:1;paint-order:normal"
       d="M 140.92188 474.28516 C 137.40424 474.28516 134.57227 477.11713 134.57227 480.63477 L 134.57227 514.4668 L 134.57227 594.82812 L 134.57227 641.35938 L 134.57227 654.05859 C 134.57227 657.57623 137.40424 660.4082 140.92188 660.4082 L 174.75391 660.4082 C 178.27155 660.4082 181.10352 657.57623 181.10352 654.05859 L 181.10352 620.22656 L 181.10352 539.86523 L 181.10352 493.33398 L 181.10352 480.63477 C 181.10352 477.11713 178.27155 474.28516 174.75391 474.28516 L 140.92188 474.28516 z M 327.04492 520.81641 C 323.52728 520.81641 320.69531 523.64838 320.69531 527.16602 L 320.69531 560.99805 L 320.69531 641.35938 L 320.69531 654.05859 C 320.69531 657.57623 323.52728 660.4082 327.04492 660.4082 L 360.87695 660.4082 C 364.39459 660.4082 367.22656 657.57623 367.22656 654.05859 L 367.22656 620.22656 L 367.22656 539.86523 L 367.22656 527.16602 C 367.22656 523.64838 364.39459 520.81641 360.87695 520.81641 L 327.04492 520.81641 z M 187.45312 660.4082 C 183.93549 660.4082 181.10352 663.24017 181.10352 666.75781 L 181.10352 673.10742 L 181.10352 700.58984 L 181.10352 713.28906 L 181.10352 740.76953 L 181.10352 747.11914 C 181.10352 750.63678 183.93549 753.46875 187.45312 753.46875 L 193.80273 753.46875 L 214.93555 753.46875 L 221.28516 753.46875 C 224.8028 753.46875 227.63477 750.63678 227.63477 747.11914 L 227.63477 740.76953 L 227.63477 713.28906 L 227.63477 700.58984 L 227.63477 673.10742 L 227.63477 666.75781 C 227.63477 663.24017 224.8028 660.4082 221.28516 660.4082 L 214.93555 660.4082 L 193.80273 660.4082 L 187.45312 660.4082 z M 280.51367 660.4082 C 276.99603 660.4082 274.16406 663.24017 274.16406 666.75781 L 274.16406 700.58984 L 274.16406 740.76953 L 274.16406 747.11914 C 274.16406 750.63678 276.99603 753.46875 280.51367 753.46875 L 314.3457 753.46875 C 317.86334 753.46875 320.69531 750.63678 320.69531 747.11914 L 320.69531 713.28906 L 320.69531 673.10742 L 320.69531 666.75781 C 320.69531 663.24017 317.86334 660.4082 314.3457 660.4082 L 280.51367 660.4082 z M 233.98438 753.46875 C 230.46674 753.46875 227.63477 756.30072 227.63477 759.81836 L 227.63477 793.65039 C 227.63477 797.16803 230.46674 800 233.98438 800 L 267.81445 800 C 271.33209 800 274.16406 797.16803 274.16406 793.65039 L 274.16406 759.81836 C 274.16406 756.30072 271.33209 753.46875 267.81445 753.46875 L 233.98438 753.46875 z "
       transform="matrix(0.26458333,0,0,0.26458333,0,32.41665)"
       id="rect251" />
  </g>
</svg>
