<?xml version="1.0" encoding="UTF-8" standalone="no"?>
<!-- Created with Inkscape (http://www.inkscape.org/) -->

<svg
   xmlns:dc="http://purl.org/dc/elements/1.1/"
   xmlns:cc="http://creativecommons.org/ns#"
   xmlns:rdf="http://www.w3.org/1999/02/22-rdf-syntax-ns#"
   xmlns:svg="http://www.w3.org/2000/svg"
   xmlns="http://www.w3.org/2000/svg"
   xmlns:sodipodi="http://sodipodi.sourceforge.net/DTD/sodipodi-0.dtd"
   xmlns:inkscape="http://www.inkscape.org/namespaces/inkscape"
   width="1000"
   height="1000"
   viewBox="0 0 264.58333 264.58334"
   version="1.1"
   id="svg8"
   inkscape:version="0.92.4 (5da689c313, 2019-01-14)"
   sodipodi:docname="B.svg">
  <defs
     id="defs2" />
  <sodipodi:namedview
     id="base"
     pagecolor="#ffffff"
     bordercolor="#666666"
     borderopacity="1.0"
     inkscape:pageopacity="0.0"
     inkscape:pageshadow="2"
     inkscape:zoom="0.7"
     inkscape:cx="249.94474"
     inkscape:cy="457.13224"
     inkscape:document-units="mm"
     inkscape:current-layer="layer1"
     showgrid="false"
     units="px"
     inkscape:window-width="1600"
     inkscape:window-height="1149"
     inkscape:window-x="0"
     inkscape:window-y="26"
     inkscape:window-maximized="1"
     showguides="true"
     inkscape:guide-bbox="true">
    <sodipodi:guide
       position="0,52.916667"
       orientation="0,1"
       id="guide29"
       inkscape:locked="false"
       inkscape:label=""
       inkscape:color="rgb(0,0,255)" />
    <sodipodi:guide
       position="57.150382,139.09526"
       orientation="0,1"
       id="guide913"
       inkscape:locked="false" />
    <sodipodi:guide
       position="35.605739,52.916672"
       orientation="1,0"
       id="guide1095"
       inkscape:locked="false" />
    <sodipodi:guide
       position="35.605739,203.7292"
       orientation="0,1"
       id="guide1097"
       inkscape:locked="false" />
    <sodipodi:guide
       position="143.32896,52.916672"
       orientation="1,0"
       id="guide1099"
       inkscape:locked="false" />
  </sodipodi:namedview>
  <metadata
     id="metadata5">
    <rdf:RDF>
      <cc:Work
         rdf:about="">
        <dc:format>image/svg+xml</dc:format>
        <dc:type
           rdf:resource="http://purl.org/dc/dcmitype/StillImage" />
        <dc:title />
      </cc:Work>
    </rdf:RDF>
  </metadata>
  <g
     inkscape:label="Layer 1"
     inkscape:groupmode="layer"
     id="layer1"
     transform="translate(0,-32.41665)">
    <path
       style="fill:#010101;fill-opacity:1;fill-rule:nonzero;stroke:#ffffff;stroke-width:0;stroke-miterlimit:4;stroke-dasharray:none;stroke-opacity:1;paint-order:normal"
       d="M 175.28711 230 C 152.7314 230 134.57227 248.15913 134.57227 270.71484 C 134.57227 272.35458 134.68054 273.96672 134.86719 275.55469 C 134.67486 276.86588 134.57227 278.20797 134.57227 279.57422 L 134.57227 424.71094 L 134.57227 463.17383 L 134.57227 581.32617 L 134.57227 626.03125 L 134.57227 756.30078 C 134.57227 756.79547 134.5855 757.28683 134.60938 757.77539 C 134.59123 758.27717 134.57227 758.77879 134.57227 759.28516 C 134.57227 781.84087 152.7314 800 175.28711 800 C 175.58124 800 175.87146 799.98466 176.16406 799.97852 C 176.31174 799.98428 176.45633 800 176.60547 800 L 336.82617 800 L 367.74609 800 L 500.69336 800 C 500.72835 800 500.76196 799.99446 500.79688 799.99414 C 500.86558 799.99448 500.93316 800 501.00195 800 C 523.55766 800 541.71484 781.84087 541.71484 759.28516 C 541.71484 758.91504 541.69722 758.54933 541.6875 758.18164 C 541.70181 757.801 541.71484 757.41942 541.71484 757.03516 L 541.71484 598.67773 L 541.71484 566.82617 C 541.71484 566.54636 541.69395 566.27254 541.67383 565.99805 C 541.68585 565.72064 541.71484 565.44844 541.71484 565.16797 L 541.71484 464.83203 L 541.71484 359.16602 C 541.71484 358.08771 541.64905 357.02628 541.53125 355.98047 C 541.64844 354.71662 541.71484 353.43804 541.71484 352.14258 C 541.71484 329.58687 523.55766 311.42773 501.00195 311.42773 C 478.44624 311.42773 460.28711 329.58687 460.28711 352.14258 C 460.28711 353.44002 460.35316 354.7206 460.4707 355.98633 C 460.35334 357.03021 460.28711 358.08977 460.28711 359.16602 L 460.28711 474.28516 L 411.18359 474.28516 L 327.73438 474.28516 L 216.00195 474.28516 L 216.00195 448.67383 L 216.00195 403.96875 L 216.00195 311.42773 L 335.31055 311.42773 L 418.25391 311.42773 C 418.40345 311.42773 418.5492 311.41205 418.69727 311.40625 C 418.98922 311.41237 419.27879 311.42773 419.57227 311.42773 C 442.12797 311.42773 460.28711 293.27055 460.28711 270.71484 C 460.28711 248.15913 442.12797 230 419.57227 230 C 419.27879 230 418.98922 230.01537 418.69727 230.02148 C 418.5492 230.01569 418.40345 230 418.25391 230 L 335.31055 230 L 178.12109 230 C 177.79971 230 177.48423 230.02039 177.16992 230.04688 C 176.54562 230.01871 175.9186 230 175.28711 230 z M 216.00195 555.71484 L 327.73438 555.71484 L 411.18359 555.71484 L 460.28711 555.71484 L 460.28711 565.16797 C 460.28711 565.44579 460.31633 565.71541 460.32812 565.99023 C 460.30762 566.26726 460.28711 566.54373 460.28711 566.82617 L 460.28711 626.03125 L 460.28711 718.57227 L 367.74609 718.57227 L 336.82617 718.57227 L 216.00195 718.57227 L 216.00195 599.41211 L 216.00195 566.82617 L 216.00195 555.71484 z "
       transform="matrix(0.26458333,0,0,0.26458333,0,32.41665)"
       id="rect848" />
  </g>
</svg>
