<?xml version="1.0" encoding="UTF-8" standalone="no"?>
<!-- Created with Inkscape (http://www.inkscape.org/) -->

<svg
   xmlns:dc="http://purl.org/dc/elements/1.1/"
   xmlns:cc="http://creativecommons.org/ns#"
   xmlns:rdf="http://www.w3.org/1999/02/22-rdf-syntax-ns#"
   xmlns:svg="http://www.w3.org/2000/svg"
   xmlns="http://www.w3.org/2000/svg"
   xmlns:sodipodi="http://sodipodi.sourceforge.net/DTD/sodipodi-0.dtd"
   xmlns:inkscape="http://www.inkscape.org/namespaces/inkscape"
   width="1000"
   height="1000"
   viewBox="0 0 264.58333 264.58334"
   version="1.1"
   id="svg8"
   inkscape:version="0.92.4 (5da689c313, 2019-01-14)"
   sodipodi:docname="C.svg">
  <defs
     id="defs2" />
  <sodipodi:namedview
     id="base"
     pagecolor="#ffffff"
     bordercolor="#666666"
     borderopacity="1.0"
     inkscape:pageopacity="0.0"
     inkscape:pageshadow="2"
     inkscape:zoom="0.98994949"
     inkscape:cx="347.44462"
     inkscape:cy="466.08705"
     inkscape:document-units="mm"
     inkscape:current-layer="layer1"
     showgrid="false"
     units="px"
     inkscape:window-width="1600"
     inkscape:window-height="1149"
     inkscape:window-x="0"
     inkscape:window-y="26"
     inkscape:window-maximized="1"
     showguides="true"
     inkscape:guide-bbox="true">
    <sodipodi:guide
       position="0,52.916667"
       orientation="0,1"
       id="guide29"
       inkscape:locked="false"
       inkscape:label=""
       inkscape:color="rgb(0,0,255)" />
    <sodipodi:guide
       position="57.150382,139.09526"
       orientation="0,1"
       id="guide913"
       inkscape:locked="false" />
    <sodipodi:guide
       position="35.605739,52.916672"
       orientation="1,0"
       id="guide1095"
       inkscape:locked="false" />
    <sodipodi:guide
       position="35.605739,203.7292"
       orientation="0,1"
       id="guide1097"
       inkscape:locked="false" />
    <sodipodi:guide
       position="143.32896,52.916672"
       orientation="1,0"
       id="guide1099"
       inkscape:locked="false" />
  </sodipodi:namedview>
  <metadata
     id="metadata5">
    <rdf:RDF>
      <cc:Work
         rdf:about="">
        <dc:format>image/svg+xml</dc:format>
        <dc:type
           rdf:resource="http://purl.org/dc/dcmitype/StillImage" />
        <dc:title />
      </cc:Work>
    </rdf:RDF>
  </metadata>
  <g
     inkscape:label="Layer 1"
     inkscape:groupmode="layer"
     id="layer1"
     transform="translate(0,-32.41665)">
    <path
       style="fill:#010101;fill-opacity:1;fill-rule:nonzero;stroke:#ffffff;stroke-width:0;stroke-miterlimit:4;stroke-dasharray:none;stroke-opacity:1;paint-order:normal"
       d="M 256.71484 230 C 234.15913 230 216.00195 248.15913 216.00195 270.71484 C 216.00195 293.27055 234.15913 311.42773 256.71484 311.42773 C 256.74563 311.42773 256.77587 311.42585 256.80664 311.42578 C 256.82246 311.42585 256.83768 311.42773 256.85352 311.42773 L 419.43555 311.42773 L 499.89062 311.42773 C 500.01666 311.42773 500.13868 311.41428 500.26367 311.41016 C 500.51021 311.41451 500.75434 311.42773 501.00195 311.42773 C 523.55766 311.42773 541.71484 293.27055 541.71484 270.71484 C 541.71484 248.15913 523.55766 230 501.00195 230 C 500.75434 230 500.51021 230.01322 500.26367 230.01758 C 500.13868 230.01346 500.01666 230 499.89062 230 L 419.43555 230 L 256.85352 230 C 256.83768 230 256.82246 230.00189 256.80664 230.00195 C 256.77587 230.00189 256.74563 230 256.71484 230 z M 175.28711 311.42773 C 152.7314 311.42773 134.57227 329.58687 134.57227 352.14258 C 134.57227 352.9584 134.60353 353.76664 134.65039 354.57031 C 134.60436 355.24024 134.57227 355.91369 134.57227 356.5957 L 134.57227 485.39648 L 134.57227 507.62109 L 134.57227 510.54688 L 134.57227 544.60156 L 134.57227 685.23633 L 134.57227 752.26172 C 134.57227 753.34071 134.63986 754.40277 134.75781 755.44922 C 134.64074 756.71245 134.57227 757.99034 134.57227 759.28516 C 134.57227 779.93383 149.79393 796.8885 169.67188 799.60938 C 170.59525 799.85645 171.56105 800 172.56445 800 L 340.86719 800 L 498.78516 800 C 499.03659 800 499.28212 799.97917 499.5293 799.96289 C 500.01887 799.98016 500.50802 800 501.00195 800 C 523.55766 800 541.71484 781.84087 541.71484 759.28516 C 541.71484 736.72945 523.55766 718.57227 501.00195 718.57227 C 500.50802 718.57227 500.01887 718.5921 499.5293 718.60938 C 499.28212 718.5931 499.03659 718.57227 498.78516 718.57227 L 340.86719 718.57227 L 216.00195 718.57227 L 216.00195 603.45312 L 216.00195 507.62109 L 216.00195 485.39648 L 216.00195 356.5957 C 216.00195 355.91435 215.96977 355.24156 215.92383 354.57227 C 215.97076 353.76795 216.00195 352.95907 216.00195 352.14258 C 216.00195 329.58687 197.84282 311.42773 175.28711 311.42773 z "
       transform="matrix(0.26458333,0,0,0.26458333,0,32.41665)"
       id="rect850" />
  </g>
</svg>
