<?xml version="1.0" encoding="UTF-8" standalone="no"?>
<!-- Created with Inkscape (http://www.inkscape.org/) -->

<svg
   xmlns:dc="http://purl.org/dc/elements/1.1/"
   xmlns:cc="http://creativecommons.org/ns#"
   xmlns:rdf="http://www.w3.org/1999/02/22-rdf-syntax-ns#"
   xmlns:svg="http://www.w3.org/2000/svg"
   xmlns="http://www.w3.org/2000/svg"
   xmlns:sodipodi="http://sodipodi.sourceforge.net/DTD/sodipodi-0.dtd"
   xmlns:inkscape="http://www.inkscape.org/namespaces/inkscape"
   width="1000"
   height="1000"
   viewBox="0 0 264.58333 264.58334"
   version="1.1"
   id="svg8"
   inkscape:version="0.92.4 (5da689c313, 2019-01-14)"
   sodipodi:docname="D.svg">
  <defs
     id="defs2" />
  <sodipodi:namedview
     id="base"
     pagecolor="#ffffff"
     bordercolor="#666666"
     borderopacity="1.0"
     inkscape:pageopacity="0.0"
     inkscape:pageshadow="2"
     inkscape:zoom="0.7"
     inkscape:cx="389.36736"
     inkscape:cy="327.19376"
     inkscape:document-units="mm"
     inkscape:current-layer="layer1"
     showgrid="false"
     units="px"
     inkscape:window-width="1600"
     inkscape:window-height="1149"
     inkscape:window-x="0"
     inkscape:window-y="26"
     inkscape:window-maximized="1"
     showguides="true"
     inkscape:guide-bbox="true">
    <sodipodi:guide
       position="0,52.916667"
       orientation="0,1"
       id="guide29"
       inkscape:locked="false"
       inkscape:label=""
       inkscape:color="rgb(0,0,255)" />
    <sodipodi:guide
       position="57.150382,139.09526"
       orientation="0,1"
       id="guide913"
       inkscape:locked="false" />
    <sodipodi:guide
       position="35.605739,52.916672"
       orientation="1,0"
       id="guide1095"
       inkscape:locked="false" />
    <sodipodi:guide
       position="35.605739,203.7292"
       orientation="0,1"
       id="guide1097"
       inkscape:locked="false" />
    <sodipodi:guide
       position="143.32896,52.916672"
       orientation="1,0"
       id="guide1099"
       inkscape:locked="false" />
  </sodipodi:namedview>
  <metadata
     id="metadata5">
    <rdf:RDF>
      <cc:Work
         rdf:about="">
        <dc:format>image/svg+xml</dc:format>
        <dc:type
           rdf:resource="http://purl.org/dc/dcmitype/StillImage" />
        <dc:title />
      </cc:Work>
    </rdf:RDF>
  </metadata>
  <g
     inkscape:label="Layer 1"
     inkscape:groupmode="layer"
     id="layer1"
     transform="translate(0,-32.41665)">
    <path
       style="fill:#010101;fill-opacity:1;fill-rule:nonzero;stroke:#ffffff;stroke-width:0;stroke-miterlimit:4;stroke-dasharray:none;stroke-opacity:1;paint-order:normal"
       d="M 175.28711 230 C 152.7314 230 134.57227 248.15913 134.57227 270.71484 C 134.57227 272.14682 134.64816 273.56012 134.79102 274.95312 C 134.65206 276.08176 134.57227 277.22907 134.57227 278.39648 L 134.57227 425.88867 L 134.57227 463.17383 L 134.57227 575.24414 L 134.57227 626.03125 L 134.57227 755.38281 C 134.57227 755.96825 134.59515 756.54833 134.62891 757.125 C 134.59186 757.84024 134.57227 758.56037 134.57227 759.28516 C 134.57227 781.84087 152.7314 800 175.28711 800 C 176.30755 800 177.31524 799.95001 178.31641 799.87695 C 178.83143 799.94953 179.353 800 179.88867 800 L 333.54297 800 L 417.24414 800 C 417.50812 800 417.76612 799.97887 418.02539 799.96094 C 418.5394 799.97999 419.05344 800 419.57227 800 C 442.12797 800 460.28711 781.84087 460.28711 759.28516 C 460.28711 736.72945 442.12797 718.57227 419.57227 718.57227 C 419.05344 718.57227 418.5394 718.59228 418.02539 718.61133 C 417.76612 718.5934 417.50812 718.57227 417.24414 718.57227 L 333.54297 718.57227 L 216.00195 718.57227 L 216.00195 600.33008 L 216.00195 566.82617 L 216.00195 454.75586 L 216.00195 403.96875 L 216.00195 311.42773 L 337.74609 311.42773 C 337.79088 311.42773 337.83425 311.4224 337.87891 311.42188 C 337.96785 311.42244 338.05545 311.42773 338.14453 311.42773 C 360.70024 311.42773 378.85938 293.27055 378.85938 270.71484 C 378.85937 248.15913 360.70024 230 338.14453 230 C 338.05545 230 337.96785 230.00529 337.87891 230.00586 C 337.83425 230.00534 337.79088 230 337.74609 230 L 175.68359 230 C 175.63873 230 175.59552 230.00533 175.55078 230.00586 C 175.46249 230.0053 175.37554 230 175.28711 230 z M 419.57227 311.42773 C 397.01656 311.42773 378.85938 329.58687 378.85938 352.14258 C 378.85937 374.69829 397.01656 392.85742 419.57227 392.85742 C 442.12797 392.85742 460.28711 374.69829 460.28711 352.14258 C 460.28711 329.58687 442.12797 311.42773 419.57227 311.42773 z M 501.00195 392.85742 C 478.44624 392.85742 460.28711 411.01656 460.28711 433.57227 C 460.28711 435.18909 460.39073 436.77913 460.57227 438.3457 C 460.38711 439.63419 460.28711 440.94969 460.28711 442.29102 L 460.28711 587.70898 L 460.28711 672.58398 C 460.28711 673.33996 460.33032 674.08432 460.41016 674.81836 C 460.33663 675.8227 460.28711 676.83368 460.28711 677.85742 C 460.28711 700.41313 478.44624 718.57227 501.00195 718.57227 C 523.55766 718.57227 541.71484 700.41313 541.71484 677.85742 C 541.71484 676.83368 541.66532 675.8227 541.5918 674.81836 C 541.67163 674.08432 541.71484 673.33996 541.71484 672.58398 L 541.71484 564.55859 L 541.71484 442.29102 C 541.71484 440.94968 541.61484 439.6342 541.42969 438.3457 C 541.61122 436.77913 541.71484 435.18909 541.71484 433.57227 C 541.71484 411.01656 523.55766 392.85742 501.00195 392.85742 z "
       transform="matrix(0.26458333,0,0,0.26458333,0,32.41665)"
       id="rect848" />
  </g>
</svg>
