<?xml version="1.0" encoding="UTF-8" standalone="no"?>
<!-- Created with Inkscape (http://www.inkscape.org/) -->

<svg
   xmlns:dc="http://purl.org/dc/elements/1.1/"
   xmlns:cc="http://creativecommons.org/ns#"
   xmlns:rdf="http://www.w3.org/1999/02/22-rdf-syntax-ns#"
   xmlns:svg="http://www.w3.org/2000/svg"
   xmlns="http://www.w3.org/2000/svg"
   xmlns:sodipodi="http://sodipodi.sourceforge.net/DTD/sodipodi-0.dtd"
   xmlns:inkscape="http://www.inkscape.org/namespaces/inkscape"
   width="1000"
   height="1000"
   viewBox="0 0 264.58333 264.58334"
   version="1.1"
   id="svg8"
   inkscape:version="0.92.4 (5da689c313, 2019-01-14)"
   sodipodi:docname="E.svg">
  <defs
     id="defs2" />
  <sodipodi:namedview
     id="base"
     pagecolor="#ffffff"
     bordercolor="#666666"
     borderopacity="1.0"
     inkscape:pageopacity="0.0"
     inkscape:pageshadow="2"
     inkscape:zoom="1.4"
     inkscape:cx="304.56091"
     inkscape:cy="430.30528"
     inkscape:document-units="mm"
     inkscape:current-layer="layer1"
     showgrid="false"
     units="px"
     inkscape:window-width="1600"
     inkscape:window-height="1149"
     inkscape:window-x="0"
     inkscape:window-y="26"
     inkscape:window-maximized="1"
     showguides="true"
     inkscape:guide-bbox="true">
    <sodipodi:guide
       position="0,52.916667"
       orientation="0,1"
       id="guide29"
       inkscape:locked="false"
       inkscape:label=""
       inkscape:color="rgb(0,0,255)" />
    <sodipodi:guide
       position="57.150382,139.09526"
       orientation="0,1"
       id="guide913"
       inkscape:locked="false" />
    <sodipodi:guide
       position="35.605739,52.916672"
       orientation="1,0"
       id="guide1095"
       inkscape:locked="false" />
    <sodipodi:guide
       position="35.605739,203.7292"
       orientation="0,1"
       id="guide1097"
       inkscape:locked="false" />
    <sodipodi:guide
       position="143.32896,52.916672"
       orientation="1,0"
       id="guide1099"
       inkscape:locked="false" />
  </sodipodi:namedview>
  <metadata
     id="metadata5">
    <rdf:RDF>
      <cc:Work
         rdf:about="">
        <dc:format>image/svg+xml</dc:format>
        <dc:type
           rdf:resource="http://purl.org/dc/dcmitype/StillImage" />
        <dc:title />
      </cc:Work>
    </rdf:RDF>
  </metadata>
  <g
     inkscape:label="Layer 1"
     inkscape:groupmode="layer"
     id="layer1"
     transform="translate(0,-32.41665)">
    <path
       style="fill:#010101;fill-opacity:1;fill-rule:nonzero;stroke:#ffffff;stroke-width:0;stroke-miterlimit:4;stroke-dasharray:none;stroke-opacity:1;paint-order:normal"
       d="M 256.71484 230 C 234.15913 230 216.00195 248.15913 216.00195 270.71484 C 216.00195 293.27055 234.15913 311.42773 256.71484 311.42773 C 256.79083 311.42773 256.86552 311.42229 256.94141 311.42188 C 256.97959 311.42226 257.01641 311.42773 257.05469 311.42773 L 419.23438 311.42773 L 492.74609 311.42773 C 493.71921 311.42773 494.65834 311.29144 495.55664 311.05859 C 497.33842 311.29491 499.15355 311.42773 501.00195 311.42773 C 523.55766 311.42773 541.71484 293.27055 541.71484 270.71484 C 541.71484 248.15913 523.55766 230 501.00195 230 C 499.15355 230 497.33842 230.13282 495.55664 230.36914 C 494.65834 230.1363 493.71921 230 492.74609 230 L 419.23438 230 L 257.05469 230 C 257.01641 230 256.97959 230.00548 256.94141 230.00586 C 256.86552 230.00545 256.79083 230 256.71484 230 z M 175.28711 311.42773 C 152.7314 311.42773 134.57227 329.58687 134.57227 352.14258 C 134.57227 353.20221 134.62635 354.24831 134.70508 355.28711 C 134.62058 356.1826 134.57227 357.08753 134.57227 358.00586 L 134.57227 509.13672 L 134.57227 544.60156 L 134.57227 578.35938 L 134.57227 626.03125 L 134.57227 755.38281 C 134.57227 755.96824 134.59515 756.54833 134.62891 757.125 C 134.59186 757.84024 134.57227 758.56037 134.57227 759.28516 C 134.57227 781.84087 152.7314 800 175.28711 800 C 175.86227 800 176.43274 799.98042 177.00195 799.95703 C 177.28864 799.97901 177.57663 800 177.86914 800 L 335.5625 800 L 367.74609 800 L 499.42969 800 C 499.60755 800 499.78126 799.98279 499.95703 799.97461 C 500.30532 799.98333 500.65149 800 501.00195 800 C 523.55766 800 541.71484 781.84087 541.71484 759.28516 C 541.71484 736.72945 523.55766 718.57227 501.00195 718.57227 C 500.65149 718.57227 500.30532 718.58894 499.95703 718.59766 C 499.78126 718.58947 499.60755 718.57227 499.42969 718.57227 L 367.74609 718.57227 L 335.5625 718.57227 L 216.00195 718.57227 L 216.00195 600.33008 L 216.00195 566.82617 L 216.00195 555.71484 L 339.61328 555.71484 L 367.74609 555.71484 L 499.5332 555.71484 C 499.69622 555.71484 499.85436 555.69633 500.01562 555.68945 C 500.34451 555.69722 500.67113 555.71484 501.00195 555.71484 C 523.55766 555.71484 541.71484 537.55571 541.71484 515 C 541.71484 492.44429 523.55766 474.28516 501.00195 474.28516 C 500.67113 474.28516 500.34451 474.30278 500.01562 474.31055 C 499.85436 474.30367 499.69622 474.28516 499.5332 474.28516 L 367.74609 474.28516 L 339.61328 474.28516 L 216.00195 474.28516 L 216.00195 451.64062 L 216.00195 358.00586 C 216.00195 357.08753 215.95364 356.1826 215.86914 355.28711 C 215.94787 354.24831 216.00195 353.20221 216.00195 352.14258 C 216.00195 329.58687 197.84282 311.42773 175.28711 311.42773 z "
       transform="matrix(0.26458333,0,0,0.26458333,0,32.41665)"
       id="rect850" />
  </g>
</svg>
