<?xml version="1.0" encoding="UTF-8" standalone="no"?>
<!-- Created with Inkscape (http://www.inkscape.org/) -->

<svg
   xmlns:dc="http://purl.org/dc/elements/1.1/"
   xmlns:cc="http://creativecommons.org/ns#"
   xmlns:rdf="http://www.w3.org/1999/02/22-rdf-syntax-ns#"
   xmlns:svg="http://www.w3.org/2000/svg"
   xmlns="http://www.w3.org/2000/svg"
   xmlns:sodipodi="http://sodipodi.sourceforge.net/DTD/sodipodi-0.dtd"
   xmlns:inkscape="http://www.inkscape.org/namespaces/inkscape"
   width="1000"
   height="1000"
   viewBox="0 0 264.58333 264.58334"
   version="1.1"
   id="svg8"
   inkscape:version="0.92.4 (5da689c313, 2019-01-14)"
   sodipodi:docname="F.svg">
  <defs
     id="defs2" />
  <sodipodi:namedview
     id="base"
     pagecolor="#ffffff"
     bordercolor="#666666"
     borderopacity="1.0"
     inkscape:pageopacity="0.0"
     inkscape:pageshadow="2"
     inkscape:zoom="0.98994949"
     inkscape:cx="280.06575"
     inkscape:cy="508.63103"
     inkscape:document-units="mm"
     inkscape:current-layer="layer1"
     showgrid="false"
     units="px"
     inkscape:window-width="1600"
     inkscape:window-height="1149"
     inkscape:window-x="0"
     inkscape:window-y="26"
     inkscape:window-maximized="1"
     showguides="true"
     inkscape:guide-bbox="true">
    <sodipodi:guide
       position="0,52.916667"
       orientation="0,1"
       id="guide29"
       inkscape:locked="false"
       inkscape:label=""
       inkscape:color="rgb(0,0,255)" />
    <sodipodi:guide
       position="57.150382,139.09526"
       orientation="0,1"
       id="guide913"
       inkscape:locked="false" />
    <sodipodi:guide
       position="35.605739,52.916672"
       orientation="1,0"
       id="guide1095"
       inkscape:locked="false" />
    <sodipodi:guide
       position="35.605739,203.7292"
       orientation="0,1"
       id="guide1097"
       inkscape:locked="false" />
    <sodipodi:guide
       position="143.32896,52.916672"
       orientation="1,0"
       id="guide1099"
       inkscape:locked="false" />
  </sodipodi:namedview>
  <metadata
     id="metadata5">
    <rdf:RDF>
      <cc:Work
         rdf:about="">
        <dc:format>image/svg+xml</dc:format>
        <dc:type
           rdf:resource="http://purl.org/dc/dcmitype/StillImage" />
        <dc:title />
      </cc:Work>
    </rdf:RDF>
  </metadata>
  <g
     inkscape:label="Layer 1"
     inkscape:groupmode="layer"
     id="layer1"
     transform="translate(0,-32.41665)">
    <path
       style="fill:#010101;fill-opacity:1;fill-rule:nonzero;stroke:#ffffff;stroke-width:0;stroke-miterlimit:4;stroke-dasharray:none;stroke-opacity:1;paint-order:normal"
       d="M 256.71484 230 C 234.15913 230 216.00195 248.15913 216.00195 270.71484 C 216.00195 293.27055 234.15913 311.42773 256.71484 311.42773 C 257.25856 311.42773 257.79752 311.40763 258.33594 311.38672 C 258.60745 311.4064 258.87955 311.42773 259.15625 311.42773 L 341.98828 311.42773 L 367.74609 311.42773 L 414.32617 311.42773 L 497.1582 311.42773 C 497.60681 311.42773 498.04606 311.39494 498.48047 311.34375 C 499.31501 311.39431 500.15426 311.42773 501.00195 311.42773 C 523.55766 311.42773 541.71484 293.27055 541.71484 270.71484 C 541.71484 248.15913 523.55766 230 501.00195 230 C 500.15426 230 499.31501 230.03342 498.48047 230.08398 C 498.04606 230.0328 497.60681 230 497.1582 230 L 414.32617 230 L 367.74609 230 L 341.98828 230 L 259.15625 230 C 258.87955 230 258.60745 230.02133 258.33594 230.04102 C 257.79752 230.02011 257.25856 230 256.71484 230 z M 175.28711 311.42773 C 152.7314 311.42773 134.57227 329.58687 134.57227 352.14258 C 134.57227 353.02216 134.60965 353.89242 134.66406 354.75781 C 134.60924 355.4864 134.57227 356.2198 134.57227 356.96289 L 134.57227 485.39648 L 134.57227 510.17969 L 134.57227 544.60156 L 134.57227 656.87891 L 134.57227 754.12891 C 134.57227 754.83836 134.62217 755.53444 134.69922 756.22266 C 134.62455 757.23468 134.57227 758.25341 134.57227 759.28516 C 134.57227 781.84087 152.7314 800 175.28711 800 C 197.84282 800 216.00195 781.84087 216.00195 759.28516 C 216.00195 758.25212 215.95181 757.23202 215.87695 756.21875 C 215.9537 755.53188 216.00195 754.83693 216.00195 754.12891 L 216.00195 655.62891 L 216.00195 555.71484 L 330.25977 555.71484 L 367.74609 555.71484 L 497.1582 555.71484 C 497.60416 555.71484 498.04073 555.6795 498.47266 555.62891 C 499.30979 555.67979 500.15158 555.71484 501.00195 555.71484 C 523.55766 555.71484 541.71484 537.55571 541.71484 515 C 541.71484 492.44429 523.55766 474.28516 501.00195 474.28516 C 500.15157 474.28516 499.3098 474.32021 498.47266 474.37109 C 498.04071 474.3205 497.60417 474.28516 497.1582 474.28516 L 367.74609 474.28516 L 330.25977 474.28516 L 216.00195 474.28516 L 216.00195 356.96289 C 216.00195 356.22112 215.96479 355.48904 215.91016 354.76172 C 215.96473 353.89504 216.00195 353.0235 216.00195 352.14258 C 216.00195 329.58687 197.84282 311.42773 175.28711 311.42773 z "
       transform="matrix(0.26458333,0,0,0.26458333,0,32.41665)"
       id="rect850" />
  </g>
</svg>
