<?xml version="1.0" encoding="UTF-8" standalone="no"?>
<!-- Created with Inkscape (http://www.inkscape.org/) -->

<svg
   xmlns:dc="http://purl.org/dc/elements/1.1/"
   xmlns:cc="http://creativecommons.org/ns#"
   xmlns:rdf="http://www.w3.org/1999/02/22-rdf-syntax-ns#"
   xmlns:svg="http://www.w3.org/2000/svg"
   xmlns="http://www.w3.org/2000/svg"
   xmlns:sodipodi="http://sodipodi.sourceforge.net/DTD/sodipodi-0.dtd"
   xmlns:inkscape="http://www.inkscape.org/namespaces/inkscape"
   width="1000"
   height="1000"
   viewBox="0 0 264.58333 264.58334"
   version="1.1"
   id="svg8"
   inkscape:version="0.92.4 (5da689c313, 2019-01-14)"
   sodipodi:docname="G.svg">
  <defs
     id="defs2" />
  <sodipodi:namedview
     id="base"
     pagecolor="#ffffff"
     bordercolor="#666666"
     borderopacity="1.0"
     inkscape:pageopacity="0.0"
     inkscape:pageshadow="2"
     inkscape:zoom="0.99570501"
     inkscape:cx="380.75145"
     inkscape:cy="462.8526"
     inkscape:document-units="mm"
     inkscape:current-layer="layer1"
     showgrid="false"
     units="px"
     inkscape:window-width="1600"
     inkscape:window-height="1149"
     inkscape:window-x="0"
     inkscape:window-y="26"
     inkscape:window-maximized="1"
     showguides="true"
     inkscape:guide-bbox="true">
    <sodipodi:guide
       position="0,52.916667"
       orientation="0,1"
       id="guide29"
       inkscape:locked="false"
       inkscape:label=""
       inkscape:color="rgb(0,0,255)" />
    <sodipodi:guide
       position="57.150382,139.09526"
       orientation="0,1"
       id="guide913"
       inkscape:locked="false" />
    <sodipodi:guide
       position="35.605739,52.916672"
       orientation="1,0"
       id="guide1095"
       inkscape:locked="false" />
    <sodipodi:guide
       position="35.605739,203.7292"
       orientation="0,1"
       id="guide1097"
       inkscape:locked="false" />
    <sodipodi:guide
       position="143.32896,52.916672"
       orientation="1,0"
       id="guide1099"
       inkscape:locked="false" />
  </sodipodi:namedview>
  <metadata
     id="metadata5">
    <rdf:RDF>
      <cc:Work
         rdf:about="">
        <dc:format>image/svg+xml</dc:format>
        <dc:type
           rdf:resource="http://purl.org/dc/dcmitype/StillImage" />
        <dc:title />
      </cc:Work>
    </rdf:RDF>
  </metadata>
  <g
     inkscape:label="Layer 1"
     inkscape:groupmode="layer"
     id="layer1"
     transform="translate(0,-32.41665)">
    <path
       style="fill:#010101;fill-opacity:1;fill-rule:nonzero;stroke:#ffffff;stroke-width:0;stroke-miterlimit:4;stroke-dasharray:none;stroke-opacity:1;paint-order:normal"
       d="M 256.56836 230 C 256.5182 230 256.46992 230.00716 256.41992 230.00781 C 234.00192 230.16627 216.00195 248.25815 216.00195 270.71484 C 216.00195 293.17154 234.00192 311.26146 256.41992 311.41992 C 256.46992 311.42058 256.5182 311.42773 256.56836 311.42773 L 419.7207 311.42773 L 495.12305 311.42773 C 495.80623 311.42773 496.47065 311.35718 497.11914 311.24023 C 498.3975 311.36018 499.6912 311.42773 501.00195 311.42773 C 523.55766 311.42773 541.71484 293.27055 541.71484 270.71484 C 541.71484 248.15913 523.55766 230 501.00195 230 C 499.6912 230 498.3975 230.06756 497.11914 230.1875 C 496.47065 230.07055 495.80623 230 495.12305 230 L 419.7207 230 L 256.56836 230 z M 175.28711 311.42773 C 152.7314 311.42773 134.57227 329.58687 134.57227 352.14258 C 134.57227 353.41478 134.63889 354.67035 134.75195 355.91211 C 134.63708 356.94584 134.57227 357.99518 134.57227 359.06055 L 134.57227 508.08203 L 134.57227 563.40625 C 134.57227 564.06729 134.61153 564.717 134.67969 565.35938 C 134.61663 565.84035 134.57227 566.32745 134.57227 566.82617 L 134.57227 626.03125 L 134.57227 752.55078 C 134.57227 753.59374 134.63425 754.62198 134.74414 755.63477 C 134.63808 756.83801 134.57227 758.05344 134.57227 759.28516 C 134.57227 781.84087 152.7314 800 175.28711 800 C 176.08363 800 176.87325 799.97242 177.6582 799.92773 C 178.06842 799.97326 178.48349 800 178.90625 800 L 334.52539 800 L 418.46484 800 C 418.59022 800 418.71159 799.9865 418.83594 799.98242 C 419.08182 799.98676 419.32531 800 419.57227 800 C 442.12797 800 460.28711 781.84087 460.28711 759.28516 C 460.28711 736.72945 442.12797 718.57227 419.57227 718.57227 C 419.32531 718.57227 419.08182 718.58551 418.83594 718.58984 C 418.71159 718.58576 418.59022 718.57227 418.46484 718.57227 L 334.52539 718.57227 L 216.00195 718.57227 L 216.00195 603.16406 L 216.00195 566.82617 C 216.00195 566.32745 215.95759 565.84035 215.89453 565.35938 C 215.96269 564.717 216.00195 564.06729 216.00195 563.40625 L 216.00195 466.59375 L 216.00195 359.06055 C 216.00195 357.99518 215.93714 356.94584 215.82227 355.91211 C 215.93533 354.67035 216.00195 353.41478 216.00195 352.14258 C 216.00195 329.58687 197.84282 311.42773 175.28711 311.42773 z M 419.57227 474.28516 C 397.01656 474.28516 378.85938 492.44429 378.85938 515 C 378.85938 537.55571 397.01656 555.71484 419.57227 555.71484 C 420.37139 555.71484 421.1637 555.6856 421.95117 555.64062 C 422.3589 555.68559 422.77131 555.71484 423.19141 555.71484 L 460.28711 555.71484 L 460.28711 674.04297 C 460.28711 674.61778 460.30733 675.18948 460.33984 675.75586 C 460.3048 676.45172 460.28711 677.15256 460.28711 677.85742 C 460.28711 700.41313 478.44624 718.57227 501.00195 718.57227 C 523.55766 718.57227 541.71484 700.41313 541.71484 677.85742 C 541.71484 677.15256 541.69716 676.45172 541.66211 675.75586 C 541.6947 675.18883 541.71484 674.61844 541.71484 674.04297 L 541.71484 518.81445 C 541.71484 518.23907 541.69469 517.6685 541.66211 517.10156 C 541.69716 516.4057 541.71484 515.70487 541.71484 515 C 541.71484 492.44429 523.55766 474.28516 501.00195 474.28516 C 500.27448 474.28516 499.55185 474.30643 498.83398 474.34375 C 498.46513 474.30709 498.09171 474.28516 497.71289 474.28516 L 423.19141 474.28516 C 422.7713 474.28516 422.35891 474.31441 421.95117 474.35938 C 421.16369 474.3144 420.37139 474.28516 419.57227 474.28516 z "
       transform="matrix(0.26458333,0,0,0.26458333,0,32.41665)"
       id="rect850" />
  </g>
</svg>
