<?xml version="1.0" encoding="UTF-8" standalone="no"?>
<!-- Created with Inkscape (http://www.inkscape.org/) -->

<svg
   xmlns:dc="http://purl.org/dc/elements/1.1/"
   xmlns:cc="http://creativecommons.org/ns#"
   xmlns:rdf="http://www.w3.org/1999/02/22-rdf-syntax-ns#"
   xmlns:svg="http://www.w3.org/2000/svg"
   xmlns="http://www.w3.org/2000/svg"
   xmlns:sodipodi="http://sodipodi.sourceforge.net/DTD/sodipodi-0.dtd"
   xmlns:inkscape="http://www.inkscape.org/namespaces/inkscape"
   width="1000"
   height="1000"
   viewBox="0 0 264.58333 264.58334"
   version="1.1"
   id="svg8"
   inkscape:version="0.92.4 (5da689c313, 2019-01-14)"
   sodipodi:docname="K.svg">
  <defs
     id="defs2" />
  <sodipodi:namedview
     id="base"
     pagecolor="#ffffff"
     bordercolor="#666666"
     borderopacity="1.0"
     inkscape:pageopacity="0.0"
     inkscape:pageshadow="2"
     inkscape:zoom="0.7"
     inkscape:cx="331.25204"
     inkscape:cy="429.26881"
     inkscape:document-units="mm"
     inkscape:current-layer="layer1"
     showgrid="false"
     units="px"
     inkscape:window-width="1600"
     inkscape:window-height="1149"
     inkscape:window-x="0"
     inkscape:window-y="26"
     inkscape:window-maximized="1"
     showguides="true"
     inkscape:guide-bbox="true">
    <sodipodi:guide
       position="0,52.916667"
       orientation="0,1"
       id="guide29"
       inkscape:locked="false"
       inkscape:label=""
       inkscape:color="rgb(0,0,255)" />
    <sodipodi:guide
       position="57.150382,139.09526"
       orientation="0,1"
       id="guide913"
       inkscape:locked="false" />
    <sodipodi:guide
       position="35.605739,52.916672"
       orientation="1,0"
       id="guide1095"
       inkscape:locked="false" />
    <sodipodi:guide
       position="35.605739,203.7292"
       orientation="0,1"
       id="guide1097"
       inkscape:locked="false" />
    <sodipodi:guide
       position="143.32896,52.916672"
       orientation="1,0"
       id="guide1099"
       inkscape:locked="false" />
  </sodipodi:namedview>
  <metadata
     id="metadata5">
    <rdf:RDF>
      <cc:Work
         rdf:about="">
        <dc:format>image/svg+xml</dc:format>
        <dc:type
           rdf:resource="http://purl.org/dc/dcmitype/StillImage" />
        <dc:title />
      </cc:Work>
    </rdf:RDF>
  </metadata>
  <g
     inkscape:label="Layer 1"
     inkscape:groupmode="layer"
     id="layer1"
     transform="translate(0,-32.41665)">
    <path
       style="fill:#010101;fill-opacity:1;fill-rule:nonzero;stroke:#ffffff;stroke-width:0;stroke-miterlimit:4;stroke-dasharray:none;stroke-opacity:1;paint-order:normal"
       d="M 175.28711 230 C 152.7314 230 134.57227 248.15913 134.57227 270.71484 C 134.57227 271.15768 134.59157 271.59582 134.60547 272.03516 C 134.58708 272.46534 134.57227 272.89716 134.57227 273.33203 L 134.57227 430.95508 L 134.57227 463.17383 L 134.57227 567.73828 L 134.57227 637.7832 L 134.57227 754.69531 C 134.57227 755.40046 134.60503 756.09689 134.6543 756.78906 C 134.60475 757.61523 134.57227 758.44611 134.57227 759.28516 C 134.57227 781.84087 152.7314 800 175.28711 800 C 197.84282 800 216.00195 781.84087 216.00195 759.28516 C 216.00195 758.44611 215.96947 757.61523 215.91992 756.78906 C 215.96919 756.09689 216.00195 755.40046 216.00195 754.69531 L 216.00195 601.01953 L 216.00195 555.07422 L 216.00195 544.60156 C 216.00195 550.75743 220.95741 555.71484 227.11328 555.71484 L 286.31836 555.71484 C 292.47423 555.71484 297.42969 550.75743 297.42969 544.60156 L 297.42969 485.39648 C 297.42969 479.24061 292.47423 474.28516 286.31836 474.28516 L 227.11328 474.28516 C 220.95741 474.28516 216.00195 479.24061 216.00195 485.39648 L 216.00195 462.26172 L 216.00195 403.96875 L 216.00195 273.33203 C 216.00195 272.89716 215.98714 272.46534 215.96875 272.03516 C 215.98264 271.59582 216.00195 271.15768 216.00195 270.71484 C 216.00195 248.15913 197.84282 230 175.28711 230 z M 419.57227 311.42773 C 397.01656 311.42773 378.85938 329.58687 378.85938 352.14258 C 378.85937 374.69829 397.01656 392.85742 419.57227 392.85742 C 442.12797 392.85742 460.28711 374.69829 460.28711 352.14258 C 460.28711 329.58687 442.12797 311.42773 419.57227 311.42773 z M 308.54102 392.85742 C 302.38515 392.85742 297.42969 397.81288 297.42969 403.96875 L 297.42969 463.17383 C 297.42969 469.3297 302.38515 474.28516 308.54102 474.28516 L 367.74609 474.28516 C 373.90196 474.28516 378.85938 469.3297 378.85938 463.17383 L 378.85938 403.96875 C 378.85937 397.81288 373.90196 392.85742 367.74609 392.85742 L 308.54102 392.85742 z M 308.54102 555.71484 C 302.38515 555.71484 297.42969 560.6703 297.42969 566.82617 L 297.42969 626.03125 C 297.42969 632.18712 302.38515 637.14258 308.54102 637.14258 L 367.74609 637.14258 C 373.90196 637.14258 378.85938 632.18712 378.85938 626.03125 L 378.85938 566.82617 C 378.85937 560.6703 373.90196 555.71484 367.74609 555.71484 L 308.54102 555.71484 z M 389.9707 637.14258 C 383.81483 637.14258 378.85938 642.09804 378.85938 648.25391 L 378.85938 707.45898 C 378.85938 713.61485 383.81483 718.57227 389.9707 718.57227 L 449.17578 718.57227 C 455.33165 718.57227 460.28711 713.61485 460.28711 707.45898 L 460.28711 648.25391 C 460.28711 642.09804 455.33165 637.14258 449.17578 637.14258 L 389.9707 637.14258 z M 501.00195 718.57227 C 478.44624 718.57227 460.28711 736.72945 460.28711 759.28516 C 460.28711 781.84087 478.44624 800 501.00195 800 C 523.55766 800 541.71484 781.84087 541.71484 759.28516 C 541.71484 736.72945 523.55766 718.57227 501.00195 718.57227 z "
       transform="matrix(0.26458333,0,0,0.26458333,0,32.41665)"
       id="rect850" />
  </g>
</svg>
