<?xml version="1.0" encoding="UTF-8" standalone="no"?>
<!-- Created with Inkscape (http://www.inkscape.org/) -->

<svg
   xmlns:dc="http://purl.org/dc/elements/1.1/"
   xmlns:cc="http://creativecommons.org/ns#"
   xmlns:rdf="http://www.w3.org/1999/02/22-rdf-syntax-ns#"
   xmlns:svg="http://www.w3.org/2000/svg"
   xmlns="http://www.w3.org/2000/svg"
   xmlns:sodipodi="http://sodipodi.sourceforge.net/DTD/sodipodi-0.dtd"
   xmlns:inkscape="http://www.inkscape.org/namespaces/inkscape"
   width="1000"
   height="1000"
   viewBox="0 0 264.58333 264.58334"
   version="1.1"
   id="svg8"
   inkscape:version="0.92.4 (5da689c313, 2019-01-14)"
   sodipodi:docname="N.svg">
  <defs
     id="defs2" />
  <sodipodi:namedview
     id="base"
     pagecolor="#ffffff"
     bordercolor="#666666"
     borderopacity="1.0"
     inkscape:pageopacity="0.0"
     inkscape:pageshadow="2"
     inkscape:zoom="1.4"
     inkscape:cx="344.88114"
     inkscape:cy="491.64849"
     inkscape:document-units="mm"
     inkscape:current-layer="layer1"
     showgrid="false"
     units="px"
     inkscape:window-width="1600"
     inkscape:window-height="1149"
     inkscape:window-x="0"
     inkscape:window-y="26"
     inkscape:window-maximized="1"
     showguides="true"
     inkscape:guide-bbox="true">
    <sodipodi:guide
       position="0,52.916667"
       orientation="0,1"
       id="guide29"
       inkscape:locked="false"
       inkscape:label=""
       inkscape:color="rgb(0,0,255)" />
    <sodipodi:guide
       position="57.150382,139.09526"
       orientation="0,1"
       id="guide913"
       inkscape:locked="false" />
    <sodipodi:guide
       position="35.605739,52.916672"
       orientation="1,0"
       id="guide1095"
       inkscape:locked="false" />
    <sodipodi:guide
       position="35.605739,203.7292"
       orientation="0,1"
       id="guide1097"
       inkscape:locked="false" />
    <sodipodi:guide
       position="143.32896,52.916672"
       orientation="1,0"
       id="guide1099"
       inkscape:locked="false" />
  </sodipodi:namedview>
  <metadata
     id="metadata5">
    <rdf:RDF>
      <cc:Work
         rdf:about="">
        <dc:format>image/svg+xml</dc:format>
        <dc:type
           rdf:resource="http://purl.org/dc/dcmitype/StillImage" />
        <dc:title />
      </cc:Work>
    </rdf:RDF>
  </metadata>
  <g
     inkscape:label="Layer 1"
     inkscape:groupmode="layer"
     id="layer1"
     transform="translate(0,-32.41665)">
    <path
       style="fill:#010101;fill-opacity:1;fill-rule:nonzero;stroke:#ffffff;stroke-width:0;stroke-miterlimit:4;stroke-dasharray:none;stroke-opacity:1;paint-order:normal"
       d="M 175.28711 230 C 153.3236 230 135.53642 247.21977 134.61719 268.94922 C 134.59097 269.36367 134.57227 269.77988 134.57227 270.20117 L 134.57227 373.47461 L 134.57227 403.96875 L 134.57227 412.24023 L 134.57227 430.23633 L 134.57227 454.90234 L 134.57227 463.17383 C 134.57227 463.23718 134.58099 463.29823 134.58203 463.36133 C 134.58086 463.51759 134.57227 463.67151 134.57227 463.82812 L 134.57227 485.39648 L 134.57227 544.60156 L 134.57227 729.0293 L 134.57227 759.4707 C 134.57227 759.83457 134.58387 760.1959 134.60352 760.55469 C 135.27134 782.51691 153.1572 800 175.28711 800 C 197.41702 800 215.30288 782.51691 215.9707 760.55469 C 215.99035 760.1959 216.00195 759.83457 216.00195 759.4707 L 216.00195 656.47266 L 216.00195 544.60156 L 216.00195 485.39648 L 216.00195 474.28516 L 257.22852 474.28516 C 257.6498 474.28516 258.06602 474.26645 258.48047 474.24023 C 280.20991 473.321 297.42969 455.53578 297.42969 433.57227 C 297.42969 432.84217 297.40868 432.1169 297.37109 431.39648 C 297.40076 431.01257 297.42969 430.62811 297.42969 430.23633 L 297.42969 351.58008 C 297.42969 351.39146 297.40929 351.20835 297.40234 351.02148 C 296.82658 329.57795 279.83791 312.37615 258.48047 311.47266 C 258.06602 311.44644 257.6498 311.42773 257.22852 311.42773 L 216.00195 311.42773 L 216.00195 270.20117 C 216.00195 269.77988 215.98325 269.36367 215.95703 268.94922 C 215.0378 247.21977 197.25062 230 175.28711 230 z M 501.00195 311.42773 C 478.44624 311.42773 460.28711 329.58687 460.28711 352.14258 C 460.28711 354.27016 460.44819 356.3587 460.75977 358.39648 C 460.45487 360.12823 460.28711 361.90867 460.28711 363.73047 L 460.28711 525.37695 L 460.28711 544.60156 L 460.28711 637.14258 L 424.25586 637.14258 C 423.71068 637.14258 423.17999 637.1944 422.65625 637.26953 C 421.63752 637.19386 420.61099 637.14258 419.57227 637.14258 C 397.01656 637.14258 378.85938 655.30171 378.85938 677.85742 C 378.85938 678.51446 378.87773 679.16717 378.9082 679.81641 C 378.88417 680.14822 378.85938 680.48021 378.85938 680.81836 L 378.85938 753.24414 C 378.85938 753.98368 378.93233 754.70328 379.04492 755.41016 C 378.92547 756.68596 378.85938 757.97709 378.85938 759.28516 C 378.85937 781.84087 397.01656 800 419.57227 800 C 420.61099 800 421.63752 799.94872 422.65625 799.87305 C 423.17999 799.94818 423.71068 800 424.25586 800 L 471.39844 800 L 530.60352 800 C 536.75939 800 541.71484 795.04454 541.71484 788.88867 L 541.71484 729.68359 L 541.71484 707.45898 L 541.71484 682.54102 L 541.71484 648.25391 L 541.71484 524.59375 L 541.71484 485.39648 L 541.71484 363.73047 C 541.71484 361.90728 541.54753 360.12556 541.24219 358.39258 C 541.55338 356.356 541.71484 354.26883 541.71484 352.14258 C 541.71484 329.58687 523.55766 311.42773 501.00195 311.42773 z M 338.14453 474.28516 C 315.58882 474.28516 297.42969 492.44429 297.42969 515 C 297.42969 516.11941 297.48645 517.22424 297.57422 518.32031 C 297.48917 518.93731 297.42969 519.56201 297.42969 520.20312 L 297.42969 592.62891 C 297.42969 593.10774 297.45606 593.58109 297.50391 594.04688 C 297.45885 594.83508 297.42969 595.62786 297.42969 596.42773 C 297.42969 618.98344 315.58882 637.14258 338.14453 637.14258 C 360.70024 637.14258 378.85938 618.98344 378.85938 596.42773 C 378.85938 595.62786 378.83021 594.83507 378.78516 594.04688 C 378.833 593.58109 378.85938 593.10774 378.85938 592.62891 L 378.85938 520.20312 C 378.85938 519.56002 378.80041 518.93329 378.71484 518.31445 C 378.8023 517.22031 378.85938 516.1174 378.85938 515 C 378.85937 492.44429 360.70024 474.28516 338.14453 474.28516 z "
       transform="matrix(0.26458333,0,0,0.26458333,0,32.41665)"
       id="rect848" />
  </g>
</svg>
