<?xml version="1.0" encoding="UTF-8" standalone="no"?>
<!-- Created with Inkscape (http://www.inkscape.org/) -->

<svg
   xmlns:dc="http://purl.org/dc/elements/1.1/"
   xmlns:cc="http://creativecommons.org/ns#"
   xmlns:rdf="http://www.w3.org/1999/02/22-rdf-syntax-ns#"
   xmlns:svg="http://www.w3.org/2000/svg"
   xmlns="http://www.w3.org/2000/svg"
   xmlns:sodipodi="http://sodipodi.sourceforge.net/DTD/sodipodi-0.dtd"
   xmlns:inkscape="http://www.inkscape.org/namespaces/inkscape"
   width="1000"
   height="1000"
   viewBox="0 0 264.58333 264.58334"
   version="1.1"
   id="svg8"
   inkscape:version="0.92.4 (5da689c313, 2019-01-14)"
   sodipodi:docname="O.svg">
  <defs
     id="defs2" />
  <sodipodi:namedview
     id="base"
     pagecolor="#ffffff"
     bordercolor="#666666"
     borderopacity="1.0"
     inkscape:pageopacity="0.0"
     inkscape:pageshadow="2"
     inkscape:zoom="0.98994949"
     inkscape:cx="435.4772"
     inkscape:cy="422.10304"
     inkscape:document-units="mm"
     inkscape:current-layer="layer1"
     showgrid="false"
     units="px"
     inkscape:window-width="1600"
     inkscape:window-height="1149"
     inkscape:window-x="0"
     inkscape:window-y="26"
     inkscape:window-maximized="1"
     showguides="true"
     inkscape:guide-bbox="true">
    <sodipodi:guide
       position="0,52.916667"
       orientation="0,1"
       id="guide29"
       inkscape:locked="false"
       inkscape:label=""
       inkscape:color="rgb(0,0,255)" />
    <sodipodi:guide
       position="57.150382,139.09526"
       orientation="0,1"
       id="guide913"
       inkscape:locked="false" />
    <sodipodi:guide
       position="35.605739,52.916672"
       orientation="1,0"
       id="guide1095"
       inkscape:locked="false" />
    <sodipodi:guide
       position="35.605739,203.7292"
       orientation="0,1"
       id="guide1097"
       inkscape:locked="false" />
    <sodipodi:guide
       position="143.32896,52.916672"
       orientation="1,0"
       id="guide1099"
       inkscape:locked="false" />
  </sodipodi:namedview>
  <metadata
     id="metadata5">
    <rdf:RDF>
      <cc:Work
         rdf:about="">
        <dc:format>image/svg+xml</dc:format>
        <dc:type
           rdf:resource="http://purl.org/dc/dcmitype/StillImage" />
        <dc:title />
      </cc:Work>
    </rdf:RDF>
  </metadata>
  <g
     inkscape:label="Layer 1"
     inkscape:groupmode="layer"
     id="layer1"
     transform="translate(0,-32.41665)">
    <path
       style="fill:#010101;fill-opacity:1;fill-rule:nonzero;stroke:#ffffff;stroke-width:0;stroke-miterlimit:4;stroke-dasharray:none;stroke-opacity:1;paint-order:normal"
       d="M 175.28711 230 C 152.7314 230 134.57227 248.15913 134.57227 270.71484 C 134.57227 271.98374 134.63947 273.23599 134.75195 274.47461 C 134.6376 275.50618 134.57227 276.55413 134.57227 277.61719 L 134.57227 426.66797 L 134.57227 463.17383 L 134.57227 603.80859 L 134.57227 626.03125 L 134.57227 756.48438 C 134.57227 756.94882 134.58641 757.41007 134.60742 757.86914 C 134.59145 758.34004 134.57227 758.81023 134.57227 759.28516 C 134.57227 781.5369 152.24849 799.49621 174.38086 799.97656 C 174.53373 799.98274 174.68345 800 174.83789 800 L 338.59375 800 L 367.74609 800 L 498.32812 800 C 498.63118 800 498.92977 799.97865 499.22656 799.95508 C 499.81565 799.98014 500.40648 800 501.00195 800 C 522.35234 800 539.75099 783.72774 541.55078 762.85938 C 541.65919 761.80563 541.71484 760.73763 541.71484 759.6543 L 541.71484 596.06055 L 541.71484 566.82617 L 541.71484 426.19141 L 541.71484 356.22852 C 541.71484 355.60775 541.69036 354.99368 541.65234 354.38281 C 541.6922 353.64108 541.71484 352.89459 541.71484 352.14258 C 541.71484 329.58687 523.55766 311.42773 501.00195 311.42773 C 478.44624 311.42773 460.28711 329.58687 460.28711 352.14258 C 460.28711 352.89459 460.30975 353.64108 460.34961 354.38281 C 460.3116 354.99368 460.28711 355.60775 460.28711 356.22852 L 460.28711 510.91406 L 460.28711 603.80859 L 460.28711 626.03125 L 460.28711 718.57227 L 367.74609 718.57227 L 338.59375 718.57227 L 216.00195 718.57227 L 216.00195 599.22852 L 216.00195 566.82617 L 216.00195 426.19141 L 216.00195 403.96875 L 216.00195 311.42773 L 227.11328 311.42773 L 333.90625 311.42773 L 415.72852 311.42773 C 416.17646 311.42773 416.61699 311.39479 417.05078 311.34375 C 417.88532 311.39431 418.72458 311.42773 419.57227 311.42773 C 442.12797 311.42773 460.28711 293.27055 460.28711 270.71484 C 460.28711 248.15913 442.12797 230 419.57227 230 C 418.72458 230 417.88532 230.03342 417.05078 230.08398 C 416.61699 230.03295 416.17646 230 415.72852 230 L 333.90625 230 L 227.11328 230 L 177.97852 230 C 177.67363 230 177.37472 230.02106 177.07617 230.04492 C 176.4826 230.01948 175.88716 230 175.28711 230 z "
       transform="matrix(0.26458333,0,0,0.26458333,0,32.41665)"
       id="rect848" />
  </g>
</svg>
