<?xml version="1.0" encoding="UTF-8" standalone="no"?>
<!-- Created with Inkscape (http://www.inkscape.org/) -->

<svg
   xmlns:dc="http://purl.org/dc/elements/1.1/"
   xmlns:cc="http://creativecommons.org/ns#"
   xmlns:rdf="http://www.w3.org/1999/02/22-rdf-syntax-ns#"
   xmlns:svg="http://www.w3.org/2000/svg"
   xmlns="http://www.w3.org/2000/svg"
   xmlns:sodipodi="http://sodipodi.sourceforge.net/DTD/sodipodi-0.dtd"
   xmlns:inkscape="http://www.inkscape.org/namespaces/inkscape"
   width="1000"
   height="1000"
   viewBox="0 0 264.58333 264.58334"
   version="1.1"
   id="svg8"
   inkscape:version="0.92.4 (5da689c313, 2019-01-14)"
   sodipodi:docname="P.svg">
  <defs
     id="defs2" />
  <sodipodi:namedview
     id="base"
     pagecolor="#ffffff"
     bordercolor="#666666"
     borderopacity="1.0"
     inkscape:pageopacity="0.0"
     inkscape:pageshadow="2"
     inkscape:zoom="0.49497475"
     inkscape:cx="385.27035"
     inkscape:cy="458.42748"
     inkscape:document-units="mm"
     inkscape:current-layer="layer1"
     showgrid="false"
     units="px"
     inkscape:window-width="1600"
     inkscape:window-height="1149"
     inkscape:window-x="0"
     inkscape:window-y="26"
     inkscape:window-maximized="1"
     showguides="true"
     inkscape:guide-bbox="true">
    <sodipodi:guide
       position="0,52.916667"
       orientation="0,1"
       id="guide29"
       inkscape:locked="false"
       inkscape:label=""
       inkscape:color="rgb(0,0,255)" />
    <sodipodi:guide
       position="57.150382,139.09526"
       orientation="0,1"
       id="guide913"
       inkscape:locked="false" />
    <sodipodi:guide
       position="35.605739,52.916672"
       orientation="1,0"
       id="guide1095"
       inkscape:locked="false" />
    <sodipodi:guide
       position="35.605739,203.7292"
       orientation="0,1"
       id="guide1097"
       inkscape:locked="false" />
    <sodipodi:guide
       position="143.32896,52.916672"
       orientation="1,0"
       id="guide1099"
       inkscape:locked="false" />
  </sodipodi:namedview>
  <metadata
     id="metadata5">
    <rdf:RDF>
      <cc:Work
         rdf:about="">
        <dc:format>image/svg+xml</dc:format>
        <dc:type
           rdf:resource="http://purl.org/dc/dcmitype/StillImage" />
        <dc:title />
      </cc:Work>
    </rdf:RDF>
  </metadata>
  <g
     inkscape:label="Layer 1"
     inkscape:groupmode="layer"
     id="layer1"
     transform="translate(0,-32.41665)">
    <path
       style="fill:#010101;fill-opacity:1;fill-rule:nonzero;stroke:#ffffff;stroke-width:0;stroke-miterlimit:4;stroke-dasharray:none;stroke-opacity:1;paint-order:normal"
       d="M 174.61328 230 C 174.38166 230 174.15576 230.01937 173.92773 230.0332 C 152.00763 230.74695 134.57227 248.61506 134.57227 270.71484 C 134.57227 272.41639 134.68986 274.08878 134.89062 275.73438 C 134.69087 276.8114 134.57227 277.91807 134.57227 279.05469 L 134.57227 374.87305 L 134.57227 501.86523 L 134.57227 544.60156 L 134.57227 660.30859 L 134.57227 753.16211 C 134.57227 754.12291 134.62213 755.0722 134.71484 756.00781 C 134.62933 757.0899 134.57227 758.18035 134.57227 759.28516 C 134.57227 781.84087 152.7314 800 175.28711 800 C 197.84282 800 216.00195 781.84087 216.00195 759.28516 C 216.00195 758.18035 215.94489 757.0899 215.85938 756.00781 C 215.95208 755.0722 216.00195 754.12291 216.00195 753.16211 L 216.00195 602.55273 L 216.00195 555.71484 L 318.81836 555.71484 L 367.74609 555.71484 L 498.10352 555.71484 C 498.42435 555.71484 498.7409 555.69241 499.05469 555.66602 C 499.70009 555.69613 500.34884 555.71484 501.00195 555.71484 C 523.55766 555.71484 541.71484 537.55571 541.71484 515 C 541.71484 514.63316 541.69705 514.27071 541.6875 513.90625 C 541.70156 513.52888 541.71484 513.15241 541.71484 512.77148 L 541.71484 354.37109 C 541.71484 353.99017 541.70156 353.61369 541.6875 353.23633 C 541.69705 352.87187 541.71484 352.50942 541.71484 352.14258 C 541.71484 329.58687 523.55766 311.42773 501.00195 311.42773 C 478.44624 311.42773 460.28711 329.58687 460.28711 352.14258 C 460.28711 352.51924 460.30439 352.89148 460.31445 353.26562 C 460.30111 353.63333 460.28711 354.00001 460.28711 354.37109 L 460.28711 474.28516 L 367.74609 474.28516 L 318.81836 474.28516 L 216.00195 474.28516 L 216.00195 365.27734 L 216.00195 311.42773 L 286.31836 311.42773 L 419.17578 311.42773 C 419.22064 311.42773 419.26386 311.4224 419.30859 311.42188 C 419.39689 311.42243 419.48384 311.42773 419.57227 311.42773 C 442.12797 311.42773 460.28711 293.27055 460.28711 270.71484 C 460.28711 248.15913 442.12797 230 419.57227 230 C 419.48384 230 419.39689 230.0053 419.30859 230.00586 C 419.26386 230.00533 419.22064 230 419.17578 230 L 286.31836 230 L 174.61328 230 z "
       transform="matrix(0.26458333,0,0,0.26458333,0,32.41665)"
       id="rect848" />
  </g>
</svg>
