<?xml version="1.0" encoding="UTF-8" standalone="no"?>
<!-- Created with Inkscape (http://www.inkscape.org/) -->

<svg
   xmlns:dc="http://purl.org/dc/elements/1.1/"
   xmlns:cc="http://creativecommons.org/ns#"
   xmlns:rdf="http://www.w3.org/1999/02/22-rdf-syntax-ns#"
   xmlns:svg="http://www.w3.org/2000/svg"
   xmlns="http://www.w3.org/2000/svg"
   xmlns:sodipodi="http://sodipodi.sourceforge.net/DTD/sodipodi-0.dtd"
   xmlns:inkscape="http://www.inkscape.org/namespaces/inkscape"
   width="1000"
   height="1000"
   viewBox="0 0 264.58333 264.58334"
   version="1.1"
   id="svg8"
   inkscape:version="0.92.4 (5da689c313, 2019-01-14)"
   sodipodi:docname="Q.svg">
  <defs
     id="defs2" />
  <sodipodi:namedview
     id="base"
     pagecolor="#ffffff"
     bordercolor="#666666"
     borderopacity="1.0"
     inkscape:pageopacity="0.0"
     inkscape:pageshadow="2"
     inkscape:zoom="0.98994949"
     inkscape:cx="296.75161"
     inkscape:cy="405.39283"
     inkscape:document-units="mm"
     inkscape:current-layer="layer1"
     showgrid="false"
     units="px"
     inkscape:window-width="1600"
     inkscape:window-height="1149"
     inkscape:window-x="0"
     inkscape:window-y="26"
     inkscape:window-maximized="1"
     showguides="true"
     inkscape:guide-bbox="true">
    <sodipodi:guide
       position="0,52.916667"
       orientation="0,1"
       id="guide29"
       inkscape:locked="false"
       inkscape:label=""
       inkscape:color="rgb(0,0,255)" />
    <sodipodi:guide
       position="57.150382,139.09526"
       orientation="0,1"
       id="guide913"
       inkscape:locked="false" />
    <sodipodi:guide
       position="35.605739,52.916672"
       orientation="1,0"
       id="guide1095"
       inkscape:locked="false" />
    <sodipodi:guide
       position="35.605739,203.7292"
       orientation="0,1"
       id="guide1097"
       inkscape:locked="false" />
    <sodipodi:guide
       position="143.32896,52.916672"
       orientation="1,0"
       id="guide1099"
       inkscape:locked="false" />
  </sodipodi:namedview>
  <metadata
     id="metadata5">
    <rdf:RDF>
      <cc:Work
         rdf:about="">
        <dc:format>image/svg+xml</dc:format>
        <dc:type
           rdf:resource="http://purl.org/dc/dcmitype/StillImage" />
        <dc:title />
      </cc:Work>
    </rdf:RDF>
  </metadata>
  <g
     inkscape:label="Layer 1"
     inkscape:groupmode="layer"
     id="layer1"
     transform="translate(0,-32.41665)">
    <path
       style="fill:#010101;fill-opacity:1;fill-rule:nonzero;stroke:#ffffff;stroke-width:0;stroke-miterlimit:4;stroke-dasharray:none;stroke-opacity:1;paint-order:normal"
       d="M 171.55469 230 C 170.16695 230 168.84578 230.26393 167.62305 230.72461 C 148.75811 234.29199 134.57227 250.78182 134.57227 270.71484 C 134.57227 272.65289 134.71717 274.55553 134.97656 276.41992 C 134.71621 277.92171 134.57227 279.4645 134.57227 281.04297 L 134.57227 423.24219 L 134.57227 463.17383 L 134.57227 603.80859 L 134.57227 626.03125 L 134.57227 754.46094 C 134.57227 755.20464 134.60915 755.93879 134.66406 756.66797 C 134.60957 757.534 134.57227 758.40491 134.57227 759.28516 C 134.57227 780.1117 150.05813 797.17781 170.1875 799.67383 C 171.03449 799.8791 171.91627 800 172.82812 800 L 340.60352 800 L 367.74609 800 L 476.31836 800 L 582.12109 800 C 582.15602 800 582.18976 799.99446 582.22461 799.99414 C 582.29332 799.99448 582.3609 800 582.42969 800 C 604.9854 800 623.14453 781.84087 623.14453 759.28516 C 623.14453 736.72945 604.9854 718.57227 582.42969 718.57227 C 582.3609 718.57227 582.29332 718.57779 582.22461 718.57812 C 582.18976 718.57781 582.15602 718.57227 582.12109 718.57227 L 541.71484 718.57227 L 541.71484 622.54883 L 541.71484 534.50977 L 541.71484 485.39648 L 541.71484 355.86133 C 541.71484 355.29388 541.69572 354.73113 541.66406 354.17188 C 541.69675 353.49963 541.71484 352.8232 541.71484 352.14258 C 541.71484 329.58687 523.55766 311.42773 501.00195 311.42773 C 478.44624 311.42773 460.28711 329.58687 460.28711 352.14258 C 460.28711 352.82386 460.30514 353.50095 460.33789 354.17383 C 460.30631 354.73244 460.28711 355.29454 460.28711 355.86133 L 460.28711 511.28125 L 460.28711 544.60156 L 460.28711 658.34766 L 460.28711 718.57227 L 367.74609 718.57227 L 340.60352 718.57227 L 216.00195 718.57227 L 216.00195 601.25391 L 216.00195 566.82617 L 216.00195 426.19141 L 216.00195 403.96875 L 216.00195 311.42773 L 341.87695 311.42773 L 415.72852 311.42773 C 416.17646 311.42773 416.61699 311.39479 417.05078 311.34375 C 417.88532 311.39431 418.72458 311.42773 419.57227 311.42773 C 442.12797 311.42773 460.28711 293.27055 460.28711 270.71484 C 460.28711 248.15913 442.12797 230 419.57227 230 C 418.72458 230 417.88532 230.03342 417.05078 230.08398 C 416.61699 230.03295 416.17646 230 415.72852 230 L 341.87695 230 L 171.55469 230 z "
       transform="matrix(0.26458333,0,0,0.26458333,0,32.41665)"
       id="rect848" />
  </g>
</svg>
