<?xml version="1.0" encoding="UTF-8" standalone="no"?>
<!-- Created with Inkscape (http://www.inkscape.org/) -->

<svg
   xmlns:dc="http://purl.org/dc/elements/1.1/"
   xmlns:cc="http://creativecommons.org/ns#"
   xmlns:rdf="http://www.w3.org/1999/02/22-rdf-syntax-ns#"
   xmlns:svg="http://www.w3.org/2000/svg"
   xmlns="http://www.w3.org/2000/svg"
   xmlns:sodipodi="http://sodipodi.sourceforge.net/DTD/sodipodi-0.dtd"
   xmlns:inkscape="http://www.inkscape.org/namespaces/inkscape"
   width="1000"
   height="1000"
   viewBox="0 0 264.58333 264.58334"
   version="1.1"
   id="svg8"
   inkscape:version="0.92.4 (5da689c313, 2019-01-14)"
   sodipodi:docname="V.svg">
  <defs
     id="defs2" />
  <sodipodi:namedview
     id="base"
     pagecolor="#ffffff"
     bordercolor="#666666"
     borderopacity="1.0"
     inkscape:pageopacity="0.0"
     inkscape:pageshadow="2"
     inkscape:zoom="0.98994949"
     inkscape:cx="344.30355"
     inkscape:cy="487.82332"
     inkscape:document-units="mm"
     inkscape:current-layer="layer1"
     showgrid="false"
     units="px"
     inkscape:window-width="1600"
     inkscape:window-height="1149"
     inkscape:window-x="0"
     inkscape:window-y="26"
     inkscape:window-maximized="1"
     showguides="true"
     inkscape:guide-bbox="true">
    <sodipodi:guide
       position="0,52.916667"
       orientation="0,1"
       id="guide29"
       inkscape:locked="false"
       inkscape:label=""
       inkscape:color="rgb(0,0,255)" />
    <sodipodi:guide
       position="57.150382,139.09526"
       orientation="0,1"
       id="guide913"
       inkscape:locked="false" />
    <sodipodi:guide
       position="35.605739,52.916672"
       orientation="1,0"
       id="guide1095"
       inkscape:locked="false" />
    <sodipodi:guide
       position="35.605739,203.7292"
       orientation="0,1"
       id="guide1097"
       inkscape:locked="false" />
    <sodipodi:guide
       position="143.32896,52.916672"
       orientation="1,0"
       id="guide1099"
       inkscape:locked="false" />
  </sodipodi:namedview>
  <metadata
     id="metadata5">
    <rdf:RDF>
      <cc:Work
         rdf:about="">
        <dc:format>image/svg+xml</dc:format>
        <dc:type
           rdf:resource="http://purl.org/dc/dcmitype/StillImage" />
        <dc:title />
      </cc:Work>
    </rdf:RDF>
  </metadata>
  <g
     inkscape:label="Layer 1"
     inkscape:groupmode="layer"
     id="layer1"
     transform="translate(0,-32.41665)">
    <path
       style="fill:#010101;fill-opacity:1;fill-rule:nonzero;stroke:#ffffff;stroke-width:0;stroke-miterlimit:4;stroke-dasharray:none;stroke-opacity:1;paint-order:normal"
       d="M 175.28711 230 C 152.7314 230 134.57227 248.15913 134.57227 270.71484 C 134.57227 271.55922 134.60608 272.39523 134.65625 273.22656 C 134.60632 273.87727 134.57227 274.53138 134.57227 275.19531 L 134.57227 409.44727 L 134.57227 512.61133 C 134.57227 513.01401 134.58453 513.4122 134.60156 513.81055 C 134.59028 514.20666 134.57227 514.60106 134.57227 515 C 134.57227 537.55571 152.7314 555.71484 175.28711 555.71484 C 197.84282 555.71484 216.00195 537.55571 216.00195 515 C 216.00195 514.60106 215.98394 514.20666 215.97266 513.81055 C 215.98969 513.4122 216.00195 513.01401 216.00195 512.61133 L 216.00195 366.67578 L 216.00195 275.19531 C 216.00195 274.53138 215.9679 273.87727 215.91797 273.22656 C 215.96814 272.39523 216.00195 271.55922 216.00195 270.71484 C 216.00195 248.15913 197.84282 230 175.28711 230 z M 501.00195 311.42773 C 478.44624 311.42773 460.28711 329.58687 460.28711 352.14258 C 460.28711 352.16813 460.28902 352.19321 460.28906 352.21875 C 460.289 352.24426 460.28711 352.2694 460.28711 352.29492 L 460.28711 514.84961 C 460.28711 514.87517 460.289 514.90024 460.28906 514.92578 C 460.28902 514.95066 460.28711 514.97511 460.28711 515 C 460.28711 537.55571 478.44624 555.71484 501.00195 555.71484 C 523.55766 555.71484 541.71484 537.55571 541.71484 515 C 541.71484 514.97511 541.71293 514.95066 541.71289 514.92578 C 541.71295 514.90024 541.71484 514.87517 541.71484 514.84961 L 541.71484 352.29492 C 541.71484 352.2694 541.71295 352.24426 541.71289 352.21875 C 541.71294 352.19321 541.71484 352.16813 541.71484 352.14258 C 541.71484 329.58687 523.55766 311.42773 501.00195 311.42773 z M 256.71484 555.71484 C 235.06729 555.71484 217.48155 572.44219 216.09961 593.72852 C 216.08315 593.88014 216.07662 594.03459 216.06445 594.1875 C 216.05935 594.28247 216.05524 594.37751 216.05078 594.47266 C 216.03043 594.80222 216.00195 595.12998 216.00195 595.46484 L 216.00195 596.42773 L 216.00195 677.85742 L 216.00195 679.55469 C 216.00195 680.39405 216.08396 681.2124 216.20898 682.01562 C 218.2794 702.60344 235.56353 718.57031 256.71484 718.57031 C 277.86616 718.57031 295.15224 702.60344 297.22266 682.01562 C 297.34768 681.2124 297.42969 680.39405 297.42969 679.55469 L 297.42969 677.85742 L 297.42969 596.42773 L 297.42969 595.46484 C 297.42969 595.12998 297.40121 594.80222 297.38086 594.47266 C 297.3764 594.37751 297.37229 594.28247 297.36719 594.1875 C 297.35502 594.03459 297.34849 593.88014 297.33203 593.72852 C 295.95009 572.44219 278.3624 555.71484 256.71484 555.71484 z M 419.57227 555.71484 C 399.28184 555.71484 382.55853 570.41215 379.40234 589.7832 C 379.05903 591.08143 378.85938 592.43857 378.85938 593.84766 L 378.85938 677.93945 C 378.85938 677.96779 378.86313 677.99513 378.86328 678.02344 C 378.95263 700.50173 397.07224 718.57227 419.57227 718.57227 C 442.0736 718.57227 460.19595 700.49964 460.2832 678.01953 C 460.28334 677.99254 460.28711 677.96648 460.28711 677.93945 L 460.28711 593.84766 C 460.28711 592.44277 460.08742 591.08966 459.74609 589.79492 C 456.59476 570.41806 439.86679 555.71484 419.57227 555.71484 z M 338.14453 718.57227 C 315.58882 718.57227 297.42969 736.72945 297.42969 759.28516 C 297.42969 781.84087 315.58882 800 338.14453 800 C 360.70024 800 378.85938 781.84087 378.85938 759.28516 C 378.85937 736.72945 360.70024 718.57227 338.14453 718.57227 z "
       transform="matrix(0.26458333,0,0,0.26458333,0,32.41665)"
       id="rect860" />
  </g>
</svg>
