<?xml version="1.0" encoding="UTF-8" standalone="no"?>
<!-- Created with Inkscape (http://www.inkscape.org/) -->

<svg
   xmlns:dc="http://purl.org/dc/elements/1.1/"
   xmlns:cc="http://creativecommons.org/ns#"
   xmlns:rdf="http://www.w3.org/1999/02/22-rdf-syntax-ns#"
   xmlns:svg="http://www.w3.org/2000/svg"
   xmlns="http://www.w3.org/2000/svg"
   xmlns:sodipodi="http://sodipodi.sourceforge.net/DTD/sodipodi-0.dtd"
   xmlns:inkscape="http://www.inkscape.org/namespaces/inkscape"
   width="1000"
   height="1000"
   viewBox="0 0 264.58333 264.58334"
   version="1.1"
   id="svg8"
   inkscape:version="0.92.4 (5da689c313, 2019-01-14)"
   sodipodi:docname="X.svg">
  <defs
     id="defs2" />
  <sodipodi:namedview
     id="base"
     pagecolor="#ffffff"
     bordercolor="#666666"
     borderopacity="1.0"
     inkscape:pageopacity="0.0"
     inkscape:pageshadow="2"
     inkscape:zoom="0.7"
     inkscape:cx="312.53767"
     inkscape:cy="496.51122"
     inkscape:document-units="mm"
     inkscape:current-layer="layer1"
     showgrid="false"
     units="px"
     inkscape:window-width="1600"
     inkscape:window-height="1149"
     inkscape:window-x="0"
     inkscape:window-y="26"
     inkscape:window-maximized="1"
     showguides="true"
     inkscape:guide-bbox="true">
    <sodipodi:guide
       position="0,52.916667"
       orientation="0,1"
       id="guide29"
       inkscape:locked="false"
       inkscape:label=""
       inkscape:color="rgb(0,0,255)" />
    <sodipodi:guide
       position="57.150382,139.09526"
       orientation="0,1"
       id="guide913"
       inkscape:locked="false" />
    <sodipodi:guide
       position="35.605739,52.916672"
       orientation="1,0"
       id="guide1095"
       inkscape:locked="false" />
    <sodipodi:guide
       position="35.605739,203.7292"
       orientation="0,1"
       id="guide1097"
       inkscape:locked="false" />
    <sodipodi:guide
       position="143.32896,52.916672"
       orientation="1,0"
       id="guide1099"
       inkscape:locked="false" />
  </sodipodi:namedview>
  <metadata
     id="metadata5">
    <rdf:RDF>
      <cc:Work
         rdf:about="">
        <dc:format>image/svg+xml</dc:format>
        <dc:type
           rdf:resource="http://purl.org/dc/dcmitype/StillImage" />
        <dc:title />
      </cc:Work>
    </rdf:RDF>
  </metadata>
  <g
     inkscape:label="Layer 1"
     inkscape:groupmode="layer"
     id="layer1"
     transform="translate(0,-32.41665)">
    <path
       style="fill:#010101;fill-opacity:1;fill-rule:nonzero;stroke:#ffffff;stroke-width:0;stroke-miterlimit:4;stroke-dasharray:none;stroke-opacity:1;paint-order:normal"
       d="M 175.28711 230 C 152.7314 230 134.57227 248.15913 134.57227 270.71484 C 134.57227 271.00242 134.58787 271.28614 134.59375 271.57227 C 134.58588 271.85585 134.57227 272.13828 134.57227 272.42383 L 134.57227 431.86133 C 134.57227 432.14688 134.58588 432.42931 134.59375 432.71289 C 134.58786 432.99928 134.57227 433.28247 134.57227 433.57031 C 134.57227 456.12602 152.7314 474.28516 175.28711 474.28516 C 175.31659 474.28516 175.34554 474.28327 175.375 474.2832 C 175.38948 474.28324 175.40348 474.28516 175.41797 474.28516 L 253.90234 474.28516 C 254.21839 474.28516 254.52691 474.2577 254.83789 474.23828 C 255.46084 474.26632 256.08473 474.28516 256.71484 474.28516 C 279.27055 474.28516 297.42969 456.12602 297.42969 433.57031 C 297.42969 411.0146 279.27055 392.85742 256.71484 392.85742 C 256.08473 392.85742 255.46084 392.87625 254.83789 392.9043 C 254.52691 392.88488 254.21839 392.85742 253.90234 392.85742 L 216.00195 392.85742 L 216.00195 272.42383 C 216.00195 272.13828 215.98834 271.85585 215.98047 271.57227 C 215.98634 271.28614 216.00195 271.00242 216.00195 270.71484 C 216.00195 248.15913 197.84282 230 175.28711 230 z M 501.00195 230 C 478.44624 230 460.28711 248.15913 460.28711 270.71484 C 460.28711 270.96115 460.30037 271.20398 460.30469 271.44922 C 460.3017 271.57184 460.28711 271.69108 460.28711 271.81445 L 460.28711 350.29883 C 460.28711 350.50575 460.30999 350.70732 460.31836 350.91211 C 460.30629 351.32178 460.28711 351.72987 460.28711 352.14258 C 460.28711 374.69829 478.44624 392.85742 501.00195 392.85742 C 523.55766 392.85742 541.71484 374.69829 541.71484 352.14258 C 541.71484 351.73315 541.69548 351.32833 541.68359 350.92188 C 541.69223 350.71385 541.71484 350.50905 541.71484 350.29883 L 541.71484 271.81445 C 541.71484 271.6891 541.70035 271.56794 541.69727 271.44336 C 541.70151 271.20007 541.71484 270.95918 541.71484 270.71484 C 541.71484 248.15913 523.55766 230 501.00195 230 z M 419.57227 392.85742 C 397.01656 392.85742 378.85938 411.0146 378.85938 433.57031 C 378.85937 456.12602 397.01656 474.28516 419.57227 474.28516 C 442.12797 474.28516 460.28711 456.12602 460.28711 433.57031 C 460.28711 411.0146 442.12797 392.85742 419.57227 392.85742 z M 338.14453 474.28516 C 315.58882 474.28516 297.42969 492.44429 297.42969 515 C 297.42969 537.55571 315.58882 555.71484 338.14453 555.71484 C 360.70024 555.71484 378.85938 537.55571 378.85938 515 C 378.85937 492.44429 360.70024 474.28516 338.14453 474.28516 z M 175.28711 555.71484 C 152.7314 555.71484 134.57227 573.87203 134.57227 596.42773 C 134.57227 598.04456 134.67784 599.63655 134.85938 601.20312 C 134.67422 602.49162 134.57227 603.8071 134.57227 605.14844 L 134.57227 750.56445 C 134.57227 751.90579 134.67422 753.22322 134.85938 754.51172 C 134.67788 756.07811 134.57227 757.66853 134.57227 759.28516 C 134.57227 781.84087 152.7314 800 175.28711 800 C 197.84282 800 216.00195 781.84087 216.00195 759.28516 C 216.00195 757.66853 215.89634 756.07811 215.71484 754.51172 C 215.9 753.22322 216.00195 751.90579 216.00195 750.56445 L 216.00195 637.14258 L 254.57422 637.14258 C 254.81438 637.14258 255.04788 637.11867 255.28516 637.10742 C 255.761 637.12373 256.23489 637.14258 256.71484 637.14258 C 279.27055 637.14258 297.42969 618.98344 297.42969 596.42773 C 297.42969 573.87203 279.27055 555.71484 256.71484 555.71484 C 256.23947 555.71484 255.77016 555.734 255.29883 555.75 C 255.05705 555.73831 254.819 555.71484 254.57422 555.71484 L 176.08789 555.71484 C 175.99617 555.71484 175.90772 555.72686 175.81641 555.72852 C 175.63943 555.72627 175.46464 555.71484 175.28711 555.71484 z M 419.57227 555.71484 C 397.01656 555.71484 378.85938 573.87203 378.85938 596.42773 C 378.85937 618.98344 397.01656 637.14258 419.57227 637.14258 C 420.3249 637.14258 421.07212 637.12 421.81445 637.08008 C 422.22939 637.11489 422.64607 637.14258 423.07031 637.14258 L 460.28711 637.14258 L 460.28711 750.56445 C 460.28711 751.90577 460.38711 753.22323 460.57227 754.51172 C 460.39077 756.07811 460.28711 757.66853 460.28711 759.28516 C 460.28711 781.84087 478.44624 800 501.00195 800 C 523.55766 800 541.71484 781.84087 541.71484 759.28516 C 541.71484 757.66853 541.61118 756.07811 541.42969 754.51172 C 541.61484 753.22322 541.71484 751.90579 541.71484 750.56445 L 541.71484 605.14844 C 541.71484 603.8071 541.61484 602.49162 541.42969 601.20312 C 541.61122 599.63655 541.71484 598.04456 541.71484 596.42773 C 541.71484 574.25198 524.16104 556.34176 502.13477 555.74414 C 501.94134 555.73668 501.75196 555.71484 501.55664 555.71484 L 501.00195 555.71484 L 423.07031 555.71484 C 422.64144 555.71484 422.22015 555.74178 421.80078 555.77734 C 421.06294 555.7379 420.32028 555.71484 419.57227 555.71484 z "
       transform="matrix(0.26458333,0,0,0.26458333,0,32.41665)"
       id="rect848" />
  </g>
</svg>
