<?xml version="1.0" encoding="UTF-8" standalone="no"?>
<!-- Created with Inkscape (http://www.inkscape.org/) -->

<svg
   xmlns:dc="http://purl.org/dc/elements/1.1/"
   xmlns:cc="http://creativecommons.org/ns#"
   xmlns:rdf="http://www.w3.org/1999/02/22-rdf-syntax-ns#"
   xmlns:svg="http://www.w3.org/2000/svg"
   xmlns="http://www.w3.org/2000/svg"
   xmlns:sodipodi="http://sodipodi.sourceforge.net/DTD/sodipodi-0.dtd"
   xmlns:inkscape="http://www.inkscape.org/namespaces/inkscape"
   width="1000"
   height="1000"
   viewBox="0 0 264.58333 264.58334"
   version="1.1"
   id="svg8"
   inkscape:version="0.92.4 (5da689c313, 2019-01-14)"
   sodipodi:docname="Y.svg">
  <defs
     id="defs2" />
  <sodipodi:namedview
     id="base"
     pagecolor="#ffffff"
     bordercolor="#666666"
     borderopacity="1.0"
     inkscape:pageopacity="0.0"
     inkscape:pageshadow="2"
     inkscape:zoom="1.979899"
     inkscape:cx="318.24474"
     inkscape:cy="408.49151"
     inkscape:document-units="mm"
     inkscape:current-layer="layer1"
     showgrid="false"
     units="px"
     inkscape:window-width="1600"
     inkscape:window-height="1149"
     inkscape:window-x="0"
     inkscape:window-y="26"
     inkscape:window-maximized="1"
     showguides="true"
     inkscape:guide-bbox="true">
    <sodipodi:guide
       position="0,52.916667"
       orientation="0,1"
       id="guide29"
       inkscape:locked="false"
       inkscape:label=""
       inkscape:color="rgb(0,0,255)" />
    <sodipodi:guide
       position="57.150382,139.09526"
       orientation="0,1"
       id="guide913"
       inkscape:locked="false" />
    <sodipodi:guide
       position="35.605739,52.916672"
       orientation="1,0"
       id="guide1095"
       inkscape:locked="false" />
    <sodipodi:guide
       position="35.605739,203.7292"
       orientation="0,1"
       id="guide1097"
       inkscape:locked="false" />
    <sodipodi:guide
       position="143.32896,52.916672"
       orientation="1,0"
       id="guide1099"
       inkscape:locked="false" />
  </sodipodi:namedview>
  <metadata
     id="metadata5">
    <rdf:RDF>
      <cc:Work
         rdf:about="">
        <dc:format>image/svg+xml</dc:format>
        <dc:type
           rdf:resource="http://purl.org/dc/dcmitype/StillImage" />
        <dc:title />
      </cc:Work>
    </rdf:RDF>
  </metadata>
  <g
     inkscape:label="Layer 1"
     inkscape:groupmode="layer"
     id="layer1"
     transform="translate(0,-32.41665)">
    <path
       style="fill:#010101;fill-opacity:1;fill-rule:nonzero;stroke:#ffffff;stroke-width:0;stroke-miterlimit:4;stroke-dasharray:none;stroke-opacity:1;paint-order:normal"
       d="M 175.28711 230 C 152.7314 230 134.57227 248.15913 134.57227 270.71484 C 134.57227 271.35288 134.59039 271.9865 134.61914 272.61719 C 134.58996 273.15502 134.57227 273.69487 134.57227 274.24023 L 134.57227 430.04492 C 134.57227 430.59095 134.58989 431.13145 134.61914 431.66992 C 134.59039 432.30061 134.57227 432.93423 134.57227 433.57227 C 134.57227 456.12797 152.7314 474.28516 175.28711 474.28516 C 175.6212 474.28516 175.95108 474.26769 176.2832 474.25977 C 176.45317 474.26552 176.6196 474.28516 176.79102 474.28516 L 255.21289 474.28516 C 255.38453 474.28516 255.55052 474.26554 255.7207 474.25977 C 256.05248 474.26767 256.38109 474.28516 256.71484 474.28516 C 279.27055 474.28516 297.42969 456.12797 297.42969 433.57227 C 297.42969 411.01656 279.27055 392.85742 256.71484 392.85742 C 256.37782 392.85742 256.04595 392.87475 255.71094 392.88281 C 255.544 392.87726 255.38123 392.85742 255.21289 392.85742 L 216.00195 392.85742 L 216.00195 274.24023 C 216.00195 273.69487 215.98426 273.15502 215.95508 272.61719 C 215.98383 271.9865 216.00195 271.35288 216.00195 270.71484 C 216.00195 248.15913 197.84282 230 175.28711 230 z M 501.00195 230 C 478.44624 230 460.28711 248.15913 460.28711 270.71484 C 460.28711 270.73123 460.28904 270.74729 460.28906 270.76367 C 460.28905 270.77226 460.28711 270.78047 460.28711 270.78906 L 460.28711 349.21094 C 460.28711 349.53967 460.31492 349.86035 460.33594 350.18359 C 460.30546 350.83283 460.28711 351.48554 460.28711 352.14258 C 460.28711 374.69829 478.44624 392.85742 501.00195 392.85742 C 523.55766 392.85742 541.71484 374.69829 541.71484 352.14258 C 541.71484 351.49143 541.69595 350.84466 541.66602 350.20117 C 541.68779 349.87219 541.71484 349.54562 541.71484 349.21094 L 541.71484 270.78906 C 541.71484 270.78047 541.71291 270.77226 541.71289 270.76367 C 541.71291 270.74729 541.71484 270.73123 541.71484 270.71484 C 541.71484 248.15913 523.55766 230 501.00195 230 z M 419.57227 392.85742 C 397.01656 392.85742 378.85938 411.01656 378.85938 433.57227 C 378.85937 456.12797 397.01656 474.28516 419.57227 474.28516 C 442.12797 474.28516 460.28711 456.12797 460.28711 433.57227 C 460.28711 411.01656 442.12797 392.85742 419.57227 392.85742 z M 338.14453 474.28516 C 315.58882 474.28516 297.42969 492.44429 297.42969 515 C 297.42969 516.13537 297.48786 517.25586 297.57812 518.36719 C 297.4802 519.3272 297.42969 520.30236 297.42969 521.28906 L 297.42969 604.12109 L 297.42969 671.56836 L 297.42969 707.45898 L 297.42969 754.40039 C 297.42969 755.15076 297.46843 755.89169 297.52539 756.62695 C 297.46917 757.5065 297.42969 758.39093 297.42969 759.28516 C 297.42969 781.84087 315.58882 800 338.14453 800 C 360.70024 800 378.85938 781.84087 378.85938 759.28516 C 378.85938 758.38962 378.82006 757.50386 378.76367 756.62305 C 378.82043 755.88907 378.85938 755.14941 378.85938 754.40039 L 378.85938 707.45898 L 378.85938 604.12109 L 378.85938 521.28906 C 378.85938 520.30369 378.80665 519.32985 378.70898 518.37109 C 378.79946 517.25848 378.85938 516.13671 378.85938 515 C 378.85937 492.44429 360.70024 474.28516 338.14453 474.28516 z "
       transform="matrix(0.26458333,0,0,0.26458333,0,32.41665)"
       id="rect7797" />
  </g>
</svg>
