<?xml version="1.0" encoding="UTF-8" standalone="no"?>
<!-- Created with Inkscape (http://www.inkscape.org/) -->

<svg
   xmlns:dc="http://purl.org/dc/elements/1.1/"
   xmlns:cc="http://creativecommons.org/ns#"
   xmlns:rdf="http://www.w3.org/1999/02/22-rdf-syntax-ns#"
   xmlns:svg="http://www.w3.org/2000/svg"
   xmlns="http://www.w3.org/2000/svg"
   xmlns:sodipodi="http://sodipodi.sourceforge.net/DTD/sodipodi-0.dtd"
   xmlns:inkscape="http://www.inkscape.org/namespaces/inkscape"
   width="1000"
   height="1000"
   viewBox="0 0 264.58333 264.58334"
   version="1.1"
   id="svg8"
   inkscape:version="0.92.4 (5da689c313, 2019-01-14)"
   sodipodi:docname="g.svg">
  <defs
     id="defs2" />
  <sodipodi:namedview
     id="base"
     pagecolor="#ffffff"
     bordercolor="#666666"
     borderopacity="1.0"
     inkscape:pageopacity="0.0"
     inkscape:pageshadow="2"
     inkscape:zoom="1.4"
     inkscape:cx="181.86948"
     inkscape:cy="221.51878"
     inkscape:document-units="mm"
     inkscape:current-layer="layer1"
     showgrid="false"
     units="px"
     inkscape:window-width="1600"
     inkscape:window-height="1149"
     inkscape:window-x="0"
     inkscape:window-y="26"
     inkscape:window-maximized="1"
     showguides="true"
     inkscape:guide-bbox="true">
    <sodipodi:guide
       position="0,52.916667"
       orientation="0,1"
       id="guide29"
       inkscape:locked="false"
       inkscape:label=""
       inkscape:color="rgb(0,0,255)" />
    <sodipodi:guide
       position="57.150382,139.09526"
       orientation="0,1"
       id="guide913"
       inkscape:locked="false" />
    <sodipodi:guide
       position="35.605739,52.916672"
       orientation="1,0"
       id="guide1095"
       inkscape:locked="false" />
    <sodipodi:guide
       position="35.605739,203.7292"
       orientation="0,1"
       id="guide1097"
       inkscape:locked="false" />
    <sodipodi:guide
       position="143.32896,52.916672"
       orientation="1,0"
       id="guide1099"
       inkscape:locked="false" />
    <sodipodi:guide
       position="97.161864,52.916687"
       orientation="1,0"
       id="guide1238"
       inkscape:locked="false" />
    <sodipodi:guide
       position="35.605739,102.16158"
       orientation="0,1"
       id="guide1240"
       inkscape:locked="false" />
  </sodipodi:namedview>
  <metadata
     id="metadata5">
    <rdf:RDF>
      <cc:Work
         rdf:about="">
        <dc:format>image/svg+xml</dc:format>
        <dc:type
           rdf:resource="http://purl.org/dc/dcmitype/StillImage" />
        <dc:title />
      </cc:Work>
    </rdf:RDF>
  </metadata>
  <g
     inkscape:label="Layer 1"
     inkscape:groupmode="layer"
     id="layer1"
     transform="translate(0,-32.41665)">
    <path
       style="fill:#010101;fill-opacity:1;fill-rule:nonzero;stroke:#ffffff;stroke-width:0;stroke-miterlimit:4;stroke-dasharray:none;stroke-opacity:1;paint-order:normal"
       d="M 187.45312 613.87695 C 183.93549 613.87695 181.10352 616.70892 181.10352 620.22656 L 181.10352 654.05859 C 181.10352 657.35638 183.59317 660.051 186.80273 660.375 C 187.01671 660.3966 187.23327 660.4082 187.45312 660.4082 L 320.69531 660.4082 L 320.69531 713.28906 L 320.69531 747.11914 L 320.69531 753.46875 L 181.10352 753.46875 L 181.10352 679.45703 L 181.10352 666.75781 C 181.10352 663.24017 178.27155 660.4082 174.75391 660.4082 L 140.92188 660.4082 C 137.40424 660.4082 134.57227 663.24017 134.57227 666.75781 L 134.57227 700.58984 L 134.57227 780.95117 L 134.57227 793.65039 C 134.57227 797.16803 137.40424 800 140.92188 800 L 153.62109 800 L 320.69531 800 L 320.69531 806.34961 L 320.69531 840.18164 L 320.69531 852.88086 L 320.69531 886.71094 L 320.69531 893.06055 L 174.75391 893.06055 L 140.92188 893.06055 C 137.40424 893.06055 134.57227 895.89252 134.57227 899.41016 L 134.57227 933.24219 C 134.57227 936.75983 137.40424 939.5918 140.92188 939.5918 L 174.75391 939.5918 L 360.87695 939.5918 C 364.39459 939.5918 367.22656 936.75983 367.22656 933.24219 L 367.22656 899.41016 C 367.22656 899.09874 367.1972 898.79527 367.1543 898.49609 C 367.19716 897.38876 367.22656 896.27349 367.22656 895.14453 L 367.22656 886.71094 L 367.22656 852.88086 L 367.22656 840.18164 L 367.22656 806.34961 L 367.22656 793.65039 L 367.22656 759.81836 L 367.22656 747.11914 L 367.22656 713.28906 L 367.22656 658.32422 C 367.22656 657.19526 367.19716 656.07999 367.1543 654.97266 C 367.1972 654.67348 367.22656 654.37001 367.22656 654.05859 L 367.22656 620.22656 C 367.22656 616.70892 364.39459 613.87695 360.87695 613.87695 L 348.63086 613.87695 L 187.45312 613.87695 z "
       transform="matrix(0.26458333,0,0,0.26458333,0,32.41665)"
       id="rect860" />
  </g>
</svg>
