<?xml version="1.0" encoding="UTF-8" standalone="no"?>
<!-- Created with Inkscape (http://www.inkscape.org/) -->

<svg
   xmlns:dc="http://purl.org/dc/elements/1.1/"
   xmlns:cc="http://creativecommons.org/ns#"
   xmlns:rdf="http://www.w3.org/1999/02/22-rdf-syntax-ns#"
   xmlns:svg="http://www.w3.org/2000/svg"
   xmlns="http://www.w3.org/2000/svg"
   xmlns:sodipodi="http://sodipodi.sourceforge.net/DTD/sodipodi-0.dtd"
   xmlns:inkscape="http://www.inkscape.org/namespaces/inkscape"
   width="1000"
   height="1000"
   viewBox="0 0 264.58333 264.58334"
   version="1.1"
   id="svg8"
   inkscape:version="0.92.4 (5da689c313, 2019-01-14)"
   sodipodi:docname="t.svg">
  <defs
     id="defs2" />
  <sodipodi:namedview
     id="base"
     pagecolor="#ffffff"
     bordercolor="#666666"
     borderopacity="1.0"
     inkscape:pageopacity="0.0"
     inkscape:pageshadow="2"
     inkscape:zoom="1.4"
     inkscape:cx="188.27084"
     inkscape:cy="420.02499"
     inkscape:document-units="mm"
     inkscape:current-layer="layer1"
     showgrid="false"
     units="px"
     inkscape:window-width="1600"
     inkscape:window-height="1149"
     inkscape:window-x="0"
     inkscape:window-y="26"
     inkscape:window-maximized="1"
     showguides="true"
     inkscape:guide-bbox="true">
    <sodipodi:guide
       position="0,52.916667"
       orientation="0,1"
       id="guide29"
       inkscape:locked="false"
       inkscape:label=""
       inkscape:color="rgb(0,0,255)" />
    <sodipodi:guide
       position="57.150382,139.09526"
       orientation="0,1"
       id="guide913"
       inkscape:locked="false" />
    <sodipodi:guide
       position="35.605739,52.916672"
       orientation="1,0"
       id="guide1095"
       inkscape:locked="false" />
    <sodipodi:guide
       position="35.605739,203.7292"
       orientation="0,1"
       id="guide1097"
       inkscape:locked="false" />
    <sodipodi:guide
       position="143.32896,52.916672"
       orientation="1,0"
       id="guide1099"
       inkscape:locked="false" />
    <sodipodi:guide
       position="97.161864,52.916687"
       orientation="1,0"
       id="guide1238"
       inkscape:locked="false" />
    <sodipodi:guide
       position="35.605739,102.16158"
       orientation="0,1"
       id="guide1240"
       inkscape:locked="false" />
  </sodipodi:namedview>
  <metadata
     id="metadata5">
    <rdf:RDF>
      <cc:Work
         rdf:about="">
        <dc:format>image/svg+xml</dc:format>
        <dc:type
           rdf:resource="http://purl.org/dc/dcmitype/StillImage" />
        <dc:title />
      </cc:Work>
    </rdf:RDF>
  </metadata>
  <g
     inkscape:label="Layer 1"
     inkscape:groupmode="layer"
     id="layer1"
     transform="translate(0,-32.41665)">
    <path
       style="fill:#010101;fill-opacity:1;fill-rule:nonzero;stroke:#ffffff;stroke-width:0;stroke-miterlimit:4;stroke-dasharray:none;stroke-opacity:1;paint-order:normal"
       d="M 187.45312 474.28516 C 183.93549 474.28516 181.10352 477.11713 181.10352 480.63477 L 181.10352 514.4668 L 181.10352 527.16602 L 181.10352 560.99805 L 181.10352 567.34766 L 174.75391 567.34766 L 140.92188 567.34766 C 137.40424 567.34766 134.57227 570.17963 134.57227 573.69727 L 134.57227 607.52734 C 134.57227 611.04498 137.40424 613.87695 140.92188 613.87695 L 174.75391 613.87695 L 181.10352 613.87695 L 181.10352 620.22656 L 181.10352 654.05859 L 181.10352 666.75781 L 181.10352 700.58984 L 181.10352 712.19922 C 181.10352 712.48078 181.11146 712.75902 181.11523 713.03906 C 181.11202 713.12248 181.10352 713.20482 181.10352 713.28906 L 181.10352 747.11914 C 181.10352 750.63678 183.93549 753.46875 187.45312 753.46875 L 221.28516 753.46875 C 224.8028 753.46875 227.63477 750.63678 227.63477 747.11914 L 227.63477 713.28906 C 227.63477 713.20085 227.62462 713.11466 227.62109 713.02734 C 227.62476 712.75118 227.63477 712.47686 227.63477 712.19922 L 227.63477 700.58984 L 227.63477 666.75781 L 227.63477 654.05859 L 227.63477 620.22656 L 227.63477 613.87695 L 314.3457 613.87695 C 317.86334 613.87695 320.69531 611.04498 320.69531 607.52734 L 320.69531 573.69727 C 320.69531 570.17963 317.86334 567.34766 314.3457 567.34766 L 227.63477 567.34766 L 227.63477 560.99805 L 227.63477 527.16602 L 227.63477 511.88086 L 227.63477 480.63477 C 227.63477 477.11713 224.8028 474.28516 221.28516 474.28516 L 187.45312 474.28516 z M 233.98438 753.46875 C 230.46674 753.46875 227.63477 756.30072 227.63477 759.81836 L 227.63477 793.65039 C 227.63477 797.16803 230.46674 800 233.98438 800 L 267.81445 800 C 271.33209 800 274.16406 797.16803 274.16406 793.65039 L 274.16406 759.81836 C 274.16406 756.30072 271.33209 753.46875 267.81445 753.46875 L 233.98438 753.46875 z "
       transform="matrix(0.26458333,0,0,0.26458333,0,32.41665)"
       id="rect1199" />
  </g>
</svg>
