<?xml version="1.0" encoding="UTF-8" standalone="no"?>
<!-- Created with Inkscape (http://www.inkscape.org/) -->

<svg
   xmlns:dc="http://purl.org/dc/elements/1.1/"
   xmlns:cc="http://creativecommons.org/ns#"
   xmlns:rdf="http://www.w3.org/1999/02/22-rdf-syntax-ns#"
   xmlns:svg="http://www.w3.org/2000/svg"
   xmlns="http://www.w3.org/2000/svg"
   xmlns:sodipodi="http://sodipodi.sourceforge.net/DTD/sodipodi-0.dtd"
   xmlns:inkscape="http://www.inkscape.org/namespaces/inkscape"
   width="1000"
   height="1000"
   viewBox="0 0 264.58333 264.58334"
   version="1.1"
   id="svg8"
   inkscape:version="0.92.4 (5da689c313, 2019-01-14)"
   sodipodi:docname="w.svg">
  <defs
     id="defs2" />
  <sodipodi:namedview
     id="base"
     pagecolor="#ffffff"
     bordercolor="#666666"
     borderopacity="1.0"
     inkscape:pageopacity="0.0"
     inkscape:pageshadow="2"
     inkscape:zoom="1.4"
     inkscape:cx="194.69941"
     inkscape:cy="388.59641"
     inkscape:document-units="mm"
     inkscape:current-layer="layer1"
     showgrid="false"
     units="px"
     inkscape:window-width="1600"
     inkscape:window-height="1149"
     inkscape:window-x="0"
     inkscape:window-y="26"
     inkscape:window-maximized="1"
     showguides="true"
     inkscape:guide-bbox="true">
    <sodipodi:guide
       position="0,52.916667"
       orientation="0,1"
       id="guide29"
       inkscape:locked="false"
       inkscape:label=""
       inkscape:color="rgb(0,0,255)" />
    <sodipodi:guide
       position="57.150382,139.09526"
       orientation="0,1"
       id="guide913"
       inkscape:locked="false" />
    <sodipodi:guide
       position="35.605739,52.916672"
       orientation="1,0"
       id="guide1095"
       inkscape:locked="false" />
    <sodipodi:guide
       position="35.605739,203.7292"
       orientation="0,1"
       id="guide1097"
       inkscape:locked="false" />
    <sodipodi:guide
       position="143.32896,52.916672"
       orientation="1,0"
       id="guide1099"
       inkscape:locked="false" />
    <sodipodi:guide
       position="97.161864,52.916687"
       orientation="1,0"
       id="guide1238"
       inkscape:locked="false" />
    <sodipodi:guide
       position="35.605739,102.16158"
       orientation="0,1"
       id="guide1240"
       inkscape:locked="false" />
  </sodipodi:namedview>
  <metadata
     id="metadata5">
    <rdf:RDF>
      <cc:Work
         rdf:about="">
        <dc:format>image/svg+xml</dc:format>
        <dc:type
           rdf:resource="http://purl.org/dc/dcmitype/StillImage" />
        <dc:title />
      </cc:Work>
    </rdf:RDF>
  </metadata>
  <g
     inkscape:label="Layer 1"
     inkscape:groupmode="layer"
     id="layer1"
     transform="translate(0,-32.41665)">
    <path
       style="fill:#010101;fill-opacity:1;fill-rule:nonzero;stroke:#ffffff;stroke-width:0;stroke-miterlimit:4;stroke-dasharray:none;stroke-opacity:1;paint-order:normal"
       d="M 140.92188 474.28516 C 137.40424 474.28516 134.57227 477.11713 134.57227 480.63477 L 134.57227 514.4668 C 134.57227 514.77821 134.60163 515.08168 134.64453 515.38086 C 134.60166 516.48819 134.57227 517.60346 134.57227 518.73242 L 134.57227 527.16602 L 134.57227 560.99805 L 134.57227 573.69727 L 134.57227 607.52734 L 134.57227 666.75781 L 134.57227 700.58984 L 134.57227 713.28906 L 134.57227 747.11914 L 134.57227 755.55273 C 134.57227 756.68139 134.60169 757.79726 134.64453 758.9043 C 134.60156 759.20373 134.57227 759.50667 134.57227 759.81836 L 134.57227 793.65039 C 134.57227 797.16803 137.40424 800 140.92188 800 L 157.83789 800 L 174.75391 800 L 187.45312 800 L 221.28516 800 C 224.8028 800 227.63477 797.16803 227.63477 793.65039 L 227.63477 759.81836 C 227.63477 756.30072 224.8028 753.46875 221.28516 753.46875 L 187.45312 753.46875 L 181.10352 753.46875 L 181.10352 747.11914 L 181.10352 713.28906 L 181.10352 700.58984 L 181.10352 666.75781 L 181.10352 607.52734 L 181.10352 573.69727 L 181.10352 560.99805 L 181.10352 527.16602 L 181.10352 518.73242 C 181.10352 517.60012 181.07437 516.48164 181.03125 515.37109 C 181.07326 515.07496 181.10352 514.7749 181.10352 514.4668 L 181.10352 480.63477 C 181.10352 477.11713 178.27155 474.28516 174.75391 474.28516 L 140.92188 474.28516 z M 327.04492 474.28516 C 323.52728 474.28516 320.69531 477.11713 320.69531 480.63477 L 320.69531 514.4668 C 320.69531 515.31823 320.86463 516.12849 321.16602 516.86914 C 320.85695 519.23256 320.69531 521.6817 320.69531 524.19141 L 320.69531 717.23828 L 320.69531 747.11914 C 320.69531 750.63678 323.52728 753.46875 327.04492 753.46875 L 360.87695 753.46875 C 364.39459 753.46875 367.22656 750.63678 367.22656 747.11914 L 367.22656 713.28906 L 367.22656 524.19141 C 367.22656 521.68239 367.06476 519.23391 366.75586 516.87109 C 366.75586 516.87109 366.75586 516.86914 366.75586 516.86914 C 367.05725 516.12849 367.22656 515.31823 367.22656 514.4668 L 367.22656 480.63477 C 367.22656 477.11713 364.39459 474.28516 360.87695 474.28516 L 327.04492 474.28516 z M 233.98438 706.93945 C 230.46674 706.93945 227.63477 709.77142 227.63477 713.28906 L 227.63477 747.11914 C 227.63477 750.63678 230.46674 753.46875 233.98438 753.46875 L 267.81445 753.46875 C 271.33209 753.46875 274.16406 750.63678 274.16406 747.11914 L 274.16406 713.28906 C 274.16406 709.77142 271.33209 706.93945 267.81445 706.93945 L 233.98438 706.93945 z M 280.51367 753.46875 C 276.99603 753.46875 274.16406 756.30072 274.16406 759.81836 L 274.16406 793.65039 C 274.16406 797.16803 276.99603 800 280.51367 800 L 314.3457 800 C 317.86334 800 320.69531 797.16803 320.69531 793.65039 L 320.69531 759.81836 C 320.69531 756.30072 317.86334 753.46875 314.3457 753.46875 L 280.51367 753.46875 z "
       transform="matrix(0.26458333,0,0,0.26458333,0,32.41665)"
       id="rect1199" />
  </g>
</svg>
