<?xml version="1.0" encoding="UTF-8" standalone="no"?>
<!-- Created with Inkscape (http://www.inkscape.org/) -->

<svg
   xmlns:dc="http://purl.org/dc/elements/1.1/"
   xmlns:cc="http://creativecommons.org/ns#"
   xmlns:rdf="http://www.w3.org/1999/02/22-rdf-syntax-ns#"
   xmlns:svg="http://www.w3.org/2000/svg"
   xmlns="http://www.w3.org/2000/svg"
   xmlns:sodipodi="http://sodipodi.sourceforge.net/DTD/sodipodi-0.dtd"
   xmlns:inkscape="http://www.inkscape.org/namespaces/inkscape"
   width="1000"
   height="1000"
   viewBox="0 0 264.58333 264.58334"
   version="1.1"
   id="svg8"
   inkscape:version="0.92.4 (5da689c313, 2019-01-14)"
   sodipodi:docname="d.svg">
  <defs
     id="defs2" />
  <sodipodi:namedview
     id="base"
     pagecolor="#ffffff"
     bordercolor="#666666"
     borderopacity="1.0"
     inkscape:pageopacity="0.0"
     inkscape:pageshadow="2"
     inkscape:zoom="1.4"
     inkscape:cx="141.95464"
     inkscape:cy="449.89692"
     inkscape:document-units="mm"
     inkscape:current-layer="layer1"
     showgrid="false"
     units="px"
     inkscape:window-width="1600"
     inkscape:window-height="1149"
     inkscape:window-x="0"
     inkscape:window-y="26"
     inkscape:window-maximized="1"
     showguides="true"
     inkscape:guide-bbox="true">
    <sodipodi:guide
       position="0,52.916667"
       orientation="0,1"
       id="guide29"
       inkscape:locked="false"
       inkscape:label=""
       inkscape:color="rgb(0,0,255)" />
    <sodipodi:guide
       position="57.150382,139.09526"
       orientation="0,1"
       id="guide913"
       inkscape:locked="false" />
    <sodipodi:guide
       position="35.605739,52.916672"
       orientation="1,0"
       id="guide1095"
       inkscape:locked="false" />
    <sodipodi:guide
       position="35.605739,203.7292"
       orientation="0,1"
       id="guide1097"
       inkscape:locked="false" />
    <sodipodi:guide
       position="143.32896,52.916672"
       orientation="1,0"
       id="guide1099"
       inkscape:locked="false" />
    <sodipodi:guide
       position="97.161864,52.916687"
       orientation="1,0"
       id="guide1238"
       inkscape:locked="false" />
    <sodipodi:guide
       position="35.605739,102.16158"
       orientation="0,1"
       id="guide1240"
       inkscape:locked="false" />
  </sodipodi:namedview>
  <metadata
     id="metadata5">
    <rdf:RDF>
      <cc:Work
         rdf:about="">
        <dc:format>image/svg+xml</dc:format>
        <dc:type
           rdf:resource="http://purl.org/dc/dcmitype/StillImage" />
        <dc:title />
      </cc:Work>
    </rdf:RDF>
  </metadata>
  <g
     inkscape:label="Layer 1"
     inkscape:groupmode="layer"
     id="layer1"
     transform="translate(0,-32.41665)">
    <path
       style="fill:#010101;fill-opacity:1;fill-rule:nonzero;stroke:#ffffff;stroke-width:0;stroke-miterlimit:4;stroke-dasharray:none;stroke-opacity:1;paint-order:normal"
       d="M 327.04492 241.63281 C 323.52728 241.63281 320.69531 244.46478 320.69531 247.98242 L 320.69531 281.81445 L 320.69531 298.77734 L 320.69531 341.04297 L 320.69531 362.17578 L 320.69531 374.875 L 320.69531 387.57422 L 320.69531 421.40625 L 320.69531 474.28516 L 187.45312 474.28516 C 183.93549 474.28516 181.10352 477.11713 181.10352 480.63477 L 181.10352 514.4668 C 181.10352 517.98444 183.93549 520.81641 187.45312 520.81641 L 320.69531 520.81641 L 320.69531 527.16602 L 320.69531 560.99805 L 320.69531 603.26172 L 320.69531 607.52734 L 320.69531 620.22656 L 320.69531 654.05859 L 320.69531 713.28906 L 320.69531 747.11914 L 320.69531 753.46875 L 181.10352 753.46875 L 181.10352 747.11914 L 181.10352 713.28906 L 181.10352 654.05859 L 181.10352 620.22656 L 181.10352 599.09375 L 181.10352 539.86523 L 181.10352 527.16602 C 181.10352 523.64838 178.27155 520.81641 174.75391 520.81641 L 140.92188 520.81641 C 137.40424 520.81641 134.57227 523.64838 134.57227 527.16602 L 134.57227 560.99805 L 134.57227 620.22656 L 134.57227 641.35938 L 134.57227 654.05859 L 134.57227 713.28906 L 134.57227 747.11914 L 134.57227 768.25195 L 134.57227 793.65039 C 134.57227 797.16803 137.40424 800 140.92188 800 L 157.83789 800 L 174.75391 800 L 360.87695 800 C 361.31666 800 361.74607 799.9554 362.16016 799.87109 C 365.05781 799.28025 367.22656 796.72767 367.22656 793.65039 L 367.22656 768.25195 L 367.22656 759.81836 L 367.22656 747.11914 L 367.22656 713.28906 L 367.22656 654.05859 L 367.22656 620.22656 L 367.22656 599.09375 L 367.22656 560.99805 L 367.22656 527.16602 L 367.22656 514.4668 L 367.22656 480.63477 L 367.22656 421.40625 L 367.22656 387.57422 L 367.22656 374.875 L 367.22656 341.04297 L 367.22656 298.77734 L 367.22656 260.68164 L 367.22656 247.98242 C 367.22656 244.46478 364.39459 241.63281 360.87695 241.63281 L 327.04492 241.63281 z "
       transform="matrix(0.26458333,0,0,0.26458333,0,32.41665)"
       id="rect846" />
  </g>
</svg>
