<?xml version="1.0" encoding="UTF-8" standalone="no"?>
<!-- Created with Inkscape (http://www.inkscape.org/) -->

<svg
   xmlns:dc="http://purl.org/dc/elements/1.1/"
   xmlns:cc="http://creativecommons.org/ns#"
   xmlns:rdf="http://www.w3.org/1999/02/22-rdf-syntax-ns#"
   xmlns:svg="http://www.w3.org/2000/svg"
   xmlns="http://www.w3.org/2000/svg"
   xmlns:sodipodi="http://sodipodi.sourceforge.net/DTD/sodipodi-0.dtd"
   xmlns:inkscape="http://www.inkscape.org/namespaces/inkscape"
   width="1000"
   height="1000"
   viewBox="0 0 264.58333 264.58334"
   version="1.1"
   id="svg8"
   inkscape:version="0.92.4 (5da689c313, 2019-01-14)"
   sodipodi:docname="f.svg">
  <defs
     id="defs2" />
  <sodipodi:namedview
     id="base"
     pagecolor="#ffffff"
     bordercolor="#666666"
     borderopacity="1.0"
     inkscape:pageopacity="0.0"
     inkscape:pageshadow="2"
     inkscape:zoom="1.4"
     inkscape:cx="99.109999"
     inkscape:cy="506.2407"
     inkscape:document-units="mm"
     inkscape:current-layer="layer1"
     showgrid="false"
     units="px"
     inkscape:window-width="1600"
     inkscape:window-height="1149"
     inkscape:window-x="0"
     inkscape:window-y="26"
     inkscape:window-maximized="1"
     showguides="true"
     inkscape:guide-bbox="true">
    <sodipodi:guide
       position="0,52.916667"
       orientation="0,1"
       id="guide29"
       inkscape:locked="false"
       inkscape:label=""
       inkscape:color="rgb(0,0,255)" />
    <sodipodi:guide
       position="57.150382,139.09526"
       orientation="0,1"
       id="guide913"
       inkscape:locked="false" />
    <sodipodi:guide
       position="35.605739,52.916672"
       orientation="1,0"
       id="guide1095"
       inkscape:locked="false" />
    <sodipodi:guide
       position="35.605739,203.7292"
       orientation="0,1"
       id="guide1097"
       inkscape:locked="false" />
    <sodipodi:guide
       position="143.32896,52.916672"
       orientation="1,0"
       id="guide1099"
       inkscape:locked="false" />
    <sodipodi:guide
       position="97.161864,52.916687"
       orientation="1,0"
       id="guide1238"
       inkscape:locked="false" />
    <sodipodi:guide
       position="35.605739,102.16158"
       orientation="0,1"
       id="guide1240"
       inkscape:locked="false" />
  </sodipodi:namedview>
  <metadata
     id="metadata5">
    <rdf:RDF>
      <cc:Work
         rdf:about="">
        <dc:format>image/svg+xml</dc:format>
        <dc:type
           rdf:resource="http://purl.org/dc/dcmitype/StillImage" />
        <dc:title />
      </cc:Work>
    </rdf:RDF>
  </metadata>
  <g
     inkscape:label="Layer 1"
     inkscape:groupmode="layer"
     id="layer1"
     transform="translate(0,-32.41665)">
    <path
       style="fill:#010101;fill-opacity:1;fill-rule:nonzero;stroke:#ffffff;stroke-width:0;stroke-miterlimit:4;stroke-dasharray:none;stroke-opacity:1;paint-order:normal"
       d="M 233.98438 241.63281 C 230.46674 241.63281 227.63477 244.46478 227.63477 247.98242 L 227.63477 281.81445 C 227.63477 285.11224 230.12246 287.80686 233.33203 288.13086 C 233.546 288.15246 233.76452 288.16406 233.98438 288.16406 L 360.87695 288.16406 C 364.39459 288.16406 367.22656 285.33209 367.22656 281.81445 L 367.22656 247.98242 C 367.22656 244.46478 364.39459 241.63281 360.87695 241.63281 L 233.98438 241.63281 z M 187.45312 288.16406 C 183.93549 288.16406 181.10352 290.99603 181.10352 294.51367 L 181.10352 328.34375 L 181.10352 387.57422 L 181.10352 421.40625 L 181.10352 448.88672 L 181.10352 467.93555 L 181.10352 474.28516 L 174.75391 474.28516 L 140.92188 474.28516 C 137.40424 474.28516 134.57227 477.11713 134.57227 480.63477 L 134.57227 514.4668 C 134.57227 517.98444 137.40424 520.81641 140.92188 520.81641 L 174.75391 520.81641 L 181.10352 520.81641 L 181.10352 599.09375 L 181.10352 607.52734 L 181.10352 620.22656 L 181.10352 628.66016 L 181.10352 654.05859 L 181.10352 713.28906 L 181.10352 747.11914 L 181.10352 768.25195 L 181.10352 793.65039 C 181.10352 797.16803 183.93549 800 187.45312 800 L 221.28516 800 C 224.8028 800 227.63477 797.16803 227.63477 793.65039 L 227.63477 759.81836 L 227.63477 747.11914 L 227.63477 713.28906 L 227.63477 654.05859 L 227.63477 620.22656 L 227.63477 607.52734 L 227.63477 573.69727 L 227.63477 520.81641 L 267.81445 520.81641 L 327.04492 520.81641 L 360.87695 520.81641 C 364.39459 520.81641 367.22656 517.98444 367.22656 514.4668 L 367.22656 480.63477 C 367.22656 477.11713 364.39459 474.28516 360.87695 474.28516 L 327.04492 474.28516 L 267.81445 474.28516 L 227.63477 474.28516 L 227.63477 459.50195 L 227.63477 434.10547 L 227.63477 421.40625 L 227.63477 387.57422 L 227.63477 313.56055 L 227.63477 294.51367 C 227.63477 290.99603 224.8028 288.16406 221.28516 288.16406 L 187.45312 288.16406 z "
       transform="matrix(0.26458333,0,0,0.26458333,0,32.41665)"
       id="rect884" />
  </g>
</svg>
