<?xml version="1.0" encoding="UTF-8" standalone="no"?>
<!-- Created with Inkscape (http://www.inkscape.org/) -->

<svg
   xmlns:dc="http://purl.org/dc/elements/1.1/"
   xmlns:cc="http://creativecommons.org/ns#"
   xmlns:rdf="http://www.w3.org/1999/02/22-rdf-syntax-ns#"
   xmlns:svg="http://www.w3.org/2000/svg"
   xmlns="http://www.w3.org/2000/svg"
   xmlns:sodipodi="http://sodipodi.sourceforge.net/DTD/sodipodi-0.dtd"
   xmlns:inkscape="http://www.inkscape.org/namespaces/inkscape"
   width="1000"
   height="1000"
   viewBox="0 0 264.58333 264.58334"
   version="1.1"
   id="svg8"
   inkscape:version="0.92.4 (5da689c313, 2019-01-14)"
   sodipodi:docname="h.svg">
  <defs
     id="defs2" />
  <sodipodi:namedview
     id="base"
     pagecolor="#ffffff"
     bordercolor="#666666"
     borderopacity="1.0"
     inkscape:pageopacity="0.0"
     inkscape:pageshadow="2"
     inkscape:zoom="1.4"
     inkscape:cx="76.155191"
     inkscape:cy="462.94736"
     inkscape:document-units="mm"
     inkscape:current-layer="layer1"
     showgrid="false"
     units="px"
     inkscape:window-width="1600"
     inkscape:window-height="1149"
     inkscape:window-x="0"
     inkscape:window-y="26"
     inkscape:window-maximized="1"
     showguides="true"
     inkscape:guide-bbox="true">
    <sodipodi:guide
       position="0,52.916667"
       orientation="0,1"
       id="guide29"
       inkscape:locked="false"
       inkscape:label=""
       inkscape:color="rgb(0,0,255)" />
    <sodipodi:guide
       position="57.150382,139.09526"
       orientation="0,1"
       id="guide913"
       inkscape:locked="false" />
    <sodipodi:guide
       position="35.605739,52.916672"
       orientation="1,0"
       id="guide1095"
       inkscape:locked="false" />
    <sodipodi:guide
       position="35.605739,203.7292"
       orientation="0,1"
       id="guide1097"
       inkscape:locked="false" />
    <sodipodi:guide
       position="143.32896,52.916672"
       orientation="1,0"
       id="guide1099"
       inkscape:locked="false" />
    <sodipodi:guide
       position="97.161864,52.916687"
       orientation="1,0"
       id="guide1238"
       inkscape:locked="false" />
    <sodipodi:guide
       position="35.605739,102.16158"
       orientation="0,1"
       id="guide1240"
       inkscape:locked="false" />
  </sodipodi:namedview>
  <metadata
     id="metadata5">
    <rdf:RDF>
      <cc:Work
         rdf:about="">
        <dc:format>image/svg+xml</dc:format>
        <dc:type
           rdf:resource="http://purl.org/dc/dcmitype/StillImage" />
        <dc:title />
      </cc:Work>
    </rdf:RDF>
  </metadata>
  <g
     inkscape:label="Layer 1"
     inkscape:groupmode="layer"
     id="layer1"
     transform="translate(0,-32.41665)">
    <path
       style="fill:#010101;fill-opacity:1;fill-rule:nonzero;stroke:#ffffff;stroke-width:0;stroke-miterlimit:4;stroke-dasharray:none;stroke-opacity:1;paint-order:normal"
       d="M 140.92188 241.63281 C 137.40424 241.63281 134.57227 244.46478 134.57227 247.98242 L 134.57227 281.81445 L 134.57227 294.51367 L 134.57227 328.34375 L 134.57227 412.97266 L 134.57227 421.40625 L 134.57227 442.53906 L 134.57227 467.93555 L 134.57227 480.63477 L 134.57227 514.4668 L 134.57227 527.16602 L 134.57227 560.99805 L 134.57227 582.13086 L 134.57227 607.52734 L 134.57227 687.89062 L 134.57227 713.28906 L 134.57227 747.11914 L 134.57227 774.60156 L 134.57227 793.65039 C 134.57227 797.16803 137.40424 800 140.92188 800 L 174.75391 800 C 178.27155 800 181.10352 797.16803 181.10352 793.65039 L 181.10352 759.81836 L 181.10352 747.11914 L 181.10352 713.28906 L 181.10352 639.27539 L 181.10352 586.39648 L 181.10352 573.69727 L 181.10352 560.99805 L 181.10352 527.16602 L 181.10352 520.81641 L 280.51367 520.81641 L 314.3457 520.81641 C 317.86334 520.81641 320.69531 517.98444 320.69531 514.4668 L 320.69531 480.63477 C 320.69531 477.11713 317.86334 474.28516 314.3457 474.28516 L 280.51367 474.28516 L 181.10352 474.28516 L 181.10352 467.93555 L 181.10352 434.10547 L 181.10352 421.40625 L 181.10352 387.57422 L 181.10352 328.34375 L 181.10352 294.51367 L 181.10352 273.38086 L 181.10352 247.98242 C 181.10352 244.46478 178.27155 241.63281 174.75391 241.63281 L 140.92188 241.63281 z M 327.04492 520.81641 C 323.52728 520.81641 320.69531 523.64838 320.69531 527.16602 L 320.69531 560.99805 L 320.69531 641.35938 L 320.69531 666.75781 L 320.69531 679.45703 L 320.69531 687.89062 L 320.69531 700.58984 L 320.69531 780.95117 L 320.69531 793.65039 C 320.69531 797.16803 323.52728 800 327.04492 800 L 360.87695 800 C 364.39459 800 367.22656 797.16803 367.22656 793.65039 L 367.22656 759.81836 L 367.22656 679.45703 L 367.22656 666.75781 L 367.22656 586.39453 L 367.22656 539.86523 L 367.22656 527.16602 C 367.22656 523.64838 364.39459 520.81641 360.87695 520.81641 L 327.04492 520.81641 z "
       transform="matrix(0.26458333,0,0,0.26458333,0,32.41665)"
       id="rect860" />
  </g>
</svg>
