<?xml version="1.0" encoding="UTF-8" standalone="no"?>
<!-- Created with Inkscape (http://www.inkscape.org/) -->

<svg
   xmlns:dc="http://purl.org/dc/elements/1.1/"
   xmlns:cc="http://creativecommons.org/ns#"
   xmlns:rdf="http://www.w3.org/1999/02/22-rdf-syntax-ns#"
   xmlns:svg="http://www.w3.org/2000/svg"
   xmlns="http://www.w3.org/2000/svg"
   xmlns:sodipodi="http://sodipodi.sourceforge.net/DTD/sodipodi-0.dtd"
   xmlns:inkscape="http://www.inkscape.org/namespaces/inkscape"
   width="1000"
   height="1000"
   viewBox="0 0 264.58333 264.58334"
   version="1.1"
   id="svg8"
   inkscape:version="0.92.4 (5da689c313, 2019-01-14)"
   sodipodi:docname="z.svg">
  <defs
     id="defs2" />
  <sodipodi:namedview
     id="base"
     pagecolor="#ffffff"
     bordercolor="#666666"
     borderopacity="1.0"
     inkscape:pageopacity="0.0"
     inkscape:pageshadow="2"
     inkscape:zoom="1.4"
     inkscape:cx="152.55655"
     inkscape:cy="414.31069"
     inkscape:document-units="mm"
     inkscape:current-layer="layer1"
     showgrid="false"
     units="px"
     inkscape:window-width="1600"
     inkscape:window-height="1149"
     inkscape:window-x="0"
     inkscape:window-y="26"
     inkscape:window-maximized="1"
     showguides="true"
     inkscape:guide-bbox="true">
    <sodipodi:guide
       position="0,52.916667"
       orientation="0,1"
       id="guide29"
       inkscape:locked="false"
       inkscape:label=""
       inkscape:color="rgb(0,0,255)" />
    <sodipodi:guide
       position="57.150382,139.09526"
       orientation="0,1"
       id="guide913"
       inkscape:locked="false" />
    <sodipodi:guide
       position="35.605739,52.916672"
       orientation="1,0"
       id="guide1095"
       inkscape:locked="false" />
    <sodipodi:guide
       position="35.605739,203.7292"
       orientation="0,1"
       id="guide1097"
       inkscape:locked="false" />
    <sodipodi:guide
       position="143.32896,52.916672"
       orientation="1,0"
       id="guide1099"
       inkscape:locked="false" />
    <sodipodi:guide
       position="97.161864,52.916687"
       orientation="1,0"
       id="guide1238"
       inkscape:locked="false" />
    <sodipodi:guide
       position="35.605739,102.16158"
       orientation="0,1"
       id="guide1240"
       inkscape:locked="false" />
  </sodipodi:namedview>
  <metadata
     id="metadata5">
    <rdf:RDF>
      <cc:Work
         rdf:about="">
        <dc:format>image/svg+xml</dc:format>
        <dc:type
           rdf:resource="http://purl.org/dc/dcmitype/StillImage" />
        <dc:title />
      </cc:Work>
    </rdf:RDF>
  </metadata>
  <g
     inkscape:label="Layer 1"
     inkscape:groupmode="layer"
     id="layer1"
     transform="translate(0,-32.41665)">
    <path
       style="fill:#010101;fill-opacity:1;fill-rule:nonzero;stroke:#ffffff;stroke-width:0;stroke-miterlimit:4;stroke-dasharray:none;stroke-opacity:1;paint-order:normal"
       d="M 140.92188 474.28516 C 140.26232 474.28516 139.62649 474.38534 139.0293 474.57031 C 138.83082 474.63179 138.63482 474.70338 138.44531 474.7832 C 136.16571 475.74495 134.57227 477.99716 134.57227 480.63477 L 134.57227 514.4668 C 134.57227 516.88517 135.91099 518.98 137.89062 520.05273 C 138.07059 520.15026 138.25527 520.23825 138.44531 520.31836 C 138.44531 520.31836 138.44727 520.31836 138.44727 520.31836 C 139.20742 520.63881 140.04247 520.81641 140.92188 520.81641 L 267.81445 520.81641 L 314.3457 520.81641 C 317.86334 520.81641 320.69531 517.98444 320.69531 514.4668 L 320.69531 480.63477 C 320.69531 478.43624 319.58884 476.50601 317.90039 475.36719 C 317.5627 475.13942 317.20234 474.94343 316.82227 474.7832 C 316.06211 474.46275 315.22511 474.28516 314.3457 474.28516 L 267.81445 474.28516 L 140.92188 474.28516 z M 327.04492 520.81641 C 323.52728 520.81641 320.69531 523.64838 320.69531 527.16602 L 320.69531 560.99805 L 320.69531 613.87695 L 267.81445 613.87695 L 140.92188 613.87695 C 140.70202 613.87695 140.48546 613.88856 140.27148 613.91016 C 140.05816 613.93169 139.84511 613.96389 139.63867 614.00586 C 139.43227 614.04795 139.22776 614.10064 139.0293 614.16211 C 138.83082 614.22358 138.63482 614.29518 138.44531 614.375 C 136.16571 615.33674 134.57227 617.58896 134.57227 620.22656 L 134.57227 654.05859 L 134.57227 734.41992 L 134.57227 757.31836 C 134.2449 758.08538 134.0625 758.92898 134.0625 759.81836 L 134.0625 793.65039 C 134.0625 797.16803 136.89447 800 140.41211 800 L 153.62109 800 L 174.75391 800 L 326.53516 800 L 360.36719 800 C 363.88483 800 366.71484 797.16803 366.71484 793.65039 L 366.71484 759.81836 C 366.71484 756.30072 363.88483 753.46875 360.36719 753.46875 L 326.53516 753.46875 L 181.10352 753.46875 L 181.10352 679.45703 L 181.10352 660.4082 L 267.81445 660.4082 L 360.87695 660.4082 C 361.31666 660.4082 361.74607 660.3636 362.16016 660.2793 C 365.05781 659.68845 367.22656 657.13587 367.22656 654.05859 L 367.22656 620.22656 L 367.22656 539.86523 L 367.22656 527.16602 C 367.22656 523.64838 364.39459 520.81641 360.87695 520.81641 L 327.04492 520.81641 z "
       transform="matrix(0.26458333,0,0,0.26458333,0,32.41665)"
       id="rect201" />
  </g>
</svg>
