<?xml version="1.0" encoding="UTF-8" standalone="no"?>
<!-- Created with Inkscape (http://www.inkscape.org/) -->

<svg
   xmlns:dc="http://purl.org/dc/elements/1.1/"
   xmlns:cc="http://creativecommons.org/ns#"
   xmlns:rdf="http://www.w3.org/1999/02/22-rdf-syntax-ns#"
   xmlns:svg="http://www.w3.org/2000/svg"
   xmlns="http://www.w3.org/2000/svg"
   xmlns:sodipodi="http://sodipodi.sourceforge.net/DTD/sodipodi-0.dtd"
   xmlns:inkscape="http://www.inkscape.org/namespaces/inkscape"
   width="1000"
   height="1000"
   viewBox="0 0 264.58333 264.58334"
   version="1.1"
   id="svg8"
   inkscape:version="0.92.4 (5da689c313, 2019-01-14)"
   sodipodi:docname="A.svg">
  <defs
     id="defs2" />
  <sodipodi:namedview
     id="base"
     pagecolor="#ffffff"
     bordercolor="#666666"
     borderopacity="1.0"
     inkscape:pageopacity="0.0"
     inkscape:pageshadow="2"
     inkscape:zoom="0.98994949"
     inkscape:cx="202.54627"
     inkscape:cy="466.61148"
     inkscape:document-units="mm"
     inkscape:current-layer="layer1"
     showgrid="false"
     units="px"
     inkscape:window-width="1600"
     inkscape:window-height="1149"
     inkscape:window-x="0"
     inkscape:window-y="26"
     inkscape:window-maximized="1"
     showguides="true"
     inkscape:guide-bbox="true">
    <sodipodi:guide
       position="0,52.916667"
       orientation="0,1"
       id="guide29"
       inkscape:locked="false"
       inkscape:label=""
       inkscape:color="rgb(0,0,255)" />
    <sodipodi:guide
       position="57.150382,139.09526"
       orientation="0,1"
       id="guide913"
       inkscape:locked="false" />
    <sodipodi:guide
       position="35.605739,203.7292"
       orientation="0,1"
       id="guide30"
       inkscape:locked="false" />
    <sodipodi:guide
       position="35.605739,52.916672"
       orientation="1,0"
       id="guide32"
       inkscape:locked="false" />
    <sodipodi:guide
       position="143.32896,52.916672"
       orientation="1,0"
       id="guide34"
       inkscape:locked="false" />
  </sodipodi:namedview>
  <metadata
     id="metadata5">
    <rdf:RDF>
      <cc:Work
         rdf:about="">
        <dc:format>image/svg+xml</dc:format>
        <dc:type
           rdf:resource="http://purl.org/dc/dcmitype/StillImage" />
        <dc:title />
      </cc:Work>
    </rdf:RDF>
  </metadata>
  <g
     inkscape:label="Layer 1"
     inkscape:groupmode="layer"
     id="layer1"
     transform="translate(0,-32.41665)">
    <path
       style="fill:#010101;fill-opacity:1;fill-rule:nonzero;stroke:#ffffff;stroke-width:0;stroke-miterlimit:4;stroke-dasharray:none;stroke-opacity:1;paint-order:normal"
       d="M 227.11328 230 C 220.95741 230 216.00195 234.95546 216.00195 241.11133 L 216.00195 300.31641 C 216.00195 306.08753 220.35787 310.80409 225.97461 311.37109 C 226.34906 311.40889 226.72854 311.42773 227.11328 311.42773 L 286.31836 311.42773 L 460.28711 311.42773 L 460.28711 474.28516 L 216.00195 474.28516 L 216.00195 463.17383 L 216.00195 403.96875 L 216.00195 381.74609 L 216.00195 378.09766 L 216.00195 322.54102 C 216.00195 316.38515 211.04649 311.42773 204.89062 311.42773 L 175.28711 311.42773 L 145.68359 311.42773 C 139.52772 311.42773 134.57227 316.38515 134.57227 322.54102 L 134.57227 378.09766 L 134.57227 381.74609 L 134.57227 403.96875 L 134.57227 463.17383 L 134.57227 485.39648 L 134.57227 544.60156 L 134.57227 566.82617 L 134.57227 626.03125 L 134.57227 648.25391 L 134.57227 707.45898 L 134.57227 729.68359 L 134.57227 733.33008 L 134.57227 788.88867 C 134.57227 795.04454 139.52772 800 145.68359 800 L 175.28711 800 L 204.89062 800 C 211.04649 800 216.00195 795.04454 216.00195 788.88867 L 216.00195 733.33008 L 216.00195 729.68359 L 216.00195 707.45898 L 216.00195 648.25391 L 216.00195 626.03125 L 216.00195 566.82617 L 216.00195 555.71484 L 460.28711 555.71484 L 460.28711 722.21875 C 460.28711 724.19614 460.33696 726.14842 460.41211 728.08789 C 460.33754 728.60972 460.28711 729.14051 460.28711 729.68359 L 460.28711 788.88867 C 460.28711 795.04454 465.24257 800 471.39844 800 L 530.60352 800 C 536.75939 800 541.71484 795.04454 541.71484 788.88867 L 541.71484 729.68359 C 541.71484 729.14051 541.66441 728.60972 541.58984 728.08789 C 541.66499 726.14842 541.71484 724.19614 541.71484 722.21875 L 541.71484 544.60156 L 541.71484 485.39648 L 541.71484 307.78125 C 541.71484 305.80386 541.66499 303.85158 541.58984 301.91211 C 541.66451 301.38993 541.71484 300.85988 541.71484 300.31641 L 541.71484 241.11133 C 541.71484 234.95546 536.75939 230 530.60352 230 L 286.31836 230 L 227.11328 230 z "
       transform="matrix(0.26458333,0,0,0.26458333,0,32.41665)"
       id="rect846" />
  </g>
</svg>
