<?xml version="1.0" encoding="UTF-8" standalone="no"?>
<!-- Created with Inkscape (http://www.inkscape.org/) -->

<svg
   xmlns:dc="http://purl.org/dc/elements/1.1/"
   xmlns:cc="http://creativecommons.org/ns#"
   xmlns:rdf="http://www.w3.org/1999/02/22-rdf-syntax-ns#"
   xmlns:svg="http://www.w3.org/2000/svg"
   xmlns="http://www.w3.org/2000/svg"
   xmlns:sodipodi="http://sodipodi.sourceforge.net/DTD/sodipodi-0.dtd"
   xmlns:inkscape="http://www.inkscape.org/namespaces/inkscape"
   width="1000"
   height="1000"
   viewBox="0 0 264.58333 264.58334"
   version="1.1"
   id="svg8"
   inkscape:version="0.92.4 (5da689c313, 2019-01-14)"
   sodipodi:docname="G.svg">
  <defs
     id="defs2" />
  <sodipodi:namedview
     id="base"
     pagecolor="#ffffff"
     bordercolor="#666666"
     borderopacity="1.0"
     inkscape:pageopacity="0.0"
     inkscape:pageshadow="2"
     inkscape:zoom="0.98994949"
     inkscape:cx="185.28205"
     inkscape:cy="477.93462"
     inkscape:document-units="mm"
     inkscape:current-layer="layer1"
     showgrid="false"
     units="px"
     inkscape:window-width="1600"
     inkscape:window-height="1149"
     inkscape:window-x="0"
     inkscape:window-y="26"
     inkscape:window-maximized="1"
     showguides="true"
     inkscape:guide-bbox="true">
    <sodipodi:guide
       position="0,52.916667"
       orientation="0,1"
       id="guide29"
       inkscape:locked="false"
       inkscape:label=""
       inkscape:color="rgb(0,0,255)" />
    <sodipodi:guide
       position="57.150382,139.09526"
       orientation="0,1"
       id="guide913"
       inkscape:locked="false" />
    <sodipodi:guide
       position="35.605739,52.916672"
       orientation="1,0"
       id="guide1095"
       inkscape:locked="false" />
    <sodipodi:guide
       position="35.605739,203.7292"
       orientation="0,1"
       id="guide1097"
       inkscape:locked="false" />
    <sodipodi:guide
       position="143.32896,52.916672"
       orientation="1,0"
       id="guide1099"
       inkscape:locked="false" />
  </sodipodi:namedview>
  <metadata
     id="metadata5">
    <rdf:RDF>
      <cc:Work
         rdf:about="">
        <dc:format>image/svg+xml</dc:format>
        <dc:type
           rdf:resource="http://purl.org/dc/dcmitype/StillImage" />
        <dc:title />
      </cc:Work>
    </rdf:RDF>
  </metadata>
  <g
     inkscape:label="Layer 1"
     inkscape:groupmode="layer"
     id="layer1"
     transform="translate(0,-32.41665)">
    <path
       style="fill:#010101;fill-opacity:1;fill-rule:nonzero;stroke:#ffffff;stroke-width:0;stroke-miterlimit:4;stroke-dasharray:none;stroke-opacity:1;paint-order:normal"
       d="M 227.11328 230 C 220.95741 230 216.00195 234.95546 216.00195 241.11133 L 216.00195 300.31641 C 216.00195 306.47228 220.95741 311.42773 227.11328 311.42773 L 286.31836 311.42773 L 530.60352 311.42773 C 535.22042 311.42773 539.16333 308.64122 540.8457 304.65039 C 541.1261 303.98525 541.3427 303.28715 541.49023 302.5625 C 541.63777 301.83785 541.71484 301.08589 541.71484 300.31641 L 541.71484 241.11133 C 541.71484 240.34184 541.63777 239.59183 541.49023 238.86719 C 541.3427 238.14254 541.1261 237.44443 540.8457 236.7793 C 539.16333 232.78847 535.22042 230 530.60352 230 L 286.31836 230 L 227.11328 230 z M 145.68359 311.42773 C 139.52772 311.42773 134.57227 316.38515 134.57227 322.54102 L 134.57227 381.74609 C 134.57227 384.10128 135.30247 386.27678 136.54297 388.07031 C 135.58524 392.60242 134.96306 397.36489 134.71094 402.29297 C 134.62847 402.84091 134.57227 403.39711 134.57227 403.96875 L 134.57227 463.17383 L 134.57227 566.82617 L 134.57227 626.03125 L 134.57227 648.25391 L 134.57227 707.45898 L 134.57227 737.93164 L 134.57227 788.88867 C 134.57227 795.04454 139.52772 800 145.68359 800 L 175.28711 800 L 438.45703 800 L 449.17578 800 C 455.33165 800 460.28711 795.04454 460.28711 788.88867 L 460.28711 729.68359 C 460.28711 723.52772 455.33165 718.57227 449.17578 718.57227 L 438.45703 718.57227 L 216.00195 718.57227 L 216.00195 707.45898 L 216.00195 648.25391 L 216.00195 626.03125 L 216.00195 566.82617 L 216.00195 407.22461 L 216.00195 403.96875 C 216.00195 403.40053 215.94673 402.84755 215.86523 402.30273 C 215.61344 397.37118 214.98961 392.60542 214.03125 388.07031 C 215.27175 386.27678 216.00195 384.10128 216.00195 381.74609 L 216.00195 322.54102 C 216.00195 316.38515 211.04649 311.42773 204.89062 311.42773 L 145.68359 311.42773 z M 389.9707 474.28516 C 383.81483 474.28516 378.85938 479.24061 378.85938 485.39648 L 378.85938 544.60156 C 378.85938 550.75743 383.81483 555.71484 389.9707 555.71484 L 449.17578 555.71484 L 460.28711 555.71484 L 460.28711 685.23633 L 460.28711 707.45898 C 460.28711 713.61485 465.24257 718.57227 471.39844 718.57227 L 530.60352 718.57227 C 536.75939 718.57227 541.71484 713.61485 541.71484 707.45898 L 541.71484 648.25391 L 541.71484 544.60156 L 541.71484 507.62109 L 541.71484 485.39648 C 541.71484 484.627 541.63777 483.87699 541.49023 483.15234 C 541.3427 482.4277 541.1261 481.72959 540.8457 481.06445 C 539.16333 477.07362 535.22042 474.28516 530.60352 474.28516 L 471.39844 474.28516 L 449.17578 474.28516 L 389.9707 474.28516 z "
       transform="matrix(0.26458333,0,0,0.26458333,0,32.41665)"
       id="rect846" />
  </g>
</svg>
