<?xml version="1.0" encoding="UTF-8" standalone="no"?>
<!-- Created with Inkscape (http://www.inkscape.org/) -->

<svg
   xmlns:dc="http://purl.org/dc/elements/1.1/"
   xmlns:cc="http://creativecommons.org/ns#"
   xmlns:rdf="http://www.w3.org/1999/02/22-rdf-syntax-ns#"
   xmlns:svg="http://www.w3.org/2000/svg"
   xmlns="http://www.w3.org/2000/svg"
   xmlns:sodipodi="http://sodipodi.sourceforge.net/DTD/sodipodi-0.dtd"
   xmlns:inkscape="http://www.inkscape.org/namespaces/inkscape"
   width="1000"
   height="1000"
   viewBox="0 0 264.58333 264.58334"
   version="1.1"
   id="svg8"
   inkscape:version="0.92.4 (5da689c313, 2019-01-14)"
   sodipodi:docname="K.svg">
  <defs
     id="defs2" />
  <sodipodi:namedview
     id="base"
     pagecolor="#ffffff"
     bordercolor="#666666"
     borderopacity="1.0"
     inkscape:pageopacity="0.0"
     inkscape:pageshadow="2"
     inkscape:zoom="0.98994949"
     inkscape:cx="225.68815"
     inkscape:cy="465.81279"
     inkscape:document-units="mm"
     inkscape:current-layer="layer1"
     showgrid="false"
     units="px"
     inkscape:window-width="1600"
     inkscape:window-height="1149"
     inkscape:window-x="0"
     inkscape:window-y="26"
     inkscape:window-maximized="1"
     showguides="true"
     inkscape:guide-bbox="true">
    <sodipodi:guide
       position="0,52.916667"
       orientation="0,1"
       id="guide29"
       inkscape:locked="false"
       inkscape:label=""
       inkscape:color="rgb(0,0,255)" />
    <sodipodi:guide
       position="57.150382,139.09526"
       orientation="0,1"
       id="guide913"
       inkscape:locked="false" />
    <sodipodi:guide
       position="35.605739,52.916672"
       orientation="1,0"
       id="guide1095"
       inkscape:locked="false" />
    <sodipodi:guide
       position="35.605739,203.7292"
       orientation="0,1"
       id="guide1097"
       inkscape:locked="false" />
    <sodipodi:guide
       position="143.32896,52.916672"
       orientation="1,0"
       id="guide1099"
       inkscape:locked="false" />
  </sodipodi:namedview>
  <metadata
     id="metadata5">
    <rdf:RDF>
      <cc:Work
         rdf:about="">
        <dc:format>image/svg+xml</dc:format>
        <dc:type
           rdf:resource="http://purl.org/dc/dcmitype/StillImage" />
        <dc:title />
      </cc:Work>
    </rdf:RDF>
  </metadata>
  <g
     inkscape:label="Layer 1"
     inkscape:groupmode="layer"
     id="layer1"
     transform="translate(0,-32.41665)">
    <path
       style="fill:#010101;fill-opacity:1;fill-rule:nonzero;stroke:#ffffff;stroke-width:0;stroke-miterlimit:4;stroke-dasharray:none;stroke-opacity:1;paint-order:normal"
       d="M 145.68359 230 C 139.52772 230 134.57227 234.95546 134.57227 241.11133 L 134.57227 300.31641 C 134.57227 300.85926 134.62472 301.38854 134.69922 301.91016 C 134.62402 303.85027 134.57227 305.80319 134.57227 307.78125 L 134.57227 322.54102 L 134.57227 381.74609 L 134.57227 403.96875 L 134.57227 463.17383 L 134.57227 566.82617 L 134.57227 626.03125 L 134.57227 648.25391 L 134.57227 707.45898 L 134.57227 722.21875 C 134.57227 724.19615 134.62407 726.14841 134.69922 728.08789 C 134.62464 728.60975 134.57227 729.14047 134.57227 729.68359 L 134.57227 788.88867 C 134.57227 795.04454 139.52772 800 145.68359 800 L 204.89062 800 C 211.04649 800 216.00195 795.04454 216.00195 788.88867 L 216.00195 729.68359 C 216.00195 729.14246 215.94904 728.61378 215.875 728.09375 C 215.9503 726.15235 216.00195 724.19815 216.00195 722.21875 L 216.00195 707.45898 L 216.00195 648.25391 L 216.00195 626.03125 L 216.00195 566.82617 L 216.00195 544.60156 C 216.00195 550.75743 220.95741 555.71484 227.11328 555.71484 L 286.31836 555.71484 C 292.47423 555.71484 297.42969 550.75743 297.42969 544.60156 L 297.42969 485.39648 C 297.42969 479.24061 292.47423 474.28516 286.31836 474.28516 L 227.11328 474.28516 C 220.95741 474.28516 216.00195 479.24061 216.00195 485.39648 L 216.00195 463.17383 L 216.00195 403.96875 L 216.00195 381.74609 L 216.00195 322.54102 L 216.00195 307.78125 C 216.00195 305.80185 215.9503 303.84765 215.875 301.90625 C 215.94914 301.38585 216.00195 300.85793 216.00195 300.31641 L 216.00195 241.11133 C 216.00195 234.95546 211.04649 230 204.89062 230 L 145.68359 230 z M 389.9707 311.42773 C 383.81483 311.42773 378.85938 316.38515 378.85938 322.54102 L 378.85938 381.74609 C 378.85938 387.90196 383.81483 392.85742 389.9707 392.85742 L 449.17578 392.85742 C 455.33165 392.85742 460.28711 387.90196 460.28711 381.74609 L 460.28711 322.54102 C 460.28711 316.38515 455.33165 311.42773 449.17578 311.42773 L 389.9707 311.42773 z M 308.54102 392.85742 C 302.38515 392.85742 297.42969 397.81288 297.42969 403.96875 L 297.42969 463.17383 C 297.42969 469.3297 302.38515 474.28516 308.54102 474.28516 L 367.74609 474.28516 C 373.90196 474.28516 378.85938 469.3297 378.85938 463.17383 L 378.85938 403.96875 C 378.85937 397.81288 373.90196 392.85742 367.74609 392.85742 L 308.54102 392.85742 z M 308.54102 555.71484 C 302.38515 555.71484 297.42969 560.6703 297.42969 566.82617 L 297.42969 626.03125 C 297.42969 632.18712 302.38515 637.14258 308.54102 637.14258 L 367.74609 637.14258 C 373.90196 637.14258 378.85938 632.18712 378.85938 626.03125 L 378.85938 566.82617 C 378.85937 560.6703 373.90196 555.71484 367.74609 555.71484 L 308.54102 555.71484 z M 389.9707 637.14258 C 383.81483 637.14258 378.85938 642.09804 378.85938 648.25391 L 378.85938 659.36523 L 378.85938 707.45898 L 378.85938 729.68359 L 378.85938 777.77734 L 378.85938 788.88867 C 378.85938 795.04454 383.81484 800 389.9707 800 L 401.08203 800 L 438.06445 800 L 449.17578 800 C 455.33165 800 460.28711 795.04454 460.28711 788.88867 L 460.28711 777.77734 L 460.28711 729.68359 L 460.28711 707.45898 L 460.28711 659.36523 L 460.28711 648.25391 C 460.28711 642.09804 455.33165 637.14258 449.17578 637.14258 L 438.06445 637.14258 L 401.08203 637.14258 L 389.9707 637.14258 z "
       transform="matrix(0.26458333,0,0,0.26458333,0,32.41665)"
       id="rect848" />
  </g>
</svg>
