<?xml version="1.0" encoding="UTF-8" standalone="no"?>
<!-- Created with Inkscape (http://www.inkscape.org/) -->

<svg
   xmlns:dc="http://purl.org/dc/elements/1.1/"
   xmlns:cc="http://creativecommons.org/ns#"
   xmlns:rdf="http://www.w3.org/1999/02/22-rdf-syntax-ns#"
   xmlns:svg="http://www.w3.org/2000/svg"
   xmlns="http://www.w3.org/2000/svg"
   xmlns:sodipodi="http://sodipodi.sourceforge.net/DTD/sodipodi-0.dtd"
   xmlns:inkscape="http://www.inkscape.org/namespaces/inkscape"
   width="1000"
   height="1000"
   viewBox="0 0 264.58333 264.58334"
   version="1.1"
   id="svg8"
   inkscape:version="0.92.4 (5da689c313, 2019-01-14)"
   sodipodi:docname="U.svg">
  <defs
     id="defs2" />
  <sodipodi:namedview
     id="base"
     pagecolor="#ffffff"
     bordercolor="#666666"
     borderopacity="1.0"
     inkscape:pageopacity="0.0"
     inkscape:pageshadow="2"
     inkscape:zoom="0.98994949"
     inkscape:cx="233.5423"
     inkscape:cy="426.63334"
     inkscape:document-units="mm"
     inkscape:current-layer="layer1"
     showgrid="false"
     units="px"
     inkscape:window-width="1600"
     inkscape:window-height="1149"
     inkscape:window-x="0"
     inkscape:window-y="26"
     inkscape:window-maximized="1"
     showguides="true"
     inkscape:guide-bbox="true">
    <sodipodi:guide
       position="0,52.916667"
       orientation="0,1"
       id="guide29"
       inkscape:locked="false"
       inkscape:label=""
       inkscape:color="rgb(0,0,255)" />
    <sodipodi:guide
       position="57.150382,139.09526"
       orientation="0,1"
       id="guide913"
       inkscape:locked="false" />
    <sodipodi:guide
       position="35.605739,52.916672"
       orientation="1,0"
       id="guide1095"
       inkscape:locked="false" />
    <sodipodi:guide
       position="35.605739,203.7292"
       orientation="0,1"
       id="guide1097"
       inkscape:locked="false" />
    <sodipodi:guide
       position="143.32896,52.916672"
       orientation="1,0"
       id="guide1099"
       inkscape:locked="false" />
  </sodipodi:namedview>
  <metadata
     id="metadata5">
    <rdf:RDF>
      <cc:Work
         rdf:about="">
        <dc:format>image/svg+xml</dc:format>
        <dc:type
           rdf:resource="http://purl.org/dc/dcmitype/StillImage" />
        <dc:title />
      </cc:Work>
    </rdf:RDF>
  </metadata>
  <g
     inkscape:label="Layer 1"
     inkscape:groupmode="layer"
     id="layer1"
     transform="translate(0,-32.41665)">
    <path
       style="fill:#010101;fill-opacity:1;fill-rule:nonzero;stroke:#ffffff;stroke-width:0;stroke-miterlimit:4;stroke-dasharray:none;stroke-opacity:1;paint-order:normal"
       d="M 145.68359 230 C 139.52772 230 134.57227 234.95546 134.57227 241.11133 L 134.57227 300.31641 C 134.57227 300.68598 134.594 301.05005 134.62891 301.41016 C 134.59225 302.55273 134.57227 303.7036 134.57227 304.86133 L 134.57227 322.54102 L 134.57227 381.74609 L 134.57227 485.39648 L 134.57227 544.60156 L 134.57227 566.82617 L 134.57227 626.03125 L 134.57227 653.19531 L 134.57227 707.45898 C 134.57227 713.61485 139.52772 718.57227 145.68359 718.57227 L 204.89062 718.57227 C 211.04649 718.57227 216.00195 713.61485 216.00195 707.45898 L 216.00195 648.25391 L 216.00195 626.03125 L 216.00195 566.82617 L 216.00195 544.60156 L 216.00195 485.39648 L 216.00195 381.74609 L 216.00195 322.54102 L 216.00195 304.86133 C 216.00195 303.7036 215.98197 302.55273 215.94531 301.41016 C 215.98022 301.05005 216.00195 300.68598 216.00195 300.31641 L 216.00195 241.11133 C 216.00195 234.95546 211.04649 230 204.89062 230 L 145.68359 230 z M 471.39844 230 C 465.24257 230 460.28711 234.95546 460.28711 241.11133 L 460.28711 300.31641 C 460.28711 300.85988 460.33744 301.38993 460.41211 301.91211 C 460.33696 303.85158 460.28711 305.80386 460.28711 307.78125 L 460.28711 403.96875 L 460.28711 463.17383 L 460.28711 718.57227 L 286.31836 718.57227 L 227.11328 718.57227 C 220.95741 718.57227 216.00195 723.52772 216.00195 729.68359 L 216.00195 788.88867 C 216.00195 795.04454 220.95741 800 227.11328 800 L 286.31836 800 L 523.13867 800 L 530.60352 800 C 536.75939 800 541.71484 795.04454 541.71484 788.88867 L 541.71484 729.68359 C 541.71484 729.14051 541.66441 728.60972 541.58984 728.08789 C 541.66499 726.14842 541.71484 724.19614 541.71484 722.21875 L 541.71484 463.17383 L 541.71484 403.96875 L 541.71484 307.78125 C 541.71484 305.80386 541.66499 303.85158 541.58984 301.91211 C 541.66451 301.38993 541.71484 300.85988 541.71484 300.31641 L 541.71484 241.11133 C 541.71484 234.95546 536.75939 230 530.60352 230 L 501.00195 230 L 471.39844 230 z "
       transform="matrix(0.26458333,0,0,0.26458333,0,32.41665)"
       id="rect846" />
  </g>
</svg>
