<?xml version="1.0" encoding="UTF-8" standalone="no"?>
<!-- Created with Inkscape (http://www.inkscape.org/) -->

<svg
   xmlns:dc="http://purl.org/dc/elements/1.1/"
   xmlns:cc="http://creativecommons.org/ns#"
   xmlns:rdf="http://www.w3.org/1999/02/22-rdf-syntax-ns#"
   xmlns:svg="http://www.w3.org/2000/svg"
   xmlns="http://www.w3.org/2000/svg"
   xmlns:sodipodi="http://sodipodi.sourceforge.net/DTD/sodipodi-0.dtd"
   xmlns:inkscape="http://www.inkscape.org/namespaces/inkscape"
   width="1000"
   height="1000"
   viewBox="0 0 264.58333 264.58334"
   version="1.1"
   id="svg8"
   inkscape:version="0.92.4 (5da689c313, 2019-01-14)"
   sodipodi:docname="W.svg">
  <defs
     id="defs2" />
  <sodipodi:namedview
     id="base"
     pagecolor="#ffffff"
     bordercolor="#666666"
     borderopacity="1.0"
     inkscape:pageopacity="0.0"
     inkscape:pageshadow="2"
     inkscape:zoom="0.98994949"
     inkscape:cx="223.44078"
     inkscape:cy="536.73997"
     inkscape:document-units="mm"
     inkscape:current-layer="layer1"
     showgrid="false"
     units="px"
     inkscape:window-width="1600"
     inkscape:window-height="1149"
     inkscape:window-x="0"
     inkscape:window-y="26"
     inkscape:window-maximized="1"
     showguides="true"
     inkscape:guide-bbox="true">
    <sodipodi:guide
       position="0,52.916667"
       orientation="0,1"
       id="guide29"
       inkscape:locked="false"
       inkscape:label=""
       inkscape:color="rgb(0,0,255)" />
    <sodipodi:guide
       position="57.150382,139.09526"
       orientation="0,1"
       id="guide913"
       inkscape:locked="false" />
    <sodipodi:guide
       position="35.605739,52.916672"
       orientation="1,0"
       id="guide1095"
       inkscape:locked="false" />
    <sodipodi:guide
       position="35.605739,203.7292"
       orientation="0,1"
       id="guide1097"
       inkscape:locked="false" />
    <sodipodi:guide
       position="143.32896,52.916672"
       orientation="1,0"
       id="guide1099"
       inkscape:locked="false" />
  </sodipodi:namedview>
  <metadata
     id="metadata5">
    <rdf:RDF>
      <cc:Work
         rdf:about="">
        <dc:format>image/svg+xml</dc:format>
        <dc:type
           rdf:resource="http://purl.org/dc/dcmitype/StillImage" />
        <dc:title />
      </cc:Work>
    </rdf:RDF>
  </metadata>
  <g
     inkscape:label="Layer 1"
     inkscape:groupmode="layer"
     id="layer1"
     transform="translate(0,-32.41665)">
    <path
       style="fill:#010101;fill-opacity:1;fill-rule:nonzero;stroke:#ffffff;stroke-width:0;stroke-miterlimit:4;stroke-dasharray:none;stroke-opacity:1;paint-order:normal"
       d="M 145.68359 230 C 139.52772 230 134.57227 234.95546 134.57227 241.11133 L 134.57227 300.31641 C 134.57227 300.85926 134.62472 301.38854 134.69922 301.91016 C 134.62402 303.85027 134.57227 305.80319 134.57227 307.78125 L 134.57227 322.54102 L 134.57227 381.74609 L 134.57227 403.96875 L 134.57227 463.17383 L 134.57227 566.82617 L 134.57227 626.03125 L 134.57227 648.25391 L 134.57227 707.45898 L 134.57227 722.21875 C 134.57227 724.19615 134.62407 726.14841 134.69922 728.08789 C 134.62464 728.60975 134.57227 729.14047 134.57227 729.68359 L 134.57227 788.88867 C 134.57227 795.04454 139.52772 800 145.68359 800 L 175.28711 800 L 204.89062 800 L 227.11328 800 L 286.31836 800 C 292.47423 800 297.42969 795.04454 297.42969 788.88867 L 297.42969 729.68359 C 297.42969 723.52772 292.47423 718.57227 286.31836 718.57227 L 227.11328 718.57227 L 216.00195 718.57227 L 216.00195 707.45898 L 216.00195 648.25391 L 216.00195 626.03125 L 216.00195 566.82617 L 216.00195 463.17383 L 216.00195 403.96875 L 216.00195 381.74609 L 216.00195 322.54102 L 216.00195 307.78125 C 216.00195 305.80185 215.9503 303.84765 215.875 301.90625 C 215.94914 301.38585 216.00195 300.85793 216.00195 300.31641 L 216.00195 241.11133 C 216.00195 234.95546 211.04649 230 204.89062 230 L 145.68359 230 z M 471.39844 230 C 465.24257 230 460.28711 234.95546 460.28711 241.11133 L 460.28711 300.31641 L 460.28711 648.94336 L 460.28711 707.45898 C 460.28711 713.61485 465.24257 718.57227 471.39844 718.57227 L 530.60352 718.57227 C 536.75939 718.57227 541.71484 713.61485 541.71484 707.45898 L 541.71484 648.25391 L 541.71484 296.20312 L 541.71484 241.11133 C 541.71484 234.95546 536.75939 230 530.60352 230 L 471.39844 230 z M 308.54102 637.14258 C 302.38515 637.14258 297.42969 642.09804 297.42969 648.25391 L 297.42969 707.45898 C 297.42969 713.61485 302.38515 718.57227 308.54102 718.57227 L 367.74609 718.57227 C 373.90196 718.57227 378.85938 713.61485 378.85938 707.45898 L 378.85938 648.25391 C 378.85937 642.09804 373.90196 637.14258 367.74609 637.14258 L 308.54102 637.14258 z M 389.9707 718.57227 C 383.81483 718.57227 378.85938 723.52772 378.85938 729.68359 L 378.85938 788.88867 C 378.85938 795.04454 383.81483 800 389.9707 800 L 449.17578 800 C 455.33165 800 460.28711 795.04454 460.28711 788.88867 L 460.28711 729.68359 C 460.28711 723.52772 455.33165 718.57227 449.17578 718.57227 L 389.9707 718.57227 z "
       transform="matrix(0.26458333,0,0,0.26458333,0,32.41665)"
       id="rect846" />
  </g>
</svg>
