<?xml version="1.0" encoding="UTF-8" standalone="no"?>
<!-- Created with Inkscape (http://www.inkscape.org/) -->

<svg
   xmlns:dc="http://purl.org/dc/elements/1.1/"
   xmlns:cc="http://creativecommons.org/ns#"
   xmlns:rdf="http://www.w3.org/1999/02/22-rdf-syntax-ns#"
   xmlns:svg="http://www.w3.org/2000/svg"
   xmlns="http://www.w3.org/2000/svg"
   xmlns:sodipodi="http://sodipodi.sourceforge.net/DTD/sodipodi-0.dtd"
   xmlns:inkscape="http://www.inkscape.org/namespaces/inkscape"
   width="1000"
   height="1000"
   viewBox="0 0 264.58333 264.58334"
   version="1.1"
   id="svg8"
   inkscape:version="0.92.4 (5da689c313, 2019-01-14)"
   sodipodi:docname="Y.svg">
  <defs
     id="defs2" />
  <sodipodi:namedview
     id="base"
     pagecolor="#ffffff"
     bordercolor="#666666"
     borderopacity="1.0"
     inkscape:pageopacity="0.0"
     inkscape:pageshadow="2"
     inkscape:zoom="0.98994949"
     inkscape:cx="312.3342"
     inkscape:cy="545.83134"
     inkscape:document-units="mm"
     inkscape:current-layer="layer1"
     showgrid="false"
     units="px"
     inkscape:window-width="1600"
     inkscape:window-height="1149"
     inkscape:window-x="0"
     inkscape:window-y="26"
     inkscape:window-maximized="1"
     showguides="true"
     inkscape:guide-bbox="true">
    <sodipodi:guide
       position="0,52.916667"
       orientation="0,1"
       id="guide29"
       inkscape:locked="false"
       inkscape:label=""
       inkscape:color="rgb(0,0,255)" />
    <sodipodi:guide
       position="57.150382,139.09526"
       orientation="0,1"
       id="guide913"
       inkscape:locked="false" />
    <sodipodi:guide
       position="35.605739,52.916672"
       orientation="1,0"
       id="guide1095"
       inkscape:locked="false" />
    <sodipodi:guide
       position="35.605739,203.7292"
       orientation="0,1"
       id="guide1097"
       inkscape:locked="false" />
    <sodipodi:guide
       position="143.32896,52.916672"
       orientation="1,0"
       id="guide1099"
       inkscape:locked="false" />
  </sodipodi:namedview>
  <metadata
     id="metadata5">
    <rdf:RDF>
      <cc:Work
         rdf:about="">
        <dc:format>image/svg+xml</dc:format>
        <dc:type
           rdf:resource="http://purl.org/dc/dcmitype/StillImage" />
        <dc:title />
      </cc:Work>
    </rdf:RDF>
  </metadata>
  <g
     inkscape:label="Layer 1"
     inkscape:groupmode="layer"
     id="layer1"
     transform="translate(0,-32.41665)">
    <path
       style="fill:#010101;fill-opacity:1;fill-rule:nonzero;stroke:#ffffff;stroke-width:0;stroke-miterlimit:4;stroke-dasharray:none;stroke-opacity:1;paint-order:normal"
       d="M 145.68359 230 C 139.52772 230 134.57227 234.95546 134.57227 241.11133 L 134.57227 300.31641 L 134.57227 403.96875 L 134.57227 440.95117 L 134.57227 463.17383 C 134.57227 469.3297 139.52772 474.28516 145.68359 474.28516 L 167.9082 474.28516 L 204.89062 474.28516 L 227.11328 474.28516 L 286.31836 474.28516 C 292.47423 474.28516 297.42969 469.3297 297.42969 463.17383 L 297.42969 403.96875 C 297.42969 397.81288 292.47423 392.85742 286.31836 392.85742 L 227.11328 392.85742 L 216.00195 392.85742 L 216.00195 263.33398 L 216.00195 241.11133 C 216.00195 234.95546 211.04649 230 204.89062 230 L 145.68359 230 z M 471.39844 230 C 465.24257 230 460.28711 234.95546 460.28711 241.11133 L 460.28711 300.31641 L 460.28711 370.63281 L 460.28711 381.74609 C 460.28711 387.90196 465.24257 392.85742 471.39844 392.85742 L 530.60352 392.85742 C 536.75939 392.85742 541.71484 387.90196 541.71484 381.74609 L 541.71484 322.54102 L 541.71484 252.22266 L 541.71484 241.11133 C 541.71484 234.95546 536.75939 230 530.60352 230 L 471.39844 230 z M 389.9707 392.85742 C 383.81483 392.85742 378.85938 397.81288 378.85938 403.96875 L 378.85938 463.17383 C 378.85938 469.3297 383.81483 474.28516 389.9707 474.28516 L 449.17578 474.28516 C 455.33165 474.28516 460.28711 469.3297 460.28711 463.17383 L 460.28711 403.96875 C 460.28711 397.81288 455.33165 392.85742 449.17578 392.85742 L 389.9707 392.85742 z M 308.54102 474.28516 C 302.38515 474.28516 297.42969 479.24061 297.42969 485.39648 L 297.42969 544.60156 L 297.42969 648.25391 L 297.42969 707.45898 L 297.42969 744.55273 L 297.42969 788.88867 C 297.42969 795.04454 302.38515 800 308.54102 800 L 367.74609 800 C 373.90196 800 378.85938 795.04454 378.85938 788.88867 L 378.85938 729.68359 L 378.85938 707.45898 L 378.85938 648.25391 L 378.85938 516.99414 L 378.85938 485.39648 C 378.85937 479.24061 373.90196 474.28516 367.74609 474.28516 L 308.54102 474.28516 z "
       transform="matrix(0.26458333,0,0,0.26458333,0,32.41665)"
       id="rect846" />
  </g>
</svg>
