<?xml version="1.0" encoding="UTF-8" standalone="no"?>
<!-- Created with Inkscape (http://www.inkscape.org/) -->

<svg
   xmlns:dc="http://purl.org/dc/elements/1.1/"
   xmlns:cc="http://creativecommons.org/ns#"
   xmlns:rdf="http://www.w3.org/1999/02/22-rdf-syntax-ns#"
   xmlns:svg="http://www.w3.org/2000/svg"
   xmlns="http://www.w3.org/2000/svg"
   xmlns:sodipodi="http://sodipodi.sourceforge.net/DTD/sodipodi-0.dtd"
   xmlns:inkscape="http://www.inkscape.org/namespaces/inkscape"
   width="1000"
   height="1000"
   viewBox="0 0 264.58333 264.58334"
   version="1.1"
   id="svg8"
   inkscape:version="0.92.4 (5da689c313, 2019-01-14)"
   sodipodi:docname="Z.svg">
  <defs
     id="defs2" />
  <sodipodi:namedview
     id="base"
     pagecolor="#ffffff"
     bordercolor="#666666"
     borderopacity="1.0"
     inkscape:pageopacity="0.0"
     inkscape:pageshadow="2"
     inkscape:zoom="0.98994949"
     inkscape:cx="193.1362"
     inkscape:cy="437.74502"
     inkscape:document-units="mm"
     inkscape:current-layer="layer1"
     showgrid="false"
     units="px"
     inkscape:window-width="1600"
     inkscape:window-height="1149"
     inkscape:window-x="0"
     inkscape:window-y="26"
     inkscape:window-maximized="1"
     showguides="true"
     inkscape:guide-bbox="true">
    <sodipodi:guide
       position="0,52.916667"
       orientation="0,1"
       id="guide29"
       inkscape:locked="false"
       inkscape:label=""
       inkscape:color="rgb(0,0,255)" />
    <sodipodi:guide
       position="57.150382,139.09526"
       orientation="0,1"
       id="guide913"
       inkscape:locked="false" />
    <sodipodi:guide
       position="35.605739,52.916672"
       orientation="1,0"
       id="guide1095"
       inkscape:locked="false" />
    <sodipodi:guide
       position="35.605739,203.7292"
       orientation="0,1"
       id="guide1097"
       inkscape:locked="false" />
    <sodipodi:guide
       position="143.32896,52.916672"
       orientation="1,0"
       id="guide1099"
       inkscape:locked="false" />
  </sodipodi:namedview>
  <metadata
     id="metadata5">
    <rdf:RDF>
      <cc:Work
         rdf:about="">
        <dc:format>image/svg+xml</dc:format>
        <dc:type
           rdf:resource="http://purl.org/dc/dcmitype/StillImage" />
        <dc:title />
      </cc:Work>
    </rdf:RDF>
  </metadata>
  <g
     inkscape:label="Layer 1"
     inkscape:groupmode="layer"
     id="layer1"
     transform="translate(0,-32.41665)">
    <path
       style="fill:#010101;fill-opacity:1;fill-rule:nonzero;stroke:#ffffff;stroke-width:0;stroke-miterlimit:4;stroke-dasharray:none;stroke-opacity:1;paint-order:normal"
       d="M 145.68359 230 C 139.52772 230 134.57227 234.95546 134.57227 241.11133 L 134.57227 300.31641 C 134.57227 306.47228 139.52772 311.42773 145.68359 311.42773 L 204.89062 311.42773 L 420.27539 311.42773 L 449.17578 311.42773 C 455.33165 311.42773 460.28711 306.47228 460.28711 300.31641 L 460.28711 241.11133 C 460.28711 234.95546 455.33165 230 449.17578 230 L 420.27539 230 L 204.89062 230 L 145.68359 230 z M 471.39844 311.42773 C 465.24257 311.42773 460.28711 316.38515 460.28711 322.54102 L 460.28711 381.74609 L 460.28711 474.28516 L 204.89062 474.28516 L 145.68359 474.28516 C 139.52772 474.28516 134.57227 479.24061 134.57227 485.39648 L 134.57227 544.60156 C 134.57227 545.31258 134.64504 546.00648 134.77148 546.67969 C 134.64078 547.99111 134.57227 549.32101 134.57227 550.66797 L 134.57227 566.82617 L 134.57227 626.03125 L 134.57227 760.59961 L 134.57227 788.88867 C 134.57227 789.27341 134.59306 789.65289 134.63086 790.02734 C 134.70646 790.77624 134.85451 791.50249 135.07031 792.19922 C 136.36511 796.37958 140.05153 799.48976 144.54492 799.94336 C 144.91937 799.98116 145.29885 800 145.68359 800 C 145.68359 800 145.68555 800 145.68555 800 L 204.89062 800 L 530.60352 800 C 535.22042 800 539.16333 797.21153 540.8457 793.2207 C 541.1261 792.55557 541.3427 791.85746 541.49023 791.13281 C 541.63777 790.40817 541.71484 789.65816 541.71484 788.88867 L 541.71484 729.68359 C 541.71484 728.91411 541.63777 728.16215 541.49023 727.4375 C 541.3427 726.71285 541.1261 726.01475 540.8457 725.34961 C 539.16333 721.35878 535.22042 718.57227 530.60352 718.57227 L 216.00195 718.57227 L 216.00195 626.03125 L 216.00195 566.82617 L 216.00195 555.71484 L 493.62305 555.71484 L 530.60352 555.71484 C 536.75939 555.71484 541.71484 550.75743 541.71484 544.60156 L 541.71484 522.37891 L 541.71484 485.39648 L 541.71484 344.76367 L 541.71484 322.54102 C 541.71484 316.38515 536.75939 311.42773 530.60352 311.42773 L 471.39844 311.42773 z "
       transform="matrix(0.26458333,0,0,0.26458333,0,32.41665)"
       id="rect846" />
  </g>
</svg>
